/* XPM */
static char *result[] = {
/* columns rows colors chars-per-pixel */
"32 32 121 2 ",
"   c #3B2B32",
".  c #3B2C32",
"X  c #3B2D32",
"o  c #3C2D33",
"O  c #3C2E33",
"+  c #3D2D35",
"@  c #3C2E34",
"#  c #3D2E34",
"$  c #3D2F34",
"%  c #3D2E35",
"&  c #3D2F35",
"*  c #3E2E35",
"=  c #3E2F35",
"-  c #3E2E36",
";  c #3E2F36",
":  c #3F2F36",
">  c #3F2F37",
",  c #3F3037",
"<  c #5C362E",
"1  c #5F372E",
"2  c #473132",
"3  c #413137",
"4  c #443135",
"5  c #463236",
"6  c #493235",
"7  c #493336",
"8  c #4F3534",
"9  c #533432",
"0  c #533532",
"q  c #553633",
"w  c #543534",
"e  c #553534",
"r  c #553634",
"t  c #593733",
"y  c #5B3833",
"u  c #5E3831",
"i  c #5F3A32",
"p  c #63392F",
"a  c #66382C",
"s  c #66392C",
"d  c #67392D",
"f  c #683A2D",
"g  c #683B2D",
"h  c #683B2E",
"j  c #683A2F",
"k  c #683B2F",
"l  c #623A31",
"z  c #643B31",
"x  c #663B31",
"c  c #643B32",
"v  c #693B30",
"b  c #693C30",
"n  c #693D30",
"m  c #6A3C30",
"M  c #6B3D30",
"N  c #6B3D31",
"B  c #6B3E30",
"V  c #6D3F30",
"C  c #6E3F31",
"Z  c #7B4025",
"A  c #7C4026",
"S  c #73402F",
"D  c #76402F",
"F  c #73442E",
"G  c #7A4229",
"H  c #7A442A",
"J  c #79422F",
"K  c #7A462C",
"L  c #78492F",
"P  c #6D4031",
"I  c #734431",
"U  c #764731",
"Y  c #764830",
"T  c #774832",
"R  c #7B4830",
"E  c #784A30",
"W  c #794B32",
"Q  c #784A33",
"!  c #7A4B32",
"~  c #7B4B32",
"^  c #7A4B33",
"/  c #7A4C32",
"(  c #7E4C32",
")  c #7F4D33",
"_  c #844529",
"`  c #864529",
"'  c #80482E",
"]  c #884A29",
"[  c #91512F",
"{  c #9A572D",
"}  c #804D33",
"|  c #824D32",
" . c #864E32",
".. c #884E30",
"X. c #894F31",
"o. c #825334",
"O. c #895031",
"+. c #895232",
"@. c #885934",
"#. c #A7572B",
"$. c #B65B29",
"%. c #A45534",
"&. c #B06237",
"*. c #EF6A1F",
"=. c #C55F27",
"-. c #D05F23",
";. c #CA6026",
":. c #D56324",
">. c #D76425",
",. c #E46721",
"<. c #EA6920",
"1. c #EB6F23",
"2. c #F26B20",
"3. c #F26D20",
"4. c #F37624",
"5. c #F27A25",
"6. c #BA883B",
"7. c #F48028",
"8. c #ECB13E",
"9. c #F3BC40",
"0. c #FBC442",
/* pixels */
", , , , , , , , , , , , , , , , , , > o       + , , , , , , , , ",
", , , , , , , , , , , , , , , , , , > o . . . % , , , , , , , , ",
", , , , , , , , , , , , , , , , , , > ; - - - > , , , , , , , , ",
", , , , , , , , , , , , , , , , , , , , , , , , , , , , , , , , ",
", , , , , , , , , , , , , , , , , , , , , , , , , , , , , , , , ",
"> , > , , , , , , , , , , , , , , , > , , > , , , , , , , , , , ",
"# $ > , , , , , , , , , , i b b b b v 2 $ > , , , , , , , , , , ",
"  . - , , , , , , 5 i i i x b b b b v 1 < u i 3 , , , , , , , , ",
"  . - , , , , , 7 t b b b b b b b b v h h v b q 4 , , , , , , , ",
"  . - , , , , , r b b b b D S C J V n b b b b b 6 , , , , , , , ",
"o O : , , , , , r b b b b -.$.X.<.| B b b b b b 6 , , , , , , , ",
"> , > , , , , , r b b b Q } ( ~ O.,...P b b b b 6 , , , , , , , ",
", , , , , , , y z b N U / ! #.:.>.*.X.T I b b b l 8 , > ; - - - ",
", , , , , , , c b b B ! ! [ =.2.3.7.+.! U b b b b w , ; X . . . ",
", > , > > , > c b b B ! ! ;.1.4.5.8.@.! U b b b b w , - .       ",
", > o . . X % c b b B ! ! ! 6.0.9.o.! ! U b b b b w , - .       ",
", > o     . + c v v M ! ! G ] { &.%.) ! U b b b b w , ; X . . . ",
", > o     . + c j s g L L R H A _  .~ ! U b b b b w , > , > > > ",
", > o . . X % y p a f F E ! K Z Z ! ! T I b b b l 8 , , , , , , ",
", > ; - - ; > , 9 a a a Y W ' ` ` ~ ^ P b b b b 6 , , , , , , , ",
", , , , , , , , 0 s s s d U ! ! ! ! B b b b b b 6 , , , , , , , ",
", , , , , , , , e j j j k m B B B B n b b b b b 6 , , , , , , , ",
", , , , , , , , 7 t b b b b b b b b b b b b b q 4 , , , , , , , ",
", , , > $ # # # = 5 i i i x b b b b b l i i i 3 , , , , , , , , ",
", , , > o       # , , , , i b b b b b 6 , , , , , , , , , , , , ",
", , , > o       # , , , , , , , , , , , > % + - , , , > % + + + ",
", , , > o       # , , , , , , , , , , , > o . % , , , ; X . . . ",
", , , > @ o o o & , , , , , , , , , , , > @ o * , , , - .       ",
", , , > , > > > , , , , , , , , , , , , > , > > , , , - .       ",
", , , , , , , , , , , , , , , , , , , , , , , , , , , : O o o o ",
", , , , , , , , , , , , , , , , , , , , , , , , , , , > , > > > ",
", , , , , , , , , , , , , , , , , , , , , , , , , , , , , , , , "
};
