/* XPM */
static char *result[] = {
/* columns rows colors chars-per-pixel */
"32 32 56 1 ",
"  c black",
". c #020202",
"X c gray5",
"o c #0E0E0E",
"O c gray7",
"+ c gray16",
"@ c #2A2A2A",
"# c #2C2C2C",
"$ c #2D2D2D",
"% c #2F2F2F",
"& c #313131",
"* c #323232",
"= c #343434",
"- c #353535",
"; c gray21",
": c #373737",
"> c gray22",
", c gray24",
"< c #3E3E3E",
"1 c #414141",
"2 c #434343",
"3 c #444444",
"4 c gray27",
"5 c #464646",
"6 c gray28",
"7 c #4C4C4C",
"8 c gray30",
"9 c gray31",
"0 c gray32",
"q c #535353",
"w c gray33",
"e c #565656",
"r c gray34",
"t c #585858",
"y c gray35",
"u c #5A5A5A",
"i c #5D5D5D",
"p c #646464",
"a c #656565",
"s c gray40",
"d c #676767",
"f c #686868",
"g c gray43",
"h c gray44",
"j c #868686",
"k c gray53",
"l c #888888",
"z c #898989",
"x c gray54",
"c c #8B8B8B",
"v c gray55",
"b c #8D8D8D",
"n c #8E8E8E",
"m c #909090",
"M c gray57",
"N c #929292",
/* pixels */
"                                ",
" .oOOOOOOOOOOOOOOOOOOOOOOOOOOOOO",
" Xqggggggggggggggggggggggggggggg",
" OgMbcccccccvvvvvvvvvvvvvvvvvbMN",
" Ogbr222222257777777777777777izN",
" Ogc2+++@@@@$=-------:>>>>>:-7jN",
" Ogc2+++#%%%&=------;6888886;7jN",
" Ogc2+++%----------->yaaaaay>7jN",
" Ogc2+#%*----------->yaaaaay>7jN",
" Ogc2@%------------->yaaaaay>7jN",
" Ogc2@%-----:<<<<<<:>yaaaaay>7jN",
" Ogc2@%-----,weeeew,>yaaaaay>7jN",
" Ogc2@%-----<etttte<>yaaaaay>7jN",
" Ogc2@%-----<etttte<>yaaaaay>7jN",
" Ogc4$*::::-<etttte<>yaaaaay>7jN",
" Ogbr344441;<etttte<>yaaaaay>7jN",
" Ogbu666662;<etttte<>yaaaaay>7jN",
" Ogbu666662;<etttte<>yaaaaay>7jN",
" Ogbu666662;<etttte<>yaaaaay>7jN",
" Ogbu666662;<etttte<>yaaaaay>7jN",
" Ogbu666662;<etttte<>yaaaaay>7jN",
" Ogbu666662;<etttte<>yaaaaay>7jN",
" Ogbu666662;<etttte<>yaaaaay>7jN",
" Ogbu666662;<etttte<>yaaaaay>7jN",
" Ogbu666662;<etttte<>yaaaaay>7jN",
" Ogbu666662;<etttte<>yaaaaay>7jN",
" Ogbu666662;<etttte<>yaaaaay>7jN",
" Ogbu666662;<etttte<>yaaaaay>7jN",
" Ogbu666662;<etttte<>yaaaaay>7jN",
" Ognfuuuuur80pssssp09dhhhhhd9izN",
" OgMxlllllkjkcccccckjxvvvvvxjzmN",
" OgNNNNNNNNNNNNNNNNNNNNNNNNNNNNN"
};
