/* XPM */
static char *result[] = {
/* columns rows colors chars-per-pixel */
"32 32 18 1 ",
"  c #3B2B32",
". c #3B2C32",
"X c #3B2D32",
"o c #3C2D33",
"O c #3C2E33",
"+ c #3D2D35",
"@ c #3C2E34",
"# c #3D2E34",
"$ c #3D2F34",
"% c #3D2E35",
"& c #3D2F35",
"* c #3E2E35",
"= c #3E2F35",
"- c #3E2E36",
"; c #3E2F36",
": c #3F2F36",
"> c #3F2F37",
", c #3F3037",
/* pixels */
",,,,,,,,,,,,,,,,,,>o   +,,,,,,,,",
",,,,,,,,,,,,,,,,,,>o...%,,,,,,,,",
",,,,,,,,,,,,,,,,,,>;--->,,,,,,,,",
",,,,,,,,,,,,,,,,,,,,,,,,,,,,,,,,",
",,,,,,,,,,,,,,,,,,,,,,,,,,,,,,,,",
">,>,,,,,,,,,,,,,,,>,,>,,,,,,,,,,",
"#$>,,,,,,,,,,,,,,,>$$>,,,,,,,,,,",
" .-,,,,,,,,,,,,,,,>o.-,,,,,,,,,,",
" .-,,,,,,,,,,,,,,,>$$>,,,,,,,,,,",
" .-,,,,,,,,,,,,,,,,,,,,,,,,,,,,,",
"oO:,,,,,,,,,,,,,,,,,,,,,,,,,,,,,",
">,>,,,,,,,,,,,,,,,,,,,,,,,,,,,,,",
",,,,,,,,,,,,,,,,,,,,,,,,,,,>;---",
",,,,,,,,,,,,,,,,,,,,,,,,,,,;X...",
",>,>>,>,,,,,,,,,,,,,,,,,,,,-.   ",
",>o..X%,,,,,,,,,,,,,,,,,,,,-.   ",
",>o  .+,>>>>,>,,,,,,,,,,,,,;X...",
",>o  .+,%...o>,,,,,,,,,,,,,>,>>>",
",>o..X%,+   o>,,,,,,,,,,,,,,,,,,",
",>;--;>,+   o>,,,,,,,,,,,,,,,,,,",
",,,,,,,,%...o>,,,,,,,,,,,,,,,,,,",
",,,,,,,,>---;>,,,,,,,,,,,,,,,,,,",
",,,,,,,,,,,,,,,,,,,,,,,,,,,,,,,,",
",,,>$###=,,,,,,,,,,,,,,,,,,,,,,,",
",,,>o   #,,,,,,,,,,,,,,,,,,,,,,,",
",,,>o   #,,,,,,,,,,,>%+-,,,>%+++",
",,,>o   #,,,,,,,,,,,>o.%,,,;X...",
",,,>@ooo&,,,,,,,,,,,>@o*,,,-.   ",
",,,>,>>>,,,,,,,,,,,,>,>>,,,-.   ",
",,,,,,,,,,,,,,,,,,,,,,,,,,,:Oooo",
",,,,,,,,,,,,,,,,,,,,,,,,,,,>,>>>",
",,,,,,,,,,,,,,,,,,,,,,,,,,,,,,,,"
};
