/* XPM */
static char *result[] = {
/* columns rows colors chars-per-pixel */
"32 32 41 1 ",
"  c #0B0A09",
". c #1F1413",
"X c #241C1F",
"o c #281C1A",
"O c #2C201E",
"+ c #2C2226",
"@ c #2C2327",
"# c #2D2327",
"$ c #2E2329",
"% c #2E2429",
"& c #3B2723",
"* c #3B312E",
"= c #3B2B32",
"- c #3B2C32",
"; c #3B2D32",
": c #3C2D33",
"> c #3C2E33",
", c #3D2D35",
"< c #3C2E34",
"1 c #3D2E34",
"2 c #3D2F34",
"3 c #3D2E35",
"4 c #3E2E35",
"5 c #3E2F35",
"6 c #3E2E36",
"7 c #3E2F36",
"8 c #3F2F36",
"9 c #3F2F37",
"0 c #3F3037",
"q c #432E2B",
"w c #433B2E",
"e c #503935",
"r c #333F47",
"t c #455058",
"y c #5B6B4E",
"u c #A45555",
"i c #748369",
"p c #B29C86",
"a c #C79182",
"s c #DCA594",
"d c #D2C0AE",
/* pixels */
"0000000000000000009:===,00000000",
"0000000000000  00 9:---300000000",
"0000000000   &&  & 7666900000000",
"000000000 &&&ee&&e& 000000000000",
"0000000000 eeeeeeeee 00000000000",
"909000000 eeeeeeeeee& 0000000000",
"129000000 eee&&e&eee&& 000000000",
"=-600000 &&eea&eaeeee 0000000000",
"=-6000000 &eaaaeaaeee 0000000000",
"=-6000000 eea sas a&ee 000000000",
":>800000 qeua.sss.auq 0000000000",
"909000000 qqasssssaqq 0000000000",
"0000000000 qqasssaqq 00000097666",
"00000000000 q aaa q 00000007;---",
"0909909000 OyOpppOyO 0000006-===",
"09:--;3000 Oy*ddp*yO 0000006-===",
"09:==-,09 OOi*ddd*iOO 000007;---",
"09:==-,03 *Oy*pdd*yO* 0000090999",
"09:--;30 ** O*dpd*O ** 000000000",
"09766790 sa OOrrrOO as 000000000",
"000000003   rrrrrrr   0000000000",
"00000000966 rtttttr 000000000000",
"00000000000 rttrttr 000000000000",
"00092111500 rtr rtr 000000000000",
"0009:===100 rr 0 rr 000000000000",
"0009:===100 ww 0 oo 93,600093,,,",
"0009:===1000  00 ww 9:-30007;---",
"0009<:::#%%%XX%%%XX%$@+40006-===",
"000909990%%%%%%%%%%%$%990006-===",
"0000000000000000000000000008>:::",
"00000000000000000000000000090999",
"00000000000000000000000000000000"
};
