/* XPM */
static char *result[] = {
/* columns rows colors chars-per-pixel */
"32 32 102 2 ",
"   c #282F3F",
".  c #293041",
"X  c #293142",
"o  c #2A3243",
"O  c #2B3344",
"+  c #2B3345",
"@  c #2C3345",
"#  c #2C3445",
"$  c #2C3446",
"%  c #2F384C",
"&  c #30384B",
"*  c #30394D",
"=  c #31394D",
"-  c #303A4E",
";  c #313A4E",
":  c #313A4F",
">  c #323A4E",
",  c #323A4F",
"<  c #333C50",
"1  c #333D51",
"2  c #343D51",
"3  c #343D52",
"4  c #343D53",
"5  c #353D53",
"6  c #343E52",
"7  c #353E52",
"8  c #353E53",
"9  c #343E54",
"0  c #353F54",
"q  c #364055",
"w  c #374056",
"e  c #374157",
"r  c #374158",
"t  c #374159",
"y  c #394259",
"u  c #394359",
"i  c #38425A",
"p  c #39425A",
"a  c #39435B",
"s  c #3A455C",
"d  c #3B465E",
"f  c #3C465F",
"g  c #3E4861",
"h  c #3E4964",
"j  c #3F4964",
"k  c #3F4A65",
"l  c #404B67",
"z  c #424C66",
"x  c #404B68",
"c  c #434E6A",
"v  c #424E6B",
"b  c #434F6B",
"n  c #434F6C",
"m  c #444F6D",
"M  c #44506E",
"N  c #44506F",
"B  c #44516F",
"V  c #455270",
"C  c #455271",
"Z  c #465271",
"A  c #465272",
"S  c #475373",
"D  c #475473",
"F  c #485470",
"G  c #485473",
"H  c #485474",
"J  c #485575",
"K  c #495575",
"L  c #485676",
"P  c #495676",
"I  c #495777",
"U  c #4A5777",
"Y  c #4E5A77",
"T  c #4A5878",
"R  c #4C5A7A",
"E  c #4D5A7B",
"W  c #4F5C79",
"Q  c #4F5C7D",
"!  c #525E7C",
"~  c #505D7E",
"^  c #515E7F",
"/  c #526081",
"(  c #536182",
")  c #546180",
"_  c #546281",
"`  c #556281",
"'  c #556283",
"]  c #566383",
"[  c #556284",
"{  c #576586",
"}  c #576687",
"|  c #586587",
" . c #596788",
".. c #596789",
"X. c #59698A",
"o. c #5A688A",
"O. c #5B688B",
"+. c #5A698B",
"@. c #5B6A8C",
"#. c #5B6B8D",
"$. c #5C6A8C",
"%. c #5C6B8D",
/* pixels */
"%.o.E J J J J J J J J J E @.{ u u { @.E J J J J J J J J J J J J ",
"] ) G M M M M M B C V N G ` ! w w ! ` G M M M M M B V V N M M M ",
"8 7 ; * * * * * 9 a r - ; 7 2 $ $ 2 7 ; * * * * * 9 p r - * * * ",
"O O O O O O O O & 3 : @ O O O O O O O O O O O O O & 1 : @ O O O ",
"W W W W W W W W z 3 s Y W W W W W W W W W W W W W z 0 s Y W W W ",
"%.%.$.@.@.@.#.%.F 3 g o.#.@.@.@.@.@.@.@.@.@.@.#.%.F q g o.#.@.@.",
"%.@.[ / / / } %.F 3 g o.X./ / / / / / / / / / } %.F q g o.X.( / ",
"%.o.E J J P / %.F 3 g o.} P J J J J J J J J J / %.F q g o.} T J ",
"/ ^ T J J P E / c 3 d ~ ~ P J J J J J J J J J E / c q d ~ ~ I J ",
"J J J J J J J J h 3 a S J J J J J J J J J J J J J h 0 a S J J J ",
"l l l l l l l l i = 5 k l l x b b x l l l l l l l i , 5 k l l l ",
"o o o o o o o o X . . o o o + 6 6 + o o o o o o o X . . o o o o ",
"8 8 8 8 8 8 8 8 8 8 8 8 8 8 8 3 3 8 8 8 8 8 8 8 8 8 8 8 8 8 8 8 ",
" . . . . . . . . . . . . . ._ y y _  . . . . . . . . . . . . . .",
"%.%.O.o.o.o.o.o.o.o.o.o.O.%.{ u u { %.O.o.o.o.o.o.o.o.o.o.o.o.o.",
"%.+.Q T T T T T T T T T Q @.{ u u { @.Q T T T T T T T T T T T T ",
"o.| R J J J J J J J J J R ..' u u ' ..R J J J J J J J J J J J J ",
"T U L J J J J J J J J J L T D e e D T L J J J J J J J J J J J J ",
"Z Z Z Z Z Z Z Z A S S Z Z Z m 0 0 m Z Z Z Z Z Z Z A S S Z Z Z Z ",
"* * * * * * * * 9 a r - * * % # # % * * * * * * * 9 p r - * * * ",
"O O O O O O O O & 3 : @ O O O O O O O O O O O O O & 1 : @ O O O ",
"W W W W W W W W z 3 s Y W W W W W W W W W W W W W z 0 s Y W W W ",
"%.%.%.%.%.%.%.%.F 3 g o.%.%.%.%.%.%.%.%.%.%.%.%.%.F q g o.%.%.%.",
"%.@.[ / / / } %.F 3 g o.X./ / / / / / / / / / } %.F q g o.X.( / ",
"%.o.E J J P / %.F 3 g o.} P J J J J J J J J J / %.F q g o.} T J ",
"/ ^ T J J P E / c 3 d ~ ~ P J J J J J J J J J E / c q d ~ ~ I J ",
"P P J J J J K P j 3 a H P J J J J J J J J J J K P j 0 a H P J J ",
"n n n n n n n n f 3 t v n n n n n n n n n n n n n f 8 t v n n n ",
"0 0 0 0 0 0 0 0 8 3 4 0 0 0 0 0 0 0 0 0 0 0 0 0 0 8 3 4 0 0 0 0 ",
"3 3 3 3 3 3 3 3 3 3 3 3 3 3 3 3 3 3 2 > = = = = = = = = = = = = ",
"3 3 3 3 3 3 3 3 3 3 3 3 3 3 3 3 3 3 1 $ X X X X X X X X X X X X ",
"3 3 3 3 3 3 3 3 3 3 3 3 3 3 3 3 3 3 < O                         "
};
