/* XPM */
static char *result[] = {
/* columns rows colors chars-per-pixel */
"64 64 81 1 ",
"  c #3D2E35",
". c #3F3037",
"X c #51322F",
"o c #5C372F",
"O c #412F35",
"+ c #423036",
"@ c #4B3335",
"# c #543534",
"$ c #5A3732",
"% c #5D3932",
"& c #66392C",
"* c #693B2E",
"= c #793F24",
"- c #713F2F",
"; c #663B31",
": c #693C30",
"> c #713F30",
", c #74452E",
"< c #7A442A",
"1 c #77492F",
"2 c #78492F",
"3 c #6E4031",
"4 c #734431",
"5 c #7A4631",
"6 c #764932",
"7 c #7A4B32",
"8 c #804327",
"9 c #84452A",
"0 c #89462A",
"q c #8C482C",
"w c #914B2C",
"e c #984D2F",
"r c #95522E",
"t c #98532E",
"y c #985C2D",
"u c #834D31",
"i c #8A4F31",
"p c #825334",
"a c #895732",
"s c #8D5A35",
"d c #915034",
"f c #9B5133",
"g c #985D32",
"h c #A6542B",
"j c #AA5228",
"k c #AF592B",
"l c #B55B2A",
"z c #A45534",
"x c #A85535",
"c c #996736",
"v c #B6612C",
"b c #A56630",
"n c #B26A35",
"m c #AA7838",
"M c #BB7037",
"N c #B97C37",
"B c #F16A1F",
"V c #CE6125",
"C c #D26325",
"Z c #DA6524",
"A c #E26622",
"S c #E76821",
"D c #EA6920",
"F c #F26B20",
"G c #EB7324",
"H c #EB7A26",
"J c #F37524",
"K c #F47C26",
"L c #BA883B",
"P c #CF993C",
"I c #D49C3C",
"U c #ED8B2D",
"Y c #F48228",
"T c #D6A03D",
"R c #DEA13C",
"E c #F8A537",
"W c #F1A739",
"Q c #F0B63F",
"! c #FAB93E",
"~ c #EEB540",
"^ c #F3BC40",
/* pixels */
".........O.............................             ............",
"......................................              ............",
"....................................                ............",
".....................................               ............",
"............................+.........       ...  ..............",
"................................................  ..............",
".........................................  .....   .............",
"................................................  ..............",
"................................................................",
"...................................... .........................",
"....O.................................O ....O...................",
"...... ..............................+ O.O . ...................",
"    ........................ O....OOO.O . .. +..................",
"     .....................#;::::;;::;;oO........................",
"    ..............++OOOOOO#:::::;:::::%O    O...................",
"    ...............@######%:::::;:::::;#XXXX##+.................",
"        ..........O%;;:;:;::::::::::::*&;&:;;;@.................",
"        ........O++;::::::::::::::::::**&*:;:;@+O...............",
"        ........+%;;:::::::*::::::::::::::::::;$@+..............",
"        ........@;;;:::::::4>:*>>-::::::::::::::#O..............",
"        ........+;::::::::qjh91qje<43::::::::::;#+..............",
"        ........@;::::::::jAZrplAVi74::::::::::;#+..............",
"  .     ........@;::::::*:jZCrukZVri5::::::::::;#...............",
". ...   ........+;::::::4,irru7ithVVh64:::;:::::#+..............",
" ...............@;3;::::777777777tADl72::::::::;XO      ..      ",
"..............+@#;;;:3:467777rtttkSDl6644::::::;o@@     .O    . ",
"....... ......#;::3;::777777iVDDDDBDl7676>:::;::*&o             ",
".......  ....+#:::;::>7776uafCFFBJJGv7777::::::::*X             ",
"......  ..    #::::::36777hCZDFFFKEWN77764:::::::::.            ",
".....    .   +#;:::::37777lDFFFFFY!^L7776::::::::::.            ",
"....          #;:::::36777kVZHYYYURTm77764:::::::::.            ",
"....         .#:;::::36677uigR!!!Rcsa77763::*;:::::.            ",
"              #::****:777776aP~QQIsu77776::::::::::.....        ",
"             O#;:***:46277<<<ybnMnzfa77773:::::::::.....        ",
"              #:***&**,222<==90exxxxd77773:::::::::..... . .    ",
"             O#;*:&&**,122<<=80wfeffa77773:::::::::..... ...    ",
"             O#;**&&&&<122675<==8<uuu7777::::::::::...... ..   .",
"              #;;&&&&-,<22776<===<57577763:::::::;;......... ...",
"            ..O@@&&&&&**2277798998777764:3:::::;$@@.............",
"            ..O.O&&&&&**,27779090977776::::::::;#OO.............",
"  .. . ... . ...@&&&&&&&,,4770909977564:::::::::#...............",
". ..............O&&&&&&&&*46777757776::::::::::;#...............",
"................@;;***&**:47777767774;:::::::::;#O..............",
"................@;;&***::::4444444464::::::::::;#O..............",
"................+;;;*;::::::::::;::::::::::::::;#...............",
"..... .. .. ...O+$;;;*::::::::::::::::::::::::;%#+..............",
"......... .     O+O;::::::::::*::::::::::::::;@O+...............",
".........       OOO;:;;;::::::;::::::::;;;;;:;@.................",
"........         . @######%*::::::::::;$#####+. ................",
".....O..          ..++.++.#;::::::::::%+O ....  ................",
"..... .           ........#;::::::::::%+.....   ........ .      ",
"........          .........+..............      ..... .         ",
"........          ........................      ........        ",
".......           ........................      ........        ",
"........          .......................      ........         ",
"........        ....................... .     . .......         ",
"..... ..        .......................................         ",
"........        ......................................          ",
"........        ..O.................................. ..        ",
"........        .......................................         ",
"............    ....................................            ",
"............    ....................................            ",
"..............  ....................................            ",
".............   ....................................            "
};
