/* XPM */
static char *result[] = {
/* columns rows colors chars-per-pixel */
"64 64 108 2 ",
"   c black",
".  c #010101",
"X  c #020202",
"o  c gray1",
"O  c gray2",
"+  c #0B0B0B",
"@  c #0C0C0C",
"#  c gray5",
"$  c #0E0E0E",
"%  c gray6",
"&  c #101010",
"*  c gray8",
"=  c #151515",
"-  c gray9",
";  c #181818",
":  c gray11",
">  c #1D1D1D",
",  c gray16",
"<  c #2A2A2A",
"1  c gray17",
"2  c #2C2C2C",
"3  c #2D2D2D",
"4  c gray18",
"5  c #2F2F2F",
"6  c gray19",
"7  c #313131",
"8  c #323232",
"9  c gray20",
"0  c #343434",
"q  c #353535",
"w  c gray21",
"e  c #373737",
"r  c gray22",
"t  c #393939",
"y  c #3A3A3A",
"u  c gray23",
"i  c #3C3C3C",
"p  c gray24",
"a  c #3E3E3E",
"s  c #3F3F3F",
"d  c gray25",
"f  c #414141",
"g  c gray26",
"h  c #434343",
"j  c #444444",
"k  c gray27",
"l  c #464646",
"z  c gray28",
"x  c #484848",
"c  c #494949",
"v  c gray29",
"b  c #4B4B4B",
"n  c #4C4C4C",
"m  c gray30",
"M  c #4E4E4E",
"N  c gray31",
"B  c #505050",
"V  c #515151",
"C  c gray32",
"Z  c #535353",
"A  c gray33",
"S  c #555555",
"D  c #565656",
"F  c gray34",
"G  c #585858",
"H  c gray35",
"J  c #5A5A5A",
"K  c #5B5B5B",
"L  c gray36",
"P  c gray37",
"I  c #5F5F5F",
"U  c #606060",
"Y  c gray38",
"T  c #626262",
"R  c gray39",
"E  c #646464",
"W  c #656565",
"Q  c gray40",
"!  c #676767",
"~  c #686868",
"^  c DimGray",
"/  c gray42",
"(  c #6D6D6D",
")  c gray43",
"_  c #6F6F6F",
"`  c gray44",
"'  c #727272",
"]  c gray45",
"[  c gray50",
"{  c #808080",
"}  c #818181",
"|  c gray51",
" . c #838383",
".. c #848484",
"X. c gray52",
"o. c #868686",
"O. c gray53",
"+. c #888888",
"@. c #898989",
"#. c gray54",
"$. c #8B8B8B",
"%. c gray55",
"&. c #8D8D8D",
"*. c #8E8E8E",
"=. c gray56",
"-. c #909090",
";. c gray57",
":. c #929292",
/* pixels */
"                                                                                                                                ",
"        . . X X X X X X X X X X X X X X X X X X X X X X X X X X X X X X X X X X X X X X X X X X X X X X X X X X X X X X X X X X ",
"    X o @ $ % & & & & & & & & & & & & & & & & & & & & & & & & & & & & & & & & & & & & & & & & & & & & & & & & & & & & & & & & & ",
"    o O = ; : > > > > > > > > > > > > > > > > > > > > > > > > > > > > > > > > > > > > > > > > > > > > > > > > > > > > > > > > > ",
"  . + * g m U R R R R R R R R R R R R R R R R R R R R R R R R R R R R R R R R R R R R R R R R R R R R R R R R R R R R R R R R R ",
"  . # - m J _ ] ' ' ' ' ' ' ' ' ' ' ' ' ' ' ' ' ' ' ' ' ' ' ' ' ' ' ' ' ' ' ' ' ' ' ' ' ' ' ' ' ' ' ' ' ' ' ' ' ' ' ' ' ] ] ] ] ",
"  X % : U _ +.%.@.+.+.O.O.O.O.O.O.O.O.O.O.O.O.+.O.+.+.+.+.+.+.+.+.+.+.+.+.+.+.+.+.+.+.+.+.+.+.+.+.+.+.+.+.+.+.+.+.+.@.@.%.%.&.&.",
"  X & > R ] $.*.+.o.| | | | | | | | | | | | | |  . .................................................................O.@.*.-.:.:.",
"  X & > R ' #.+.E L M n n n n n n n n n n n n n N B Z A A A A A A A A A A A A A A A A A A A A A A A A A A A A A A D Y ~ X.$.;.:.",
"  X & > R ' @.o.L Z g d d d d d d d d d d d d d h j x c c c c c c c c c c c c c c c c c v v v v v v v v v v c c c b H Y | @.;.:.",
"  X & > R ' O.| M g 5 2 2 2 2 2 3 3 3 3 3 3 3 4 5 6 e r e r r r r r r r r r r r r r y y y y y y y y y y y y y y r y n S { @.-.:.",
"  X & > R ' O.| n d 2 , , , , , < < < < < < < < 4 5 9 0 q q q q q q q q q q q q q w r t y y y y y y y y y y t r w r c Z [ +.-.:.",
"  X & > R ' O.| n d 2 , , , , , 2 2 5 5 5 5 5 6 5 6 0 0 q q q q q q q q q q q q w r h l v b b b b b b b b v l h r t c Z [ +.-.:.",
"  X & > R ' O.| n d 2 , , , , , 2 3 5 6 6 6 6 6 7 7 0 0 q q q q q q q q q q q q e y z b N B B B B B B B B N b z y y c Z [ +.-.:.",
"  X & > R ' O.| n d 2 , , , , , 5 6 9 0 0 0 0 0 q q q q q q q q q q q q q q q q e u C G U T T T T T T T T U G C u y c Z [ +.-.:.",
"  X & > R ' O.| n d 2 , , , , < 5 6 q q q q q q q q q q q q q q q q q q q q q w e i S J E W W W W W W W W E J S i y v Z [ +.-.:.",
"  X & > R ' O.| n d 2 , 2 2 5 6 6 7 q q q q q q q q q q q q q q q q q q q q q w e i S J E W W W W W W W W E J S i y v Z [ +.-.:.",
"  X & > R ' O.| n d 2 , 2 3 5 6 8 8 q q q q q q q q q q q q q q q q q q q q q w e i S J E W W W W W W W W E J S i y v Z [ +.-.:.",
"  X & > R ' O.| n d 3 < 5 6 9 0 q q q q q q q q q q q q q q q q q q q q q q q w e i S J E W W W W W W W W E J S i y v Z [ +.-.:.",
"  X & > R ' O.| n d 3 < 5 6 0 q q q q q q q q q q q w w w w w w w w w w w w q w e i S J E W W W W W W W W E J S i y v Z [ +.-.:.",
"  X & > R ' O.| n d 3 < 5 6 0 q q q q q q q q q e r i p p p p p p p p p p i r r e i S J E W W W W W W W W E J S i y v Z [ +.-.:.",
"  X & > R ' O.| n d 3 < 5 6 0 q q q q q q q q w e t d f f f f f f f f f f d t r r i S J E W W W W W W W W E J S i y v Z [ +.-.:.",
"  X & > R ' O.| n d 3 < 5 6 0 q q q q q q q q w u s M V Z Z Z Z Z Z Z Z V M s i r i S J E W W W W W W W W E J S i y v Z [ +.-.:.",
"  X & > R ' O.| n d 3 < 5 6 0 q q q q q q q q w i d V A F F F F F F F F A V d p r i S J E W W W W W W W W E J S i y v Z [ +.-.:.",
"  X & > R ' O.| n d 3 < 5 6 0 q q q q q q q q w p f Z D F F F F F F F F D Z f a r i S J E W W W W W W W W E J S i y v Z [ +.-.:.",
"  X & > R ' O.| n d 3 < 5 6 0 q q q q q q q q w p f Z F F G G G G G G F F Z f a r i S J E W W W W W W W W E J S i y v Z [ +.-.:.",
"  X & > R ' O.| n d 3 < 5 6 0 q q q q q q q q w p f Z F F G G G G G G F F Z f a r i S J E W W W W W W W W E J S i y v Z [ +.-.:.",
"  X & > R ' O.| n d 3 1 5 6 q q q q q q q q q w p f Z F F G G G G G G F F Z f a r i S J E W W W W W W W W E J S i y v Z [ +.-.:.",
"  X & > R ' O.| M g 6 4 6 7 e e e e e e e e q w p f Z F F G G G G G G F F Z f a r i S J E W W W W W W W W E J S i y v Z [ +.-.:.",
"  X & > R ' O.| B k 8 6 0 q r t t t t t t r w w p f Z F F G G G G G G F F Z f a r i S J E W W W W W W W W E J S i y v Z [ +.-.:.",
"  X & > R ' @.o.L Z h f h h h h h h h g d a e e p f Z F F G G G G G G F F Z f a r i S J E W W W W W W W W E J S i y v Z [ +.-.:.",
"  X & > R ' @.O.P S z j k k k k k k k k f s r e p f Z F F G G G G G G F F Z f a r i S J E W W W W W W W W E J S i y v Z [ +.-.:.",
"  X & > R ' @.O.I D v z z z z z z z z z h f r e p f Z F F G G G G G G F F Z f a r i S J E W W W W W W W W E J S i y v Z [ +.-.:.",
"  X & > R ' @.O.U F v z z z z z z z z z h f r e p f Z F F G G G G G G F F Z f a r i S J E W W W W W W W W E J S i y v Z [ +.-.:.",
"  X & > R ' @.O.U F v z z z z z z z z z h f r e p f Z F F G G G G G G F F Z f a r i S J E W W W W W W W W E J S i y v Z [ +.-.:.",
"  X & > R ' @.O.U F v z z z z z z z z z h f r e p f Z F F G G G G G G F F Z f a r i S J E W W W W W W W W E J S i y v Z [ +.-.:.",
"  X & > R ' @.O.U F v z z z z z z z z z h f r e p f Z F F G G G G G G F F Z f a r i S J E W W W W W W W W E J S i y v Z [ +.-.:.",
"  X & > R ' @.O.U F v z z z z z z z z z h f r e p f Z F F G G G G G G F F Z f a r i S J E W W W W W W W W E J S i y v Z [ +.-.:.",
"  X & > R ' @.O.U F v z z z z z z z z z h f r e p f Z F F G G G G G G F F Z f a r i S J E W W W W W W W W E J S i y v Z [ +.-.:.",
"  X & > R ' @.O.U F v z z z z z z z z z h f r e p f Z F F G G G G G G F F Z f a r i S J E W W W W W W W W E J S i y v Z [ +.-.:.",
"  X & > R ' @.O.U F v z z z z z z z z z h f r e p f Z F F G G G G G G F F Z f a r i S J E W W W W W W W W E J S i y v Z [ +.-.:.",
"  X & > R ' @.O.U F v z z z z z z z z z h f r e p f Z F F G G G G G G F F Z f a r i S J E W W W W W W W W E J S i y v Z [ +.-.:.",
"  X & > R ' @.O.U F v z z z z z z z z z h f r e p f Z F F G G G G G G F F Z f a r i S J E W W W W W W W W E J S i y v Z [ +.-.:.",
"  X & > R ' @.O.U F v z z z z z z z z z h f r e p f Z F F G G G G G G F F Z f a r i S J E W W W W W W W W E J S i y v Z [ +.-.:.",
"  X & > R ' @.O.U F v z z z z z z z z z h f r e p f Z F F G G G G G G F F Z f a r i S J E W W W W W W W W E J S i y v Z [ +.-.:.",
"  X & > R ' @.O.U F v z z z z z z z z z h f r e p f Z F F G G G G G G F F Z f a r i S J E W W W W W W W W E J S i y v Z [ +.-.:.",
"  X & > R ' @.O.U F v z z z z z z z z z h f r e p f Z F F G G G G G G F F Z f a r i S J E W W W W W W W W E J S i y v Z [ +.-.:.",
"  X & > R ' @.O.U F v z z z z z z z z z h f r e p f Z F F G G G G G G F F Z f a r i S J E W W W W W W W W E J S i y v Z [ +.-.:.",
"  X & > R ' @.O.U F v z z z z z z z z z h f r e p f Z F F G G G G G G F F Z f a r i S J E W W W W W W W W E J S i y v Z [ +.-.:.",
"  X & > R ' @.O.U F v z z z z z z z z z h f r e p f Z F F G G G G G G F F Z f a r i S J E W W W W W W W W E J S i y v Z [ +.-.:.",
"  X & > R ' @.O.U F v z z z z z z z z z h f r e p f Z F F G G G G G G F F Z f a r i S J E W W W W W W W W E J S i y v Z [ +.-.:.",
"  X & > R ' @.O.U F v z z z z z z z z z h f r e p f Z F F G G G G G G F F Z f a r i S J E W W W W W W W W E J S i y v Z [ +.-.:.",
"  X & > R ' @.O.U F v z z z z z z z z z h f r e p f Z F F G G G G G G F F Z f a r i S J E W W W W W W W W E J S i y v Z [ +.-.:.",
"  X & > R ' @.O.U F v z z z z z z z z z h f r e p f Z F F G G G G G G F F Z f a r i S J E W W W W W W W W E J S i y v Z [ +.-.:.",
"  X & > R ' @.O.U F v z z z z z z z z z h f r e p f Z F F G G G G G G F F Z f a r i S J E W W W W W W W W E J S i y v Z [ +.-.:.",
"  X & > R ' @.O.U F v z z z z z z z z z h f r e p f Z F F G G G G G G F F Z f a r i S J E W W W W W W W W E J S i y v Z [ +.-.:.",
"  X & > R ' @.O.U F v z z z z z z z z z h f r e p f Z F F G G G G G G F F Z f a r i S J E W W W W W W W W E J S i y v Z [ +.-.:.",
"  X & > R ' @.O.T J n v v v v v v v v c l j y y d j S G H H H H H H H H G S j d u a D K Q ! ! ! ! ! ! ! ! Q K D a i n S { @.-.:.",
"  X & > R ' #.@./ E H F F F F F F F F F S A b v N C I T W W W W W W W W T I C N m B R ! ( ) ) ) ) ) ) ) ) ( ! R B N H Y | @.;.:.",
"  X & > R ' $.$.` / Y U U U U U U U U I P L S S F J ! ^ / / / / / / / / ^ ! J F F H ^ ( ' ] ] ] ] ] ] ] ] ' ( ^ H G Y ~ X.$.;.:.",
"  X & > R ] $.*.+.o.| | | | | | | | | | } { { { { } o.o.o.o.o.o.o.o.o.o.o.o.} { { { ..o.+.@.@.@.@.@.@.@.@.+.o...{ { | ..*.-.;.:.",
"  X & > R ] %.-.%.$.@.@.@.@.@.@.@.@.@.@.@.@.+.+.@.@.%.%.%.%.%.%.%.%.%.%.%.%.@.@.+.+.$.$.&.&.&.&.&.&.&.&.&.&.$.$.+.+.#.$.=.-.:.:.",
"  X & > R ] &.:.;.;.;.;.;.;.;.;.;.;.;.;.-.-.-.-.-.-.;.;.;.;.;.;.;.;.;.;.;.;.-.-.-.-.;.;.;.;.;.;.;.;.;.;.;.;.;.;.-.-.;.;.:.:.:.:.",
"  X & > R ] &.:.:.:.:.:.:.:.:.:.:.:.:.:.:.:.:.:.:.:.:.:.:.:.:.:.:.:.:.:.:.:.:.:.:.:.:.:.:.:.:.:.:.:.:.:.:.:.:.:.:.:.:.:.:.:.:.:."
};
