/* XPM */
static char *result[] = {
/* columns rows colors chars-per-pixel */
"64 64 26 1 ",
"  c #3B2B32",
". c #3B2C32",
"X c #3B2D32",
"o c #3B2E32",
"O c #3C2D33",
"+ c #3C2E33",
"@ c #3C2F33",
"# c #3D2D35",
"$ c #3C2E34",
"% c #3D2E34",
"& c #3C2F34",
"* c #3D2F34",
"= c #3D2E35",
"- c #3D2F35",
"; c #3E2E35",
": c #3E2F35",
"> c #3E2E36",
", c #3E2F36",
"< c #3F2F36",
"1 c #3F2F37",
"2 c #3D3034",
"3 c #3D3035",
"4 c #3E3035",
"5 c #3E3036",
"6 c #3F3036",
"7 c #3F3037",
/* pixels */
"77777777777777777777777777777777777171OO      #=1777777777777777",
"77777777777777777777777777777777777171OO      #=1777777777777777",
"77777777777777777777777777777777777171OO......=-1777777777777777",
"77777777777777777777777777777777777171OO......=-1777777777777777",
"77777777777777777777777777777777777171,,>>>>>>171777777777777777",
"777777777777777777777777777777777777775,5,,,,5177777777777777777",
"7777777777777777777777777777777777717111111111171777777777777777",
"7777777777777777777777777777777777777777777777777777777777777777",
"7777777777777777777777777777777777777777777777777777777777777777",
"1711771777777777777777777777777777717717717717777777777777777777",
"7777777777777777777777777777777777777777777777777777777777777777",
"1111171777777777777777777777777777717111111717777777777777777777",
"%***7717777777777777777777777777777177*22*7717777777777777777777",
"%%**1717777777777777777777777777777171****1717777777777777777777",
"  ..>,17777777777777777777777777777171OO..>,17777777777777777777",
"  ..>,17777777777777777777777777777171OO..>,17777777777777777777",
"  ..>,17777777777777777777777777777171****1717777777777777777777",
"  ..>,1777777777777777777777777777777722227777777777777777777777",
"  ..>,1777777777777777777777777777717111111717777777777777777777",
"  ..>,1777777777777777777777777777777777777777777777777777777777",
"OO++<61777777777777777777777777777777777777777777777777777777777",
"OO@@<61777777777777777777777777777777777777777777777777777777777",
"1111171777777777777777777777777777777777777777777777777777777777",
"7777777777777777777777777777777777777777777777777777717111111111",
"171177177777777777777777777777777777777777777777777777775,5,,,,,",
"77777777777777777777777777777777777777777777777777777171,,>>>>>>",
"7777777777777777777777777777777777777777777777777777715,XX......",
"7177117117117717777777777777777777777777777777777777715,XX......",
"777777777777777777777777777777777777777777777777777771,>..      ",
"717111111111171777777777777777777777777777777777777771,>..      ",
"7171++....oo=-1777777777777777777777777777777777777771,>..      ",
"7171OO....XX=-1171111117117717777777777777777777777771,>..      ",
"7171OO    ..#=17777777777777777777777777777777777777715,XX......",
"7171OO    ..#=11711111111117177777777777777777777777715,oo......",
"7171OO    ..#=11-=......++17177777777777777777777777717111111111",
"7171OO    ..#=11-=......OO17177777777777777777777777777777777777",
"7171OO....XX=-11=#      OO17177777777777777777777777717711711111",
"7171OO....XX=-11=#      OO17177777777777777777777777777777777777",
"7171,,>>>>,,1711=#      OO17177777777777777777777777777777777777",
"77775,5,,5,57771=#      OO17177777777777777777777777777777777777",
"7171111111111711-=......OO17177777777777777777777777777777777777",
"7777777777777771-=......OO17177777777777777777777777777777777777",
"777777777777777171>>>>>>,,17177777777777777777777777777777777777",
"7777777777777777715,,,,5,577777777777777777777777777777777777777",
"7777777777777771711111111117177777777777777777777777777777777777",
"7777717111111111171777777777777777777777777777777777777777777777",
"777777772*2****2:47777777777777777777777777777777777777777777777",
"77777171**%%%%%%:41777777777777777777777777777777777777777777777",
"77777171OO      %*1777777777777777777777777777777777777777777777",
"77777171OO      %*1777777777777777777771711111171777717111111111",
"77777171OO      %*1777777777777777777777713-==,5177777713-======",
"77777171OO      %*177777777777777777777171==##>,17777171==######",
"77777171OO      %*177777777777777777777171OO..=-1777715,XX......",
"77777171OO      %*177777777777777777777171OO..=-1777715,XX......",
"77777171$$OOOOOO-3177777777777777777777171$$OO;:177771,>..      ",
"77777171&&OOOOO+-3777777777777777777777171&&OO;:177771,>..      ",
"777771711111111117177777777777777777777171111117177771,>..      ",
"777777777777777777777777777777777777777777777777777771,>..      ",
"7777717711711117177777777777777777777771771171171777716<++OOOOOO",
"7777777777777777777777777777777777777777777777777777716<@@OOOOOO",
"7777777777777777777777777777777777777777777777777777717111111111",
"7777777777777777777777777777777777777777777777777777777777777777",
"7777777777777777777777777777777777777777777777777777717711711111",
"7777777777777777777777777777777777777777777777777777777777777777"
};
