/* XPM */
static char *result[] = {
/* columns rows colors chars-per-pixel */
"45 45 27 1 ",
"  c #3B2B32",
". c #3B2C32",
"X c #3B2D32",
"o c #3B2C33",
"O c #3B2D33",
"+ c #3B2E33",
"@ c #3C2C33",
"# c #3C2D33",
"$ c #3C2E33",
"% c #3C2C34",
"& c #3C2D34",
"* c #3D2D34",
"= c #3C2E34",
"- c #3D2E34",
"; c #3D2F34",
": c #3D2E35",
"> c #3D2F35",
", c #3E2E35",
"< c #3E2F35",
"1 c #3E2E36",
"2 c #3E2F36",
"3 c #3F2F36",
"4 c #3F2F37",
"5 c #3E3035",
"6 c #3E3036",
"7 c #3F3036",
"8 c #3F3037",
/* pixels */
"888888888888888888888888882#    %188888888888",
"888888888888888888888888882#    &188888888888",
"888888888888888888888888882#....=288888888888",
"888888888888888888888888884221114888888888888",
"888888888888888888888888884444444888888888888",
"888888888888888888888888888888888888888888888",
"484848888888888888888888888888848888888888888",
"888888888888888888888888888888888888888888888",
"222448888888888888888888884224848888888888888",
"--;448888888888888888888882;;2848888888888888",
"  .148888888888888888888882#.*248888888888888",
"  .148888888888888888888882-$,848888888888888",
"  .148888888888888888888886556888888888888888",
"  .148888888888888888888888888888888888888888",
"##$348888888888888888888888888888888888888888",
"::>348888888888888888888888888888888888888888",
"888888888888888888888888888888888888848444444",
"484848888888888888888888888888888888888622222",
"888888888888888888888888888888888888846-$####",
"848484844848888888888888888888888888846#X....",
"844444444848888888888888888888888888842@.    ",
"844$Ooo+$>48888888888888888888888888842@.    ",
"844#.  .@:48888888888888888888888888846#X....",
"844#.  .@:48433334488888888888888888846$Ooooo",
"844#.  .@:42=....$288888888888888888848444444",
"844#...X#>41&    #288888888888888888848444444",
"844-@##$-241%    #288888888888888888888888888",
"888622226881%    #288888888888888888888888888",
"844444444842=....#288888888888888888888888888",
"8888888888882****:488888888888888888888888888",
"888888888888422262888888888888888888888888888",
"888888888888444444488888888888888888888888888",
"888887<5<<<2688888888888888888888888888888888",
"888883-####-688888888888888888888888888888888",
"888882#    #<88888888888888484444888848444444",
"888882#    #<88888888888888882>:2688888>>::::",
"888882#    #<8888888888888848:&@:288846&#@@@@",
"888882#    #<8888888888888848:#.=288846#X....",
"888882=####-68888888888888848:=#-288842@.    ",
"888884222223888888888888888484223888842@.    ",
"888888888888888888888888888888888888842#X....",
"888888888888888888888888888888888888847;$####",
"888888888888888888888888888888888888848444444",
"888888888888888888888888888888888888848444444",
"888888888888888888888888888888888888888888888"
};
