/* XPM */
static char *result[] = {
/* columns rows colors chars-per-pixel */
"64 64 87 1 ",
"  c #0E0C0B",
". c #120F0E",
"X c #14110E",
"o c #141111",
"O c #181313",
"+ c #1F1916",
"@ c #201916",
"# c #251C1B",
"$ c #291E1C",
"% c #2C211E",
"& c #31221E",
"* c #261E21",
"= c #2C2324",
"- c #2E2429",
"; c #362521",
": c #392622",
"> c #332A25",
", c #3D2A26",
"< c #32262B",
"1 c #352B2B",
"2 c #3D2C29",
"3 c #373127",
"4 c #3C322B",
"5 c #372A30",
"6 c #3D2D34",
"7 c #2C353B",
"8 c #3F3037",
"9 c #3F3833",
"0 c #30393D",
"q c #412C27",
"w c #422F2B",
"e c #482E2A",
"r c #44322D",
"t c #4B332F",
"y c #463431",
"u c #4C3632",
"i c #433B34",
"p c #4F3835",
"a c #4B3F3A",
"s c #503935",
"d c #5B3D39",
"f c #4D433E",
"g c #5D433E",
"h c #2E3940",
"j c #323D44",
"k c #35424A",
"l c #444A4E",
"z c #525A44",
"x c #434D55",
"c c #455058",
"v c #644641",
"b c #694C46",
"n c #6C4E48",
"m c #566249",
"M c #59664C",
"N c #69755D",
"B c #8D4C4B",
"V c #914F4D",
"C c #9E5956",
"Z c #9B7166",
"A c #A3766A",
"S c #A6796C",
"D c #AA7B6E",
"F c #AD8274",
"G c #A38C7A",
"H c #B38275",
"J c #B88577",
"K c #B08678",
"L c #B98678",
"P c #BC897A",
"I c #A7937F",
"U c #C2897C",
"Y c #A59383",
"T c #B49B86",
"R c #AE9F92",
"E c #B6A18B",
"W c #BAA58F",
"Q c #BDAC9C",
"! c #C68F81",
"~ c #C59383",
"^ c #CB9485",
"/ c #D49F8E",
"( c #DBA493",
") c #CBB7A4",
"_ c #CBB8A5",
"` c #CEBCA9",
"' c #D2C0AE",
/* pixels */
"8888888888888888888888888888888888888866665565668888888888888888",
"88888888888888888888888888888888888886665566e5668888888888888888",
"8888888y88888888888888888888w8hy88888666656665668888888888888888",
"88888888888888888888888885.  .5y86..5666566656668888888888888888",
"8888888888888888888855555<o..o<55<O.<6w8886868888888888888888888",
"88888888888888888885O....o&;&&O..O&;.O68668686888888888888888888",
"8888888888888888885<O....o;qq:....<:O.<5688888888888888888888888",
"8888888888888888y6OX&;;;;;tutt:;::tt:-.O688888888888888888888888",
"888888888888888885Oo*:,,,,ussse&:etuq:OO<66y88888888888888888888",
"88888888888888888855OOessspsssstussspuywOO6h88888888888888888888",
"8888888888888888885<OOysssssssssusssssseOO<568888888888888888888",
"8886886888888888y5OOwysssssssssssssssssp:&OO68888888888888888888",
"666688888888888885.orsssspstssssuspssspu::..<6h68888888888888888",
"666y888888888888y1.otsssst4,qqus,epssspp::;&OO688888888888888888",
"656586888888888861OOrusssstt&qssttssssspe,;&.O688888888888888888",
"6656888888888885OX&&,qussgDSt,tgDDdsssspueOO<6ww8888888888888888",
"65566w8888888886OO&;::sdgnLPgsfgLLnvssssst..58888888888888888888",
"66666w88888888866<OO;:udFPUUHFggL!LDgsssse.O68888888888888888888",
"565588888888888866..;eugLUHHUPnnT!DDbgssstOO<6h68888888888888888",
"656668888888888885..essgLH>>U(PU/!q<ADe,ppe6OO688888888888888888",
"66668888888888866<oOypdvLH@%~(^^(!*#JUdeutyw.O688888888888888888",
"6666868888888886OO:,udVCUF&:~((((!;&DUCBueOO<6w88888888888888888",
"6688888888888886Oo:epdBCULyp^((((~utD!CBu,..66888888888888888888",
"88888888888888886<OO5eudL~~^((((((^!!Jdue,..68888888888888888888",
"8886888888888888w6OO;,wpDT//((((((//UDpq<<OO5w888888888888666666",
"8888888888888888h66<oO,epvU^((((((^UvpeqOO<688888888888886666688",
"88888888888888886666OO:qesAD/(((((YApw,:OO6688888888888666666666",
"88888888888888688y666<OO,q$,H^^^^D,$q,OO<66y88888888888666665666",
"888888888888888888666<..wwX%FUU~UF%O6woo<66688888888886856666566",
"88888886888888888866OO#=zz=2GETTEG>=zz&#OO6688888888888656565566",
"88886665666568888885..*;zz16IEEEEG2>mm<#..68888888888866e6656e66",
"88886656655666888886..*-mM9fQ_`)EGa9mm;#OO6888888888866565565565",
"888866e6556566yy885<XX$>MM9fQ''`WIf9MM>%.X<588888888888856666666",
"888866556566666h85Oo@$%>NN9fQ'''_Qf9NN>%%@oO58888888888885561661",
"886856565666668685. %=%3NNifQ`'''QfiNN>%=%..588888888888888688y8",
"886666566566868685..>2%>MM9fIW`'')f4Mm>%3>..58888888888888888888",
"86886666666568881<oO11==zm4fIE_`'Qf9mz=%21OO16688888888888886886",
"8888666656666885Oo>>4>XX=>3fQ)WW`Qf3>%XX163<oO58888888888888886y",
"88886886666688y5.XilfyX %%1fRQYYQRf3%% Xiaaio.6888888888888888hy",
"8888886886668885.@H^LA+ $%%=lxlxxx=%%% +ZP^K@.58888888888888886y",
"8888886888888885O$FTDZ@.%===jkkjkj==== +ZKTD*O588888888888888888",
"88888888888888862<$##@ X0jhjjkjkjkj0h7. ++$*16888888888888888888",
"888888888888888885Oo.. ohkkkkkkkkkkkkh. .ooO58888888888888888888",
"888888888888888888555<. hkccxxxxxxxxkh..<55588888888888888888888",
"8888888888888888888885o.hkccccckxccxkho.588888888888888888888888",
"8888888686686888888885..hkkccckkxccxkh..588888888888888888888888",
"8888888888688586688885.ohkcccckhxccxkh..588888888888888888888888",
"8888888886658866688885..kkckkkoojkxxkh..688888888888888888888888",
"8888868866565e65888881..hkkkk7oo7hxxjh..688888888888888888888888",
"88888888666665565888y5o.hkkkoo7<oOjjjho.668886888888888888888888",
"8888888866666655688885o.0kkj..65.o7jjh..668866668888888866666666",
"8888888866656656668885..3ii4.o55o $**#..666666668888888866868668",
"888888886656665e688885OO3443oO55. #**$ .566656668888888665566665",
"8888888856e565566668885<OXoo<686..3ry2..566666668888888866666566",
"888888885666665566868885X  .5885o.39e5OO566666688888868656656655",
"8888888866666666<--<<---%++*----===%**-*<<--<<668888886865565566",
"8888888866888886<<------****------****=-----<<686888888665665656",
"888888888688888885<-----------------=---<<-<66888888888856556556",
"888888886888888886<<<<<--<--<-----<-<---5<<666688888888666666566",
"88888888888888888886858866868868868686886666668888888888e6666e66",
"8888888888888888888888888888888888888888888888888888888888886886",
"8888888888888888888888888888888888888888888888888888888888886688",
"8888888888888888888888888888888888888888888888888888868888888886",
"8888888888888888888888888888888888888888888888888888888888888888"
};
