/* XPM */
static char *result[] = {
/* columns rows colors chars-per-pixel */
"45 45 178 2 ",
"   c #3B2B32",
".  c #3B2C32",
"X  c #3B2D32",
"o  c #3B2E32",
"O  c #3C2C33",
"+  c #3C2D33",
"@  c #3C2E33",
"#  c #3D2F33",
"$  c #3C2C34",
"%  c #3C2D34",
"&  c #3D2D34",
"*  c #3C2E34",
"=  c #3D2E34",
"-  c #3D2F34",
";  c #3D2E35",
":  c #3D2F35",
">  c #3E2E34",
",  c #3E2E35",
"<  c #3E2F35",
"1  c #3E2E36",
"2  c #3E2F36",
"3  c #3F2F36",
"4  c #3F2F37",
"5  c #3D3034",
"6  c #3D3035",
"7  c #3E3036",
"8  c #3F3036",
"9  c #3F3037",
"0  c #402F33",
"q  c #422F34",
"w  c #423034",
"e  c #433035",
"r  c #413036",
"t  c #403037",
"y  c #443035",
"u  c #443135",
"i  c #483133",
"p  c #483233",
"a  c #493235",
"s  c #513433",
"d  c #5F3930",
"f  c #5F3932",
"g  c #5F3A32",
"h  c #66382C",
"j  c #66392C",
"k  c #67392D",
"l  c #673B2D",
"z  c #67392E",
"x  c #673A2E",
"c  c #673B2E",
"v  c #663A2F",
"b  c #683B2D",
"n  c #68392E",
"m  c #683B2E",
"M  c #683A2F",
"N  c #683B2F",
"B  c #693B2F",
"V  c #683C2E",
"C  c #683C2F",
"Z  c #6B3C2F",
"A  c #6D3E2C",
"S  c #7B3F25",
"D  c #723E2E",
"F  c #603932",
"G  c #643B30",
"H  c #653B31",
"J  c #673A31",
"K  c #673B31",
"L  c #683B30",
"P  c #693B30",
"I  c #683C30",
"U  c #693C30",
"Y  c #6A3C30",
"T  c #6B3C30",
"R  c #6A3D30",
"E  c #6D3E30",
"W  c #794024",
"Q  c #794125",
"!  c #7B4025",
"~  c #7B4127",
"^  c #70402D",
"/  c #70412D",
"(  c #73442E",
")  c #74452E",
"_  c #7A4228",
"`  c #7A432A",
"'  c #7A412E",
"]  c #7B452F",
"[  c #77492F",
"{  c #78482F",
"}  c #78492F",
"|  c #784A2F",
" . c #6D4030",
".. c #6E4031",
"X. c #6F4131",
"o. c #704130",
"O. c #704230",
"+. c #714331",
"@. c #724331",
"#. c #724431",
"$. c #734431",
"%. c #774530",
"&. c #764731",
"*. c #764831",
"=. c #794B31",
"-. c #7A4A31",
";. c #7B4A31",
":. c #7A4B31",
">. c #784A32",
",. c #7A4A32",
"<. c #7A4B32",
"1. c #7B4B32",
"2. c #7B4A33",
"3. c #7A4B33",
"4. c #7A4C33",
"5. c #7B4C33",
"6. c #7D4C32",
"7. c #7D4D32",
"8. c #7D4C33",
"9. c #824327",
"0. c #874429",
"q. c #874529",
"w. c #86462A",
"e. c #88442B",
"r. c #81482E",
"t. c #8B4B2A",
"y. c #924F2C",
"u. c #804D31",
"i. c #804E31",
"p. c #804C33",
"a. c #814D33",
"s. c #824D32",
"d. c #814E32",
"f. c #824E32",
"g. c #864E31",
"h. c #864F31",
"j. c #994E30",
"k. c #815131",
"l. c #825233",
"z. c #825334",
"x. c #8A5032",
"c. c #885334",
"v. c #905231",
"b. c #905631",
"n. c #955034",
"m. c #9C5031",
"M. c #9C5234",
"N. c #9C5235",
"B. c #AD5428",
"V. c #A55434",
"C. c #A95A35",
"Z. c #AC5B36",
"A. c #E15B1D",
"S. c #EF6A1F",
"D. c #CA6026",
"F. c #D86424",
"G. c #E36722",
"H. c #E46721",
"J. c #E56722",
"K. c #E56822",
"L. c #E36C24",
"P. c #EE6A20",
"I. c #F26C20",
"U. c #F27022",
"Y. c #F07423",
"T. c #F37523",
"R. c #F48028",
"E. c #DDA63E",
"W. c #E2A93E",
"Q. c #EAAB3D",
"!. c #EBAB3D",
"~. c #F9AF3B",
"^. c #F0B63F",
"/. c #FABA3E",
"(. c #FABA3F",
"). c #EBB540",
"_. c #EDB440",
"`. c #FBC341",
/* pixels */
"9 9 9 9 9 9 9 9 9 9 9 9 9 9 9 9 9 9 9 9 9 9 9 9 9 9 3 +         $ ; 9 9 9 9 9 9 9 9 9 9 9 ",
"9 9 9 9 9 9 9 9 9 9 9 9 9 9 9 9 9 9 9 9 9 9 9 9 9 9 3 +         % : 9 9 9 9 9 9 9 9 9 9 9 ",
"9 9 9 9 9 9 9 9 9 9 9 9 9 9 9 9 9 9 9 9 9 9 9 9 9 9 3 + . . . . * : 9 9 9 9 9 9 9 9 9 9 9 ",
"9 9 9 9 9 9 9 9 9 9 9 9 9 9 9 9 9 9 9 9 9 9 9 9 9 9 4 2 1 1 1 1 4 9 9 9 9 9 9 9 9 9 9 9 9 ",
"9 9 9 9 9 9 9 9 9 9 9 9 9 9 9 9 9 9 9 9 9 9 9 9 9 9 4 4 4 4 4 4 4 9 9 9 9 9 9 9 9 9 9 9 9 ",
"9 9 9 9 9 9 9 9 9 9 9 9 9 9 9 9 9 9 9 9 9 9 9 9 9 9 9 9 9 9 9 9 9 9 9 9 9 9 9 9 9 9 9 9 9 ",
"4 4 4 4 4 9 9 9 9 9 9 9 9 9 9 9 9 9 9 9 9 9 9 9 9 9 9 9 9 4 9 4 9 9 9 9 9 9 9 9 9 9 9 9 9 ",
"9 9 9 9 9 9 9 9 9 9 9 9 9 9 9 9 9 9 9 9 9 9 9 9 9 9 9 9 9 9 9 9 9 9 9 9 9 9 9 9 9 9 9 9 9 ",
", < < 4 4 9 9 9 9 9 9 9 9 t u u u F U U U U U U U U U C d e u y t 9 9 9 9 9 9 9 9 9 9 9 9 ",
"= - - 4 4 9 9 9 9 9 9 9 9 a K K K I U U U U U U U U P m c v K J a 9 9 9 9 9 9 9 9 9 9 9 9 ",
"    . 1 4 9 9 9 9 9 9 r a s U U U U U U U U U U U U B k j n N P s a r 9 9 9 9 9 9 9 9 9 9 ",
"    . 1 4 9 9 9 9 9 9 a H L U U U U U U U U U U U U B b l N U P L H a 9 9 9 9 9 9 9 9 9 9 ",
"    . 1 4 9 9 9 9 t a s K U U U U U U U U U E e.e.Z U V V C U U U K s a t 9 9 9 9 9 9 9 9 ",
"    . 1 4 9 9 9 9 u K U U U U U U U U U U U ' A.A.D U U U U U U U U U K u 9 9 9 9 9 9 9 9 ",
"+ @ @ 3 4 9 9 9 9 u K U U U U U U U R o.#.#.] B.B.%.o.R U U U U U U U K u 9 9 9 9 9 9 9 9 ",
", < < 4 4 9 9 9 9 u K U U U U U U U T &.<.<.<.<.<.<.&.T U U U U U U U K u 9 9 9 9 9 9 9 9 ",
"9 9 9 9 9 9 9 9 g F I U U U U U U $.&.=.u.D.D.g.<.<.=.&.$.U U U U U U I F f 9 4 4 4 4 4 4 ",
"9 9 9 9 9 9 9 9 U U U U U U U R T *.<.<.s.G.H.v.d.<.<.<.*.T Y U U U U U U P 9 2 2 1 1 1 1 ",
"9 9 9 9 9 9 9 9 U U U U U U U O.&.=.<.<.s.G.P.F.D.u.<.<.=.&.X.U U U U U U P 7 % + O O O O ",
"9 9 9 9 9 4 9 4 U U U U U U U #.<.<.<.a.x.H.I.U.L.f.<.<.<.<.+.U U U U U U P 7 + X         ",
"9 9 4 4 4 4 4 4 P U U U U U U #.<.<.i.D.J.S.T.~.Q.l.<.<.<.<.+.U U U U U U P 2 O .         ",
"9 9 4 @ . . . o x N U U U U U #.<.<.i.D.K.Y.R./.).z.<.<.<.<.+.U U U U U U P 2 O .         ",
"9 9 4 +       X z M U U P P P @.<.<.5.h.b.!.(.`.).z.<.<.<.<.+.U U U U U U P 2 O . . . . . ",
"9 9 4 +       . z M U U P P P @.<.<.3.;.k.E._.^.W.c.p.4.<.<.+.U U U U U U P 7 @ o . . . . ",
"9 9 4 +       . z M U N x j j / } | -._ W t.y.C.Z.V.M.8.<.<.+.U U U U U U P 9 4 4 4 4 4 4 ",
"9 9 4 +       X z N U M z j j / } } -.` _ 9.0.j.m.N.n.6.<.<.+.U U U U U U P 9 4 4 4 4 4 4 ",
"9 9 4 % O O O + n N U M z h h ^ { } :.2.,.Q W S ~ 7.8.3.<.<.+.U U U U U U U 9 9 9 9 9 9 9 ",
"9 9 4 2 1 1 1 2 f F I M z h h A ( [ :.<.<.~ ! ! ~ <.<.<.=.&.X.U U U U I F g 9 9 9 9 9 9 9 ",
"9 9 4 4 4 4 4 4 4 u K N x j j j j ) :.<.1.w.q.q.w.1.<.<.&.U U U U U U K u 9 9 9 9 9 9 9 9 ",
"9 9 9 9 9 9 9 9 9 u K N M n n n n  .@.>.<.r.r.r.r.<.>.@.X.U U U U U U K u 9 9 9 9 9 9 9 9 ",
"9 9 9 9 9 9 9 9 9 u K U P N N N C C T &.<.<.<.<.<.<.&.T U U U U U U U K u 9 9 9 9 9 9 9 9 ",
"9 9 9 9 9 9 9 9 9 t a s J P P P P P P E ............E U U U U U U K s a t 9 9 9 9 9 9 9 9 ",
"9 9 9 9 9 9 - 5 - - - i G L U U U U U U U U U U U U U U U U U U L H a 9 9 9 9 9 9 9 9 9 9 ",
"9 9 9 9 9 3 # + + + + 0 p s U U U U U U U U U U U U U U U U U U s a r 9 9 9 9 9 9 9 9 9 9 ",
"9 9 9 9 9 3 +         + - a K K K I U U U U U U U U U U I K K K a 9 9 9 9 9 9 9 9 9 9 9 9 ",
"9 9 9 9 9 3 +         + - t u u u F U U U U U U U U U U F e w q 3 7 9 9 9 9 9 6 : ; ; ; ; ",
"9 9 9 9 9 3 +         + - 9 9 9 9 g U U U U U U U U U U g 1 & % ; : 9 9 9 4 9 % % % % % % ",
"9 9 9 9 9 3 +         + - 9 9 9 9 9 9 9 9 9 9 9 9 9 9 9 9 , + . * : 9 9 9 4 7 + X . . . . ",
"9 9 9 9 9 4 * + + + + - 6 9 9 9 9 9 9 9 9 9 9 9 9 9 9 9 9 2 * + > < 9 9 9 4 2 O .         ",
"9 9 9 9 9 4 4 3 3 3 3 4 9 9 9 9 9 9 9 9 9 9 9 9 9 9 9 9 9 4 4 3 4 9 9 9 9 4 2 O .         ",
"9 9 9 9 9 9 9 9 9 9 9 9 9 9 9 9 9 9 9 9 9 9 9 9 9 9 9 9 9 9 9 9 9 9 9 9 9 4 2 O .         ",
"9 9 9 9 9 9 9 9 9 9 9 9 9 9 9 9 9 9 9 9 9 9 9 9 9 9 9 9 9 9 9 9 9 9 9 9 9 4 8 * @ + + + + ",
"9 9 9 9 9 9 9 9 9 9 9 9 9 9 9 9 9 9 9 9 9 9 9 9 9 9 9 9 9 9 9 9 9 9 9 9 9 4 9 4 4 4 4 4 4 ",
"9 9 9 9 9 9 9 9 9 9 9 9 9 9 9 9 9 9 9 9 9 9 9 9 9 9 9 9 9 9 9 9 9 9 9 9 9 9 9 9 9 9 9 9 9 ",
"9 9 9 9 9 9 9 9 9 9 9 9 9 9 9 9 9 9 9 9 9 9 9 9 9 9 9 9 9 9 9 9 9 9 9 9 9 9 9 9 9 9 9 9 9 "
};
