/* XPM */
static char *result[] = {
/* columns rows colors chars-per-pixel */
"45 45 173 2 ",
"   c #3B2B32",
".  c #3B2C32",
"X  c #3B2D32",
"o  c #3B2E32",
"O  c #3C2C33",
"+  c #3C2D33",
"@  c #3C2E33",
"#  c #3D2F33",
"$  c #3C2C34",
"%  c #3C2D34",
"&  c #3D2D34",
"*  c #3C2E34",
"=  c #3D2E34",
"-  c #3D2F34",
";  c #3D2E35",
":  c #3D2F35",
">  c #3E2E34",
",  c #3E2E35",
"<  c #3E2F35",
"1  c #3E2E36",
"2  c #3E2F36",
"3  c #3F2F36",
"4  c #3F2F37",
"5  c #3D3034",
"6  c #3D3035",
"7  c #3E3036",
"8  c #3F3036",
"9  c #3F3037",
"0  c #402F33",
"q  c #422F34",
"w  c #423034",
"e  c #433035",
"r  c #413036",
"t  c #403037",
"y  c #443035",
"u  c #443135",
"i  c #483133",
"p  c #483233",
"a  c #493235",
"s  c #513433",
"d  c #5F3930",
"f  c #5F3932",
"g  c #5F3A32",
"h  c #66382C",
"j  c #66392C",
"k  c #67392D",
"l  c #673B2D",
"z  c #67392E",
"x  c #673A2E",
"c  c #673B2E",
"v  c #663A2F",
"b  c #683B2D",
"n  c #68392E",
"m  c #683B2E",
"M  c #683A2F",
"N  c #683B2F",
"B  c #693B2F",
"V  c #683C2E",
"C  c #683C2F",
"Z  c #6D3E2C",
"A  c #6C3D2F",
"S  c #7B3F25",
"D  c #723E2F",
"F  c #603932",
"G  c #643B30",
"H  c #653B31",
"J  c #673A31",
"K  c #673B31",
"L  c #683B30",
"P  c #693B30",
"I  c #6B3B30",
"U  c #683C30",
"Y  c #693C30",
"T  c #6B3C30",
"R  c #6A3D30",
"E  c #6D3E30",
"W  c #6E3E30",
"Q  c #6E3F30",
"!  c #794024",
"~  c #794125",
"^  c #7B4025",
"/  c #7B4127",
"(  c #70402D",
")  c #70412D",
"_  c #73442E",
"`  c #74452E",
"'  c #7A4228",
"]  c #7A432A",
"[  c #7A462F",
"{  c #7F472E",
"}  c #77492F",
"|  c #78482F",
" . c #78492F",
".. c #784A2F",
"X. c #6D4030",
"o. c #6E4031",
"O. c #6F4131",
"+. c #704130",
"@. c #704230",
"#. c #724331",
"$. c #724431",
"%. c #734431",
"&. c #764731",
"*. c #764831",
"=. c #794B31",
"-. c #7A4A31",
";. c #7B4A31",
":. c #7A4B31",
">. c #784832",
",. c #784932",
"<. c #784A32",
"1. c #7A4A32",
"2. c #7A4B32",
"3. c #7B4B32",
"4. c #7B4A33",
"5. c #7A4B33",
"6. c #7A4C33",
"7. c #7D4C32",
"8. c #7D4D32",
"9. c #7D4C33",
"0. c #824327",
"q. c #874429",
"w. c #874529",
"e. c #86462A",
"r. c #81482E",
"t. c #8B4B2A",
"y. c #924F2C",
"u. c #93512E",
"i. c #9F552C",
"p. c #804D31",
"a. c #804C33",
"s. c #824D32",
"d. c #814E32",
"f. c #824E32",
"g. c #894F31",
"h. c #994E30",
"j. c #815131",
"k. c #825233",
"l. c #825334",
"z. c #885334",
"x. c #905231",
"c. c #955034",
"v. c #9C5031",
"b. c #9C5234",
"n. c #9C5235",
"m. c #A65029",
"M. c #A7522A",
"N. c #A55434",
"B. c #A95A35",
"V. c #AC5B36",
"C. c #CA6026",
"Z. c #CD6126",
"A. c #D86424",
"S. c #E16521",
"D. c #E36722",
"F. c #E46721",
"G. c #E36C24",
"H. c #EE6A20",
"J. c #F26C20",
"K. c #E47126",
"L. c #F27022",
"P. c #F37523",
"I. c #F48028",
"U. c #DDA63E",
"Y. c #E2A93E",
"T. c #EAAB3D",
"R. c #F9AF3B",
"E. c #F0B63F",
"W. c #FABA3E",
"Q. c #FABA3F",
"!. c #EBB540",
"~. c #EDB440",
"^. c #FBC341",
/* pixels */
"9 9 9 9 9 9 9 9 9 9 9 9 9 9 9 9 9 9 9 9 9 9 9 9 9 9 3 +         $ ; 9 9 9 9 9 9 9 9 9 9 9 ",
"9 9 9 9 9 9 9 9 9 9 9 9 9 9 9 9 9 9 9 9 9 9 9 9 9 9 3 +         % : 9 9 9 9 9 9 9 9 9 9 9 ",
"9 9 9 9 9 9 9 9 9 9 9 9 9 9 9 9 9 9 9 9 9 9 9 9 9 9 3 + . . . . * : 9 9 9 9 9 9 9 9 9 9 9 ",
"9 9 9 9 9 9 9 9 9 9 9 9 9 9 9 9 9 9 9 9 9 9 9 9 9 9 4 2 1 1 1 1 4 9 9 9 9 9 9 9 9 9 9 9 9 ",
"9 9 9 9 9 9 9 9 9 9 9 9 9 9 9 9 9 9 9 9 9 9 9 9 9 9 4 4 4 4 4 4 4 9 9 9 9 9 9 9 9 9 9 9 9 ",
"9 9 9 9 9 9 9 9 9 9 9 9 9 9 9 9 9 9 9 9 9 9 9 9 9 9 9 9 9 9 9 9 9 9 9 9 9 9 9 9 9 9 9 9 9 ",
"4 4 4 4 4 9 9 9 9 9 9 9 9 9 9 9 9 9 9 9 9 9 9 9 9 9 9 9 9 4 9 4 9 9 9 9 9 9 9 9 9 9 9 9 9 ",
"9 9 9 9 9 9 9 9 9 9 9 9 9 9 9 9 9 9 9 9 9 9 9 9 9 9 9 9 9 9 9 9 9 9 9 9 9 9 9 9 9 9 9 9 9 ",
", < < 4 4 9 9 9 9 9 9 9 9 t u u u F Y Y Y Y Y Y Y Y Y C d e u y t 9 9 9 9 9 9 9 9 9 9 9 9 ",
"= - - 4 4 9 9 9 9 9 9 9 9 a K K K U Y Y Y Y Y Y Y Y P m c v K J a 9 9 9 9 9 9 9 9 9 9 9 9 ",
"    . 1 4 9 9 9 9 9 9 r a s Y Y Y Y Y Y Y Y Y Y Y Y B k j n N P s a r 9 9 9 9 9 9 9 9 9 9 ",
"    . 1 4 9 9 9 9 9 9 a H L Y Y Y Y Y Y Y Y Y Y Y Y B b l N Y P L H a 9 9 9 9 9 9 9 9 9 9 ",
"    . 1 4 9 9 9 9 t a s K Y Y Y Y Y Y Y Y Y Y Y Y Y Y V V C Y Y Y K s a t 9 9 9 9 9 9 9 9 ",
"    . 1 4 9 9 9 9 u K Y Y Y Y Y Y Y Y Y Y Y Y Y Y Y Y Y Y Y Y Y Y Y Y K u 9 9 9 9 9 9 9 9 ",
"+ @ @ 3 4 9 9 9 9 u K Y Y Y Y Y Y Y R +.$.$.[ M.m.W Y Y Y Y Y Y Y Y Y K u 9 9 9 9 9 9 9 9 ",
", < < 4 4 9 9 9 9 u K Y Y Y Y Y Y Y T &.2.2.g.D.S.D Y Y Y Y Y Y Y Y Y K u 9 9 9 9 9 9 9 9 ",
"9 9 9 9 9 9 9 9 g F U Y Y Y Y Y Y %.&.=.p.C.Z.i.u.>.%.R Y Y Y Y Y Y Y U F f 9 4 4 4 4 4 4 ",
"9 9 9 9 9 9 9 9 Y Y Y Y Y Y Y R T *.2.2.s.D.F.x.d.2.*.A I Y Y Y Y Y Y Y Y P 9 2 2 1 1 1 1 ",
"9 9 9 9 9 9 9 9 Y Y Y Y Y Y Y @.&.=.2.2.s.D.H.A.C.p.=.&.%.Y Y Y Y Y Y Y Y P 7 % + O O O O ",
"9 9 9 9 9 4 9 4 Y Y Y Y Y Y Y $.2.2.2.2.s.D.J.L.G.f.2.2.&.Y Y Y Y Y Y Y Y P 7 + X         ",
"9 9 4 4 4 4 4 4 P Y Y Y Y Y Y $.2.2.2.2.s.D.P.R.T.k.2.2.&.Y Y Y Y Y Y Y Y P 2 O .         ",
"9 9 4 @ . . . o x N Y Y Y Y Y $.2.2.2.2.f.K.I.W.!.l.2.2.&.Y Y Y Y Y Y Y Y P 2 O .         ",
"9 9 4 +       X z M Y Y P P P #.2.2.2.2.k.T.Q.^.!.l.2.2.&.Y Y Y Y Y Y Y Y P 2 O . . . . . ",
"9 9 4 +       . z M Y Y P P P #.2.2.5.;.j.U.~.E.Y.z.a.6.&.Y Y Y Y Y Y Y Y P 7 @ o . . . . ",
"9 9 4 +       . z M Y N x j j )  ...-.' ! t.y.B.V.N.b.9.&.Y Y Y Y Y Y Y Y P 9 4 4 4 4 4 4 ",
"9 9 4 +       X z N Y M z j j )  . .-.] ' 0.q.h.v.n.c.7.&.Y Y Y Y Y Y Y Y P 9 4 4 4 4 4 4 ",
"9 9 4 % O O O + n N Y M z h h ( |  .:.4.1.~ ! S / 8.9.5.&.Y Y Y Y Y Y Y Y Y 9 9 9 9 9 9 9 ",
"9 9 4 2 1 1 1 2 f F U M z h h Z _ } :.2.2./ ^ ^ / 2.=.&.%.Y Y Y Y Y Y U F g 9 9 9 9 9 9 9 ",
"9 9 4 4 4 4 4 4 4 u K N x j j j j ` :.2.3.e.w.w.e.3.&.T Y Y Y Y Y Y Y K u 9 9 9 9 9 9 9 9 ",
"9 9 9 9 9 9 9 9 9 u K N M n n n n X.#.<.2.r.r.r.{ #.O.R Y Y Y Y Y Y Y K u 9 9 9 9 9 9 9 9 ",
"9 9 9 9 9 9 9 9 9 u K Y P N N N C C T &.2.2.2.2.,.T Y Y Y Y Y Y Y Y Y K u 9 9 9 9 9 9 9 9 ",
"9 9 9 9 9 9 9 9 9 t a s J P P P P P P E o.o.o.o.Q Y Y Y Y Y Y Y Y K s a t 9 9 9 9 9 9 9 9 ",
"9 9 9 9 9 9 - 5 - - - i G L Y Y Y Y Y Y Y Y Y Y Y Y Y Y Y Y Y Y L H a 9 9 9 9 9 9 9 9 9 9 ",
"9 9 9 9 9 3 # + + + + 0 p s Y Y Y Y Y Y Y Y Y Y Y Y Y Y Y Y Y Y s a r 9 9 9 9 9 9 9 9 9 9 ",
"9 9 9 9 9 3 +         + - a K K K U Y Y Y Y Y Y Y Y Y Y U K K K a 9 9 9 9 9 9 9 9 9 9 9 9 ",
"9 9 9 9 9 3 +         + - t u u u F Y Y Y Y Y Y Y Y Y Y F e w q 3 7 9 9 9 9 9 6 : ; ; ; ; ",
"9 9 9 9 9 3 +         + - 9 9 9 9 g Y Y Y Y Y Y Y Y Y Y g 1 & % ; : 9 9 9 4 9 % % % % % % ",
"9 9 9 9 9 3 +         + - 9 9 9 9 9 9 9 9 9 9 9 9 9 9 9 9 , + . * : 9 9 9 4 7 + X . . . . ",
"9 9 9 9 9 4 * + + + + - 6 9 9 9 9 9 9 9 9 9 9 9 9 9 9 9 9 2 * + > < 9 9 9 4 2 O .         ",
"9 9 9 9 9 4 4 3 3 3 3 4 9 9 9 9 9 9 9 9 9 9 9 9 9 9 9 9 9 4 4 3 4 9 9 9 9 4 2 O .         ",
"9 9 9 9 9 9 9 9 9 9 9 9 9 9 9 9 9 9 9 9 9 9 9 9 9 9 9 9 9 9 9 9 9 9 9 9 9 4 2 O .         ",
"9 9 9 9 9 9 9 9 9 9 9 9 9 9 9 9 9 9 9 9 9 9 9 9 9 9 9 9 9 9 9 9 9 9 9 9 9 4 8 * @ + + + + ",
"9 9 9 9 9 9 9 9 9 9 9 9 9 9 9 9 9 9 9 9 9 9 9 9 9 9 9 9 9 9 9 9 9 9 9 9 9 4 9 4 4 4 4 4 4 ",
"9 9 9 9 9 9 9 9 9 9 9 9 9 9 9 9 9 9 9 9 9 9 9 9 9 9 9 9 9 9 9 9 9 9 9 9 9 9 9 9 9 9 9 9 9 ",
"9 9 9 9 9 9 9 9 9 9 9 9 9 9 9 9 9 9 9 9 9 9 9 9 9 9 9 9 9 9 9 9 9 9 9 9 9 9 9 9 9 9 9 9 9 "
};
