/* XPM */
static char *result[] = {
/* columns rows colors chars-per-pixel */
"64 64 29 1 ",
"  c #282F3F",
". c #2B3344",
"X c #2E3649",
"o c #2F384B",
"O c #31394D",
"+ c #343D52",
"@ c #374156",
"# c #384157",
"$ c #374159",
"% c #3A445B",
"& c #3D4762",
"* c #3D4863",
"= c #414B66",
"- c #424D6A",
"; c #45506D",
": c #48536E",
"> c #475473",
", c #495675",
"< c #4D5976",
"1 c #4A5778",
"2 c #4D5A7A",
"3 c #515E7D",
"4 c #53607E",
"5 c #515F80",
"6 c #546283",
"7 c #586687",
"8 c #576788",
"9 c #596789",
"0 c #5A698B",
/* pixels */
"0000221,,,,,>>>>,>,1>>1,150074=%#%40004<,,,2111*51*51*5*5111*11>",
"0009211,>>>>,>>>>>>>>111120074%@%%44072<,,,**,11*55*5*11*111211>",
"6764,>::>>->;>>>>>>>>>>>>1664<#@#%44641,>>>*12,1*5*5*55*11111**>",
"333<::-=*---*-;*;*;>*>**;:22<<%@@#<<32::>*******1***5********1**",
"%###@@@OO+++++++@@%%#@@@+@#%#@o.XX@@#@@O@@X@o@o@$$$$$$$$++O+$+++",
"O+@OOXoOoooOOOooO@$$@@XOooO@@OX. Xo@O@OO.@XXXoo@oo$$$$$$oooo+ooo",
"X...............ooO@OOX..... ........... ..... ..Xoo@oOOo..X....",
"OOOXXOooooooOoooOo@@o@oXooooooOoooooOooOo.@ooo.@oooOo@$ooooooooo",
":<<<<:,1>1,:,:<:=%@@@%::::<::<,1<::<>,,:<<:<>,,:<::%@@#%*2,,,,,:",
"4<44434242424444-=@@%%<444444242444444334<4433334<:%@@%=15553333",
"0000778000000076::@O%=4000077000004008800040000086<:@@*=88808080",
"0000000000000000::@@==7000000000000000000000000000::%@%=88000000",
"0000885655650800::@@%=7000648556445566564466658800<:#@%=80886666",
"0000655554446000<-@@*=6088645555444424554433358800<:%@*-60886454",
"00005211111<4600::@@%-6086211111<11,111,11,1115600::%@%-8088222,",
"0000221>,,114400<=@@&-688611>>>11,,,1>,,1,>1,,3508:;#%%*67861,,,",
"74631111>>112555>-++&*2665>1>1>>>>1>>11>,,>>>12244;*$+%*2555111,",
"443211>>,>1>2252;*#+%*22221>,,1>11>>1>>>,>11,12243:*$@&*232211,>",
"<11,,11>,,,>1>1,=&+@$%>,,,,,,,>>>1>1>>11,,1>,>,,11**@@$&>>,,,>>1",
",,>>>>>>>>>>>>>>*&++$%:>>>>,,>>>,,1>>>>>>>>>>>>>>1**@$+&;>>>>>>>",
"-*-**-------=---&+Oo++--*;*-=;:=*>****;**-*-==;-**%$++++******>*",
"**********&****%++OX++%&*****%==*>***&******%=****$@OoOo********",
"oXXX.X.XX.X..XXXo. ...X..XXXXO@@$+OOXX.XXXXXXXXXoX......oo.XXXoX",
".............................XO@+OXo..........  ................",
"+++++++++@++O++O++++O@OO@@O@@@OO++@O@@O@O@O@@O@@O@@@@O+O++O@OO@@",
"%%#%###%#%%#%%%%+&&+%%%%#%####@@++@%####%%%###%%##@%#%%%%%%$%%##",
"46644766444446666656466644444<%#%%124464666644444444476666464446",
"077099990700079979900799090044&#$&460000777900000009777080070070",
"000000990099900009009099000096&#%%670000099999000099099999000070",
"000000997979998999997799090096&%%%670090708998779799708898777777",
"000095313<<<<12<<<2<2122440096&#%%5700442222<122<<3<2222<1<22222",
"00005511<<11111111111111339093%%#*6909331111111111<,11111111111<",
"88885111555*,,,1>111555*138744%%#*460721,,**55111>1>1>11>1>1111>",
"8888111>**11,,>>>>11**1,1<8844%@#%3477<<,,515*12>1>11>>>1>1>>>1>",
"5111111>5*11>,>11>*251,,1,12<,@@#%,11111,,>>111*1>>1>11>>>11>>>1",
"1>1>1>>1152*1>,>>>115*,,,,,,,:@@#%;:1,11,,1>*211>>1>>1>>>1>>>1>>",
"**5*11>>**5*:::;>>>>,,>>>>>>;;@@@$;>>>>>11>,:;::*1>>>>1>>>>1>>>*",
"*5*1***>*55*;*;;*11*1**>*>;*==@@+$***>;;***>;;;*>*>*1*1**>***>*>",
"++$$+O++++$+@@@@$$**$$+@O@@@Xo @XXoO++o+++O@@o@@$$$$*$$$$$$oO$$$",
"oooooooooooooo XO$$$@@ooooXX@XX ..oooooooooooo.@oO++$$$$Oooooooo",
".............. @oo+++Oo....... X............ X  ..oo@@o@oX....X.",
"oooXoooooXOoooXXOO+++OoooXOooo @XooooXOoOo.@Xo@Xooo@o@o@oooooooo",
"*1,,<:1,:<,,<:::**&+$&*5:<11<:::<:,,:<,1::<::<,,<:*%@@%%**51:,,,",
"8555433442444444**$+%*>54245444443344<444444433344;*@@%%25553333",
"0000700000000007:-@+&*6000000000000000008000000084<:@@%=80000000",
"0000000000000000,;@@&*6000000000000000000000000000::%@*=80000000",
"0000774666660000<-#@**7008668556446566564466667000<:$@%;60886666",
"0000664444446000::@@%-6008555555444455554444657700:-%%%*60886464",
"0000511111115608<;+@&=6977<11111111111111111115600<:%@%=60082111",
"0000511,1>,136081-@+%=677711>>>1>>111>15>,1>,12600:;@@%;607711,,",
"569621>>>>1,2255:-%+%=33621>>1>>>1*2*21*,,>>,>2543:-$@%*34551,1>",
"555511>,>1111155--++&*<32<111>>>>>1111>1,,,1>11133:*$%%*<222,11>",
"11>11>>,,>,,1111-&++$&>111,,>,,,1>1>55*5,,,*,,,11,**%$%%1222,,,,",
">1,,>>>>>>>,,,,>=&++$%->,,>,>>,,>>>>*55**5*5>,>>>>**$$$%**12,>2*",
"-;;:>>->>*>;>,;**%++$%-;->;>-->>*>*>1**5*11*>;;>;:*%@@@@>*,**>*1",
"---**;*;>*;***;*&&+++%*--**;*>***>***1****1*;******%@@@@***,*>**",
"@%@%@%##$$@@@@@$+@++++%#@@@@@@@@**$$$$$$$$$$$@@@$$$++++@*&@@@@@@",
"++++++++@@++@++@++++++++@+@@@o@@$$+++$$o++@++@@@@+++++++@@+@@@o@",
"++++++++++++++++++++++++o@++@o++++++@ooOOOOoooOOooOOOOOOoOO++oo+",
"++++++++++++++++++++++++@o+++@++++++@@OooOooooooooOooooooooooooX",
"+++++++++++++++++++++++@++++@O@+o@@oo@............... ..........",
"+++++++++++++++++++++++o++o+O@++@@o@@oX.     .  ..   .     ..   ",
"++++++++++++++++++O+++++++@+@OO@o@o@o@..        .              .",
"++++O++++++++O++++++++++++++o@@O@O@o@oX.                        "
};
