/* XPM */
static char *result[] = {
/* columns rows colors chars-per-pixel */
"45 45 239 2 ",
"   c #0B0A09",
".  c #0D0B0A",
"X  c #0F0D0B",
"o  c #0E0D0D",
"O  c #110D0C",
"+  c #110E0C",
"@  c #100F0D",
"#  c #120E0D",
"$  c #120F0D",
"%  c #110E0E",
"&  c #110F0E",
"*  c #120F0F",
"=  c #14100E",
"-  c #14110F",
";  c #131210",
":  c #161210",
">  c #171210",
",  c #151112",
"<  c #161212",
"1  c #181211",
"2  c #191311",
"3  c #181312",
"4  c #1A1312",
"5  c #1C1312",
"6  c #1A1413",
"7  c #1A1513",
"8  c #1D1413",
"9  c #191415",
"0  c #1B1614",
"q  c #1D1614",
"w  c #1E1614",
"e  c #1C1716",
"r  c #1C1617",
"t  c #191914",
"y  c #1D1719",
"u  c #1E1819",
"i  c #1D1B1E",
"p  c #201816",
"a  c #201916",
"s  c #231916",
"d  c #20191B",
"f  c #211E19",
"g  c #271C1A",
"h  c #261D1B",
"j  c #271E1B",
"k  c #271D1C",
"l  c #251C1E",
"z  c #251D1F",
"x  c #261D1F",
"c  c #291E1D",
"v  c #281F1D",
"b  c #25211A",
"n  c #2B211E",
"m  c #2C201E",
"M  c #2D221F",
"N  c #27281F",
"B  c #251D20",
"V  c #261D21",
"C  c #261F21",
"Z  c #1E2426",
"A  c #1F2528",
"S  c #282020",
"D  c #292024",
"F  c #2B2124",
"G  c #2C2125",
"H  c #222629",
"J  c #2D2328",
"K  c #2E2228",
"L  c #2E2328",
"P  c #2F2328",
"I  c #2E2329",
"U  c #2E2428",
"Y  c #2E2429",
"T  c #2F2429",
"R  c #2F2529",
"E  c #2F252A",
"W  c #312422",
"Q  c #372725",
"!  c #382621",
"~  c #3B2723",
"^  c #322924",
"/  c #322A25",
"(  c #332826",
")  c #342B26",
"_  c #322D25",
"`  c #3B2823",
"'  c #3D2824",
"]  c #3D2925",
"[  c #3F2925",
"{  c #3E2A25",
"}  c #302328",
"|  c #30252A",
" . c #31252B",
".. c #31262B",
"X. c #32262B",
"o. c #32272C",
"O. c #33272D",
"+. c #34272C",
"@. c #34272D",
"#. c #35272D",
"$. c #322B28",
"%. c #352C2A",
"&. c #34282E",
"*. c #35292F",
"=. c #36292F",
"-. c #37292F",
";. c #3D2A28",
":. c #3F2C29",
">. c #35332C",
",. c #3C342A",
"<. c #3A302E",
"1. c #3A352C",
"2. c #3B372D",
"3. c #32392A",
"4. c #353C2C",
"5. c #382A31",
"6. c #392A31",
"7. c #382B31",
"8. c #392B32",
"9. c #3B2B32",
"0. c #3A2B33",
"q. c #392C32",
"w. c #3B2C32",
"e. c #3B2D32",
"r. c #3A2C33",
"t. c #3B2C33",
"y. c #3B2D33",
"u. c #3B2E33",
"i. c #3C2C33",
"p. c #3C2D33",
"a. c #3C2E33",
"s. c #3B2D34",
"d. c #3C2C34",
"f. c #3C2D34",
"g. c #3C2E34",
"h. c #3D2E34",
"j. c #3D2F34",
"k. c #3C2E35",
"l. c #3D2E35",
"z. c #3D2F35",
"x. c #3E2F35",
"c. c #3E2E36",
"v. c #3E2F36",
"b. c #3F2F36",
"n. c #3F2F37",
"m. c #2B333A",
"M. c #2D3539",
"N. c #3E3035",
"B. c #3E3036",
"V. c #3F3036",
"C. c #3F3037",
"Z. c #402B26",
"A. c #412C28",
"S. c #402C29",
"D. c #412D29",
"F. c #422D29",
"G. c #432E29",
"H. c #412F2A",
"J. c #432E2A",
"K. c #432E2B",
"L. c #442F2B",
"P. c #452F2B",
"I. c #412F2C",
"U. c #432F2C",
"Y. c #442F2C",
"T. c #452F2C",
"R. c #45302C",
"E. c #44312D",
"W. c #46302C",
"Q. c #46312D",
"!. c #47312D",
"~. c #44322D",
"^. c #46312E",
"/. c #47312E",
"(. c #40372C",
"). c #48312D",
"_. c #4A332F",
"`. c #4A3330",
"'. c #4B3330",
"]. c #493430",
"[. c #4B3430",
"{. c #4A3531",
"}. c #4B3531",
"|. c #4A3432",
" X c #4D3633",
".X c #4D3733",
"XX c #4E3633",
"oX c #4E3733",
"OX c #4E3734",
"+X c #4E3834",
"@X c #4F3834",
"#X c #4F3835",
"$X c #4F3935",
"%X c #503935",
"&X c #434536",
"*X c #474B39",
"=X c #48493B",
"-X c #51493B",
";X c #564D3E",
":X c #2F3A40",
">X c #323D44",
",X c #333F47",
"<X c #354149",
"1X c #35424A",
"2X c #39454D",
"3X c #3B464D",
"4X c #3E4A51",
"5X c #505A42",
"6X c #515F46",
"7X c #545F46",
"8X c #444E57",
"9X c #444F57",
"0X c #655D4E",
"qX c #68584B",
"wX c #605C50",
"eX c #615E54",
"rX c #785B53",
"tX c #536446",
"yX c #566348",
"uX c #576349",
"iX c #5A674C",
"pX c #58674F",
"aX c #5B6A4E",
"sX c #5B6B4E",
"dX c #5B6B4F",
"fX c #5C6C4F",
"gX c #5D6D50",
"hX c #5D6D51",
"jX c #69604F",
"kX c #647457",
"lX c #657558",
"zX c #816158",
"xX c #8C6B61",
"cX c #728169",
"vX c #74836B",
"bX c #7B8B6E",
"nX c #7D8D71",
"mX c #B08073",
"MX c #C29283",
/* pixels */
"C.C.C.C.C.C.C.C.C.C.C.C.C.C.C.C.C.* s { +X' ~ A.%X%X{ ~ ~ ~ O K d.c.C.C.C.C.C.C.C.C.C.C.C.",
"C.C.C.C.C.C.C.C.C.C.C.C.C.C.C.q.* I.|.oX$XXX XOX%X%XoX X^.O } 6.f.c.C.C.C.C.C.C.C.C.C.C.C.",
"C.C.C.C.C.C.C.C.C.C.C.C.C.C.7.x s {.%X%X%X%X%X%X%X%X).W.J.M l #.g.v.C.C.C.C.C.C.C.C.C.C.C.",
"C.C.C.C.C.C.C.C.C.C.C.C.C.*.F 5 ~  X%X%X%X%X%X%X$X[.F.A.G.%X=  .n.C.C.C.C.C.C.C.C.C.C.C.C.",
"C.C.C.C.C.C.C.C.C.C.C.C.C.r 4 ! ' .X%X%X%X%X%X%X+X[ .X%X%X%X> T f.C.C.C.C.C.C.C.C.C.C.C.C.",
"C.C.C.C.C.C.C.C.C.C.C.C.C.g.R : +X$X%X%X%X%X%X%X$X@X$X%X%X%X` 4 r C.C.C.C.C.C.C.C.C.C.C.C.",
"n.C.n.C.n.C.C.C.C.C.C.C.C.C...$ /.+X%XOXF.@XP.P.%X%X%X%XOXA.8 F *.C.C.C.C.C.C.C.C.C.C.C.C.",
"C.C.C.C.C.C.C.C.C.C.C.C.C.*.G w K.OX%XOXD._.J.P.%X%X%X%X.X] + ..C.C.C.C.C.C.C.C.C.C.C.C.C.",
"v.v.v.n.n.C.C.C.C.C.C.C.C.y q ;.K. X#X%X+XZ.}.%X%X%X%X%XOXK.1 P r.C.C.C.C.C.C.C.C.C.C.C.C.",
"h.h.j.n.n.C.C.C.C.C.C.C.C.C...# K.K.].%X%X%X%X%X%X%X%X%XOXK.K.2 9 C.C.C.C.C.C.C.C.C.C.C.C.",
"9.9.w.c.n.C.C.C.C.C.C.C.C.C...# K.K.L.!.%X%X%X%X%X%X%X{.T.K.1 P r.C.C.C.C.C.C.C.C.C.C.C.C.",
"9.9.w.c.n.C.C.C.C.C.C.C.C.C.7.z g :.K.R.%X%X%X%X$X'.`.Q.:.g z 5.C.C.C.C.C.C.C.C.C.C.C.C.C.",
"9.9.w.c.n.C.C.C.C.C.C.C.C.C.C.q.* Q S.Y.OXOXOXOXXXU.K.S.Q * q.C.C.C.C.C.C.C.C.C.C.C.C.C.C.",
"9.9.w.c.n.C.C.C.C.C.C.C.C.C.C.C.C.* j E.H.E.~.~.E.H.E.j * C.C.C.C.C.C.C.C.C.C.C.C.C.C.C.C.",
"p.p.a.b.n.C.C.C.C.C.C.C.C.C.C.C.C.* 3.7XW uXiXiXuXW 7X3.* C.C.C.C.C.C.C.C.C.C.C.C.C.C.C.C.",
"l.l.z.b.n.C.C.C.C.C.C.C.C.C.C.C.C.* f 2.5XaXsXsXaX5X2.f * C.C.C.C.C.C.C.C.C.C.C.C.C.C.C.C.",
"C.C.C.C.C.C.C.C.C.C.C.C.C.C.C.z...3 p ^ sXsXsXsXsXsX^ p 3 ..z.C.C.C.C.C.C.n.C.n.n.n.n.n.n.",
"n.C.n.C.n.C.C.C.C.C.C.C.C.C.C.7.  c m ^ dXgXhXhXgXdX^ M n   7.C.C.C.C.C.C.C.C.B.v.v.v.v.v.",
"C.C.C.C.C.C.C.C.C.C.C.C.C.C.C.7.  %.( ^ hXbXnXnXbXhX^ &X6X  7.C.C.C.C.C.C.n.B.h.a.p.p.p.p.",
"C.n.C.n.C.n.C.n.n.C.n.C.C.C.O.< %.<.=XyXsXtXtXtXtXsXyX4.t %.< O.C.C.C.C.C.n.B.p.e.w.w.w.w.",
"C.n.n.n.n.n.n.n.n.C.n.C.C.C...0 xXxXqX*XfXkXlXlXkXfX*XN 7 zX7 ..C.C.C.C.C.n.v.i.w.9.9.9.9.",
"C.n.n.a.y.t.t.u.a.z.n.C.C.C.O.v MXMXrX$.pXcXvXvXcXpX$.e a mXh O.C.C.C.C.C.n.v.i.w.9.9.9.9.",
"C.n.n.p.w.9.9.w.i.l.n.C.C.C.C.7.    A ,X,X,X,X,X,X,X,XA     7.C.C.C.C.C.C.n.B.p.e.w.w.w.w.",
"C.n.n.p.w.9.9.w.i.l.n.C.n.b.b.b.t.& A <X8X8X8X8X8X8X<XA & s.C.C.C.C.C.C.C.n.B.a.y.t.t.t.t.",
"C.n.n.p.w.9.9.w.i.l.n.v.g.w.w.w.w.& A 1X9X2XH H 3XeXwX>.* C.C.C.C.C.C.C.C.n.C.n.n.n.n.n.n.",
"C.n.n.p.w.w.w.e.p.z.n.c.f.9.9.9.9.% A <X4Xm.i i M.0XjX1.* C.C.C.C.C.C.C.C.n.C.n.n.n.n.n.n.",
"C.n.n.h.i.p.p.a.h.v.n.c.d.9.9.9.9.% Z >X:Xo ..o.- -X;X_ , C.C.C.C.C.C.C.C.C.C.C.C.C.C.C.C.",
"C.C.C.B.v.v.v.v.B.C.C.c.d.9.9.9.9.% 6 c k . ..v.6.; @ C f.C.C.C.C.C.C.C.C.C.C.C.C.C.C.C.C.",
"C.n.n.n.n.n.n.n.n.C.n.v.g.w.w.w.w.% b (.,.X ..C.C.8.7.k.C.C.C.C.C.C.C.C.C.C.C.C.C.C.C.C.C.",
"C.C.C.C.C.C.C.C.C.C.C.C.v.-.@.@.@.d S ) / u T =.=.X. .+.=.=.=.=.8.C.C.C.C.C.C.C.C.C.C.C.C.",
"C.C.C.C.C.C.C.C.C.C.C.C.n.&.E L U L D B V J Y Y J V B D Y Y Y | *.C.C.C.C.C.C.C.C.C.C.C.C.",
"C.C.C.C.C.C.C.C.C.C.C.C.n.n.0.I I I I Y Y Y Y Y Y Y Y Y Y Y Y r.C.C.C.C.C.C.C.C.C.C.C.C.C.",
"C.C.C.C.C.V.x.N.x.x.x.v.B.C.C.l.l.l.l.l.l.l.l.l.l.l.l.l.l.l.l.C.C.C.C.C.C.C.C.C.C.C.C.C.C.",
"C.C.C.C.C.b.h.p.p.p.p.h.B.C.C.C.C.C.C.C.C.C.C.C.C.C.C.C.C.C.C.C.C.C.C.C.C.C.C.C.C.C.C.C.C.",
"C.C.C.C.C.v.p.9.9.9.9.p.x.C.C.C.C.C.C.C.C.C.C.C.C.C.C.n.C.n.n.n.n.C.C.C.C.n.C.n.n.n.n.n.n.",
"C.C.C.C.C.v.p.9.9.9.9.p.x.C.C.C.C.C.C.C.C.C.C.C.C.C.C.C.C.v.z.l.v.B.C.C.C.C.C.z.z.l.l.l.l.",
"C.C.C.C.C.v.p.9.9.9.9.p.x.C.C.C.C.C.C.C.C.C.C.C.C.C.C.n.C.l.f.i.l.v.C.C.C.n.B.f.p.i.i.i.i.",
"C.C.C.C.C.v.p.9.9.9.9.p.x.C.C.C.C.C.C.C.C.C.C.C.C.C.C.n.C.l.p.w.g.v.C.C.C.n.B.p.e.w.w.w.w.",
"C.C.C.C.C.v.g.p.p.p.p.h.B.C.C.C.C.C.C.C.C.C.C.C.C.C.C.n.C.l.g.p.h.v.C.C.C.n.v.i.w.9.9.9.9.",
"C.C.C.C.C.n.v.v.v.v.v.b.C.C.C.C.C.C.C.C.C.C.C.C.C.C.C.n.C.n.v.v.b.C.C.C.C.n.v.i.w.9.9.9.9.",
"C.C.C.C.C.C.C.C.C.C.C.C.C.C.C.C.C.C.C.C.C.C.C.C.C.C.C.C.C.C.C.C.C.C.C.C.C.n.v.p.e.w.w.w.w.",
"C.C.C.C.C.C.C.C.C.C.C.C.C.C.C.C.C.C.C.C.C.C.C.C.C.C.C.C.C.C.C.C.C.C.C.C.C.n.V.j.a.p.p.p.p.",
"C.C.C.C.C.C.C.C.C.C.C.C.C.C.C.C.C.C.C.C.C.C.C.C.C.C.C.C.C.C.C.C.C.C.C.C.C.n.C.n.n.n.n.n.n.",
"C.C.C.C.C.C.C.C.C.C.C.C.C.C.C.C.C.C.C.C.C.C.C.C.C.C.C.C.C.C.C.C.C.C.C.C.C.n.C.n.n.n.n.n.n.",
"C.C.C.C.C.C.C.C.C.C.C.C.C.C.C.C.C.C.C.C.C.C.C.C.C.C.C.C.C.C.C.C.C.C.C.C.C.C.C.C.C.C.C.C.C."
};
