/* XPM */
static char *result[] = {
/* columns rows colors chars-per-pixel */
"45 45 78 1 ",
"  c #0E0C0B",
". c #1B1514",
"X c #1F191A",
"o c #231916",
"O c #251C1D",
"+ c #291E1C",
"@ c #27231D",
"# c #2D201E",
"$ c #30211E",
"% c #1E1F22",
"& c #251E21",
"* c #281F22",
"= c #1D2224",
"- c #1F2428",
"; c #242223",
": c #2B2124",
"> c #2D2A23",
", c #2F2429",
"< c #252A2E",
"1 c #342421",
"2 c #3B2723",
"3 c #342C26",
"4 c #32262B",
"5 c #35292D",
"6 c #3F2C29",
"7 c #2E3126",
"8 c #35322C",
"9 c #38342E",
"0 c #333A2B",
"q c #3B392E",
"w c #372A30",
"e c #3D2E35",
"r c #2E3439",
"t c #3F3037",
"y c #3E3E31",
"u c #422E2A",
"i c #46312D",
"p c #49322E",
"a c #463631",
"s c #4C3632",
"d c #423C30",
"f c #4F3834",
"g c #503935",
"h c #3F4133",
"j c #424234",
"k c #464639",
"l c #464D3A",
"z c #494F3C",
"x c #5D453F",
"c c #4B533E",
"v c #2E3940",
"b c #323D45",
"n c #344148",
"m c #38434B",
"M c #3E4951",
"N c #4A4D4B",
"B c #5C4640",
"V c #564F42",
"C c #4C5340",
"Z c #545C45",
"A c #5C564A",
"S c #444E57",
"D c #604840",
"F c #68584B",
"G c #615D53",
"H c #775B53",
"J c #566348",
"K c #5B6B4D",
"L c #5C6853",
"P c #616E54",
"I c #617155",
"U c #66755A",
"Y c #69775F",
"T c #6E7E61",
"R c #8A6A5F",
"E c #74836B",
"W c #7B8B6E",
"Q c #BD8E80",
/* pixels */
"ttttttttttttttttttttttttttveeeweeettttttttttt",
"ttttttttttttttttttttttttttiewewweettttttttttt",
"ttttttttttttttttttttttttttteeeeeetttttttttttt",
"tttttttttttttttttttttttttttteeeettttttttttttt",
"tttttttttttttttttttttttttttteettttttttttttttt",
"tttttttttttttttttttttttttttteettttttttttttttt",
"etttttttttttttttttttttttttttttttttttttttttttt",
"ttatttttttttttttttttttttttttttttttttttttttttt",
"ttetttttttttttttttttttttttttetttttttttttttttt",
"eeettttttttttttttttttttttteeetttttttttttttttt",
"eweeetttttttttttttttttttttteeeetttttttttttttt",
"wweetttttttttttttttttttttteeeettttttttttttttt",
"eeeeetttttttttttttttuttttttuetttttttttttttttt",
"weeettttttttttttttttw4wtw**4ttttttttttttttttt",
"eeetetttttttttttttte:*O4*..O4wwetttttttttttte",
"eeeutttttttttttttte*ooX X12o  o4ettttttttttte",
"tttttttttttttttptt*Xuup2ussp22OO*etttttttttte",
"tttttttttttttttvw**psgssgsgsg$+,etttttteteete",
"ttttttttttttttiw*O6sggggggspuu$*4ettttteeeeee",
"tttttteettetttw,*+uggggggsspup2**ttttteeweeee",
"tttteeeettettt,*+2pggggggpppsg2**eettteeweewe",
"ttteeeeeeettttt4*$ggggssggsgssp1+*ttteeeweww2",
"teteweeeeetttti4OOpgpppppsgggp$O*ettttteeeeee",
"tteeewweeetttt**$upggpuusggggp$O*ttttteeewwee",
"ttteeweweeteee4*@1ifgfpsgggggs2:*4etttttttttt",
"ttteeeeeeeteewe*O+uisgggggggspu1*,eettttttttt",
"ttteeeeeeeteeew,O+uuisgggggspu*+*tttttttttttt",
"ttteeeeettttewee4O+6ppgggspuu+O4ttttttttttttt",
"tttteetttttee5eeww&*6iiiuauu+O5ettttttttttttt",
"tttteetttttteeeeue&>qjjZZkjy8Owattttttttttttt",
"ttttttttttttaetete&>hkcKLCzh7&wtttttttttttttt",
"ttttttttttttttteeeOXqcKKKKZy.&wtttttttttttttt",
"tttttttteeeeeettw;.+qcKKKKJh#.O4ttttttttttttt",
"tttteeeeeeeeeettwO0hkcYWWEPj3OO4ttttttttttttt",
"tttteeeweweeettw:@@0cJKKKKKZk5@:,tttttttetttt",
"tttteeeeeeeweeew,ia>lJIUUIKcFRB5;tttttteeeeee",
"ttttteeeweeettte5DxO0NTEEYLlHQHf:etttteeeuwee",
"tttttteee6eeeteew& =vbbnnnnh- X,eetttteeeweee",
"ttttteeeeweettttte&=bMSSSSSm-%4eeetttteewewew",
"ttttttteeetettttte&9AGN<<nMm-%wtattttttewweew",
"tttttttteettttttte&4VV9&&<rb&Oettttttteeiwwew",
"tttttttttttttttttt*4da,,&%*r%Oeetttttteeeeeee",
"ttttttttttttttttttv,..*t*%o*.&wetttttttttttti",
"ttttttttttttttttttiatttt*&*uO&eettttttttttttv",
"tttttttttttettew,4,****4,**&:444wweetttttttte"
};
