/* XPM */
static char *result[] = {
/* columns rows colors chars-per-pixel */
"45 45 229 2 ",
"   c #3B2B32",
".  c #3B2C32",
"X  c #3B2D32",
"o  c #3B2E32",
"O  c #3D2C31",
"+  c #3C2C33",
"@  c #3C2D33",
"#  c #3F2D33",
"$  c #3C2E33",
"%  c #3D2F33",
"&  c #3C2C34",
"*  c #3C2D34",
"=  c #3D2D34",
"-  c #3C2E34",
";  c #3D2E34",
":  c #3D2F34",
">  c #3D2E35",
",  c #3D2F35",
"<  c #3E2E34",
"1  c #3E2F34",
"2  c #3E2E35",
"3  c #3E2F35",
"4  c #3E2E36",
"5  c #3E2F36",
"6  c #3F2F36",
"7  c #3F2F37",
"8  c #3D3034",
"9  c #3D3035",
"0  c #3F3034",
"q  c #3E3035",
"w  c #3E3036",
"e  c #3F3036",
"r  c #3F3037",
"t  c #412E32",
"y  c #402F35",
"u  c #412F36",
"i  c #473033",
"p  c #473133",
"a  c #403034",
"s  c #433135",
"d  c #413036",
"f  c #403037",
"g  c #423036",
"h  c #443135",
"j  c #473135",
"k  c #443136",
"l  c #463236",
"z  c #4A3134",
"x  c #483234",
"c  c #493235",
"v  c #4C3334",
"b  c #4C3435",
"n  c #4E3535",
"m  c #533532",
"M  c #553531",
"N  c #543631",
"B  c #543533",
"V  c #553633",
"C  c #573633",
"Z  c #503435",
"A  c #513535",
"S  c #533634",
"D  c #553634",
"F  c #563734",
"G  c #5A3733",
"H  c #5D3932",
"J  c #5D3933",
"K  c #5F3933",
"L  c #5F3A32",
"P  c #5F3A33",
"I  c #623A2E",
"U  c #66382C",
"Y  c #66392C",
"T  c #673A2D",
"R  c #67392E",
"E  c #673A2E",
"W  c #673B2F",
"Q  c #683A2D",
"!  c #683B2D",
"~  c #68392E",
"^  c #683A2E",
"/  c #693B2E",
"(  c #683A2F",
")  c #683B2F",
"_  c #683C2E",
"`  c #683C2F",
"'  c #6C3D2F",
"]  c #793F24",
"[  c #793F25",
"{  c #623A30",
"}  c #603932",
"|  c #613A32",
" . c #633B32",
".. c #643A31",
"X. c #643B31",
"o. c #653B31",
"O. c #663B31",
"+. c #673B31",
"@. c #643B32",
"#. c #683B30",
"$. c #693B30",
"%. c #683B31",
"&. c #6B3B30",
"*. c #683C30",
"=. c #693C30",
"-. c #693D30",
";. c #693D31",
":. c #6A3C30",
">. c #6B3C30",
",. c #6A3D30",
"<. c #6B3D30",
"1. c #6A3C31",
"2. c #6B3D31",
"3. c #6B3E30",
"4. c #6D3E30",
"5. c #6D3F30",
"6. c #6E402D",
"7. c #794126",
"8. c #794127",
"9. c #7B4126",
"0. c #7E4126",
"q. c #70412E",
"w. c #76472F",
"e. c #77472F",
"r. c #79452C",
"t. c #7A462D",
"y. c #7A472D",
"u. c #7D442E",
"i. c #76482F",
"p. c #78492F",
"a. c #784A2F",
"s. c #6E4031",
"d. c #6F4131",
"f. c #724130",
"g. c #714231",
"h. c #714331",
"j. c #734330",
"k. c #704332",
"l. c #754230",
"z. c #734431",
"x. c #754731",
"c. c #764730",
"v. c #764731",
"b. c #774731",
"n. c #7A4630",
"m. c #764831",
"M. c #7B4830",
"N. c #7A4931",
"B. c #794B31",
"V. c #7A4B31",
"C. c #784932",
"Z. c #794932",
"A. c #784A32",
"S. c #794B32",
"D. c #794A33",
"F. c #794B33",
"G. c #7B4A32",
"H. c #7A4B32",
"J. c #7B4B32",
"K. c #7A4B33",
"L. c #7C4B31",
"P. c #7B4C32",
"I. c #7B4C33",
"U. c #7D4C33",
"Y. c #844428",
"T. c #854529",
"R. c #864428",
"E. c #85472B",
"W. c #86462A",
"Q. c #83442D",
"!. c #88472E",
"~. c #80482E",
"^. c #80492E",
"/. c #85492E",
"(. c #834D2C",
"). c #8B482D",
"_. c #894F2F",
"`. c #90492C",
"'. c #97532F",
"]. c #98532E",
"[. c #824D31",
"{. c #804C33",
"}. c #814D33",
"|. c #824D32",
" X c #814E32",
".X c #864E31",
"XX c #864F31",
"oX c #854E32",
"OX c #894F31",
"+X c #904F33",
"@X c #825233",
"#X c #875634",
"$X c #895031",
"%X c #8A5934",
"&X c #915C35",
"*X c #A5562C",
"=X c #AF592B",
"-X c #B25A29",
";X c #B65B29",
":X c #B65B2A",
">X c #BA5C28",
",X c #BF5D28",
"<X c #A55434",
"1X c #A85535",
"2X c #B26E37",
"3X c #B77C34",
"4X c #EF6A1F",
"5X c #D05F23",
"6X c #CA6026",
"7X c #D56324",
"8X c #D86725",
"9X c #E36722",
"0X c #E46722",
"qX c #E66822",
"wX c #EA6920",
"eX c #F26B20",
"rX c #EB7324",
"tX c #F37022",
"yX c #F07E27",
"uX c #BE893A",
"iX c #C58636",
"pX c #D28C3B",
"aX c #F48228",
"sX c #F6922F",
"dX c #E89434",
"fX c #D6A03D",
"gX c #ECB03D",
"hX c #F2B23D",
"jX c #FBBE40",
/* pixels */
"r r r r r r r r r r r r r r r r r r r r r r r r r r 6 @         & > r r r r r r r r r r r ",
"r r r r r r r r r r r r r r r r r r r r r r r r r r 6 @         * , r r r r r r r r r r r ",
"r r r r r r r r r r r r r r r r r r r r r r r r r r 6 @ . . . . - , r r r r r r r r r r r ",
"r r r r r r r r r r r r r r r r r r r r r r r r r r 7 5 4 4 4 4 7 r r r r r r r r r r r r ",
"r r r r r r r r r r r r r r r r r r r r r r r r r r 7 7 7 7 7 7 7 r r r r r r r r r r r r ",
"r r r r r r r r r r r r r r r r r r r r r r r r r r r r r r r r r r r r r r r r r r r r r ",
"7 7 7 7 7 r r r r r r r r r r r r r r r r r r r r r r r r 7 r 7 r r r r r r r r r r r r r ",
"r r r r r r r r r r r r r r r r r r r r r r r r r r r r r r r r r r r r r r r r r r r r r ",
"2 3 3 7 7 r r r r r r r r r r r r r r r r r r r r r r q q 5 r 7 r r r r r r r r r r r r r ",
"; : : 7 7 r r r r r r r r r r r r r F H H H H H H H G 0 : 3 r 7 r r r r r r r r r r r r r ",
"    . 4 7 r r r r r r r r d d d d d L =.=.=.=.=.=.=...t O # y u r r r r r r r r r r r r r ",
"    . 4 7 r r r r r r r d P @.@.@.@.*.=.=.=.=.=.=.=.#.I I { @.K k r r r r r r r r r r r r ",
"    . 4 7 r r r r r r g j @.=.=.=.=.=.=.=.=.=.=.=.=.=._ _ ` =.@.z k r r r r r r r r r r r ",
"    . 4 7 r r r r r r S +.*.=.=.=.=.=.=.=.=.=.=.=.=.=.=.=.=.=.*.%.J r r r r r r r r r r r ",
"@ $ $ 6 7 r r r r r r D =.=.=.=.=.=.Q.!.f.l.).u.s.;.=.=.=.=.=.=.=.L r r r r r r r r r r r ",
"2 3 3 7 7 r r r r r r D =.=.=.=.=.=.5X9XOX].eX:XF.3.=.=.=.=.=.=.=.L r r r r r r r r r r r ",
"r r r r r r r r r r r D =.=.=.=.s.h.*X=X[._.:X;X-Xn.g.,.=.=.=.=.=.L r r r 7 r 7 7 7 7 7 7 ",
"r r r r r r r r r r d V =.=.-.>.j.H.H.J. X|.|.>XwXOXA.' :.=.=.=.=.L d f r 7 r 5 5 4 4 4 4 ",
"r r r r r r r r r l L X.=.=.2.x.C.H.H..X6X7X7X9XwXOXH.v.d.=.=.=.=.O.L b r 7 w * @ + + + + ",
"r r r r r 7 r 7 r c =.=.=.=.3.F.H.H.XX'.0XeXeXtXrX$XH.H.h.=.=.=.=.=.=.A r 7 w @ X         ",
"r r 7 7 7 7 7 7 7 c =.=.=.=.3.F.H.H.6XqX4XeXeXsXhX%XH.H.h.=.=.=.=.=.=.A r 7 5 + .         ",
"r r 7 $ . . . o - p =.=.=.=.3.F.H.H.,X8XyXaXaXdXfX#XH.H.h.=.=.=.=.=.=.A r 7 5 + .         ",
"r r 7 @       X * i =.=.$.$.<.D.H.H.}.&XgXjXjXuX@XI.H.H.h.=.=.=.=.=.=.A r 7 5 + . . . . . ",
"r r 7 @       . * i =.=.$.$.<.D.H.H.t.(.3XiXpX2X+XU.H.H.h.=.=.=.=.=.=.A r 7 w $ o . . . . ",
"r r 7 @       . * i =.) E Y ! i.p.a.8.[ R.`.1X1X<X{.H.H.h.=.=.=.=.=.=.A r 7 r 7 7 7 7 7 7 ",
"r r 7 @       X * p =.( R Y ! i.p.p.M.y.9.0.Y./.oXJ.H.H.h.=.=.=.=.=.=.A r 7 r 7 7 7 7 7 7 ",
"r r 7 * + + + @ = p +.W R U T c.e.p.V.N.7.] ] r.H.H.S.K.k.=.=.=.=.*.+.Z r r r r r r r r r ",
"r r 7 5 4 4 4 5 7 f h M R U Y Q q.p.V.G.T.R.R.~.H.H.A.5.1.=.=.=.=.} h d r r r r r r r r r ",
"r r 7 7 7 7 7 7 7 r r m E Y Y Y 6.w.B.L.E.W.W.^.S.Z.b.:.=.=.=.=.=.L r r r r r r r r r r r ",
"r r r r r r r r r r r B ( ~ ~ ~ ^ / m.H.P.J.J.H.F.4.&.=.=.=.=.=.=.L r r r r r r r r r r r ",
"r r r r r r r r r r r D $.) ) ) ` ` z.v.v.v.v.v.x.2.=.=.=.=.=.=.=.L r r r r r r r r r r r ",
"r r r r r r r r r r r D $.$.$.$.$.$.$.=.=.=.=.=.=.=.=.=.=.=.=.=.=.L r r r r r r r r r r r ",
"r r r r r r : 8 : : : x N O.=.=.=.=.=.=.=.=.=.=.=.=.=.=.=.=.=.O.C n r r r r r r r r r r r ",
"r r r r r 6 % @ @ @ @ 1 a  .+.+.+.+.*.=.=.=.=.=.=.=.*.+.+.+.+. .s r r r r r r r r r r r r ",
"r r r r r 6 @         @ : c c c c c | =.=.=.=.=.=.=.o.v c c c c f r r r r r r r r r r r r ",
"r r r r r 6 @         @ : r r r r r L =.=.=.=.=.=.=.@.d r 5 , > 5 w r r r r r 9 , > > > > ",
"r r r r r 6 @         @ : r r r r r r r r r r r r r r r r 4 = * > , r r r 7 r * * * * * * ",
"r r r r r 6 @         @ : r r r r r r r r r r r r r r r r 2 @ . - , r r r 7 w @ X . . . . ",
"r r r r r 7 - @ @ @ @ : 9 r r r r r r r r r r r r r r r r 5 - @ < 3 r r r 7 5 + .         ",
"r r r r r 7 7 6 6 6 6 7 r r r r r r r r r r r r r r r r r 7 7 6 7 r r r r 7 5 + .         ",
"r r r r r r r r r r r r r r r r r r r r r r r r r r r r r r r r r r r r r 7 5 + .         ",
"r r r r r r r r r r r r r r r r r r r r r r r r r r r r r r r r r r r r r 7 e - $ @ @ @ @ ",
"r r r r r r r r r r r r r r r r r r r r r r r r r r r r r r r r r r r r r 7 r 7 7 7 7 7 7 ",
"r r r r r r r r r r r r r r r r r r r r r r r r r r r r r r r r r r r r r r r r r r r r r ",
"r r r r r r r r r r r r r r r r r r r r r r r r r r r r r r r r r r r r r r r r r r r r r "
};
