/* XPM */
static char *result[] = {
/* columns rows colors chars-per-pixel */
"45 45 101 2 ",
"   c black",
".  c #010101",
"X  c #040404",
"o  c gray2",
"O  c #060606",
"+  c #070707",
"@  c #161616",
"#  c #181818",
"$  c #1D1D1D",
"%  c #1E1E1E",
"&  c #202020",
"*  c gray16",
"=  c #2A2A2A",
"-  c gray17",
";  c #2C2C2C",
":  c #2D2D2D",
">  c gray18",
",  c #2F2F2F",
"<  c gray19",
"1  c #313131",
"2  c #323232",
"3  c gray20",
"4  c #343434",
"5  c #353535",
"6  c gray21",
"7  c #373737",
"8  c gray22",
"9  c #393939",
"0  c #3A3A3A",
"q  c gray23",
"w  c #3C3C3C",
"e  c gray24",
"r  c #3E3E3E",
"t  c gray25",
"y  c #414141",
"u  c gray26",
"i  c #434343",
"p  c #444444",
"a  c gray27",
"s  c #464646",
"d  c gray28",
"f  c #484848",
"g  c #494949",
"h  c gray29",
"j  c #4B4B4B",
"k  c #4C4C4C",
"l  c gray30",
"z  c #4E4E4E",
"x  c #505050",
"c  c #515151",
"v  c #535353",
"b  c gray33",
"n  c #555555",
"m  c #565656",
"M  c gray34",
"N  c #585858",
"B  c gray35",
"V  c #5A5A5A",
"C  c #5B5B5B",
"Z  c gray36",
"A  c #5D5D5D",
"S  c gray37",
"D  c #5F5F5F",
"F  c #606060",
"G  c gray38",
"H  c #626262",
"J  c gray39",
"K  c #656565",
"L  c gray40",
"P  c #676767",
"I  c DimGray",
"U  c #6A6A6A",
"Y  c gray42",
"T  c #6D6D6D",
"R  c #717171",
"E  c #727272",
"W  c #777777",
"Q  c gray47",
"!  c #797979",
"~  c gray48",
"^  c #7C7C7C",
"/  c gray49",
"(  c #7E7E7E",
")  c gray50",
"_  c #808080",
"`  c #818181",
"'  c gray51",
"]  c #838383",
"[  c #848484",
"{  c gray52",
"}  c #868686",
"|  c gray53",
" . c #888888",
".. c #8B8B8B",
"X. c #8D8D8D",
"o. c #8E8E8E",
"O. c gray56",
"+. c #909090",
"@. c gray57",
"#. c #929292",
"$. c #939393",
/* pixels */
"                                                                                          ",
"    . o O + + + + + + + + + + + + + + + + + + + + + + + + + + + + + + + + + + + + + + + + ",
"  . + # % & & & & & & & & & & & & & & & & & & & & & & & & & & & & & & & & & & & & & & & & ",
"  X @ s A P L L L L L L L L L L L L L L L L L L L L L L L L L L L L L L L L L L L L L L L ",
"  O $ A ~ { ] ] ] ] ] ] ] ] ] ] ] ] ] ] ] ] ] ] ] ] ] ] ] ] ] ] ] ] ] ] ] ] ] ] ] [ { } } ",
"  + & P { ..( W W W W W W W W W W Q ! ~ ~ ~ ~ ~ ~ ~ ~ ~ ~ ~ ~ ~ ~ ~ ~ ~ ~ ~ ~ ~ ^ ' X.@.$.",
"  + & L [ ( M s i i i i i i i i i s g k k k k k k k k k k k j k k k k k k k j k c H ' o.#.",
"  + & L ] Q s 3 > > > > > > > > , 1 6 9 9 9 9 9 9 9 9 9 9 0 q q q q q q q q q 9 t n ) o.#.",
"  + & L ] W i > * * * = - ; ; ; ; > 2 4 5 5 5 5 5 5 5 5 5 9 r t t t t t t t e 7 e c / X.#.",
"  + & L ] W i > * * * - > < < < 1 1 3 4 5 5 5 5 5 5 5 5 7 y k x c c c c c x j w r c / X.#.",
"  + & L ] W i > * * * : 1 4 4 4 4 5 5 5 5 5 5 5 5 5 5 5 6 g V H J J J J J G M t e c / X.#.",
"  + & L ] W i : = - : , 2 5 5 5 5 5 5 5 5 5 5 5 5 5 5 6 7 h Z K K K K K K J B y r c / X.#.",
"  + & L ] W i : - > < 2 4 5 5 5 5 5 5 5 5 5 5 5 5 5 5 6 7 h Z K K K K K K J B y r c / X.#.",
"  + & L ] W i > ; < 4 5 5 5 5 5 5 5 6 5 5 5 5 5 5 5 6 5 7 h Z K K K K K K J B y r c / X.#.",
"  + & L ] W i > ; < 4 5 5 5 5 5 5 6 0 w w w w w w w 0 7 7 h Z K K K K K K J B y r c / X.#.",
"  + & L ] W i > ; < 4 5 5 5 5 5 6 9 i f g g g g g f i 0 7 h Z K K K K K K J B y r c / X.#.",
"  + & L ] W i > ; < 4 5 5 5 5 5 6 e l m M M M M M m l e 8 h Z K K K K K K J B y r c / X.#.",
"  + & L ] W i > ; < 4 5 5 5 5 5 6 r z M M M M M M M z r 8 h Z K K K K K K J B y r c / X.#.",
"  + & L ] W i > ; < 4 5 5 5 5 5 6 r z M N N N N N M z r 8 h Z K K K K K K J B y r c / X.#.",
"  + & L ] W i , ; < 5 5 5 5 5 5 6 r z M N N N N N M z r 8 h Z K K K K K K J B y r c / X.#.",
"  + & L ] W s 3 < 4 8 8 8 8 8 7 6 e z M N N N N N M z r 8 h Z K K K K K K J B y r c / X.#.",
"  + & L [ ^ b i t u u u u u t q 7 e z M N N N N N M z r 8 h Z K K K K K K J B y r c / X.#.",
"  + & L [ ) N h s s s s s s i e 7 e z M N N N N N M z r 8 h Z K K K K K K J B y r c / X.#.",
"  + & L [ ) B j d d d d d d p e 7 e z M N N N N N M z r 8 h Z K K K K K K J B y r c / X.#.",
"  + & L [ ) B j d d d d d d p e 7 e z M N N N N N M z r 8 h Z K K K K K K J B y r c / X.#.",
"  + & L [ ) B j d d d d d d p e 7 e z M N N N N N M z r 8 h Z K K K K K K J B y r c / X.#.",
"  + & L [ ) B j d d d d d d p e 7 e z M N N N N N M z r 8 h Z K K K K K K J B y r c / X.#.",
"  + & L [ ) B j d d d d d d p e 7 e z M N N N N N M z r 8 h Z K K K K K K J B y r c / X.#.",
"  + & L [ ) B j d d d d d d p e 7 e z M N N N N N M z r 8 h Z K K K K K K J B y r c / X.#.",
"  + & L [ ) B j d d d d d d p e 7 e z M N N N N N M z r 8 h Z K K K K K K J B y r c / X.#.",
"  + & L [ ) B j d d d d d d p e 7 e z M N N N N N M z r 8 h Z K K K K K K J B y r c / X.#.",
"  + & L [ ) B j d d d d d d p e 7 e z M N N N N N M z r 8 h Z K K K K K K J B y r c / X.#.",
"  + & L [ ) B j d d d d d d p e 7 e z M N N N N N M z r 8 h Z K K K K K K J B y r c / X.#.",
"  + & L [ ) B j d d d d d d p e 7 e z M N N N N N M z r 8 h Z K K K K K K J B y r c / X.#.",
"  + & L [ ) B j d d d d d d p e 7 e z M N N N N N M z r 8 h Z K K K K K K J B y r c / X.#.",
"  + & L [ ) B j d d d d d d p e 7 e z M N N N N N M z r 8 h Z K K K K K K J B y r c / X.#.",
"  + & L [ ) B j d d d d d d p e 7 e z M N N N N N M z r 8 h Z K K K K K K J B y r c / X.#.",
"  + & L [ ) B j d d d d d d p e 7 e z M N N N N N M z r 8 h Z K K K K K K J B y r c / X.#.",
"  + & L [ ) B j d d d d d d p e 7 e z M N N N N N M z r 8 h Z K K K K K K J B y r c / X.#.",
"  + & L [ ) B j d d d d d d p e 7 e z M N N N N N M z r 7 h Z K K K K K K J B t e c / X.#.",
"  + & L [ _ D c l l l l l l j p r a v Z Z Z Z Z Z Z v p t x F I I I I I I P A f a m ) o.#.",
"  + & L { { Y F S S S S S S A M v m G I U U U U U I G m n G T R E E E E E R Y C N K ] O.#.",
"  + & L { X.} ` ` ` ` ` ` ` _ ) ( ) [ { { { { { { { [ ) ( ` { |  . . . . .| [ _ ) ] X.@.#.",
"  + & L } @.O.o.o.o.o.o.o.o.o.o.X.o.O.O.O.O.O.O.O.O.O.o.X.O.O.+.+.+.+.+.+.+.O.o.X.O.@.#.#.",
"  + & L } $.#.#.#.#.#.#.#.#.#.#.#.#.#.#.#.#.#.#.#.#.#.#.#.#.#.#.#.#.#.#.#.#.#.#.#.#.#.#.#."
};
