/* XPM */
static char *result[] = {
/* columns rows colors chars-per-pixel */
"45 45 248 2 ",
"   c #0B0A09",
".  c #0D0B0A",
"X  c #0E0C0B",
"o  c #0F0C0B",
"O  c #0F0D0B",
"+  c #110D0C",
"@  c #120E0D",
"#  c #110E0E",
"$  c #120F0E",
"%  c #120F0F",
"&  c #17110F",
"*  c #151211",
"=  c #171212",
"-  c #1B1413",
";  c #1C1614",
":  c #1D1714",
">  c #1E1915",
",  c #1D1719",
"<  c #1F181B",
"1  c #1D1B1E",
"2  c #1A1C1D",
"3  c #201917",
"4  c #231C19",
"5  c #221D1B",
"6  c #251C1B",
"7  c #271C1D",
"8  c #241C1F",
"9  c #251D1F",
"0  c #251E1F",
"q  c #2B1D1B",
"w  c #281F1D",
"e  c #2B1E1C",
"r  c #2A1E1D",
"t  c #3B1712",
"y  c #2A211E",
"u  c #2C201E",
"i  c #2D211F",
"p  c #2E201E",
"a  c #2E211F",
"s  c #31221E",
"d  c #30221F",
"f  c #201E21",
"g  c #251C20",
"h  c #251D20",
"j  c #261E20",
"k  c #1E2325",
"l  c #2F2523",
"z  c #2E2623",
"x  c #292024",
"c  c #2C2226",
"v  c #2C2227",
"b  c #2D2327",
"n  c #2A2726",
"m  c #2F2524",
"M  c #2F2A23",
"N  c #2D2328",
"B  c #2E2429",
"V  c #2F2429",
"C  c #2F2529",
"Z  c #302422",
"A  c #332522",
"S  c #352420",
"D  c #362420",
"F  c #362520",
"G  c #362521",
"H  c #342623",
"J  c #382521",
"K  c #382622",
"L  c #3B2723",
"P  c #3D2724",
"I  c #332826",
"U  c #362825",
"Y  c #352E27",
"T  c #3B2824",
"R  c #3E2A25",
"E  c #3C2A27",
"W  c #302529",
"Q  c #31262B",
"!  c #32272C",
"~  c #33272D",
"^  c #352C2A",
"/  c #35292E",
"(  c #36292E",
")  c #37292F",
"_  c #3D2B28",
"`  c #3F2B28",
"'  c #3F2C29",
"]  c #38282F",
"[  c #38292F",
"{  c #38332B",
"}  c #3A302D",
"|  c #3B312E",
" . c #3D302D",
".. c #3B352D",
"X. c #382931",
"o. c #382A31",
"O. c #392A31",
"+. c #382B31",
"@. c #392B31",
"#. c #3A2A31",
"$. c #392B32",
"%. c #3B2B32",
"&. c #3A2B33",
"*. c #392C32",
"=. c #3B2C32",
"-. c #3B2D32",
";. c #3A2C33",
":. c #3B2C33",
">. c #3B2D33",
",. c #3B2E33",
"<. c #3C2C33",
"1. c #3C2D33",
"2. c #3C2E33",
"3. c #3B2C34",
"4. c #3B2D34",
"5. c #3C2C34",
"6. c #3C2D34",
"7. c #3D2D34",
"8. c #3D2D35",
"9. c #3C2E34",
"0. c #3D2E34",
"q. c #3D2F34",
"w. c #3D2E35",
"e. c #3D2F35",
"r. c #3E2F35",
"t. c #3E2E36",
"y. c #3E2F36",
"u. c #3F2F36",
"i. c #3F2F37",
"p. c #2A3339",
"a. c #3E3230",
"s. c #3E3035",
"d. c #3E3036",
"f. c #3F3036",
"g. c #3F3037",
"h. c #3D3830",
"j. c #67211C",
"k. c #412F2C",
"l. c #4B2F2B",
"z. c #512A26",
"x. c #5C2D28",
"c. c #42332D",
"v. c #45302C",
"b. c #45302D",
"n. c #46302C",
"m. c #47302D",
"M. c #46312D",
"N. c #47312E",
"B. c #46322F",
"V. c #4B322F",
"C. c #4B342E",
"Z. c #56332F",
"A. c #473330",
"S. c #483330",
"D. c #4A3430",
"F. c #4B3430",
"G. c #4B3530",
"H. c #4B3531",
"J. c #4B3632",
"K. c #4C3531",
"L. c #4D3633",
"P. c #4E3733",
"I. c #4D3734",
"U. c #423E35",
"Y. c #4E3834",
"T. c #4F3834",
"R. c #4F3935",
"E. c #513834",
"W. c #503935",
"Q. c #553A37",
"!. c #563E39",
"~. c #662620",
"^. c #652922",
"/. c #6E2921",
"(. c #6A2B24",
"). c #722C25",
"_. c #782E26",
"`. c #5A413B",
"'. c #70403E",
"]. c #323C42",
"[. c #333F47",
"{. c #363E44",
"}. c #37434B",
"|. c #39464E",
" X c #4E5740",
".X c #424A50",
"XX c #434D55",
"oX c #455058",
"OX c #674742",
"+X c #654842",
"@X c #664943",
"#X c #684842",
"$X c #684943",
"%X c #694E45",
"&X c #6D4F48",
"*X c #764543",
"=X c #75514B",
"-X c #58674B",
";X c #59684C",
":X c #657358",
">X c #6D7B61",
",X c #944947",
"<X c #905349",
"1X c #925D50",
"2X c #986457",
"3X c #A8625E",
"4X c #976C60",
"5X c #9D7267",
"6X c #A76C60",
"7X c #A47467",
"8X c #A17569",
"9X c #A87A6D",
"0X c #AC7D71",
"qX c #9D8773",
"wX c #AE8173",
"eX c #AB8274",
"rX c #B28B7E",
"tX c #BB887A",
"yX c #BD897B",
"uX c #BE8A7C",
"iX c #BF8A7C",
"pX c #A3907A",
"aX c #AE957F",
"sX c #C38B7D",
"dX c #C18C7E",
"fX c #AA9783",
"gX c #B09782",
"hX c #B19F8C",
"jX c #B29E8C",
"kX c #B6A798",
"lX c #BDAC9C",
"zX c #BFAE9E",
"xX c #C29283",
"cX c #C49182",
"vX c #C59182",
"bX c #C79182",
"nX c #C59282",
"mX c #C69485",
"MX c #C89182",
"NX c #CA9384",
"BX c #CF9888",
"VX c #D19B8B",
"CX c #D29B8B",
"ZX c #D09C8C",
"AX c #DAA392",
"SX c #DBA493",
"DX c #DCA594",
"FX c #C9B2A1",
/* pixels */
"g.g.g.g.g.g.g.g.g.g.g.g.g.g.g.g.g.g.g.g.g.g.g.g.g.g.y.1.%.%.%.%.5.t.g.g.g.g.g.g.g.g.g.g.g.",
"g.g.g.g.g.g.g.g.g.g.g.g.g.g.g.g.g.g.g.g.g.g.g.g.g.g.y.1.%.%.%.%.6.t.g.g.g.g.g.g.g.g.g.g.g.",
"g.g.g.g.g.g.g.g.g.g.g.g.g.g.g.g.g.g.g.g.g.g.g.g.g.g.y.1.=.=.=.=.9.y.g.g.g.g.g.g.g.g.g.g.g.",
"g.g.g.g.g.g.g.g.g.g.g.g.g.g.g.g.g.g.g.g.g.g.g.g.g.g.i.y.y.t.t.t.i.g.g.g.g.g.g.g.g.g.g.g.g.",
"g.g.g.g.g.g.g.g.g.g.g.g.g.g.g.g.g.g.g.g.g.g.g.g.g.g.i.i.i.i.i.i.i.g.g.g.g.g.g.g.g.g.g.g.g.",
"g.g.g.g.g.g.g.g.g.g.g.g.g.g.g.g.g.g.g.g.g.g.g.g.g.g.g.g.g.g.g.g.g.g.g.g.g.g.g.g.g.g.g.g.g.",
"i.g.i.g.i.g.g.g.g.g.g.g.g.g.g.g.g.g.g.g.g.g.g.g.g.g.g.g.g.g.g.i.g.g.g.g.g.g.g.g.g.g.g.g.g.",
"g.g.g.g.g.g.g.g.g.g.g.g.g.g.g.g.g.g.g.y.Q Q 4.g.e.Q y.g.g.g.g.g.g.g.g.g.g.g.g.g.g.g.g.g.g.",
"y.y.y.i.i.g.g.g.g.g.g.g.g.g.g.g.6.4.4.o.X X C 4./ X X.w.y.i.g.i.g.g.g.g.g.g.g.g.g.g.g.g.g.",
"0.0.q.i.i.g.g.g.g.g.g.g.g.g.g.g.%     X L L &   + L X W q.y.g.i.g.g.g.g.g.g.g.g.g.g.g.g.g.",
"%.%.=.t.i.g.g.g.g.g.g.g.g.g.6.% s S S G L.L.T S K L.G - j 7.y.i.g.g.g.g.g.g.g.g.g.g.g.g.g.",
"%.%.=.t.i.g.g.g.g.g.g.g.g.g.y.Q - d D.F.W.W.K.D.G.W.F.k.y , g.i.g.g.g.g.g.g.g.g.g.g.g.g.g.",
"%.%.=.t.i.g.g.g.g.g.g.g.g.g.y.Q 3 U W.W.W.W.W.W.W.W.W.W.A - Q y.g.g.g.g.g.g.g.g.g.g.g.g.g.",
"%.%.=.t.i.g.g.g.g.g.g.g.g.g.4.  A.W.W.R.L.L.T.T.P.W.W.W.v.D + ( e.g.g.g.g.g.g.g.g.g.g.g.g.",
"1.1.2.u.i.g.g.g.g.g.g.g.g.g.4.  A.W.W.Y.L L D.D.R W.W.W.v.L L X Q g.g.g.g.g.g.g.g.g.g.g.g.",
"w.w.e.u.i.g.g.g.g.g.g.g.g.! $ J P M.W.!.uXC.D.Z.~.W.W.W.R.B.X o.y.g.g.g.g.g.g.g.g.g.g.g.g.",
"g.g.g.g.g.g.g.g.g.g.g.g.g.4.C & F v.@X0XbX9X+X#X6X^.E.W.W.A.  4.g.g.g.g.g.i.g.i.i.i.i.i.i.",
"i.g.i.g.i.g.g.g.g.g.g.g.g.g.4.  ` H.&XdX%XvX5X5XiXt x.l.F.J.a 0 +.g.g.g.g.g.g.d.y.y.y.y.y.",
"g.g.g.g.g.g.g.g.g.g.g.g.g.e.( @ S.Q.=XtX. xXBXBXxX. j.z.V.I.A.* ~ g.g.g.g.i.d.0.2.1.1.1.1.",
"g.i.g.i.g.i.g.i.i.g.i.g.g.! $ ' L.*X3XyXq mXDXDXmXq ).,X'.E   4.g.g.g.g.g.i.d.1.-.=.=.=.=.",
"g.i.i.i.i.i.i.i.i.g.i.g.g.y.o.o _ m.$XMXZXSXDXDXSXZXsXOXn.E   4.g.g.g.g.g.i.y.<.=.%.%.%.%.",
"g.i.i.2.>.:.:.,.2.e.i.g.g.g.g.+.= e N.`.NXAXDXDXAXNX`.N.e = +.g.g.g.g.g.g.i.y.<.=.%.%.%.%.",
"g.i.i.1.=.%.%.=.<.w.i.g.g.g.g.g.x 7 p b.%XcXVXVXcX%Xb.p 7 x g.g.g.g.g.g.g.i.d.1.-.=.=.=.=.",
"g.i.i.1.=.%.%.=.<.w.i.g.i.u.u.u.@.9 > c.O wXnXnXwXO c.> 9 *.g.g.g.g.g.g.g.i.d.2.>.:.:.:.:.",
"g.i.i.1.=.%.%.=.<.w.i.y.9.=.=.=.# 5 U.-Xi pXgXaXqXi -XU.5 % g.g.g.g.g.g.g.i.g.i.i.i.i.i.i.",
"g.i.i.1.=.=.=.-.1.e.i.t.6.%.%.%.# ; { ;X} lX<X_.(.} ;X{ ; % g.g.g.g.g.g.g.i.g.i.i.i.i.i.i.",
"g.i.i.0.<.1.1.2.0.y.i.t.5.%.[ # 6 r h.>X| zXFXrX/.| >Xh.r 6 % 6.g.g.g.g.g.g.g.g.g.g.g.g.g.",
"g.g.g.d.y.y.y.y.d.g.g.t.5.%.]   l Z ..:X| hXeX7X4X| :X..Z l   4.g.g.g.g.g.g.g.g.g.g.g.g.g.",
"g.i.i.i.i.i.i.i.i.g.i.y.9.=.[   ^ I Y  X| fX1X2XzX|  XM m ^   4.g.g.g.g.g.g.g.g.g.g.g.g.g.",
"g.g.g.g.g.g.g.g.g.g.g.g.y.7.O.  a. .H i } kXjXjXkX} i : z a.  4.g.g.g.g.g.g.g.g.g.g.g.g.g.",
"g.g.g.g.g.g.g.g.g.g.g.g.i.y.;.  xXCX8Xu u ].[.[.].u u 8XCXxX  4.g.g.g.g.g.g.g.g.g.g.g.g.g.",
"g.g.g.g.g.g.g.g.g.g.g.g.i.i.i.o.w 4 n .X.XXX}.}.XX.X.Xn 4 w +.g.g.g.g.g.g.g.g.g.g.g.g.g.g.",
"g.g.g.g.g.f.r.s.r.r.r.y.d.g.g.g.~ < 2 oXoX|.k k |.oXoX2 < ~ g.g.g.g.g.g.g.g.g.g.g.g.g.g.g.",
"g.g.g.g.g.u.0.1.1.1.1.0.d.g.g.g.g.c f {.{.p.1 1 p.{.{.f c g.g.g.g.g.g.g.g.g.g.g.g.g.g.g.g.",
"g.g.g.g.g.y.1.%.%.%.%.1.r.g.w.w.4.4.V X X X V V X X X V 4.3.8.8.i.g.g.g.g.i.g.i.i.i.i.i.i.",
"g.g.g.g.g.y.1.%.%.%.%.1.r.;.B B h 8 8 8 8 8 8 8 8 8 8 8 8 g b b $.d.g.g.g.g.g.e.e.w.w.w.w.",
"g.g.g.g.g.y.1.%.%.%.%.1.r.g.w.B N N N N N N N N N N N N N v v #.w.y.g.g.g.i.d.6.1.<.<.<.<.",
"g.g.g.g.g.y.1.%.%.%.%.1.r.g.g.;.;.;.;.;.;.;.;.;.;.;.;.&.;.o.) =.9.y.g.g.g.i.d.1.-.=.=.=.=.",
"g.g.g.g.g.y.9.1.1.1.1.0.d.g.g.g.g.g.g.g.g.g.g.g.g.g.g.i.g.w.9.1.0.y.g.g.g.i.y.<.=.%.%.%.%.",
"g.g.g.g.g.i.y.y.y.y.y.u.g.g.g.g.g.g.g.g.g.g.g.g.g.g.g.i.g.i.y.y.u.g.g.g.g.i.y.<.=.%.%.%.%.",
"g.g.g.g.g.g.g.g.g.g.g.g.g.g.g.g.g.g.g.g.g.g.g.g.g.g.g.g.g.g.g.g.g.g.g.g.g.i.y.1.-.=.=.=.=.",
"g.g.g.g.g.g.g.g.g.g.g.g.g.g.g.g.g.g.g.g.g.g.g.g.g.g.g.g.g.g.g.g.g.g.g.g.g.i.f.q.2.1.1.1.1.",
"g.g.g.g.g.g.g.g.g.g.g.g.g.g.g.g.g.g.g.g.g.g.g.g.g.g.g.g.g.g.g.g.g.g.g.g.g.i.g.i.i.i.i.i.i.",
"g.g.g.g.g.g.g.g.g.g.g.g.g.g.g.g.g.g.g.g.g.g.g.g.g.g.g.g.g.g.g.g.g.g.g.g.g.i.g.i.i.i.i.i.i.",
"g.g.g.g.g.g.g.g.g.g.g.g.g.g.g.g.g.g.g.g.g.g.g.g.g.g.g.g.g.g.g.g.g.g.g.g.g.g.g.g.g.g.g.g.g."
};
