/* XPM */
static char *result[] = {
/* columns rows colors chars-per-pixel */
"45 45 110 2 ",
"   c #120E0D",
".  c #151010",
"X  c #1C1615",
"o  c #1E1815",
"O  c #221917",
"+  c #241C1D",
"@  c #2B1F1D",
"#  c #27241D",
"$  c #2D211E",
"%  c #261D20",
"&  c #291F21",
"*  c #2B2223",
"=  c #2F2924",
"-  c #2D2328",
";  c #2E2C2F",
":  c #332522",
">  c #392723",
",  c #342B26",
"<  c #3A2925",
"1  c #32262B",
"2  c #35292D",
"3  c #3C2C29",
"4  c #353128",
"5  c #39342B",
"6  c #372A30",
"7  c #3D2E34",
"8  c #3F3037",
"9  c #3F3932",
"0  c #402B27",
"q  c #4D2C27",
"w  c #442E2B",
"e  c #492F2C",
"r  c #542B26",
"t  c #592D27",
"y  c #4A322E",
"u  c #433232",
"i  c #4B3531",
"p  c #4F3934",
"a  c #523633",
"s  c #593635",
"d  c #503935",
"f  c #5C3A37",
"g  c #573F39",
"h  c #583E39",
"j  c #702B23",
"k  c #62322C",
"l  c #6F342E",
"z  c #663532",
"x  c #653A39",
"c  c #703D35",
"v  c #7C3C37",
"b  c #434036",
"n  c #454738",
"m  c #474939",
"M  c #4C4E3E",
"N  c #5D443E",
"B  c #61443F",
"V  c #313A41",
"C  c #505244",
"Z  c #585A4B",
"A  c #604741",
"S  c #604841",
"D  c #744B46",
"F  c #655247",
"G  c #695147",
"H  c #6D534B",
"J  c #76574F",
"K  c #695E58",
"L  c #6F6155",
"P  c #72665C",
"I  c #796B61",
"U  c #834F4C",
"Y  c #95574D",
"T  c #94584F",
"R  c #8A5F56",
"E  c #866157",
"W  c #8C645B",
"Q  c #9B6559",
"!  c #916A5E",
"~  c #9B6B5F",
"^  c #826F65",
"/  c #956C62",
"(  c #81746A",
")  c #87796E",
"_  c #9E7062",
"`  c #9B7967",
"'  c #9D7469",
"]  c #9F796C",
"[  c #AC6F66",
"{  c #A07367",
"}  c #A67E70",
"|  c #93877B",
" . c #A18776",
".. c #A88675",
"X. c #AC8D7B",
"o. c #B58576",
"O. c #B28E7D",
"+. c #BF8B7D",
"@. c #C38E7F",
"#. c #998C80",
"$. c #AA9181",
"%. c #BC9684",
"&. c #B49B89",
"*. c #C99485",
"=. c #CC9788",
"-. c #CE9989",
";. c #D19C8C",
":. c #C7AD9D",
">. c #D7A191",
",. c #DBA493",
/* pixels */
"8 8 8 8 8 8 8 8 8 8 8 8 8 8 8 8 8 8 8 8 8 8 8 8 8 8 8 7 7 6 7 6 7 7 8 8 8 8 8 8 8 8 8 8 8 ",
"8 8 8 8 8 8 8 8 8 8 8 8 8 8 8 8 8 8 8 8 8 8 8 8 8 8 8 7 7 7 7 6 7 8 8 8 8 8 8 8 8 8 8 8 8 ",
"8 8 8 8 8 8 8 8 8 8 8 8 8 8 8 8 8 8 8 8 8 8 8 8 8 8 8 7 7 7 7 6 7 8 8 8 8 8 8 8 8 8 8 8 8 ",
"8 8 8 8 8 8 8 8 8 8 8 8 8 8 8 8 8 8 8 8 8 8 8 8 8 8 8 8 7 7 7 7 8 8 8 8 8 8 8 8 8 8 8 8 8 ",
"8 8 8 8 8 8 8 8 8 8 8 8 8 8 8 8 8 8 8 8 8 8 8 8 8 8 8 8 7 8 8 8 8 8 8 8 8 8 8 8 8 8 8 8 8 ",
"8 8 8 8 8 8 8 8 8 8 8 8 8 8 8 8 8 8 8 8 8 8 8 8 8 8 8 8 7 8 8 8 8 8 8 8 8 8 8 8 8 8 8 8 8 ",
"8 8 8 8 8 8 8 8 8 8 8 8 8 8 8 8 8 8 8 8 8 8 8 8 8 8 8 8 8 8 8 8 8 8 8 8 8 8 8 8 8 8 8 8 8 ",
"8 8 8 8 8 8 8 8 8 8 8 8 8 8 8 8 8 8 8 8 8 8 8 8 8 8 8 8 8 8 8 8 8 8 8 8 8 8 8 8 8 8 8 8 8 ",
"7 7 u 8 8 8 8 8 8 8 8 8 8 8 8 8 8 8 8 8 8 8 8 8 8 8 8 7 8 8 8 8 8 8 8 8 8 8 8 8 8 8 8 8 8 ",
"7 7 8 8 7 8 8 8 8 8 8 8 8 8 8 8 8 8 8 8 8 8 8 8 8 8 8 7 7 7 8 8 8 8 8 8 8 8 8 8 8 8 8 8 8 ",
"7 6 6 8 8 8 8 8 8 8 8 8 8 8 8 8 8 8 8 8 8 8 8 8 8 8 8 7 7 7 8 8 8 8 8 8 8 8 8 8 8 8 8 8 8 ",
"6 7 7 7 7 8 8 8 8 8 8 8 8 8 8 8 8 8 8 8 8 8 8 8 8 8 7 7 7 7 8 7 8 8 8 8 8 8 8 8 8 8 8 8 8 ",
"7 6 6 u 7 u 8 8 8 8 8 8 8 8 8 8 8 8 8 8 8 8 8 8 8 8 7 7 8 7 8 8 8 8 8 8 8 8 8 8 8 8 8 8 8 ",
"6 7 7 7 7 V 8 8 8 8 8 8 8 8 8 8 8 8 8 8 8 8 8 8 8 8 8 8 8 8 8 8 8 8 8 8 8 8 8 8 8 8 8 8 7 ",
"u 7 7 7 u 8 8 8 8 8 8 8 8 8 8 8 8 8 8 8 7 7 8 7 8 8 7 8 8 8 8 8 8 8 8 8 8 8 8 8 8 8 8 8 7 ",
"7 7 7 u 7 8 8 8 8 8 8 8 8 8 8 8 8 8 8 7 - X & 1 7 - - 7 8 8 8 8 8 8 8 8 8 8 8 8 8 8 8 8 q ",
"8 8 8 8 8 8 8 8 8 8 8 8 8 8 8 7 7 6 1 - + X O % 1 + + 2 7 7 8 8 8 8 8 8 8 8 8 8 8 8 8 8 7 ",
"8 8 8 8 7 8 8 8 8 8 8 8 8 8 8 7 - X . . + < @ O   + O + 1 7 8 8 8 8 8 8 8 8 8 7 7 8 8 7 7 ",
"8 8 8 8 8 8 8 8 8 8 8 8 8 8 7 & O @ > > w p e w > e e @ O * 8 8 8 8 8 8 8 8 7 7 7 7 7 7 7 ",
"8 8 8 8 8 8 8 7 8 8 7 8 8 8 7 7 & & 1 s p p d p a d p p 3 * % 7 8 8 8 8 8 8 8 7 7 6 7 7 7 ",
"8 8 8 8 7 7 7 7 8 8 8 8 7 7 7 - @ 0 u d d d p p d d d d i < O - 7 7 8 8 8 8 7 7 6 7 7 6 7 ",
"8 8 8 7 7 7 7 7 7 7 8 8 7 V 7 & & 0 d d i u i i i i p d i w $ O - 6 8 8 8 8 7 7 7 6 6 7 7 ",
"8 8 8 7 6 6 7 7 7 7 8 8 u u 6 % $ 0 a d a w w e e e d d i e > O & 1 8 8 8 8 7 7 7 7 6 6 7 ",
"8 8 7 7 7 6 7 7 7 7 8 8 u 6 & O > 0 e h / R h y k k d d d i $ & 7 8 8 8 8 8 7 7 7 6 7 7 6 ",
"8 8 8 7 7 7 6 7 6 8 u 8 7 7 6 + O : f W @.@./ E R Y k d d i * + 7 7 7 8 8 8 8 8 8 8 8 8 8 ",
"8 8 8 7 7 7 7 6 7 8 8 8 7 7 6 + @ 3 N ! -.>.=.=.*.*.T k q e i : & 1 8 8 8 8 8 8 8 8 8 8 8 ",
"8 8 8 7 7 7 7 7 6 8 8 7 6 6 - % < a D [ ' } =.>.-.] c l z f 3 & - 7 8 8 8 8 8 8 8 8 8 8 8 ",
"8 8 8 7 7 7 7 7 8 8 8 8 7 1 % + w f U [ J L =.,.;.R r v v x O + 7 8 8 8 8 8 8 8 8 8 8 8 8 ",
"8 8 8 8 7 7 8 8 8 8 8 8 7 7 6 + + : d E =.>.,.,.,.,.-.! A 3 + & 7 7 8 8 8 8 8 8 8 8 8 8 8 ",
"8 8 8 8 7 7 8 8 8 8 8 8 7 7 7 7 % + $ i W *.>.,.,.;.! g < + + 7 8 8 8 8 8 8 8 8 8 8 8 8 8 ",
"8 8 8 8 8 8 8 8 8 8 8 8 7 8 8 7 * X . $ : H o.*.+.J > $ X   % 7 8 8 8 8 8 8 8 8 8 8 8 8 8 ",
"8 8 8 8 8 8 8 8 8 8 8 u 7 8 8 1 + + * 5 4 F ..%.O.H 5 5 = + + 1 7 8 8 8 8 8 8 8 8 8 8 8 8 ",
"8 8 8 8 8 7 7 7 7 r 7 7 7 8 7 & # = 9 M n K  .X.` G m M b 5 + + 7 8 8 8 8 8 8 8 8 8 8 8 8 ",
"8 8 8 8 7 7 7 7 7 8 7 7 7 7 7 & + * 9 M M ^ ] Q j r M M b 2 + + 2 7 8 8 8 8 8 8 8 8 8 8 8 ",
"8 8 8 8 7 7 7 7 7 7 6 7 7 6 % + 1 : 2 C Z ( :.:.~ t Z C 9 $ , + % 1 8 8 8 8 8 8 8 8 8 8 8 ",
"8 8 8 8 7 7 7 7 7 7 6 7 7 6 % X X X # n M P ! _ { ^ C m 4 X X X + 1 8 8 8 8 8 8 7 7 7 7 7 ",
"8 8 8 8 8 7 7 7 6 7 6 7 6 & X % X X % : 7 I $.&.&.) 9 , + X X + o + - 8 8 7 u 7 7 7 7 6 7 ",
"8 8 8 8 8 8 7 7 7 6 7 7 1 & & 0 O X X % - K | #.#.P , % O X X 2 : * * 8 8 8 7 7 6 u 6 7 6 ",
"8 8 8 8 8 8 7 7 7 7 7 7 6 6 x B & % % X & 1 V V V ; $ o + + % A S u - 8 8 8 7 7 7 6 7 6 6 ",
"8 8 8 8 8 7 8 7 7 u 7 7 7 6 & & % O % % % % % % + % + % + % % o % - 6 8 8 8 8 6 w 6 7 7 7 ",
"8 8 8 8 8 8 8 8 u 7 8 8 8 V 6 - - - - - - - - - - - - - - - - - 6 7 8 8 8 8 7 7 7 6 7 7 6 ",
"8 8 8 8 8 8 8 8 7 7 8 8 8 8 7 7 7 7 7 7 7 6 7 7 7 7 7 7 6 7 7 7 7 7 8 8 8 8 u 7 7 7 7 7 7 ",
"8 8 8 8 8 8 8 8 8 8 8 8 8 8 7 7 8 8 8 8 7 8 8 8 7 7 8 8 7 7 8 8 7 7 8 8 8 8 8 8 u 8 7 7 u ",
"8 8 8 8 8 8 8 8 8 8 8 8 8 8 8 7 8 8 8 8 7 7 8 8 8 7 8 8 8 8 8 8 8 7 8 8 8 8 8 8 7 8 8 8 V ",
"8 8 8 8 8 8 8 8 8 8 8 8 8 8 8 8 8 8 8 8 8 8 8 8 8 8 8 8 8 8 8 8 8 8 8 8 8 8 8 8 8 8 7 7 7 "
};
