/* XPM */
static char *result[] = {
/* columns rows colors chars-per-pixel */
"45 45 96 2 ",
"   c #0F0D0C",
".  c #120F0E",
"X  c #15110F",
"o  c #161111",
"O  c #1A1514",
"+  c #1D1719",
"@  c #171A1B",
"#  c #221917",
"$  c #241C1B",
"%  c #2B1E1B",
"&  c #2F201D",
"*  c #33221F",
"=  c #2E2325",
"-  c #2F2429",
";  c #342421",
":  c #3B2723",
">  c #342C25",
",  c #3D2A25",
"<  c #32272C",
"1  c #352A2D",
"2  c #3B2C2B",
"3  c #3C322B",
"4  c #272E33",
"5  c #282F34",
"6  c #372A30",
"7  c #3D2E35",
"8  c #283136",
"9  c #2A3339",
"0  c #3F3037",
"q  c #402B26",
"w  c #422D29",
"e  c #43312D",
"r  c #4C332F",
"t  c #473330",
"y  c #4C3632",
"u  c #423D34",
"i  c #4E3834",
"p  c #503935",
"a  c #563E39",
"s  c #593E3A",
"d  c #454138",
"f  c #4D433D",
"g  c #444938",
"h  c #4A4F3D",
"j  c #47533D",
"k  c #4D543F",
"l  c #60443E",
"z  c #2E3940",
"x  c #333D44",
"c  c #3D4245",
"v  c #354249",
"b  c #3A444B",
"n  c #3E4950",
"m  c #444A4D",
"M  c #5B4E47",
"N  c #5A4F49",
"B  c #525D45",
"V  c #434E56",
"C  c #455058",
"Z  c #654944",
"A  c #6A4D45",
"S  c #61544E",
"D  c #73534C",
"F  c #78584F",
"G  c #7E5B52",
"H  c #58614B",
"J  c #5D6850",
"K  c #636C57",
"L  c #68735C",
"P  c #825F55",
"I  c #9B5151",
"U  c #8C655B",
"Y  c #996F64",
"T  c #9E7267",
"R  c #A77C6E",
"E  c #A9796E",
"W  c #AD7D70",
"Q  c #B28275",
"!  c #B68478",
"~  c #B98678",
"^  c #BC897B",
"/  c #C28B7D",
"(  c #A39181",
")  c #B29C86",
"_  c #B49F88",
"`  c #BDA993",
"'  c #BCAD9D",
"]  c #C69383",
"[  c #C99384",
"{  c #CE9A8A",
"}  c #D19A8B",
"|  c #D6A08F",
" . c #DCA594",
".. c #CBB8A4",
"X. c #CFBCAA",
"o. c #D2C0AE",
/* pixels */
"0 0 0 0 0 0 0 0 0 0 0 0 0 0 0 0 0 0 0 0 0 0 0 0 0 0 7 7 7 6 6 7 7 7 0 0 0 0 0 0 0 0 0 0 0 ",
"0 0 0 0 0 0 0 0 0 0 0 0 0 0 0 0 0 0 0 0 0 0 0 0 0 0 7 7 7 7 6 6 7 0 0 0 0 0 0 0 0 0 0 0 0 ",
"0 0 0 0 0 0 0 0 0 0 0 0 0 0 0 0 0 0 0 0 0 0 0 0 0 0 0 7 7 7 w 7 7 0 0 0 0 0 0 0 0 0 0 0 0 ",
"0 0 0 0 0 0 0 0 0 0 0 0 0 0 0 0 0 0 0 0 0 0 0 0 0 0 0 0 7 7 7 z 0 0 0 0 0 0 0 0 0 0 0 0 0 ",
"0 0 0 0 0 0 0 0 0 0 0 0 0 0 0 0 0 0 0 0 0 0 0 0 0 0 0 0 7 0 0 0 0 0 0 0 0 0 0 0 0 0 0 0 0 ",
"0 0 0 0 0 0 0 0 0 0 0 0 0 0 0 0 0 0 0 0 0 0 0 0 0 0 0 0 7 7 0 0 0 0 0 0 0 0 0 0 0 0 0 0 0 ",
"0 0 0 0 7 0 0 0 0 0 0 0 0 0 0 0 0 0 0 0 0 0 0 0 0 0 0 0 0 0 0 0 0 0 0 0 0 0 0 0 0 0 0 0 0 ",
"0 0 0 0 t 0 0 0 0 0 0 0 0 0 0 0 0 0 0 0 0 0 0 0 0 0 0 0 0 0 0 0 0 0 0 0 0 0 0 0 0 0 0 0 0 ",
"0 7 7 0 0 0 0 0 0 0 0 0 0 0 0 0 0 0 0 0 0 0 0 0 0 0 0 7 7 0 0 0 0 0 0 0 0 0 0 0 0 0 0 0 0 ",
"7 7 7 0 0 0 0 0 0 0 0 0 0 0 0 0 0 0 0 0 0 0 0 0 0 0 7 7 7 0 0 0 0 0 0 0 0 0 0 0 0 0 0 0 0 ",
"7 6 7 7 0 0 0 0 0 0 0 0 0 0 0 0 0 0 0 0 0 0 0 0 0 0 7 7 7 7 7 0 0 0 0 0 0 0 0 0 0 0 0 0 0 ",
"6 6 7 7 0 0 0 0 0 0 0 0 0 0 0 0 0 0 0 0 0 0 0 0 0 0 0 7 7 7 0 0 0 0 0 0 0 0 0 0 0 0 0 0 0 ",
"7 7 7 7 7 7 0 0 0 0 0 0 0 0 0 0 0 0 0 0 0 0 0 0 0 0 t 7 7 7 0 0 0 0 0 0 0 0 0 0 0 0 0 0 0 ",
"7 6 7 7 0 7 0 0 0 0 0 0 0 0 0 0 0 0 0 0 0 0 0 0 0 0 0 0 0 0 0 0 0 0 0 0 0 0 0 0 0 0 0 0 7 ",
"7 7 7 e 0 0 0 0 0 0 0 0 0 0 0 0 0 0 0 0 7 7 0 7 0 0 0 0 0 0 0 0 0 0 0 0 0 0 0 0 0 0 0 0 7 ",
"7 7 7 7 0 0 0 0 0 0 0 0 0 0 0 0 0 0 0 + o + 0 7 O 6 0 0 0 0 0 0 0 0 0 0 0 0 0 0 0 0 0 0 7 ",
"0 0 0 0 0 0 0 0 0 0 0 0 0 7 7 7 + O O % = % O O % + $ e z 7 0 0 0 0 0 0 0 0 0 0 0 0 7 0 7 ",
"0 0 0 0 0 0 0 0 0 0 0 0 0 z 7 - o o o * w : o o : # + < t t 0 0 0 0 0 0 0 0 0 7 0 7 7 0 7 ",
"0 0 0 0 0 0 0 0 0 0 0 0 0 0 < o ; w : r p r q : r w ; O 7 0 0 0 0 0 0 0 0 0 0 7 7 7 7 7 7 ",
"0 7 0 0 0 0 7 7 7 0 0 0 0 0 e < o r p p p p p p p p p r . 6 0 0 0 0 0 0 0 7 0 7 6 7 7 7 6 ",
"0 7 0 0 7 7 7 7 0 0 0 0 0 0 < o r p p p p p p p p p p y - . 6 t 0 0 0 0 0 0 7 7 6 7 6 6 7 ",
"0 0 7 7 7 7 7 7 7 7 0 0 0 t < o p p p w q w p : y p p p : * o < 0 0 0 0 0 0 7 7 6 7 7 6 6 ",
"0 0 0 7 7 6 7 7 7 7 7 0 z $ # & w p p U U q s Y s p p r t o - 7 0 0 0 0 0 0 0 7 7 7 7 7 7 ",
"0 0 7 7 7 6 6 7 7 7 0 0 e $ + & : r A ! E s s ] F s p p r . 6 0 0 0 0 0 0 7 7 7 7 6 6 7 7 ",
"0 0 0 7 7 7 6 7 7 7 7 7 7 7 -   q i ~ ! ! ^ Z ] ! D s r p o < e 0 0 0 0 0 0 0 0 0 0 0 0 0 ",
"0 0 7 7 7 7 6 7 7 7 0 7 7 6 = o p a ~ , 3  .[  .$ Y E w p r o < 0 0 0 0 0 0 0 0 0 0 0 0 0 ",
"0 0 0 7 7 7 7 7 7 0 0 7 7 O O w p I / e i  . . .< T W I w . 6 z 0 0 0 0 0 0 0 0 0 0 0 0 0 ",
"0 0 0 7 7 7 7 7 0 0 0 7 7 < - o e r ! ] {  . . .[ [ E r 6 . 6 t 0 0 0 0 0 0 0 0 0 0 0 0 0 ",
"0 0 0 0 7 0 0 0 0 0 0 0 7 6 6 = # w l Q }  . . .} G s q O - w 0 0 0 0 0 0 0 0 0 0 0 0 0 0 ",
"0 0 0 0 7 7 0 0 0 0 0 0 7 7 7 6 O * w P R } | | T s w * + 7 0 0 0 0 0 0 0 0 0 0 0 0 0 0 0 ",
"0 0 0 0 0 0 0 0 0 0 0 0 t 7 7 0 7   3 O 2 ] ] ] $ 2 : . 0 0 0 0 0 0 0 0 0 0 0 0 0 0 0 0 0 ",
"0 0 0 0 0 0 0 0 0 0 0 0 0 0 7 7 7 . B 3 a _ ) ) 2 B m o 0 0 0 0 0 0 0 0 0 0 0 0 0 0 0 0 0 ",
"0 0 0 0 0 7 7 7 7 7 7 7 7 7 0 0 7   B 0 N o.X._ d B j X 0 0 0 0 0 0 0 0 0 0 0 0 0 0 0 0 0 ",
"0 0 0 0 0 7 7 7 7 7 7 7 7 7 7 7 X $ L f S o.o.o.f K J $ o 7 0 0 0 0 0 0 0 0 0 0 0 0 0 0 0 ",
"0 0 0 0 7 7 7 6 7 w 7 6 7 7 0 7   > J d N ` o.o.f H B %   7 0 7 0 0 0 0 0 0 0 0 0 0 0 0 0 ",
"0 0 0 0 7 7 7 7 7 7 7 7 7 7 7 - O 3 k u N ` ..o.M h g # O - 7 7 0 7 0 0 0 0 0 0 7 7 7 7 0 ",
"0 0 0 0 0 7 7 7 7 6 7 7 7 0 6 o f f ; > N ' ( ' u = $ . i   1 7 7 7 0 0 0 0 0 7 7 7 7 7 6 ",
"0 0 0 0 0 0 7 7 7 7 7 7 7 0 < % { { 2 = < v v x = = # + Q O 1 6 7 0 0 0 0 0 t 6 6 7 6 6 7 ",
"0 0 0 0 0 7 7 7 6 7 7 7 0 7 7 6 O O z n V C C C V v 5   O 1 7 7 7 0 0 0 0 0 7 7 7 7 6 7 6 ",
"0 0 0 0 0 0 0 7 7 7 0 7 0 t 7 7 6   z n C V v C V b 9 . 6 0 0 0 7 0 0 0 0 0 0 6 6 6 7 6 7 ",
"0 0 0 0 0 0 0 0 7 7 0 0 0 0 0 0 7   v V V v @ x C x z . 0 0 0 0 0 0 0 0 0 0 7 7 w 7 7 7 6 ",
"0 0 0 0 0 0 0 0 0 0 0 0 0 0 0 0 7   c m c 4 @ 8 n x 4 . 0 0 0 0 0 0 0 0 0 0 0 7 7 7 7 7 7 ",
"0 0 0 0 0 0 0 0 0 0 0 0 0 0 0 0 7 o 1 3 > o 7   z x 6 o 0 0 0 0 0 0 0 0 0 7 0 0 7 z t 0 7 ",
"0 0 0 0 0 0 0 0 0 0 0 0 0 0 0 0 0 0 o   @ 7 7   $ % + o 0 0 0 0 0 0 0 0 0 0 0 7 7 e 7 7 7 ",
"0 0 0 0 0 0 0 0 0 0 0 0 0 0 0 0 e 0 7 7 7 7 7 . 6 t < . 0 0 0 0 0 0 0 0 0 0 0 0 0 0 0 0 0 "
};
