/* XPM */
static char *result[] = {
/* columns rows colors chars-per-pixel */
"45 45 112 2 ",
"   c #0D0B0A",
".  c #120F0E",
"X  c #13120F",
"o  c #141211",
"O  c #1A1415",
"+  c #171813",
"@  c #1E1916",
"#  c #1C1618",
"$  c #1B1B1C",
"%  c #201917",
"&  c #251C1B",
"*  c #291D1B",
"=  c #2C211F",
"-  c #32221E",
";  c #251D20",
":  c #281F23",
">  c #1F2226",
",  c #1F2428",
"<  c #212326",
"1  c #2B2224",
"2  c #2E2C24",
"3  c #2E2429",
"4  c #342522",
"5  c #3B2723",
"6  c #362A26",
"7  c #3C2925",
"8  c #31262B",
"9  c #34292D",
"0  c #3D2C2B",
"q  c #3C342C",
"w  c #343B2D",
"e  c #262D32",
"r  c #372A30",
"t  c #3D2E35",
"y  c #2B333A",
"u  c #2F383E",
"i  c #3F3037",
"p  c #422E2A",
"a  c #45322D",
"s  c #4B342F",
"d  c #41392D",
"f  c #473330",
"g  c #4C3632",
"h  c #443935",
"j  c #4F3834",
"k  c #4D3D38",
"l  c #533633",
"z  c #593735",
"x  c #503935",
"c  c #454738",
"v  c #494538",
"b  c #4F4C3D",
"n  c #54413C",
"m  c #5D433D",
"M  c #333E46",
"N  c #35424A",
"B  c #3A464E",
"V  c #3E4A51",
"C  c #4E4F42",
"Z  c #444A4D",
"A  c #5D4942",
"S  c #454F58",
"D  c #455058",
"F  c #644E48",
"G  c #704441",
"H  c #7A4945",
"J  c #556249",
"K  c #5A674C",
"L  c #5B6B4E",
"P  c #5E6E51",
"I  c #6B7760",
"U  c #854949",
"Y  c #815C54",
"T  c #9D5856",
"R  c #8B645B",
"E  c #957768",
"W  c #917D6D",
"Q  c #9F786C",
"!  c #A06C64",
"~  c #A07569",
"^  c #AF7069",
"/  c #A5786C",
"(  c #AA7B6F",
")  c #AA7F72",
"_  c #728167",
"`  c #8E8379",
"'  c #958471",
"]  c #95877A",
"[  c #AF8274",
"{  c #B48376",
"}  c #B98679",
"|  c #B38F7D",
" . c #BE8B7D",
".. c #C18C7E",
"X. c #9E9285",
"o. c #AE9A85",
"O. c #A3988D",
"+. c #AB9B8D",
"@. c #BD9784",
"#. c #B6A18B",
"$. c #B9A793",
"%. c #C68F81",
"&. c #C79182",
"*. c #CA9384",
"=. c #CE9A8A",
"-. c #D29C8C",
";. c #D7A08F",
":. c #DBA593",
">. c #C3B09B",
",. c #C9B7A5",
"<. c #CEBCAA",
"1. c #D2C0AE",
/* pixels */
"i i i i i i i i i i i i i i i M   5 5 5 0 j j 0 5 p x 5 . : t t t t i i i i i i i i i i i ",
"i i i i i i i i i i i i i i i i r . 0 l j x x l g g x g f # O t t t i i i i i i i i i i i ",
"i i i i i i i i i i i i i i i t O r s l x x j j l l x x l 5 * # t t i i i i i i i i i i i ",
"i i i i i i i i i i i i i i i t   f l l g s s l g g x x g p - O 8 t i i i i i i i i i i i ",
"i i i i i i i i i i i i t t t r   f j x j g p g g g x x l p 7 4 # t t i i i i i i i i i i ",
"i i i i i i i i i i i i i t 8   5 5 g l m @.p l R ( x x x x 0 . i t i i i i i i i i i i i ",
"i i t t i i i i i i i i i i t t   4 s Y %.%...m R &.} j j j 0 . t t i i i i i i i i i i i ",
"i i h i i i i i i i i i i i t t   p l R ( f *.) ..{ a ( g g g 7 ; t i i i i i i i i i i i ",
"t i t h i i i i i i i i i i t ; * g G ! { % -.-.;.[ % &.H l a = 3 t t i i i i i i i i i i ",
"t t i t i i i i i i i i i i 8 O 7 g U ^ { a -.:.:.[ 0 &.T z 4 X i i i i i i i i i i i i i ",
"t t r t i i i i i i i i i i i t . 4 p Y ..:.:.:.:.:.:. .l p 4 o i i i i i i i i i i i i i ",
"r r t t i i i i i i i i i i i i t o 4 a m &.:.:.:.;. .g p O O t i i i i i i i i i i i i i ",
"t r t t t t i i i i i i i i i i f r # * p =  .*.*.~ % a o 3 t t i i i i i i i i i i i i t ",
"r t t t t f i i i i i i i i i i i i O 2 v & | @.@.E @ b X 8 i f i i i i i i i i i i i i t ",
"p t t t t i i i i i i i i i i i i i O w J 6 o.#.#.W 1 L + 3 i i i i i i i i i i i i i i t ",
"M t t t t i i i i i i i i i i i i t O w K h ,.1.>.' i P + 3 t i i i i i i i i i i i i i t ",
"i i i i i i i i i i i i i i i i i o % C I h ,.1.1.+.h _ 6 X @ i i i i i i i i i i i i i t ",
"i i i i i i i i i i i i i i i i i . & c K h o.<.1.+.q P i X + i i i i i i i i t i t i t t ",
"i i i i i i t i i i i i i i t t ; & # 2 c h $.$.,.+.q c q 1 & 1 i i i i i i i t t t t t t ",
"i t i i i i t t i i i i i i t t   n # O 1 i O.] X.` 6 = A F k . i i i i i i t t t t t t r ",
"i t i t t t t t i i i i i i i t   / 6 O : 4 M N N u 3 1 @.=.Q o i i i i i i t t t t t r t ",
"i i i t t t t t t t i i i i i i i o   , N S D D S S S M     O i i i i i i i t t t r t r r ",
"i i i t t r t t t t i i i i t t i t o , N D D B V D S M . 3 r i i i i i i i t t r r t t t ",
"i i t t t r t t t t i i i i t t i i O , N S B $ e B S V o 8 i i i i i i i i t t t t r t t ",
"i i i t t t t r t t t t t t t t t t O , M B y $ < u V Z X 8 i i i i i i i i i i i t t t t ",
"i i i t t t t t r t t t t t r t 9 t O > M M   r 1 @ q q X 9 i i i i i i i i i i i t t z i ",
"i i i t t t t r f M M t t t r r t t + O & &   r i 3     9 i i i i i i i i i i i i i i i i ",
"i i i t t t t t i t p t t r t r r t O * d q . r i t t t h i i i i i i i i i i i i i i i i ",
"i i t i t i i i i i t i t t r 3 3 8 ; : 1 1 : 8 9 9 : : 8 8 9 9 r t t i i i i i i i i i i ",
"i i i i t t i i i i i i t t r r : 8 3 3 : : 3 3 3 8 : : 3 3 3 3 t i t i i i i i i i i i i ",
"i i i i i i i i i i i i f t i t 8 3 8 8 8 8 8 8 8 8 3 9 8 8 8 9 i i i i i i i i i i i i i ",
"i i i i i i i i i i i i i i i t i t t f i i i i i i i i i i i i i i i i i i i i i i i i i ",
"i i i i i i t t t t t t t i i i i i i i i i i i i i i i i i i i i i i i i i i i i i i i i ",
"i i i i t t t t t t t t t t i i i i i i i i i i i i i i i i i i i i i i i i i i i i i i i ",
"i i i i t t t t t p t r t i i i i i i i i i i i i i i i i i t t i i i i i t i i i i t i i ",
"i i i i t t t t t t t t t i i i i i i i i i i i i i i i i t t t i t i i i i i t t t t t t ",
"i i i i i t t t r r t t t t t i i i i i i i i i i i i i i i t t t t i i i i i t t t r t t ",
"i i i i i i t t t t t t t l i i i i i i i i i i i i i i i t t t t i i i i i t t r r t t t ",
"i i i i i i t t t t t t i i i i i i i i i i i i i i i i i t t t t t i i i i t t t t t r t ",
"i i i i i t i t t t i t i i i i i i i i i i i i i i i i i i i i i i i i i t i t t r t t t ",
"i i i i i i i i t t i i i i i i i i i i i i i i i i i i i i i i i i i i i i t t t r t t t ",
"i i i i i i i i i t i i i i i i i i i i i i i i i i i i i i i i i i i i i i i t t t t t t ",
"i i i i i i i i i i i i i i i i i i i i i i i i i i i i i i i i i i i i i i i i t t t i t ",
"i i i i i i i i i i i i i i i i i i i i i i i i i i i i i i i i i i i i i i i i t t t t t ",
"i i i i i i i i i i i i i i i i i i i i i i i i i i i i i i i i i i i i i i i i i i i t t "
};
