/* XPM */
static char *result[] = {
/* columns rows colors chars-per-pixel */
"45 45 168 2 ",
"   c #0F0C0B",
".  c #100D0B",
"X  c #100E0D",
"o  c #120E0D",
"O  c #130F0F",
"+  c #14110F",
"@  c #16100F",
"#  c #141010",
"$  c #171311",
"%  c #181311",
"&  c #1C1614",
"*  c #1E1717",
"=  c #1F1817",
"-  c #1F191B",
";  c #251A18",
":  c #251B19",
">  c #271C1B",
",  c #221A1D",
"<  c #271C1C",
"1  c #241C1F",
"2  c #251C1F",
"3  c #281E1C",
"4  c #2A1E1D",
"5  c #2A1F1D",
"6  c #2A1F1F",
"7  c #2C201D",
"8  c #2C201F",
"9  c #2E211F",
"0  c #251C20",
"q  c #251D21",
"w  c #261C20",
"e  c #261D20",
"r  c #271D20",
"t  c #261E21",
"y  c #281F21",
"u  c #291E22",
"i  c #281F23",
"p  c #291F23",
"a  c #292120",
"s  c #282021",
"d  c #292121",
"f  c #292022",
"g  c #282023",
"h  c #2A2022",
"j  c #2D2020",
"k  c #2C2221",
"l  c #2E2321",
"z  c #2A2124",
"x  c #2A2125",
"c  c #2C2225",
"v  c #2D2227",
"b  c #2D2327",
"n  c #2F2327",
"m  c #2F2429",
"M  c #2F2529",
"N  c #302221",
"B  c #352522",
"V  c #362723",
"C  c #302427",
"Z  c #392725",
"A  c #342824",
"S  c #392825",
"D  c #392A27",
"F  c #3B2A27",
"G  c #3C2A27",
"H  c #302428",
"J  c #30252A",
"K  c #31252B",
"L  c #31262B",
"P  c #33262B",
"I  c #32272C",
"U  c #36272E",
"Y  c #33282C",
"T  c #34282D",
"R  c #34282E",
"E  c #37282E",
"W  c #36292E",
"Q  c #362A2F",
"!  c #3C2A28",
"~  c #3C2B28",
"^  c #3D2B29",
"/  c #3E2C28",
"(  c #3F2C29",
")  c #3F2E2A",
"_  c #362A30",
"`  c #372A30",
"'  c #392A30",
"]  c #382A31",
"[  c #382B31",
"{  c #392A32",
"}  c #392B32",
"|  c #3B2B32",
" . c #392C32",
".. c #3A2C32",
"X. c #3B2C32",
"o. c #3A2D32",
"O. c #3B2D32",
"+. c #3A2C33",
"@. c #3B2C33",
"#. c #3B2D33",
"$. c #3B2E33",
"%. c #3C2C33",
"&. c #3C2D33",
"*. c #3C2E33",
"=. c #3B2D34",
"-. c #3C2C34",
";. c #3C2D34",
":. c #3D2D34",
">. c #3C2E34",
",. c #3D2E34",
"<. c #3D2F34",
"1. c #3D2E35",
"2. c #3D2F35",
"3. c #3E2E35",
"4. c #3E2F35",
"5. c #3E2E36",
"6. c #3E2F36",
"7. c #3F2F36",
"8. c #3F2F37",
"9. c #3E3035",
"0. c #3E3036",
"q. c #3F3036",
"w. c #3F3037",
"e. c #412C2A",
"r. c #402F2C",
"t. c #432F2C",
"y. c #43302D",
"u. c #46302D",
"i. c #47312E",
"p. c #45322E",
"a. c #47322F",
"s. c #47332F",
"d. c #4A332F",
"f. c #4A3430",
"g. c #4A3431",
"h. c #4A3531",
"j. c #4B3531",
"k. c #4B3631",
"l. c #4A3432",
"z. c #4A3532",
"x. c #4B3532",
"c. c #4C3431",
"v. c #4C3632",
"b. c #4D3632",
"n. c #4C3732",
"m. c #4D3732",
"M. c #4C3633",
"N. c #4D3633",
"B. c #4C3733",
"V. c #4D3733",
"C. c #4E3733",
"Z. c #4D3734",
"A. c #4D3833",
"S. c #4E3833",
"D. c #4D3834",
"F. c #4E3834",
"G. c #4F3834",
"H. c #4F3835",
"J. c #4F3836",
"K. c #4F3936",
"L. c #503935",
"P. c #503936",
"I. c #533D38",
"U. c #5D463E",
"Y. c #584242",
"T. c #6C4E47",
"R. c #70534B",
"E. c #71554E",
/* pixels */
"w.w.w.w.w.w.w.w.w.w.w.w.w.w.w.w.w.w.w.w.w.w.w.w.w.w.6.&.| | | | -.5.w.w.w.w.w.w.w.w.w.w.w.",
"w.w.w.w.w.w.w.w.w.w.w.w.w.w.w.w.w.w.w.w.w.w.w.w.w.w.6.&.| | | | ;.5.w.w.w.w.w.w.w.w.w.w.w.",
"w.w.w.w.w.w.w.w.w.w.w.w.w.w.w.w.w.w.w.w.w.w.w.w.w.w.6.&.X.X.X.X.>.6.w.w.w.w.w.w.w.w.w.w.w.",
"w.w.w.w.w.w.w.w.w.w.w.w.w.w.w.w.w.w.w.w.w.w.w.w.w.w.8.6.6.5.5.5.8.w.w.w.w.w.w.w.w.w.w.w.w.",
"w.w.w.w.w.w.w.w.w.w.w.w.w.w.w.w.w.w.w.w.w.w.w.w.w.w.8.8.8.8.8.8.8.w.w.w.w.w.w.w.w.w.w.w.w.",
"w.w.w.w.w.w.w.w.w.w.w.w.w.w.w.w.w.w.w.w.w.w.w.w.w.w.w.w.w.w.w.w.w.w.w.w.w.w.w.w.w.w.w.w.w.",
"8.w.8.w.8.w.w.w.w.w.w.w.w.w.w.w.w.w.w.w.w.w.w.w.w.w.w.w.w.w.w.8.w.w.w.w.w.w.w.w.w.w.w.w.w.",
"w.w.w.w.w.w.w.w.w.w.w.w.w.w.w.w.w.w.w.w.w.w.w.w.w.w.w.w.w.w.w.w.w.w.w.w.w.w.w.w.w.w.w.w.w.",
"6.6.6.8.8.w.w.w.w.w.w.w.w.w.w.w.w.w.w.w.w.w.w.w.w.w.8.6.6.8.w.8.w.w.w.w.w.w.w.w.w.w.w.w.w.",
",.,.<.8.8.w.w.w.w.w.w.w.w.w.w.w.w.w.w.w.w.w.w.w.w.w.6.<.<.6.w.8.w.w.w.w.w.w.w.w.w.w.w.w.w.",
"| | X.5.8.w.w.w.w.w.w.w.w.w.w.w.w.w.w.w.w.w.w.w.w.w.6.&.X.:.6.8.w.w.w.w.w.w.w.w.w.w.w.w.w.",
"| | X.5.8.w.w.w.w.w.w.w.w.w.w.w.w.w.w.w.w.w.w.w.w.w.6.,.*.3.w.8.w.w.w.w.w.w.w.w.w.w.w.w.w.",
"| | X.5.8.w.w.w.w.w.w.w.w.w.w.w.w.w.w.w.w.w.w.w.w.w.0.9.9.0.w.w.w.w.w.w.w.w.w.w.w.w.w.w.w.",
"| | X.5.8.w.w.w.w.w.w.w.w.w.w.w.w.w.w.w.w.w.w.w.w.w.w.w.w.w.w.w.w.w.w.w.w.w.w.w.w.w.w.w.w.",
"&.&.*.7.8.w.w.w.w.w.w.w.w.w.w.w.w.w.w.w.w.w.w.w.w.w.w.w.w.w.w.w.w.w.w.w.w.w.w.w.w.w.w.w.w.",
"1.1.2.7.8.w.w.w.w.w.w.w.w.w.w.w.w.w.w.w.w.w.w.w.w.w.w.w.w.w.w.w.w.w.w.w.w.w.w.w.w.w.w.w.w.",
"w.w.w.w.w.w.w.w.w.w.w.w.w.w.w.w.w.w.w.w.w.w.w.w.w.w.w.w.w.w.w.w.w.w.w.w.w.8.w.8.8.8.8.8.8.",
"8.w.8.w.8.w.w.w.w.w.w.w.w.w.w.w.w.w.w.w.w.w.w.w.w.w.w.w.w.w.w.w.w.w.w.w.w.w.w.0.6.6.6.6.6.",
"w.w.w.w.w.w.w.w.w.w.w.w.w.w.w.w.w.w.w.w.w.w.w.w.w.w.w.w.w.w.w.w.w.w.w.w.w.8.0.,.*.&.&.&.&.",
"w.8.w.8.w.8.w.8.8.w.8.w.w.w.w.w.w.w.w.w.w.w.w.w.w.w.w.w.w.w.w.w.w.w.w.w.w.8.0.&.O.X.X.X.X.",
"w.8.8.8.8.8.8.8.8.w.8.w.w.w.w.w.w.w.w.w.w.w.w.w.w.w.w.w.w.w.w.w.w.w.w.w.w.8.6.%.X.| | | | ",
"w.8.8.*.#.@.@.$.*.2.8.w.w.w.w.w.w.w.w.w.w.w.w.w.w.w.w.w.w.w.w.w.w.w.w.w.w.8.6.%.X.| | | | ",
"w.8.8.&.X.| | X.%.1.8.w.w.w.w.w.w.w.w.R i c Q w.w.w.w.w.w.w.w.w.w.w.w.w.w.8.0.&.O.X.X.X.X.",
"w.8.8.&.X.| | X.%.1.8.w.8.7.7.7.7.8.{ y & = s L L L ` 2.w.w.w.w.w.w.w.w.w.8.0.*.#.@.@.@.@.",
"w.8.8.&.X.| | X.%.1.8.6.>.X.X.X.X.o.x < S B ; o o o , Y [  .;.w.w.w.w.w.w.8.w.8.8.8.8.8.8.",
"w.8.8.&.X.X.X.O.&.2.8.5.;.| | | | &.>.i 3 V t.t.t.t.7 @   # f 2.w.w.w.w.w.8.w.8.8.8.8.8.8.",
"w.8.8.,.%.&.&.*.,.6.8.5.-.| | | | ..p > G i.d.d.d.d.u.e.( Z > g 2.w.w.w.w.w.w.w.w.w.w.w.w.",
"w.w.w.0.6.6.6.6.0.w.w.5.-.| | U 2 O : / j.P.P.b.f.H.S.f.F 8 i =.w.w.w.w.w.w.w.w.w.w.w.w.w.",
"w.8.8.8.8.8.8.8.8.w.8.6.>.X.P h l ) y.k.B.V.V.S.F.F.F.B.a.~ 6 b 6.w.w.w.w.w.w.w.w.w.w.w.w.",
"w.w.w.w.w.w.w.w.w.w.w.w.6.:.E n k r.G.m.v.v.v.V.C.b.V.V.v.t.5 t 2.w.w.w.w.w.w.w.w.w.w.w.w.",
"w.w.w.w.w.w.w.w.w.w.w.w.} I K m d D C.A.V.v.v.v.V.F.A.C.C.p.4 - J L _ =.w.w.w.w.w.w.w.w.w.",
"w.w.w.w.w.w.w.w.w.w.w.=.C * + % A H.n.K.L.C.v.n.P.I.P.V.V.s.9 X . $ a Q w.w.w.w.w.w.w.w.w.",
"w.w.w.w.w.q.4.9.4.4.4.t U.R.P.N ^ l.v.Z.Z.M.c.g.l.D.J.N.x.z.h.! j T.E.Y.w.w.w.w.w.w.w.w.w.",
"w.w.w.w.w.7.,.&.&.&.&.T b z t 1 q e e r r e e e e r r e e e w 0 1 u H ' w.w.w.w.w.w.w.w.w.",
"w.w.w.w.w.6.&.| | | | X.W M b b b b b b b b b b b b b v b v v v v b I ..w.8.w.8.8.8.8.8.8.",
"w.w.w.w.w.6.&.| | | | &.&.#.+.+.+.+.+.+.+.+.+.+.+.+.+.+.+.} [ ] }  .>.6.w.w.w.2.2.1.1.1.1.",
"w.w.w.w.w.6.&.| | | | &.4.w.w.w.w.w.w.w.w.w.w.w.w.w.w.8.w.1.;.%.1.6.w.w.w.8.0.;.&.%.%.%.%.",
"w.w.w.w.w.6.&.| | | | &.4.w.w.w.w.w.w.w.w.w.w.w.w.w.w.8.w.1.&.X.>.6.w.w.w.8.0.&.O.X.X.X.X.",
"w.w.w.w.w.6.>.&.&.&.&.,.0.w.w.w.w.w.w.w.w.w.w.w.w.w.w.8.w.1.>.&.,.6.w.w.w.8.6.%.X.| | | | ",
"w.w.w.w.w.8.6.6.6.6.6.7.w.w.w.w.w.w.w.w.w.w.w.w.w.w.w.8.w.8.6.6.7.w.w.w.w.8.6.%.X.| | | | ",
"w.w.w.w.w.w.w.w.w.w.w.w.w.w.w.w.w.w.w.w.w.w.w.w.w.w.w.w.w.w.w.w.w.w.w.w.w.8.6.&.O.X.X.X.X.",
"w.w.w.w.w.w.w.w.w.w.w.w.w.w.w.w.w.w.w.w.w.w.w.w.w.w.w.w.w.w.w.w.w.w.w.w.w.8.q.<.*.&.&.&.&.",
"w.w.w.w.w.w.w.w.w.w.w.w.w.w.w.w.w.w.w.w.w.w.w.w.w.w.w.w.w.w.w.w.w.w.w.w.w.8.w.8.8.8.8.8.8.",
"w.w.w.w.w.w.w.w.w.w.w.w.w.w.w.w.w.w.w.w.w.w.w.w.w.w.w.w.w.w.w.w.w.w.w.w.w.8.w.8.8.8.8.8.8.",
"w.w.w.w.w.w.w.w.w.w.w.w.w.w.w.w.w.w.w.w.w.w.w.w.w.w.w.w.w.w.w.w.w.w.w.w.w.w.w.w.w.w.w.w.w."
};
