/* XPM */
static char *result[] = {
/* columns rows colors chars-per-pixel */
"45 45 104 2 ",
"   c #0D0B0B",
".  c #120F0F",
"X  c #11100D",
"o  c #141211",
"O  c #1A1514",
"+  c #1C1A17",
"@  c #1D1719",
"#  c #1C1A1B",
"$  c #231917",
"%  c #251B1B",
"&  c #2C1E1C",
"*  c #27221C",
"=  c #2C211E",
"-  c #32221E",
";  c #251D20",
":  c #281F22",
">  c #262122",
",  c #2A2124",
"<  c #2E2429",
"1  c #23292D",
"2  c #332422",
"3  c #3A2622",
"4  c #362A26",
"5  c #3C2926",
"6  c #31262B",
"7  c #352A2E",
"8  c #3C2C29",
"9  c #3B312E",
"0  c #32392C",
"q  c #272D32",
"w  c #372A30",
"e  c #3D2E35",
"r  c #3F3037",
"t  c #412B27",
"y  c #432E2B",
"u  c #46302D",
"i  c #49332F",
"p  c #473330",
"a  c #4C3632",
"s  c #423D30",
"d  c #4D3F38",
"f  c #503935",
"g  c #583D39",
"h  c #603B38",
"j  c #3E4635",
"k  c #444637",
"l  c #4E413B",
"z  c #444F3B",
"x  c #494C3D",
"c  c #5C423C",
"v  c #2F3A40",
"b  c #303C43",
"n  c #394147",
"m  c #3A454C",
"M  c #3D4950",
"N  c #414A4E",
"B  c #4D5841",
"V  c #535C46",
"C  c #434D55",
"Z  c #444F58",
"A  c #455058",
"S  c #555A5A",
"D  c #5C5D5C",
"F  c #644943",
"G  c #734341",
"H  c #6E5048",
"J  c #72534C",
"K  c #7D5A51",
"L  c #56654A",
"P  c #5A6A4E",
"I  c #9D5856",
"U  c #836157",
"Y  c #8A645A",
"T  c #926C61",
"R  c #8F7269",
"E  c #9D7266",
"W  c #A3776A",
"Q  c #A77C6E",
"!  c #AF7E72",
"~  c #A38F7B",
"^  c #B38274",
"/  c #B98678",
"(  c #B4887A",
")  c #BC897B",
"_  c #AB937F",
"`  c #C28D7E",
"'  c #B28D81",
"]  c #AD9984",
"[  c #B69085",
"{  c #B49B86",
"}  c #B49F88",
"|  c #B9A691",
" . c #BAA898",
".. c #C69283",
"X. c #CB9686",
"o. c #CE9788",
"O. c #D19D8D",
"+. c #D6A08F",
"@. c #C2AE9A",
"#. c #DBA493",
"$. c #C7B6A5",
"%. c #C8B5A1",
"&. c #CEBBAA",
"*. c #D1BEAD",
/* pixels */
"r r r r r r r r r r r r r r r r r r r r r r r r r r e e w w e e e e r r r r r r r r r r r ",
"r r r r r r r r r r r r r r r r r r r r r r r r r r e e w e e e e r r r r r r r r r r r r ",
"r r r r r r r r r r r r r r r r r r r r r r r r r r r e w e w e e e r r r r r r r r r r r ",
"r r r r r r r r r r r r r r r r r r r r r r r r r r r r e e e e r r r r r r r r r r r r r ",
"r r r r r r r r r r 6 e p < < w r r v u r r r r r r r r e r r r e r r r r r r r r r r r r ",
"r r r r r r r r p e   6 w     O r r p e r r r r r r r r e r r r r r r r r r r r r r r r r ",
"r r r r e r r O . . - O o 2 2 : . . : e r r r r r r r r r r r r r r r r r r r r r r r r r ",
"r r r r p w ; % & - t : % u i t ; $ ; ; ; w r r r r r r r r r r r r r r r r r r r r r r r ",
"r r e r v 6 . w u f f t 8 a f a u 3 $   . < e r r r r e r r r r r r r r r r r r r r r r r ",
"e r r e e r y . - f f f a f f f f f y 3 t @ o r r r e e e e r r r r r r r r r r r r r r r ",
"e e w e e w ; ; t f f f f f f f f f i t e O . r r r e e e e r r r r r r r r r r r r r r r ",
"e w w r p <   t i a a a f f f f f f i u y . . r r r r e e e r r r r r r r r r r r r r r r ",
"e w e e e <   i u 3 3 a f a f f f f f f u O . e r r e p e e r r r r r r r r r r r r r r r ",
"w e e r ; @ & a K E t i f y a f f f i u t - & O e r r r e e r r r r r r r r r r r r r r e ",
"e e w r ; @ & a Y ..h g f h g f f f i u 3 - & @ e e r r r r r r r r r r r r r r r r r r e ",
"e e y r e <   a Y ) ..J F ) H g f f a f 3 O . e r r r r r r r r r r r r r r r r r r r r e ",
"r r e e p 6   W H = ) ../ $ T W f 5 u a y 5 5 . e e r r r r r r r r r r r r r r r r e r e ",
"r r e v : % % ! H $ ..#.` . E ) I G h a y : % ; e e r r r r r r r r r r r r r e e r r e e ",
"r r p p # @ 2 ^ K u O.#.X.4 W ` ..I G a y O . r r r r r r r r r r r r r r r r e e e e e e ",
"r r v p r :   ! X.O.#.#.#.O.X.` ..g u p u o . r r r r r r r r r r r r r r e r e e w e e e ",
"r r r r p e < 7 U X.#.#.#.#.o.Q h u y 8 O : 6 r r r r r r r r r r r r r r r e e w e w e w ",
"r r r e e w e @ c E +.+.+.+.^ U y y 5 2 O w r r r r r r r r r r r r r r r r e e w e e w e ",
"r e r e e 8 w e % X ( ..` ..4 O y y % . e r r r r r r r r r r r r r r r r r e e e e w w e ",
"r r e e e w e O + 2 _ } { { d 4 V 6 $   e p r r r r r r r r r r r r r r r r e e e w e e w ",
"r r r e e w e . O 5 | @. .{ l 4 x 2 4 0 : w r r r r r r r r r r r r r r r r r r r r r r r ",
"r e e e e e e . O 4 $.*.&.} l , 9 , k L . w r r r r r r r r r r r r r r r r r r r r e e r ",
"r r r e e e e . O 5 $.*.*.&.S 9 9 9 l L . < e r r r r r r r r r r r r r r r r r r r r r r ",
"r r r r e y e . O 4 | *.$.R d 8 9 x V S . 6 e p r r r r r r r r r r r r r r r r r r r r r ",
"r e r r r r e . O 4 ] %. .* 8 9 9 L P L . 6 p e r r r r r r r r r r r r r r r r r r r r r ",
"r r r r r r r . O 4 $.| ~ 9 r 4 * B L L . 6 v e r r r r r r p r r r r r r r r r r r r r r ",
"r r r r r r r . O 2 D S D ( ( T * B L L   < r r r r r r r e v p r r r r r r r r r r r r r ",
"r r r r r r r . # 0 n m A [ ' R < j z z @ e r r r r r r r e v p r r r r r r r r r r r r r ",
"r r r r p v e O w Z A A A Z M b v o   o e r r r r r r r r r r r r r r r r r r r r r r r r ",
"r r r r y w . b C Z A b M Z Z M v . ; w r r r r r r r r r r r r r r r r r r r r r r r r r ",
"r r r r v 6   M Z Z b q 1 Z Z Z m . ; r r r r r r r r r r r r r e r r r r r r e e r e r r ",
"r r r r p :   m C C b ; @ b b M N O ; w r r r r r r r r r r r r r r r r r r r r r e e e e ",
"r r r r r 6   v b b o : 6   . # s s % o e r r r r r r r r e r w e r r r r e r e e e e w e ",
"r r r r r 6   ; < : . < e 6 6 : o @ o   e r r r r r r r r e w e e e r r r r r e w e w e w ",
"r r r r w : O : , %   < r r r w @ o o @ e r r r r r r r r e e w e r r r r e r w w y e w e ",
"r r r r @ @ u p 4 %   < r r r r r r r r r r r r r r r r r r r e r r r r r r e e w e w e e ",
"r r r 6 , > : > ; ; : < 6 6 6 < : : : < 7 < 6 r r r r r r r r r r r r r r r r e e w e e e ",
"r r r w 6 < , , , , < < < < < < : : < < < w w r r r r r r r r r r r r r r r r u e y e e e ",
"r r r r 7 < < < < < < < < < < < < < < < < e r r r r r r r r r r r r r r r r r e v r e r e ",
"r r r r r r r r r r r r r r r r r r r r r r r r r r r r r r r r r r r r r r r e u r r e e ",
"r r r r r r r r r r r r r r r r r r r r r r r r r r r r r r r r r r r r r r r r r r r r e "
};
