/* XPM */
static char *result[] = {
/* columns rows colors chars-per-pixel */
"45 45 94 2 ",
"   c #0D0C0B",
".  c #120E0E",
"X  c #14110F",
"o  c #131211",
"O  c #1A1415",
"+  c #1D1719",
"@  c gray11",
"#  c #231916",
"$  c #251C1D",
"%  c #2B1E1B",
"&  c #24221B",
"*  c #2C201E",
"=  c #261D21",
"-  c #281F23",
";  c #1F2528",
":  c #2B2224",
">  c #2E2429",
",  c #2E2A2B",
"<  c #352522",
"1  c #3A2723",
"2  c #342926",
"3  c #3D2A26",
"4  c #33272D",
"5  c #34282E",
"6  c #3A2E2C",
"7  c #303329",
"8  c #3C332C",
"9  c #333A2C",
"0  c #3C3B2F",
"q  c #2D2D30",
"w  c #3D2E34",
"e  c #2C353B",
"r  c #3F3037",
"t  c #3D3F3C",
"y  c #422D2A",
"u  c #482D29",
"i  c #45312D",
"p  c #49322E",
"a  c #433B2E",
"s  c #433431",
"d  c #4C3632",
"f  c #4F3835",
"g  c #493D39",
"h  c #503935",
"j  c #5A3C39",
"k  c #414134",
"l  c #5D433E",
"z  c #2E3940",
"x  c #333F46",
"c  c #344149",
"v  c #3C464E",
"b  c #3F4A52",
"n  c #444643",
"m  c #444A4D",
"M  c #535844",
"N  c #434D55",
"B  c #475054",
"V  c #455058",
"C  c #6B4E47",
"Z  c #6E4F48",
"A  c #76584E",
"S  c #6F5954",
"D  c #7D5B52",
"F  c #556248",
"G  c #687055",
"H  c #815C53",
"J  c #A45555",
"K  c #886258",
"L  c #926B61",
"P  c #A6786C",
"I  c #A77E71",
"U  c #AF8073",
"Y  c #A58978",
"T  c #B18174",
"R  c #B88578",
"E  c #BD8A7C",
"W  c #A5917D",
"Q  c #C3897C",
"!  c #A89581",
"~  c #B69A85",
"^  c #B49F88",
"/  c #B6A18B",
"(  c #B9A48E",
")  c #BAA590",
"_  c #BDAC9C",
"`  c #C69283",
"'  c #C99283",
"]  c #D29C8C",
"[  c #C2AE9A",
"{  c #D7A190",
"}  c #DBA493",
"|  c #CAB7A4",
" . c #D1BFAE",
".. c #D2C0AE",
/* pixels */
"r r r r r r r r r r r r r r r r r r r r r r r r r r w w w 4 w w w w r r r r r r r r r r r ",
"r r r r r r r r r r r r r r r r r r r r r r r r r r w w w w w w w r r r r r r r r r r r r ",
"r r r r r r r r r r r r r r r r r r r r i r z s r r w w w w w 4 w w r r r r r r r r r r r ",
"r r r r r r r r r r r r r r r r r r r + - w O O > w r r w w w w r r r r r r r r r r r r r ",
"r r r r r r r r r r r r r r r r w w 5 O = 4 . . = 5 w w w r r r r r r r r r r r r r r r r ",
"r r r r r r r r r r r r r r r r =     < #   1 1 #     4 w w r r r r r r r r r r r r r r r ",
"r r r r w r r r r r r r r r r + = 3 p d u 1 d f u 3 < O . + r r r r r r r r r r r r r r r ",
"r r r r s r r r r r r r r r r - = = f f p u f f d p u % # = - w r r r r r r r r r r r r r ",
"r r r w r r r r r r r r r r r w $ O h f h h f h h h f y y <   w r r r r r r r r r r r r r ",
"w w r r r r r r r r r r r r r + $ u h f h h h f h h f u y >   w r r r r r r r r r r r r r ",
"5 w w w r r r r r r r r r r w O % d y y p h f f h h h d p <   w r r r r r r r r r r r r r ",
"w 5 w w r r r r r r r r i w 4 + < h j y p f d f h h h f u < O > w r r r r r r r r r r r r ",
"w w 5 s r r r r r r r r r w . - u j ` h f h u d h f f p y 1 < . 4 r r r r r r r r r r r r ",
"5 w w w r r r r r r r r w z w O : C ` Q H l ` j h f f f u - . w w r r r r r r r r r r r r ",
"y w w r r r r r r r r r w r r O h K C R I L Z K Z f p d p 1 $ = w w r r r r r r r r r r r ",
"w w w r r r r r r r r r p r w + Z I   T ] '   I L l u f p u 1 . 4 r r r r r r r r r r r r ",
"r r r r r r r r r r r r y w . - H T # ` } ` + T Q Q J j p < . w r r r r r r r r r r r r w ",
"r r r r r r r r r r r r r w w O Z ' ` ] } } ` ' ` E p i i 1   w r r r r r r r w w r r w w ",
"r r r r r r r r r r r r r r r > s A ] } } } } ' P D y y < $ = w r r r r r r r w w w w w u ",
"r r r r r r w w r r r r r r r r $ $ E { } } } Q D i i y % + r w r r r r r r r w w w w w 4 ",
"r r r r w w w r r r r r r r r r r 5 o T ' ' ' * * 0 y X $ w r r r r r r r r w w w 4 w w 4 ",
"r r w w w w w w w w r r r r r r : + # Y ~ ~ ~ 2 0 l :   = r r r r r r r r w w w w w 4 w w ",
"r r r w w 4 4 w w w r r r r z s $ . * ! ) ( ~ 8 k l * & : 4 r r r r r r r r r w w w w 4 w ",
"r r w w w w w w w w r r r p w i =   * _ .. ./ g 9 9 * F 9 + r r r r r r r r w w w 4 w w w ",
"r r r w w w 4 w w w r r w w w 5 #   - _ .. .| a 2 8 * F 9 + w r r r r r r r r r r r r r r ",
"r w w w w w w w w w w w w 5 w w $ . * ^ | ....r , 8 * F 9 o r r r r r r r r r r r r r r r ",
"r r r w w w w w w r r w w w w 5 $   % W [  . .s 2 6 * F 9 o r r r r r r r r r r r r r r r ",
"r r r r w w w w r r r w w 5 w w $   * _ [ ^  .a 2 6 * F 9 + r r r r r r r r r r r r r r r ",
"r r r r w w r r r r r r w 5 w w =   : m N N B : D ` ` G 9 + w r r r r r r r r r r r r r r ",
"r r r r w w r r r r r r r w w w $   > x x x x , S Y U M 7 $ r r r r r r r r r r r r r r r ",
"r r r r r r r r r r r r w r r w $ o c c x c c c c z     = r r r r r r r r r r r r r r r r ",
"r r r r r r r r r r r r s w r r = o N N V V V c c z   4 w r r r r r r r r r r r r r r r r ",
"r r r r r r w w r w w w w w r r @ o V V b b V b b z   w r r r r r r r r r r r r r r r r r ",
"r r r r r r w w w w w w w w r r = o V b c e b V b z   5 r r r r r r r r r r r r r r r r r ",
"r r r r w w w 4 w w w w w r r r = o V c ; o z V V v   5 r r w w r r r r r r r r r r r r r ",
"r r r r w w w w w w 4 w r r r r : o c c ; o c b V v   w r w w w r r r r r r r w w w w w w ",
"r r r r r w w w w w w w w r r r $ . q , + . ; g n t   5 s r w w w w r r r r w w w w w i w ",
"r r r r r r w w w 3 w w r r r w $ X * $ O   . 5 8 7 . w r w w w w r r r r r w w 5 w w 5 w ",
"r r r r r r w w 4 w w w r r r O * a s = O . w .   . r w r w w w w w r r r r r w w 5 w w 5 ",
"r r r r r r w r w w w r w 4 4 - - : - = = - w + + + 4 4 4 4 4 w r r r r r r w w w w w 5 w ",
"r r r r r r r r w r r r w 4 4 4 - - = = - 4 > - = = > > > > 4 r r r r r r w w w w 5 w w w ",
"r r r r r r r r r r r r r w > > > > > > > > > > > > > 4 > w r r r r r r r r r r w w w r w ",
"r r r r r r r r r r r r r r w w r r r r w r r r w r r r w w r r r r r r r r r r i r w r w ",
"r r r r r r r r r r r r r r r r r r r r r r r r r r r r r r r r r r r r r w r w z i r w w ",
"r r r r r r r r r r r r r r r r r r r r r r r r r r r r r r r r r r r r r r r r r r r w w "
};
