/* XPM */
static char *result[] = {
/* columns rows colors chars-per-pixel */
"45 45 91 1 ",
"  c #0D0B0A",
". c #120F0E",
"X c #15110F",
"o c #151212",
"O c #1A1514",
"+ c #161718",
"@ c #1D1719",
"# c #1A1B1C",
"$ c #241C1B",
"% c #291E1C",
"& c #2D201E",
"* c #32221E",
"= c #261D21",
"- c #281F23",
"; c #2C2324",
": c #2E2429",
"> c #23292D",
", c #2F292A",
"< c #332421",
"1 c #392623",
"2 c #3D2926",
"3 c #31262B",
"4 c #352A2D",
"5 c #3C2C2A",
"6 c #36302A",
"7 c #3B322D",
"8 c #3D2D34",
"9 c #2D3236",
"0 c #2A3339",
"q c #3F3037",
"w c #402B27",
"e c #432E2B",
"r c #492E2A",
"t c #45312D",
"y c #4B342F",
"u c #423A2E",
"i c #4B3632",
"p c #423E35",
"a c #4E3834",
"s c #503935",
"d c #563E39",
"f c #593E3A",
"g c #4C4D3C",
"h c #5C433C",
"j c #2F3A40",
"k c #333D44",
"l c #384046",
"z c #35424A",
"x c #39444B",
"c c #544641",
"v c #515B43",
"b c #424D55",
"n c #454F58",
"m c #455058",
"M c #545859",
"N c #595D5E",
"B c #6B4E48",
"V c #56634A",
"C c #59624C",
"Z c #59684C",
"A c #606854",
"S c #6A765E",
"D c #9F5353",
"F c #8D655B",
"G c #89685E",
"H c #916B61",
"J c #986F64",
"K c #967167",
"L c #9C7267",
"P c #A3766A",
"I c #A5796D",
"U c #AA7B6F",
"Y c #A38C7A",
"T c #B28275",
"R c #BF8277",
"E c #B98678",
"W c #B69A86",
"Q c #B6A18B",
"! c #BAA590",
"~ c #BEAD9D",
"^ c #C48F81",
"/ c #C69182",
"( c #C99384",
") c #CC9889",
"_ c #D7A190",
"` c #DBA493",
"' c #CBB7A5",
"] c #CBB8A4",
"[ c #CEBCAA",
"{ c #D2BFAE",
"} c #D2C0AE",
/* pixels */
"qqqqqqqqqqqqqqqqqqqqqqqqqq8888888qqqqqqqqqqqq",
"qqqqqqqqqqqqqqqqqqqqqqqqqqq8838888qqqqqqqqqqq",
"qqqqqqqqqqqqqqqqqqqqqqqqqqqq88388qqqqqqqqqqqq",
"qqqqqqqqqqqqqqqqqqqqqqqqqqqq8888qqqqqqqqqqqqq",
"qqqqqqqqqqqqqqqqqqqqqqqqqqqq8qqqejtqqqqqqqqqq",
"qqqqqqqqqqqqqqqqqqqqqqqqqqqq83O8@..8qqqqqqqqq",
"qqqqqqqqqqqqqqqqqqqqqqqqqqe33-O:OOO-338tqqqqq",
"qqqqqqqqqqqqqqqqqqqqqqqq8j3..O1.*22. .888qqqq",
"88tqqqqqqqqqqqqqqqqqqqqq8@.wrii1iise5<. oqqqq",
"88qqqqqqqqqqqqqqqqqqqqqq88:Oissiissiit*;:o88q",
"4888qqqqqqqqqqqqqqqqqqqq883.yssssssssiwe2 88q",
"888qqqqqqqqqqqqqqqqqqqqq8@.rissssssssstt3 8qq",
"848888qqqqqqqqqqqqqqqqqqtO.s81wsssssssat2 4tq",
"8888t8qqqqqqqqqqqqqqqqqq4OOsff1siissssie2X-8q",
"8888jqqqqqqqqqqqqqqqqqj8.-wsRUrsrrsssarw1;.@q",
"8888tqqqqqqqqqqqqqqqqqtt8OOfU(UfPUsssssw* 8qe",
"qqqqqqqqqqqqqqqqqqqqqqqqqOOUyh^WhuUhiwaew<@$8",
"qqqqqqqqqqqqqqqqqqqqqqqq8@%(%2(_t$(Bfrsre5o@8",
"qqqqqqqqqqqqqqqqqqqqqqq8 -r(1s``s*//RDdy1 488",
"qqqqqqqqqqqqqqqqqqqqqqqq8o=(^)``)(/(Uyee2 488",
"qqqq8888qqqqqqqqqqqqqqqq8==J)_```_(UFee1*O488",
"qq883888qqqqqqqqqqqqqqqq888 U^```_EsetwO.8844",
"qqq8888888qqqqjeqqqqqqqqtj88@r((/Tote5.;48488",
"qq888838888qqr88qqqqqqqqqt8O$iWWWY$gg& ,88888",
"q888888888qq888848qqqqqqqq4 $dW!WY;Vg& 38qq8q",
"qqq8888888q8884888qqqqqqqq8 $c{{!Y7Zv& 3qq8qq",
"qq8888888qqq8488888qqqqqq@o3;c{{[~7SZ;&o@8qqq",
"qqqq88888qqq888348qqqqqqq@.8;c'{}~7AC6;X.qqqq",
"qq8q88qqqqq884888888qqqq8+o7;dQ[}~77pZq@.8qqq",
"qqqq88qqqqqq888888qqqqq8X;6&%c[Q]~7;6vqq3.8qq",
"qqqqqqqqqqqqqqqqqqqqqqq8 GI&;6NMNM;&6VUUH 88q",
"qqqqqqqqqqqqq8qqqt8qqqq8oKT$$:zzzl;&6v^UL.8jq",
"qqqqqq8q8q888qqqqqqqqqqqqO   #nnmbzk9   oqqqq",
"qqqq8888888888qqqqqqqqqqq838.#b+lbbz9 344qqqq",
"qqqq888888888qqqqqqqqqqqqqj8.+k#xmxj>X:8qqqqq",
"qqqq88888838qqqqqqqqqqqqqqqq. obnnjoX$ :qq888",
"qqqqq88888r88qqqqqqqqqqqqqqq.@bnxj  o7 :84888",
"qqqqqq888888qqqqqqqqqqqqqqqe.o,,jj ;:O :88848",
"qqqqq8888888qqqqqqqqqqqqqq88+o-%90o83X.:88884",
"qqqqqqqq88q8qqqqqqqqqqqqqq8 8tt%..qqqqq884488",
"qqqqqqqq88qqqqqqqqqqqq83333--====:3::=:::;888",
"qqqqqqqq88qqqqqqqqqqqqq3::::====:::::=:::3888",
"qqqqqqqq8qqqqqqqqqqqqqqq3:33::33:::::::::jtq8",
"qqqqqqqqqqqqqqqqqqqqqqqqt8qq88qqqqqqqqqqetqq8",
"qqqqqqqqqqqqqqqqqqqqqqqqqqqqqqqqqqqqqqqqqqqq8"
};
