/* XPM */
static char *result[] = {
/* columns rows colors chars-per-pixel */
"45 45 99 2 ",
"   c #0D0C0B",
".  c #120E0D",
"X  c #15100F",
"o  c #151212",
"O  c #1A1514",
"+  c #1E1916",
"@  c #1D1718",
"#  c #191C1E",
"$  c #231917",
"%  c #251C1B",
"&  c #2A1E1D",
"*  c #2D201E",
"=  c #32221E",
"-  c #251E21",
";  c #281F22",
":  c #1F2528",
">  c #2C2324",
",  c #21272A",
"<  c #2E2429",
"1  c #332522",
"2  c #392622",
"3  c #352B25",
"4  c #3D2925",
"5  c #31262B",
"6  c #34292D",
"7  c #3C2D2A",
"8  c #363129",
"9  c #3C332B",
"0  c #3E382D",
"q  c #372A30",
"w  c #3D2D34",
"e  c #2D373D",
"r  c #3F3037",
"t  c #422D2A",
"y  c #482D29",
"u  c #45302D",
"i  c #49322E",
"p  c #473330",
"a  c #4C3532",
"s  c #4E3834",
"d  c #4A3E39",
"f  c #503935",
"g  c #5C3836",
"h  c #563E39",
"j  c #5A3E38",
"k  c #633E3B",
"l  c #454737",
"z  c #4D423D",
"x  c #4B4D3D",
"c  c #2E3940",
"v  c #323E45",
"b  c #36434B",
"n  c #3A454D",
"m  c #3C4850",
"M  c #545748",
"N  c #414C54",
"B  c #455058",
"V  c #644B44",
"C  c #6A4D46",
"Z  c #6D4F48",
"A  c #75554D",
"S  c #7D5A52",
"D  c #556248",
"F  c #58674B",
"G  c #657259",
"H  c #69785D",
"J  c #76716B",
"K  c #7D7A75",
"L  c #835F55",
"P  c #A45555",
"I  c #846057",
"U  c #84635A",
"Y  c #8C6B61",
"T  c #996F64",
"R  c #9D7267",
"E  c #A07368",
"W  c #B48376",
"Q  c #B88477",
"!  c #BA8678",
"~  c #B58C7C",
"^  c #BC8A7C",
"/  c #C18B7D",
"(  c #AA9680",
")  c #BD9784",
"_  c #B29C86",
"`  c #B6A18B",
"'  c #BDA994",
"]  c #C58F80",
"[  c #C49182",
"{  c #CA9485",
"}  c #CF9989",
"|  c #D19C8C",
" . c #C1AF9C",
".. c #D7A090",
"X. c #DBA593",
"o. c #C9B7A5",
"O. c #CEBBA9",
"+. c #D0BDAC",
"@. c #D2C0AE",
/* pixels */
"r r r r r r r r r r r r r r r r r r r r w w r r r r r w w w q w w w r r r r r r r r r r r ",
"r r r r r r r r r r r r r r r r r r r r p c r r r r w w w q w q w w r r r r r r r r r r r ",
"r r r r r r r r r r r r r r r w p w < o o q p t @ ; r w w w q w w w r r r r r r r r r r r ",
"r r r r r r r r r r r r r r q 5 5 5 - o o ; 5 5 @ - 5 r w w w w r r r r r r r r r r r r r ",
"r r r r r r r r r r r r r t X       - 2 4 O   . 2 % . w w w r r r r r r r r r r r r r r r ",
"r r r r r r r r r r r r w   = 2 2 2 t s s 4 2 5 a t = . 5 r r r r r r r r r r r r r r r r ",
"r r r r r r r r r r w p w - $ ; t u p f f i y y a a y ; ; ; r r r r r r r r r r r r r r r ",
"r r r r r r r r r r r c w q O $ g s f f s f f f a g a g $ @ w r r r r r r r r r r r r r r ",
"w p w r r r r r r r r r q   p s f f f f f f f f f f f f q *   q w r r r r r r r r r r r r ",
"w w w r r r r r r r r r w   p s f f y t t s s t a f f f t 2 * @ < r r r r r r r r r r r r ",
"q q w w r r r r r r r q ; o y a f f g j 2 i f j f f f f y 2 * O 5 w r r r r r r r r r r r ",
"w w w w r r r r r r r @ o 2 2 4 f h Y Q t s Z ] V g f f f t . q r r r r r r r r r r r r r ",
"q w w w p c r r r r r w 5 . 2 t h E { { E A A ] ! L f g f t   w w w r r r r r r r r r r r ",
"q w q r w p r r r r r r q   q p h ] T A | R R { S S L y s p ; - q r r r r r r r r r r r w ",
"w w w r w r r r r r r q 5 . p g V ^ Z % X.} } | % C E a a a y o < w r r r r r r r r r r w ",
"u w w r w r r r r r r @ . t f k P ] A 2 X.X.X.| 2 A / P k <   w r r r r r r r r r r r r w ",
"r r r r r r r r r r r q < O t a k / ! W X.X.X.X.W ! ! g i 2   q r r r r r r r r r r r r w ",
"r r r r r r r r r r r r q O 1 2 i E ) ..X.X.X.X...^ T t 2 > @ q r r r r r r r w r w w r w ",
"r r r r r r r r r r r r r r o O 7 t S ^ X.X.X.X.^ L t t O @ p r r r r r r r w w w w w w w ",
"r r r r r r r r r r r r r r q < X t 1 2 { { { ^ 3 1 7 . < w r r r r r r r r r w q w w w q ",
"r r r r u r r r r r r r r r > % $ z 8 1 ) ) ) ~ 1 8 z + % ; r r r r r r r r w w w q q y q ",
"r r r w w q q w w w r r r r   o > F l 9 ` ` ` ( 9 l D & . O r r r r r r r r w w q w w q q ",
"p p r w w w w q w w r r r r X X > F x z +.+.o.( d x D & . @ r r r r r r r r w w w q w w w ",
"c c p q q w q w w w r r w o $ % 1 H M z @.@.O. .z M G ; % @ @ w r r r r r r r w w w w q w ",
"w r r w w w w q w r r r 5   > > = H M z o.@.@.o.z M G * * *   6 r r r r r r r r r r r r r ",
"r r w w q w w w q r r w 5   8 8 * F x s _ o.@.o.z x D * 7 > . q r r r r r r r r w r r r r ",
"r r w w w w w w w w r + o 6 9 5 X = 8 N O.' ' o.z 8 >   5 8 3 o ; r r r r r r r r r r r r ",
"r r r r w w w w r r r o + Y S V   * , , W J J K r = &   M Y S + ; r r r r r r r r r r r r ",
"r r r r w r w r r r r + * [ W U   > > > b c b c < > %   I Q ! * ; r r r r r r r r r r r r ",
"r r r r w r r r r r r r 6 o X X   c v b b b c b b c e   X O O 6 w r r r r r r r r r r r r ",
"r r r r r r r r r r r r r < < >   c b m N N N m m n c   > 5 5 r r r r r r r r r r r r r r ",
"r r r r r r r r r r r r r r r 5   b m B B N N B B m e   < r r r r r r r r r r r r r r r r ",
"r r r r r r w w w w w w w r r 5 . c m B B n n B B m v   5 r r r r r r r r r r r r r r r r ",
"r r r r r w w w y w w w w w r 5 . c m N b # # b m m c   < r r r r r r r r r r r r r r r r ",
"r r r r w w w q w w q w w r r 5   v b b : - - , b b c   5 r p w r r r r r r r r r r r r r ",
"r r r r w w w w w w w w r r w 5   v v c   < 5   c c c   < r w w r r r r r r r w w w w w w ",
"r r r r r r w w w w q w w r r 5 . u p 9   5 5   % - %   5 w w w r w r r r r r w w w w w w ",
"r r r r r r w w w q w w r r r w < O O @ 5 c 5   3 9 8   5 w w w w w r r r r w w q q w q w ",
"r r r r r r w w w q w w w w w w q .   . w w 5 . 9 0 8   5 w q q w r r r r r r w w w q w w ",
"r r r r r r r r w w r 5 < < < 5 < - - - 5 < < < % - % < < < 5 < q r r r r r w w w q w q w ",
"r r r r r r r r w r r w w < < < < < < < < < 5 < < < < < < < 5 w w r r r r r r w w q w q q ",
"r r r r r r r r r r r r w q 5 5 q 5 5 5 q 5 5 5 5 5 5 q 5 5 q w r r r r r w r w w w c q w ",
"r r r r r r r r r r r r r r r r r r r r u r r r r r r r r r r r r r r r r r r w p w p p r ",
"r r r r r r r r r r r r r r r r r r r r p w r r r r r r r r r r r r r r r r r r w r c p r ",
"r r r r r r r r r r r r r r r r r r r r r r r r r r r r r r r r r r r r r r r r r r r r r "
};
