/* XPM */
static char *result[] = {
/* columns rows colors chars-per-pixel */
"45 45 107 2 ",
"   c #030303",
".  c #0D0C0B",
"X  c #110E0D",
"o  c #10100D",
"O  c #151312",
"+  c #1B1614",
"@  c #151818",
"#  c #1C1B1B",
"$  c #231917",
"%  c #251C1A",
"&  c #2A1E1C",
"*  c #25221C",
"=  c #2D211F",
"-  c #32221E",
";  c #1F2528",
":  c #212121",
">  c #2B2321",
",  c #22272A",
"<  c #2C2C2C",
"1  c #342421",
"2  c #3A2622",
"3  c #352926",
"4  c #3D2925",
"5  c #302D2D",
"6  c #3C2C29",
"7  c #3B312C",
"8  c #3C3B2F",
"9  c #2E2E31",
"0  c #343434",
"q  c #3D3C3C",
"w  c #432E2B",
"e  c #45302E",
"r  c #49332F",
"t  c #433B2E",
"y  c #4C3531",
"u  c #443935",
"i  c #4F3834",
"p  c #503935",
"a  c #563E39",
"s  c #5F3A38",
"d  c #434536",
"f  c #40413F",
"g  c #5E433D",
"h  c #2F3B40",
"j  c #323E45",
"k  c #354149",
"l  c #3A444B",
"z  c #3D4951",
"x  c #454545",
"c  c #4B4B4B",
"v  c #525A43",
"b  c #424C54",
"n  c #454F58",
"m  c #455058",
"M  c gray32",
"N  c #5B5B5B",
"B  c #644943",
"V  c #6B4D45",
"C  c #754643",
"Z  c #794644",
"A  c #6F524A",
"S  c #6D5A4F",
"D  c #74564E",
"F  c #6F5E52",
"G  c #7D5B53",
"H  c #56654A",
"J  c #706053",
"K  c #656565",
"L  c #6A6A6A",
"P  c #7F7066",
"I  c #757575",
"U  c #7D7D7D",
"Y  c #9D5654",
"T  c #836156",
"R  c #866359",
"E  c #936A5E",
"W  c #926A61",
"Q  c #AA7C6F",
"!  c #B07E72",
"~  c #9C8871",
"^  c #AD8174",
"/  c #B18174",
"(  c #BD897B",
")  c #AE917E",
"_  c #C28D7E",
"`  c #838383",
"'  c #8D8D8D",
"]  c #929292",
"[  c #AD9984",
"{  c #B69A86",
"}  c #B19D89",
"|  c #B6A28A",
" . c #BAA48F",
".. c #B0A090",
"X. c #B9A691",
"o. c #B5A798",
"O. c #BDAE9E",
"+. c #C79182",
"@. c #C99384",
"#. c #C2AE9A",
"$. c #D6A090",
"%. c #DBA493",
"&. c #C4B19C",
"*. c #C7B6A5",
"=. c #C8B7A6",
"-. c #D1BEAD",
";. c #D2C0AE",
/* pixels */
"                                                                                          ",
"                              .           .           .           .           .         . ",
"      @ ; # : : ; # ; ; : : : : : : : : : : : : : : : : : : : : ; # # ; : : : : : : : : : ",
"    O x N L K K K K K K K K K K K K K K K K K K K K K K K K K K L K K K K K K K K K K K L ",
"    ; N U ` ` ` ~ ` ` ` ` ` ` ` ` ` ` ` K x x x m W K c ` ` ` ` ` ` ` ` ` ` ` U ` ` ` ` ` ",
"    # K ` ' U I I I I I I I I L L L L L q X X X @ K q + K I I I U I I U U I U U U ` ' ] ] ",
"    ; K ' W M x x l x f f x > . . . . . $ 2 2 2 3 . $ - X < c c c M c c c c c c M K ` ' ] ",
"    ; K ` I c 0 5 5 < 9 < o $ - - 1 - 4 w i i i y 1 w y . : q q 0 q q q q q q q q M U ' ] ",
"    : K ` I x 5 < < > < < # # $ w w e r y p p p i e i i > = , q f f f u l u q 0 q M U ' ] ",
"    ; L ` I x < , < > < < > # + w y p p p p p i p i p p p = X c M M M M M M c q q M U ' ] ",
"  . # K ` I x 5 < < , 9 5 o & w y p p p p i y i i i p p p = o N N K K K K N N u q M U ' ] ",
"    * K ` I x < < < 9 9 5 o $ r i p p p p i w 2 4 i p p p =   N K K K K K K N l q M U ' ] ",
"    : K ` I x < < < 9 * @ = - w e y p p p a Q V 2 i r w p w = # f K K K K K N f j M U ' ] ",
"    : K ` I x 9 < < 0 , O = - - e y p p g D ( E g p a g p e 1 @ j K K K K K M l u M U ' ] ",
"    : K ` I x < < 9 0 0 0 . $ w i p p g E +.! _ _ B R Q B - . M F K K K K K N q q M U ' ] ",
"    : K ` I x 9 < 9 0 8 0 . % w i p s _ _ ( O D %.@.B + ( T w   9 K K K K K N x q M U ' ] ",
"    ; L ` I x < < 9 0 : O - 3 e i C Y _ +.( & G %.$.G % ( B . M N K K L K K N u l M U ' ] ",
"    % K ` I x < < 0 0 < % $ - e r s Z _ +._ T ! %.%.^ T +.B   N K K K K L N N f u M U ' ] ",
"    : K ` I x < 5 9 0 0 0 O % 6 w w r ! ( @.%.%.%.%.%.%./ g O N K K K K K N N f q M U ' ] ",
"    : K ` I x 0 < 0 0 0 0 0 * o 4 w w w T ( $.%.%.%.@./ . , N L K K K K K K N l q M U ' ] ",
"    : K ` I x 0 5 0 8 q q 0 0 0 X & e w = $ ( @.@.@.A + 0 x N K K K K K K K N x q M U ' ' ",
"    : K ` U M x l f u l d l x 0 . $ 1 v 8 > ) { { { S $ + 0 N K K K K K K N N u q M U ' ] ",
"    : K ` U N c x x x x x c q 9 * % = v d 3 } X. .} F & . < N K K K K K K K N l q M U ' ] ",
"  . : K ` U N c x c x c x x , o H d = 7 7 u =.;.-.| J = . < N K K K K K K K N u f M U ' ] ",
"    : K ` U N c x x c c x x > o H d > 7 3 3 *.-.-.;.P : . , N K K K K K K K N x q M U ' ] ",
"    : K ` ` N c c x x x x c , o H d > 7 3 3 [ *.;.;.W & . < N K K K K K K K M x q M U ' ] ",
"    : K ` U N c x c x c c c > o H d > 7 3 3 X.#.&.-.P > . < N K K K K K K K M f u M U ' ] ",
"    : K ` ` M c x c x x x x > o H c 6 g 6 3 o...) O.J : . < N K K K K K K K N x k M U ] ] ",
"  . : K ` ` N c x x c x x x > o H ~ %.%.R > j j k j 0 & . < N K K K K K K K M x u M U ' ] ",
"    ; K ` U N c c x x c c c l 0 o O + x k j j j j j j h o < N K K K K K K K N f l M U ' ] ",
"    : K ` ` M c c x x x x x x q < # . j k k z b z b b l . < N K K K K K K K M x q M U ' ] ",
"    : K ` U N c x x c c x c x q q : . h k l n b b n m b o < N K K K K K K N N f q M U ' ] ",
"    : K ` U N c x x c x x c x q 0 > o k z m m l j b m b o < N K K K K K K N N q q M U ' ] ",
"    : K ` ` N c c x x x c x x q 0 > o z m z k , o j z b . < N K K K K K K K N l q M U ' ] ",
"    : K ` U N c x x c c x x x q q : o z m m k ; . h k j . < N K K K K K K K N u q M U ' ] ",
"  . : K ` U N c x c x x c x x q 0 , . f x l , @ . < 9 < . < N K K K K K K K N x f M U ' ] ",
"    : K ` ` N c c x x c x x x q 0 > O 7 8 7 O o . % & * o < M K K K K K K K N q q c U ' ] ",
"    : K ` U M c x x c x c x x q q q c o   o M 5 . % 3 u t * o N K K K K K K N q f M U ' ] ",
"    : K ` ` N c x c c x x q 0 0 < 9 q < < 5 u x 0 < < > * 9 q c c M K K K N N x q M U ' ] ",
"    : K ` U N c x x x x x x 0 < , < 8 q q q l q x q 0 < > 0 x c M N K K K K N f q M U ' ] ",
"  . : K ` ` N M M c M c c c x 0 0 q x c x c c c c c x q 0 x c M N K L L L K N c x M U ' ] ",
"    : K ` ` L K K N N N N K N N M M N L L L L L L L N M M K L I I I I I I I L N N L ` ' ] ",
"    : K ` ' ` ` U ` ` ` ` ` ` U U ` ` ` ` ` ` ` ` ` ` ` U ` ` ` ` ` ` ` ` ` ` ` U ` ' ] ] ",
"    : K ` ] ] ' ' ' ' ' ' ' ' ' ' ' ] ] ' ] ] ' ' ' ' ' ' ' ' ] ] ] ] ] ' ] ' ] ' ' ] ] ] ",
"    : K ` ] ] ] ] ] ] ] ] ] ] ] ] ] ] ] ] ] ] ] ] ] ] ] ] ] ] ] ] ] ] ] ] ] ] ] ] ] ] ] ] "
};
