/* XPM */
static char *result[] = {
/* columns rows colors chars-per-pixel */
"45 45 82 1 ",
"  c #030303",
". c #0D0C0B",
"X c #110F0D",
"o c #13100E",
"O c #141312",
"+ c #1A1615",
"@ c #1A1817",
"# c #151718",
"$ c #1D1C1B",
"% c #201715",
"& c #221916",
"* c #241C1A",
"= c #2B1E1C",
"- c #20201F",
"; c #2D201E",
": c #31221F",
"> c #212020",
", c #2D2423",
"< c #2C2C2C",
"1 c #352522",
"2 c #3A2623",
"3 c #322925",
"4 c #3C2A26",
"5 c #362E29",
"6 c #3D2D29",
"7 c #35312B",
"8 c #3B322D",
"9 c #2D3237",
"0 c #2F353A",
"q c #333333",
"w c #393736",
"e c #3D3D3D",
"r c #402B27",
"t c #422E2A",
"y c #45312D",
"u c #48322F",
"i c #473330",
"p c #4B3531",
"a c #423C32",
"s c #4F3934",
"d c #503935",
"f c #444536",
"g c #454837",
"h c #48453C",
"j c #474939",
"k c #4D5E3F",
"l c #2E3940",
"z c #313C44",
"x c #384143",
"c c #354149",
"v c #3E4B4A",
"b c #3C4850",
"n c #444444",
"m c #494747",
"M c #4B4B4B",
"N c #514D43",
"B c #4F5D43",
"V c #515F46",
"C c #444E56",
"Z c #465352",
"A c #455058",
"S c #525252",
"D c #5A5A5A",
"F c #644B42",
"G c #566349",
"H c #58674B",
"J c #5B6B4E",
"K c #5F6F52",
"L c #647457",
"P c #656565",
"I c #6A6A6A",
"U c #767676",
"Y c #7D7D7D",
"T c #916B5F",
"R c #77876A",
"E c #7A8A6D",
"W c #C18D7E",
"Q c #838383",
"! c #8D8D8D",
"~ c #929292",
"^ c #C39080",
"/ c #D29E8D",
/* pixels */
"                                             ",
"         .    .      .    .     .  .    .   .",
"   #$>>>>>-->>>>>>>>>>-->>>>>>>>>>>>>-->-->>>",
"  OmDIPPPPPIPPPIPPPPPPPPPPPIPPPPPPPPIIPPIPPIP",
"  >DYQQQQQQQQQYQQQYYQQQYYTQQQQQQQQQQQQQQQQQQ!",
" .>PQ!YUUUUUUUUUUUn@UUDX.nYUYUUYYTYYYUYYYY!~~",
"  >PQYDmnnnnmnnnn@*:OO+:<$OOO$MMMMMMMMMMSPT!~",
"  >PQUmq<<<9<<9,O;4y::1ui6=:;;@qzeazizazzDQ~~",
"  >PQUn<<,<<<<,>%rtdtttddirr2=@qanenzeewzSY!~",
"  -IQUn<<<><<<O&ddddddddssss1OnSSMSSSSMaeSY!~",
"  -PQUn<<<<<<.=rdddddddddy22ti.MPPPPPDDeeSY!~",
" .>PQUn<<<<$o22tddddddddryssdi.MPPPPPPDeeSY!~",
"  >PQUn<<<9<,o6pddddddddppdddi:>qPPPPPDeeSY!~",
"  >PQUn9<<qw<.2pddptduudddddpt*5nPPPPPDneSY!~",
"  >PQUm<<<wq<X2uddutpttdddddy1.MPPPPPPDeeSY!~",
"  >PQUm<<9q>O8tydddpruddddddp4.MDPPPPPDneSY!~",
" .>PQUn9<qqq<.1ytdddssddddddpt6@,PPPPPDanST~~",
" .>PQUn<<9qwq.1tttudddddddsut6XmDPPPPPDzzSY!~",
"  >PQUn<<<qqq-=;ttudsdssiiut1=qDPPPPPPSnzSY!~",
"  >PQUn<<qwqqw$%2tudppsiyyt2=>DPPPPPPPDnnAY!~",
"  >PQUmqqqwww0q<X6ttyyyytttX-mDPPPPPPPDeaSY!~",
"  >PQYSnznnnnn@o:Gf3HJJK3fG,+oDPPPPPPPSnzSY!~",
" .>IQYDMnmnnnn@o=3fGJJJJGf3;+ODIPPPPPPDnnSY!~",
"  >PQYDMmmmmn@**;;fJJJJJKf;;=&-SPPPPPPSnaSY!~",
"  >PQYDMMnnMx.*37;fJLLLLJf;75;.MPPPPPPDneSY!~",
"  >PQQDMmnMxwX3aV7jKRRRRKj5Bf5XmDPPPPPSneSY!~",
"  >PQYDMmmm<o883oGJHkkBkHJH.*88O>PPPPPSeeSY!~",
"  >PQYDMnmn<*/^T.=gKEEEEKg,.FW/8>PPPPPDneSY!~",
"  -IQYDMnnMxw88;.9xvZZZZvx0.*68mSPPPPPSneSY!~",
" .-PQQDMMmnnn,<-.0cbbbbbbczXO<qDPPPPPPDnnSY!~",
"  >PQYDMnmnmmmn<XlbACAAAAbz.>MDPPPPPPPDeeSY!~",
"  >PQYDMmnmmnmn9.lbACCCAAbzX>MDPPPPPPPDeeSY!~",
"  >PQYDMmmMnMMxqXlbAz#@zACz.>MDPPPPPPPDnzSY!~",
"  >PQYDMmmnnnnnqXlzzOxzXzzz.>MDPPPPPPDDaaSY!~",
" .>IQQDMnmMMmmn9.>,>Xnn.hNmX>MDPPPPIPPDnnST!~",
"  >PQUDMmnnnmmn<.=1=.nm-ifa@>MDPPPPPPPDnzSQ!~",
"  >PQQDMmnmmnnx7X5a8OnSD@oOwqmDKPPPPPPDezSY!~",
"  >PQYDMnmneqqq<<><<nazn7<<<<wnmSPPPPPDeeAY!~",
"  >PQYDMMnmnnqq<<<eezaxaeew9<qnDPPPPPPDnnSY!~",
"  >PQQDMnMmmmnxwqwmSSSSSSSmw9nSPPPPPPDDzeSY!~",
"  -PQYPSZMSMSSMnemSDDDDDDDMnnMPIPPIPIPDmnSY!~",
" .-PQQIDPDDDDDDDSDPIIIIIIPPDSPIUUUUUUUIDDPQ!~",
"  -IQ~QQQYQQQYYYYYQQQQQQQQQQYQQQQ!!QQQQQYQ!~~",
"  -IQ~~~!!!!!~!~!!~~~!~~~~!!!!!~!!~!~~~~!!~~~",
"  >PQ~~~~~~~~~~~~~~~~~~~~~~~~~~~~~~~~~~~~~~~~"
};
