/* XPM */
static char *result[] = {
/* columns rows colors chars-per-pixel */
"45 45 92 1 ",
"  c #080607",
". c #0E0C0B",
"X c #110E0E",
"o c #14100E",
"O c #151211",
"+ c #1A1413",
"@ c #1C1816",
"# c #1F181A",
"$ c #221917",
"% c #241C1D",
"& c #2A1D1B",
"* c #27221B",
"= c #2C211E",
"- c #32221E",
"; c #261D21",
": c #2A1F22",
"> c #2C2225",
", c #2F2429",
"< c #342522",
"1 c #392622",
"2 c #362927",
"3 c #3C2A26",
"4 c #31262B",
"5 c #352A2C",
"6 c #3A2C2B",
"7 c #2F3528",
"8 c #3B312D",
"9 c #272E33",
"0 c #2F2F32",
"q c #372A30",
"w c #3D2E35",
"e c #2D3236",
"r c #2B343A",
"t c #3F3037",
"y c #373639",
"u c #402B26",
"i c #422E2A",
"p c #45312D",
"a c #48322E",
"s c #473731",
"d c #4B3531",
"f c #423C35",
"g c #4F3834",
"h c #503935",
"j c #633F3C",
"k c #5D433E",
"l c #2F3A40",
"z c #343E45",
"x c #354149",
"c c #3A444C",
"v c #3D4850",
"b c #414447",
"n c #505D43",
"m c #434D54",
"M c #475054",
"N c #455058",
"B c #634B42",
"V c #6C5249",
"C c #73534C",
"Z c #7D5B52",
"A c #5A6A4D",
"S c #68775B",
"D c #6D7961",
"F c #835F55",
"G c #A25756",
"H c #856057",
"J c #976C61",
"K c #996F64",
"L c #9B7165",
"P c #917C6C",
"I c #A2766A",
"U c #AA7C6F",
"Y c #958471",
"T c #AA8A77",
"R c #B38578",
"E c #B98779",
"W c #BE8B7D",
"Q c #AA9A8C",
"! c #B39C86",
"~ c #B8A48C",
"^ c #BBA791",
"/ c #C69182",
"( c #C89283",
") c #CD9A89",
"_ c #D19C8C",
"` c #D6A08F",
"' c #C2AE9A",
"] c #DBA493",
"[ c #CAB6A4",
"{ c #CFBCAA",
"} c #D0BEAC",
"| c #D2C0AE",
/* pixels */
"tttttttttttttttttttttttttttwwqwqwwttttttttttt",
"ttttttttttttttttttttttttttwwwwqqwwttttttttttt",
"ttttttttttpwttttttttttttttwwqwwwwtttttttttttt",
"tttttttttttwtttttttttttttttwwwwwttttttttttttt",
"ttttttttwwtwqqqpwwttttttttttttttttttttttttttt",
"ttttttwwliwO.XXwX4wtttttttttttttttttttttttttt",
"ttttpwO.X.X-41-X>+;pttttttttttttttttttttttttt",
"ttttwX-<-13dddd1d#;wttttttttttttttttttttttttt",
"twwtl;$-iidhhhgih3::tttttttwttttttttttttttttt",
"wwwtpqO&ahhhhhhhhh:Xttttttwwwwttttttttttttttt",
"qqwwq.uphhhhhhhhhh>Xtttttttwwwttttttttttttttt",
"wwqtw.3dhhhhu1uhhh; ttttttwwwwttttttttttttttt",
"www4O<1iahhhLJ1huhp1 wttttttwwttttttttttttttt",
"qwqq;$1idhhF/UFhFh1$#wttttttwwttttttttttttttt",
"wwqtw.-phhjEUR!jUC<.qpttttttttttttttttttttttw",
"wwwpq.3ahj//ip`(OKF1.wttttttttttttttttttttttw",
"ttt4X1idjG//ag]]&LB.qplttttttttttttttttwttttw",
"tttt4X3iah///)]]((B ttptttttttttttttttttwtwww",
"ttttw;&<iaHW`]]]_Fp;ttttttttttttttttttwwwwwww",
"tttttpO%uipI)]]`U>;wtttttttttttttttttttwwwwwq",
"ttttwww;+ipoL///+4ttttttttttttttttttttwwqwqwq",
"ttwwwww%o-A<P!!!<O;ttttttttttttttttttwwwwqwqw",
"tttw5ww%o<A8Q{[!1O;ttttttttttttttttttwtwwwqqq",
"ttwwww%#@<SfQ|}'4&%:tttttttttttttttttttwwqwww",
"tttqwqX+*7DyQ{||25;Xtttttttttttttttttwttttttt",
"tttwwqO;kA58Y^{|25%Owttttttttttttttttttwttttw",
"tttw4X46fn=6Q[~|6=4,Xwttttttttttttttttttttttt",
"tttww I/Tn=>bMmM>=ZR wttttttttttttttttttttttt",
"ttttw;BVB7e0xvvv@+sV:wttttttttttttttttttttttt",
"ttttptOOX.zxmNvNo.X+ttttttttttttttttttttttttt",
"tttttttw,XzmNz@v.4ttttttttttttttttttttttttttt",
"ttttttt;O$.lmmc..4wtttttttttttttttttttttttttt",
"ttttttw;O6 XrcNc.4ttttttttttttttttttttttttttt",
"ttttttw;X=%.rzyy.4ttttttttttttttttttttttttttt",
"ttttttw;XOw+9e&&X,wttttttttttttwttttttttttttt",
"ttttttqtqqqw@o&fy@;tttttttttpwwwtttttttwwwwww",
"ttttt::::;:,>:;;;:44,,wttttttwwwwttttttwwwiqq",
"tttttt4::::,,,,>:,,,,wtttttttwwwwtttttwwwqwwq",
"ttttttq4qq4qqqqqqqqqqttttttttwwqwwtttttwqwwqw",
"ttttttttttwttttpttttttttttttttwtwttttttqqwwqw",
"ttttttttttttttttttttttttttttttttttttttwwwqwqw",
"tttttttttttttttttttttttttttttttttttttttwwiwww",
"tttttttttttttttttttttttttttttttttttttwttltttw",
"tttttttttttttttttttttttttttttttttttttttwptttw",
"ttttttttttttttttttttttttttttttttttttttttttttt"
};
