/* XPM */
static char *result[] = {
/* columns rows colors chars-per-pixel */
"45 45 101 2 ",
"   c #040303",
".  c #0E0C0B",
"X  c #120E0D",
"o  c #11100E",
"O  c #141211",
"+  c #1B1514",
"@  c #151818",
"#  c #1E181A",
"$  c #231917",
"%  c #241B1C",
"&  c #2A1E1C",
"*  c #25221C",
"=  c #2D211F",
"-  c #32221E",
";  c #251D20",
":  c #281F22",
">  c #1F2528",
",  c #2C2225",
"<  c #22272A",
"1  c #2E2429",
"2  c #2C2C2E",
"3  c #342421",
"4  c #3A2622",
"5  c #352926",
"6  c #3D2925",
"7  c #31262B",
"8  c #34282D",
"9  c #3A2B2B",
"0  c #3B312C",
"q  c #3C3B2F",
"w  c #2E2E31",
"e  c #3D2E35",
"r  c #303033",
"t  c #3F3037",
"y  c #432E2B",
"u  c #45302E",
"i  c #49332F",
"p  c #433B2E",
"a  c #4C3531",
"s  c #443935",
"d  c #4F3834",
"f  c #503935",
"g  c #563E39",
"h  c #5F3A38",
"j  c #434536",
"k  c #4F4E3D",
"l  c #5E423D",
"z  c #2F3B40",
"x  c #323E45",
"c  c #354149",
"v  c #3A444B",
"b  c #3D4951",
"n  c #434442",
"m  c #525A43",
"M  c #424C54",
"N  c #454F58",
"B  c #455058",
"V  c #644943",
"C  c #6B4D45",
"Z  c #794644",
"A  c #6F524A",
"S  c #6D5A4F",
"D  c #74564E",
"F  c #6F5E52",
"G  c #7D5B53",
"H  c #56654A",
"J  c #706053",
"K  c #756860",
"L  c #7F7066",
"P  c #9D5654",
"I  c #836156",
"U  c #866359",
"Y  c #936A5E",
"T  c #926A61",
"R  c #9F7267",
"E  c #AA7C6F",
"W  c #B07E72",
"Q  c #9C8871",
"!  c #AD8174",
"~  c #B18174",
"^  c #BD897B",
"/  c #AE917E",
"(  c #C28D7E",
")  c #AD9984",
"_  c #B69A86",
"`  c #B19D89",
"'  c #B6A28A",
"]  c #BAA48F",
"[  c #B0A090",
"{  c #B9A691",
"}  c #B5A798",
"|  c #BDAE9E",
" . c #C79182",
".. c #C99384",
"X. c #C2AE9A",
"o. c #DBA493",
"O. c #C4B19C",
"+. c #C7B6A5",
"@. c #C8B7A6",
"#. c #D1BEAD",
"$. c #D2C0AE",
/* pixels */
"t t t t t t t t t t t t t t t t t t t t t t t t t t e e e 8 e e e e t t t t t t t t t t t ",
"t t t t t t t t t t t t t t t t t t t t t t t t t t e e e e e e e t t t t t t t t t t t t ",
"t t t t t t t t t t t t t t t t t t t t t t z u t t e e e e 8 e e e t t t t t t t t t t t ",
"t t t t t t t t t t t t t t t t t t t t t t u u t t t t e e e e t t t t t t t t t t t t t ",
"t t t t t t t t t t t t t u t u t t e u 7 ; ; ; ; u 7 ; e e e t t t t t t t t t t t t t t ",
"t t t t t t t t t t t t t z e 8 e e e 8 ; X X X X 8 ; X 7 e t t t t t t t t t t t t t t t ",
"t t t t e t t t t t t t t t ; . . . . . # 8 4 6 4 X $ 4 X : t e t t t t t t t t t t t t t ",
"t t t t s t t t t t t t e X $ - 3 3 3 4 y a a a a 3 e u X : t t t t t t t t t t t t t t t ",
"t t e t t t t t t t t t e ; ; $ 6 y y a d f d d d u a a 1 : ; u t t t t t t t t t t t t t ",
"e e e t t t t t t t t t e 1 ; + y d d f d f d d f d f f f - X e t t t t t t t t t t t t t ",
"e e e e t t t t t t t t e X ; y d d f f d f d d d d f f f : X e t t t t t t t t t t t t t ",
"8 8 e e t t t t t t t t y X & y d d f f f d 6 6 6 d f f f ;   8 t t t t t t t t t t t t t ",
"e e e e e u t t t t e 1 # : 3 6 i a d d a f R C 6 d i y f y , X , e e t t t t t t t t t t ",
"8 e e z e e t t t t e 1 + & 3 6 u d f d V D  .Y h f g h f y 3 X , e e t t t t t t t t t t ",
"y e e u t t t t t t t t e X $ 6 d d f l T  .~ ^  .V U E V 3 . 7 e e t t t t t t t t t t t ",
"e e e e t t t t t t t t e X $ y d d g  ...^ O D o...C O ^ I y   % t t t t t t t t t t t e ",
"t t t t t t t t t t t ; O - 5 u d Z P  . .^ $ G o.o.G % ^ C   9 e t t t t e t t t t t t e ",
"t t t t t t t t t t t 7 % $ 3 u i h Z ( ..( I ! o.o.! I ( V   e t t t t t t t e t e t e e ",
"t t t t t t e t t t t t e O % 6 y y u W ^ ..o.o.o.o.o.o.~ l . e t t t t t t t e 8 e e e e ",
"t t t t t t u e t t t t t s ; O 6 y y y G ^ o.o.o.o...~ . # t e t t t t t t e e e e e e 8 ",
"t t t t y e u z t t t t t t e 8 X & u u = # ^ .... .A + e e t t t t t t t t e e e e 8 e e ",
"t t t e e e e e e t t t t t t e X + 3 m q = / _ _ _ S $ + , t t t t t t t t e e e 8 e e 8 ",
"t t e e e 8 8 e e e t t t t e 1 % % 3 m j 5 ` ] ] ` F & . ; t t t t t t t t t e e 8 e 8 e ",
"t e t e e e e 8 e e t t t t % o H j , 9 0 s @.$.#.' J % . ; t t t t t t t t e e e e e e e ",
"t t t e e 8 e e e e t e e e ; . H j , 0 5 5 +.$.$.$.L % . ; t t t t t t t t t t t t t t t ",
"t t t e e e 8 e e e t e e e % . H j = 0 5 5 ) O.$.$.L = . % t t t t t t t t t t t e t t t ",
"t t t e e e e e e e t e e 8 ; X H j , 9 5 5 { X.O.#.L & . ; t t t t t t t t t t t t t t t ",
"t t t e e e e e t t t t 8 e % X H k 0 l 9 5 } [ / | K % . ; t t t t t t t t t t t t t t t ",
"t t t t e t t t t t t t e 8 % o H Q o.o.U , x c x c r & . ; t t t t t t t t t t t t t t t ",
"t t t t e t t t t t t t t e e 9 O o # v c x x x x x c z . % t t t t t t t t t t t t t t t ",
"t t t t t t t t t t t t t e e e 7 # . x c c b M b M b b o ; t t t t t t t t t t t t t t t ",
"t t t t t t t t t t t t t t t t t % . x c v N N b B B b o ; t t t t t t t t t t t t t t t ",
"t t t t t t e e e e e e e e e t t ; . x b N B v x N N b X ; t t t t t t t t t t t t t t t ",
"t t t t e e e e e e e e e e t t t ; . M N N c < O z b M . ; t t t t t t t t t t t t t t t ",
"t t t t e e e e e e 8 e e t t t t ; . M N M c > . z c x . ; t u t t t t t t t e t t t t t ",
"t t t t e e e e e e e e e t t t t % X v n n < @ . 2 w w . ; e e t t t t t t t e e e e t e ",
"t t t t t e e e e e e e t t t t t : O 9 e 8 X X . % & * o % 8 e e e t t t t e e e u e e e ",
"t t t t t t e e e 8 e e e a t t t t e . . X e ; . % 5 s p * . e e t t t t t e e e 8 e 8 e ",
"t t t t t e e e e e e e t 7 7 7 7 7 7 ; $ ; 7 1 : ; ; : = , : , 1 1 t t t t e e e 8 e e e ",
"t t t t t t t e e e e t t e 7 1 1 1 7 : : : 1 1 1 , 1 : , , 1 1 8 e t t t t t e e e 8 e 8 ",
"t t t t t t t t e e t t t t e 7 8 8 8 8 8 8 8 7 8 7 7 e 7 8 8 8 e t t t t t e e 8 e e e e ",
"t t t t t t t t e e t t t t t t t t t t t t t t t t e t t t t t e t t t t t t e e e e e e ",
"t t t t t t t t e t t t t t t t t t t t t t t t t t t t t t t t e t t t t t t t e e u t e ",
"t t t t t t t t t t t t t t t t t t t t t t t t t t t t t t t t t t t t t t t t u z t t e ",
"t t t t t t t t t t t t t t t t t t t t t t t t t t t t t t t t t t t t t t t t t t t e e "
};
