/* XPM */
static char *result[] = {
/* columns rows colors chars-per-pixel */
"45 45 90 1 ",
"  c #040303",
". c #080606",
"X c #0E0C0C",
"o c #120E0E",
"O c #14100E",
"+ c #141211",
"@ c #1A1515",
"# c #1B1916",
"$ c #1D1B1A",
"% c #221717",
"& c #241C1C",
"* c #2C1F1D",
"= c #32211E",
"- c #251D21",
"; c #281F23",
": c #262122",
"> c #2C2325",
", c #2E2429",
"< c #342522",
"1 c #392622",
"2 c #342925",
"3 c #3D2A26",
"4 c #32262B",
"5 c #36292F",
"6 c #3E2D2A",
"7 c #393027",
"8 c #3C322D",
"9 c #372A30",
"0 c #3D2D34",
"q c #3F3037",
"w c #412C27",
"e c #422E2A",
"r c #45312D",
"t c #49322E",
"y c #413430",
"u c #4C3531",
"i c #4E3E3A",
"p c #503935",
"a c #573F3A",
"s c #444636",
"d c #4E423D",
"f c #4D4E3D",
"g c #47533D",
"h c #6B403E",
"j c #2F3A40",
"k c #333E45",
"l c #344148",
"z c #3A454D",
"x c #3D4951",
"c c #564843",
"v c #4D5841",
"b c #505843",
"n c #434D55",
"m c #455058",
"M c #53575D",
"N c #6F4441",
"B c #6E4E47",
"V c #64544C",
"C c #73534B",
"Z c #56644A",
"A c #5A6A4D",
"S c #74665D",
"D c #945653",
"F c #866158",
"G c #966D62",
"H c #9A6F64",
"J c #937667",
"K c #9C7166",
"L c #A07569",
"P c #A97B6E",
"I c #AE7E72",
"U c #B78477",
"Y c #B9877A",
"T c #BE8A7C",
"R c #C08B7D",
"E c #B18B80",
"W c #A59383",
"Q c #AB9A8C",
"! c #BC9684",
"~ c #B6A18B",
"^ c #BEAFA1",
"/ c #C79182",
"( c #CA9384",
") c #D19C8C",
"_ c #D6A08F",
"` c #DBA593",
"' c #CBB9A5",
"] c #CEBBAA",
"[ c #D1BEAD",
"{ c #D2C0AE",
/* pixels */
"qqqqqqqqqqqqqqqqqqqqqqqqqq00009000qqqqqqqqqqq",
"qqqqqqqqqqqqqqqqqqqqqqqqqq0009090qqqqqqqqqqqq",
"qqqqqqqqqqqqqqqqqqqqqqqqqqq0009000qqqqqqqqqqq",
"qqqqqqqqqqqqqqqqqqqqqqqqqqqy0000qqqqqqqqqqqqq",
"qqqqqqqqqqqqqqqqqqqqqqqqqq0y9999q9jqqqqqqqqqq",
"qqqqqqqqqqqqqqqqqqqqqqqqqqqyoXooto40qqqqqqqqq",
"qqqq0qqqqqqqqqqqqqqqq00ooooX=11=o=@%qqqqqqqqq",
"qqqqyqqqqqqqqqqqqqqqq0@;*;=4tttt;e@@qqqqqqqqq",
"q00yqqqqqqqqqqqqqqqqy0@*1wetpppuwp-%4yqqqqqqq",
"00qqqqqqqqqqqqqqqqqqjy9o4tpppppppppwojqqqqqqq",
"000qqqqqqqqqqqqqqqqqq9X6upppppppppp6Xyjqqqqqq",
"999qqqqqqqqqqqqqqqqqt9Xwuppppewwppp6.tt0qqqqq",
"009yqqqqqqqqqqqqqqqq4-%wtupppCBwptue%%0qqqqqq",
"0900qqqqqqqqqqqqqqqq;+11etpphPPupupt1X9qqqqqq",
"0000qqqqqqqqqqqqqqqqq9X1tppaT/RIaICe.eqqqqqqq",
"000yqqqqqqqqqqqqqqqqy9XeuphE/ru`/*GL9.9qqqqqq",
"qqqqqqqqqqqqqqqqqqqq,@*euND//tu`_=KHo,000qqqq",
"qqqqqqqqqqqqqqqqqqqq;@=ethD(/NC``cPH y0jq00q0",
"qqqqqqqqqqqqqqqqqqqqq0o4eepU/_````YF.qjy00000",
"qqqqqqqqqqqqqqqqqqqqqqyo4eee/````(<Xyqt090009",
"qqqq0000qqqqqqqqqqqqqqq9@*ee%L(((340qq0009e90",
"q0q00e0000qqqqqqqqqqqqqq@%3f@J!!!>&;qq0009099",
"qqq0090000qqqqqqqqqqqqq0$$2Z,J~~!0o@qqq009000",
"qq00909000qqqq000qqqqq0ogs<q;Q[]Qeo@qqq000090",
"qqq0009000q0090990qqqq0Xgf888Q{[[yo@qqqqqqqqq",
"qqq0009900qq0009000qqq0ogZb88dS{[yo@qqqqqqqqq",
"qq000000yjy000909q0qqq9ogAZ582c'[yo@qqqqqqqqq",
"qqqq0000tjy0090990qqqq0ogZv&iiVW^eo@qqqqqqqqq",
"q0qq0qqq0qq0009009qqqq0XgAv&)`Ykk,o@qqqqqqqqq",
"qqqqqqqqqqqq00000qqqqqq9$+#jnMMnnn%@qqqqqqqqq",
"qqqqqqqqqqqqq00qqqqqqqqq:@olzmxxmmj,;qqqqqqqq",
"qqqqqqqqqqqqqqqq0qqqqqqqq-+zmxzjxmmkoqqqqqqqq",
"qqqqqq000t000qqqqqqqqqqq0-@nxkj+jnnkoqqqqqqqq",
"qqqqq0000q000qqqqqqqqqqq%*tt+X@4XjkjXqqqqqy0q",
"qqqq000009000qqqqqqqqqqq@o@@4499X;;-Xqq00q0yq",
"qqqq00000990tqqqqqqqqqqq-@@@0009.%;-#,qqq000q",
"qqqqqq099000qqqqqqqqq00009090004o&587O500e000",
"qqqqqq000000qqqqqqqqq0,,,;--,;,;>---&,,599900",
"qqqqqq009000qqqqqqqqqq04,,;,4;,;,;,,,,0500909",
"qqqqq0q0000qqqqqqqqqqqq0999999995555550009009",
"qqqqqqqq00qqqqqqqqqqqqqqqqqqqqqqqqqqqq0000900",
"qqqqqqqqqqqqqqqqqqqqqqqqqqqqqqqqqqqqq0q090000",
"qqqqqqqqqqqqqqqqqqqqqqqqqqqqqqqqqqqqqqqqyqqq0",
"qqqqqqqqqqqqqqqqqqqqqqqqqqqqqqqqqqqqqqqqyjqq0",
"qqqqqqqqqqqqqqqqqqqqqqqqqqqqqqqqqqqqqqqqqqt00"
};
