/* XPM */
static char *result[] = {
/* columns rows colors chars-per-pixel */
"45 45 190 2 ",
"   c #3B2B32",
".  c #3B2C32",
"X  c #3B2D32",
"o  c #3B2E32",
"O  c #3C2C33",
"+  c #3C2D33",
"@  c #3C2E33",
"#  c #3D2F33",
"$  c #3C2C34",
"%  c #3C2D34",
"&  c #3D2D34",
"*  c #3C2E34",
"=  c #3D2E34",
"-  c #3D2F34",
";  c #3D2E35",
":  c #3D2F35",
">  c #3E2E34",
",  c #3E2E35",
"<  c #3E2F35",
"1  c #3E2E36",
"2  c #3E2F36",
"3  c #3F2F36",
"4  c #3F2F37",
"5  c #3D3034",
"6  c #3D3035",
"7  c #3E3036",
"8  c #3F3036",
"9  c #3F3037",
"0  c #402F33",
"q  c #422F34",
"w  c #423034",
"e  c #433035",
"r  c #413036",
"t  c #403037",
"y  c #443035",
"u  c #443135",
"i  c #483133",
"p  c #483233",
"a  c #493235",
"s  c #513433",
"d  c #5F3930",
"f  c #5F3932",
"g  c #5F3A32",
"h  c #66382C",
"j  c #66392C",
"k  c #67392D",
"l  c #673B2D",
"z  c #67392E",
"x  c #673A2E",
"c  c #673B2E",
"v  c #663A2F",
"b  c #683B2D",
"n  c #68392E",
"m  c #683B2E",
"M  c #683A2F",
"N  c #683B2F",
"B  c #693B2F",
"V  c #683C2E",
"C  c #683C2F",
"Z  c #6B3C2F",
"A  c #6D3E2C",
"S  c #6C3D2F",
"D  c #7B3F25",
"F  c #723E2E",
"G  c #603932",
"H  c #643B30",
"J  c #653B31",
"K  c #673A31",
"L  c #673B31",
"P  c #683B30",
"I  c #693B30",
"U  c #6B3B30",
"Y  c #683C30",
"T  c #693C30",
"R  c #6A3C30",
"E  c #6B3C30",
"W  c #6A3D30",
"Q  c #6E3D30",
"!  c #6D3E30",
"~  c #794024",
"^  c #794125",
"/  c #7B4025",
"(  c #7B4127",
")  c #70402D",
"_  c #70412D",
"`  c #73442E",
"'  c #74452E",
"]  c #7A4228",
"[  c #7A432A",
"{  c #7A412E",
"}  c #7B452F",
"|  c #77492F",
" . c #78482F",
".. c #78492F",
"X. c #784A2F",
"o. c #6D4030",
"O. c #6E4031",
"+. c #704130",
"@. c #704230",
"#. c #714231",
"$. c #714331",
"%. c #724331",
"&. c #724431",
"*. c #734431",
"=. c #764731",
"-. c #764831",
";. c #794B31",
":. c #7A4A31",
">. c #7B4A31",
",. c #7A4B31",
"<. c #784932",
"1. c #784A32",
"2. c #794B32",
"3. c #7A4A32",
"4. c #7A4B32",
"5. c #7B4B32",
"6. c #7B4A33",
"7. c #7A4B33",
"8. c #7C4930",
"9. c #7C4A32",
"0. c #7A4C33",
"q. c #7B4C33",
"w. c #7D4C32",
"e. c #7D4D32",
"r. c #7D4C33",
"t. c #824327",
"y. c #874429",
"u. c #874529",
"i. c #86462A",
"p. c #88442B",
"a. c #81482E",
"s. c #8B4B2A",
"d. c #924F2C",
"f. c #804D31",
"g. c #804E31",
"h. c #804C33",
"j. c #814D33",
"k. c #824D32",
"l. c #824E32",
"z. c #864E31",
"x. c #864F31",
"c. c #994E30",
"v. c #815131",
"b. c #815333",
"n. c #825233",
"m. c #875734",
"M. c #8A5032",
"N. c #885334",
"B. c #905231",
"V. c #905631",
"C. c #955034",
"Z. c #9C5031",
"A. c #9C5234",
"S. c #9C5235",
"D. c #AD5228",
"F. c #AD5428",
"G. c #BD5C28",
"H. c #A55434",
"J. c #A95A35",
"K. c #AC5B36",
"L. c #916135",
"P. c #E15B1D",
"I. c #EF6A1F",
"U. c #CA6026",
"Y. c #D56324",
"T. c #D56726",
"R. c #D86424",
"E. c #E36722",
"W. c #E46721",
"Q. c #E56722",
"!. c #E56822",
"~. c #EE6A20",
"^. c #F26B20",
"/. c #F26C20",
"(. c #F27022",
"). c #F07423",
"_. c #F37523",
"`. c #F37624",
"'. c #F17E27",
"]. c #D09A3D",
"[. c #DB9D3B",
"{. c #DDA63E",
"}. c #E2A93E",
"|. c #EBAB3D",
" X c #EBAC3D",
".X c #ECB13E",
"XX c #F0B63F",
"oX c #FAB43D",
"OX c #FAB93E",
"+X c #EDB440",
/* pixels */
"9 9 9 9 9 9 9 9 9 9 9 9 9 9 9 9 9 9 9 9 9 9 9 9 9 9 3 +         $ ; 9 9 9 9 9 9 9 9 9 9 9 ",
"9 9 9 9 9 9 9 9 9 9 9 9 9 9 9 9 9 9 9 9 9 9 9 9 9 9 3 +         % : 9 9 9 9 9 9 9 9 9 9 9 ",
"9 9 9 9 9 9 9 9 9 9 9 9 9 9 9 9 9 9 9 9 9 9 9 9 9 9 3 + . . . . * : 9 9 9 9 9 9 9 9 9 9 9 ",
"9 9 9 9 9 9 9 9 9 9 9 9 9 9 9 9 9 9 9 9 9 9 9 9 9 9 4 2 1 1 1 1 4 9 9 9 9 9 9 9 9 9 9 9 9 ",
"9 9 9 9 9 9 9 9 9 9 9 9 9 9 9 9 9 9 9 9 9 9 9 9 9 9 4 4 4 4 4 4 4 9 9 9 9 9 9 9 9 9 9 9 9 ",
"9 9 9 9 9 9 9 9 9 9 9 9 9 9 9 9 9 9 9 9 9 9 9 9 9 9 9 9 9 9 9 9 9 9 9 9 9 9 9 9 9 9 9 9 9 ",
"4 4 4 4 4 9 9 9 9 9 9 9 9 9 9 9 9 9 9 9 9 9 9 9 9 9 9 9 9 4 9 4 9 9 9 9 9 9 9 9 9 9 9 9 9 ",
"9 9 9 9 9 9 9 9 9 9 9 9 9 9 9 9 9 9 9 9 9 9 9 9 9 9 9 9 9 9 9 9 9 9 9 9 9 9 9 9 9 9 9 9 9 ",
", < < 4 4 9 9 9 9 9 9 9 9 t u u u G T T T T T T T T T C d e u y t 9 9 9 9 9 9 9 9 9 9 9 9 ",
"= - - 4 4 9 9 9 9 9 9 9 9 a L L L Y T T T T T T T T I m c v L K a 9 9 9 9 9 9 9 9 9 9 9 9 ",
"    . 1 4 9 9 9 9 9 9 r a s T T T T T T T T T T T T B k j n N I s a r 9 9 9 9 9 9 9 9 9 9 ",
"    . 1 4 9 9 9 9 9 9 a J P T T T T T T T T T T T T B b l N T I P J a 9 9 9 9 9 9 9 9 9 9 ",
"    . 1 4 9 9 9 9 t a s L T T T T T T T T T ! p.p.Z T V V C T T T L s a t 9 9 9 9 9 9 9 9 ",
"    . 1 4 9 9 9 9 u L T T T T T T T T T T T { P.P.F T T T T T T T T T L u 9 9 9 9 9 9 9 9 ",
"+ @ @ 3 4 9 9 9 9 u L T T T T T T T W +.&.&.} F.D.Q T T T T T T T T T L u 9 9 9 9 9 9 9 9 ",
", < < 4 4 9 9 9 9 u L T T T T T T T E =.4.4.4.4.<.E T T T T T T T T T L u 9 9 9 9 9 9 9 9 ",
"9 9 9 9 9 9 9 9 g G Y T T T T T T *.=.;.f.U.U.z.4.=.*.W T T T T T T T Y G f 9 4 4 4 4 4 4 ",
"9 9 9 9 9 9 9 9 T T T T T T T W E -.4.4.k.E.W.B.k.k.9.S U T T T T T T T T I 9 2 2 1 1 1 1 ",
"9 9 9 9 9 9 9 9 T T T T T T T @.=.;.4.4.k.E.~.R.Y.Y.G.8.*.T T T T T T T T I 7 % + O O O O ",
"9 9 9 9 9 4 9 4 T T T T T T T &.4.4.4.j.M.W.^.^./.(.T.l.-.E R T T T T T T I 7 + X         ",
"9 9 4 4 4 4 4 4 I T T T T T T &.4.4.g.U.Q.I.^.^._.oX[.n.2.<.#.T T T T T T I 2 O .         ",
"9 9 4 @ . . . o x N T T T T T &.4.4.g.U.!.).`.`.'..X].b.4.4.$.T T T T T T I 2 O .         ",
"9 9 4 +       X z M T T I I I %.4.4.q.x.V.|.OXOX XL.m.q.4.4.$.T T T T T T I 2 O . . . . . ",
"9 9 4 +       . z M T T I I I %.4.4.7.>.v.{.+XXX}.N.h.0.2.<.#.T T T T T T I 7 @ o . . . . ",
"9 9 4 +       . z M T N x j j _ ..X.:.] ~ s.d.J.K.H.A.r.-.E R T T T T T T I 9 4 4 4 4 4 4 ",
"9 9 4 +       X z N T M z j j _ ....:.[ ] t.y.c.Z.S.C.w.=.T T T T T T T T I 9 4 4 4 4 4 4 ",
"9 9 4 % O O O + n N T M z h h )  ...,.6.3.^ ~ D ( e.r.7.=.T T T T T T T T T 9 9 9 9 9 9 9 ",
"9 9 4 2 1 1 1 2 f G Y M z h h A ` | ,.4.4.( / / ( 4.;.=.*.T T T T T T Y G g 9 9 9 9 9 9 9 ",
"9 9 4 4 4 4 4 4 4 u L N x j j j j ' ,.4.5.i.u.u.i.5.=.E T T T T T T T L u 9 9 9 9 9 9 9 9 ",
"9 9 9 9 9 9 9 9 9 u L N M n n n n o.%.1.4.a.a.a.a.4.=.E T T T T T T T L u 9 9 9 9 9 9 9 9 ",
"9 9 9 9 9 9 9 9 9 u L T I N N N C C E =.4.4.4.4.4.4.=.E T T T T T T T L u 9 9 9 9 9 9 9 9 ",
"9 9 9 9 9 9 9 9 9 t a s K I I I I I I ! O.O.O.O.O.O.! T T T T T T L s a t 9 9 9 9 9 9 9 9 ",
"9 9 9 9 9 9 - 5 - - - i H P T T T T T T T T T T T T T T T T T T P J a 9 9 9 9 9 9 9 9 9 9 ",
"9 9 9 9 9 3 # + + + + 0 p s T T T T T T T T T T T T T T T T T T s a r 9 9 9 9 9 9 9 9 9 9 ",
"9 9 9 9 9 3 +         + - a L L L Y T T T T T T T T T T Y L L L a 9 9 9 9 9 9 9 9 9 9 9 9 ",
"9 9 9 9 9 3 +         + - t u u u G T T T T T T T T T T G e w q 3 7 9 9 9 9 9 6 : ; ; ; ; ",
"9 9 9 9 9 3 +         + - 9 9 9 9 g T T T T T T T T T T g 1 & % ; : 9 9 9 4 9 % % % % % % ",
"9 9 9 9 9 3 +         + - 9 9 9 9 9 9 9 9 9 9 9 9 9 9 9 9 , + . * : 9 9 9 4 7 + X . . . . ",
"9 9 9 9 9 4 * + + + + - 6 9 9 9 9 9 9 9 9 9 9 9 9 9 9 9 9 2 * + > < 9 9 9 4 2 O .         ",
"9 9 9 9 9 4 4 3 3 3 3 4 9 9 9 9 9 9 9 9 9 9 9 9 9 9 9 9 9 4 4 3 4 9 9 9 9 4 2 O .         ",
"9 9 9 9 9 9 9 9 9 9 9 9 9 9 9 9 9 9 9 9 9 9 9 9 9 9 9 9 9 9 9 9 9 9 9 9 9 4 2 O .         ",
"9 9 9 9 9 9 9 9 9 9 9 9 9 9 9 9 9 9 9 9 9 9 9 9 9 9 9 9 9 9 9 9 9 9 9 9 9 4 8 * @ + + + + ",
"9 9 9 9 9 9 9 9 9 9 9 9 9 9 9 9 9 9 9 9 9 9 9 9 9 9 9 9 9 9 9 9 9 9 9 9 9 4 9 4 4 4 4 4 4 ",
"9 9 9 9 9 9 9 9 9 9 9 9 9 9 9 9 9 9 9 9 9 9 9 9 9 9 9 9 9 9 9 9 9 9 9 9 9 9 9 9 9 9 9 9 9 ",
"9 9 9 9 9 9 9 9 9 9 9 9 9 9 9 9 9 9 9 9 9 9 9 9 9 9 9 9 9 9 9 9 9 9 9 9 9 9 9 9 9 9 9 9 9 "
};
