/* XPM */
static char *result[] = {
/* columns rows colors chars-per-pixel */
"45 45 193 2 ",
"   c #3B2B32",
".  c #3B2C32",
"X  c #3B2D32",
"o  c #3B2E32",
"O  c #3C2C33",
"+  c #3C2D33",
"@  c #3D2D33",
"#  c #3C2E33",
"$  c #3D2F33",
"%  c #3C2C34",
"&  c #3C2D34",
"*  c #3D2D34",
"=  c #3C2E34",
"-  c #3D2E34",
";  c #3D2F34",
":  c #3D2E35",
">  c #3D2F35",
",  c #3E2E34",
"<  c #3E2E35",
"1  c #3E2F35",
"2  c #3E2E36",
"3  c #3E2F36",
"4  c #3F2F36",
"5  c #3F2F37",
"6  c #3D3034",
"7  c #3D3035",
"8  c #3E3035",
"9  c #3E3036",
"0  c #3F3036",
"q  c #3F3037",
"w  c #462E30",
"e  c #462F31",
"r  c #472F32",
"t  c #422F34",
"y  c #412F36",
"u  c #413033",
"i  c #423033",
"p  c #463031",
"a  c #423034",
"s  c #433035",
"d  c #433135",
"f  c #413036",
"g  c #403037",
"h  c #443135",
"j  c #473135",
"k  c #443136",
"l  c #493134",
"z  c #493235",
"x  c #4C3334",
"c  c #503330",
"v  c #513433",
"b  c #533634",
"n  c #553634",
"m  c #583733",
"M  c #593733",
"N  c #5A3732",
"B  c #5D3933",
"V  c #5F3932",
"C  c #633A2F",
"Z  c #66382C",
"A  c #66392C",
"S  c #67392E",
"D  c #653A2E",
"F  c #653A2F",
"G  c #673A2E",
"H  c #673A2F",
"J  c #663B2F",
"K  c #68392E",
"L  c #683A2F",
"P  c #683B2F",
"I  c #683C2E",
"U  c #683C2F",
"Y  c #6D3E2C",
"T  c #7B3F25",
"R  c #603932",
"E  c #613A32",
"W  c #653B31",
"Q  c #673A30",
"!  c #673B31",
"~  c #643B32",
"^  c #683B30",
"/  c #693B30",
"(  c #683C30",
")  c #693C30",
"_  c #6A3C30",
"`  c #6B3C30",
"'  c #6A3D30",
"]  c #6D3E30",
"[  c #794024",
"{  c #794125",
"}  c #7B4025",
"|  c #7B4127",
" . c #70402D",
".. c #70412D",
"X. c #73442E",
"o. c #74452E",
"O. c #7A4228",
"+. c #7A432A",
"@. c #77492F",
"#. c #78482F",
"$. c #78492F",
"%. c #784A2F",
"&. c #6D4030",
"*. c #6E4031",
"=. c #6F4131",
"-. c #704130",
";. c #704230",
":. c #714331",
">. c #724331",
",. c #724431",
"<. c #734431",
"1. c #764731",
"2. c #764831",
"3. c #794B31",
"4. c #7A4A31",
"5. c #7B4A31",
"6. c #7A4B31",
"7. c #784A32",
"8. c #7A4A32",
"9. c #7A4B32",
"0. c #7B4B32",
"q. c #7B4A33",
"w. c #7A4B33",
"e. c #7C4930",
"r. c #7A4C33",
"t. c #7B4C33",
"y. c #7D4C32",
"u. c #7D4D32",
"i. c #7C4C33",
"p. c #7D4C33",
"a. c #824327",
"s. c #874429",
"d. c #874529",
"f. c #86462A",
"g. c #81482E",
"h. c #8B4B2A",
"j. c #924F2C",
"k. c #91512F",
"l. c #9B542D",
"z. c #804D31",
"x. c #814D31",
"c. c #804E31",
"v. c #804C33",
"b. c #814D33",
"n. c #824D32",
"m. c #824E32",
"M. c #864E31",
"N. c #864F31",
"B. c #994E30",
"V. c #815131",
"C. c #825233",
"Z. c #825334",
"A. c #8A5032",
"S. c #8F5130",
"D. c #885334",
"F. c #905231",
"G. c #905631",
"H. c #955034",
"J. c #9C5031",
"K. c #9C5234",
"L. c #9C5235",
"P. c #BD5C28",
"I. c #A55434",
"U. c #A95A35",
"Y. c #AC5B36",
"T. c #EF6A1F",
"R. c #CA6026",
"E. c #CF6225",
"W. c #CD6126",
"Q. c #D06225",
"!. c #D86424",
"~. c #E36722",
"^. c #E46721",
"/. c #E56722",
"(. c #E56822",
"). c #E36C24",
"_. c #EE6A20",
"`. c #F26C20",
"'. c #F27022",
"]. c #F07423",
"[. c #F37523",
"{. c #F48028",
"}. c #DDA63E",
"|. c #E2A93E",
" X c #EAAB3D",
".X c #EBAB3D",
"XX c #F9AF3B",
"oX c #F0B63F",
"OX c #FABA3E",
"+X c #FABA3F",
"@X c #EBB540",
"#X c #EDB440",
"$X c #FBC341",
/* pixels */
"q q q q q q q q q q q q q q q q q q q q q q q q q q 4 +         % : q q q q q q q q q q q ",
"q q q q q q q q q q q q q q q q q q q q q q q q q q 4 +         & > q q q q q q q q q q q ",
"q q q q q q q q q q q q q q q q q q q q q q q q q q 4 + . . . . = > q q q q q q q q q q q ",
"q q q q q q q q q q q q q q q q q q q q q q q q q q 5 3 2 2 2 2 5 q q q q q q q q q q q q ",
"q q q q q q q q q q q q q q q q q q q q q q q q q q 5 5 5 5 5 5 5 q q q q q q q q q q q q ",
"q q q q q q q q q q q q q q q q q q q q q q q q q q q q q q q q q q q q q q q q q q q q q ",
"5 5 5 5 5 q q q q q q q q q q q q q q q q q q q q q q q q 5 q 5 q q q q q q q q q q q q q ",
"q q q q q q q q q q q q q q q q q q q q q q q q q q q q q q q q q q q q q q q q q q q q q ",
"< 1 1 5 5 q q q q q q q q q q q q q q k j ~ ) ) ~ f q 8 8 3 q 5 q q q q q q q q q q q q q ",
"- ; ; 5 5 q q q q q q q q q q q q q f B ! ( ) ) ~ f 5 ; ; 1 q 5 q q q q q q q q q q q q q ",
"    . 2 5 q q q q q q q q q q h z z x E ) ) ) ) W x l e w r d 5 q q q q q q q q q q q q q ",
"    . 2 5 q q q q q q q q q q b ! ! ! ( ) ) ) ) ( ! Q D D F b 5 q q q q q q q q q q q q q ",
"    . 2 5 q q q q q q f z z z M ) ) ) ) ) ) ) ) ) ) ) I I U N z z z f q q q q q q q q q q ",
"    . 2 5 q q q q q q z ! ) ) ) ) ) ) ) ) ) ) ) ) ) ) ) ) ) ) ) ) ! z q q q q q q q q q q ",
"+ # # 4 5 q q q q f b M ^ ) ) ) ) ) ' -.,.,.,.,.,.,.-.' ) ) ) ) ) ^ M b f q q q q q q q q ",
"< 1 1 5 5 q q q q h ! ) ) ) ) ) ) ) ` 1.9.9.9.9.9.9.1.` ) ) ) ) ) ) ) ! h q q q q q q q q ",
"q q q q q q q q q h ! ) ) ) ) ) ) <.e.P.Q.M.M.R.R.z.3.1.<.) ) ) ) ) ) ! h 5 q 5 5 5 5 5 5 ",
"q q q q q q q q q h ! ) ) ) ) ' ` 2.x.E.^.S.F.^.~.n.9.9.2.` _ ) ) ) ) ! j y q 3 3 2 2 2 2 ",
"q q q q q q q q q h ! ) ) ) ) ;.1.3.i.k.l.W.!._.~.n.9.9.3.1.=.) ) ) ) ( R V 9 & + O O O O ",
"q q q q q 5 q 5 q h ! ) ) ) ) ,.9.9.9.b.A.^.`.'.).m.9.9.9.9.:.) ) ) ) ) ) / 9 + X         ",
"q q 5 5 5 5 5 5 5 h ! ) ) ) ) ,.9.9.c.R./.T.[.XX XC.9.9.9.9.:.) ) ) ) ) ) / 3 O .         ",
"q q 5 # . . . o = a ! ) ) ) ) ,.9.9.c.R.(.].{.OX@XZ.9.9.9.9.:.) ) ) ) ) ) / 3 O .         ",
"q q 5 +       X & t ! ) / / / >.9.9.t.N.G..X+X$X@XZ.9.9.9.9.:.) ) ) ) ) ) / 3 O . . . . . ",
"q q 5 +       . & t ! ) / / / >.9.9.w.5.V.}.#XoX|.D.v.r.9.9.:.) ) ) ) ) ) / 9 # o . . . . ",
"q q 5 +       . & t ! P G A A ..$.%.4.O.[ h.j.U.Y.I.K.p.9.9.:.) ) ) ) ) ) / q 5 5 5 5 5 5 ",
"q q 5 +       X & a ! L S A A ..$.$.4.+.O.a.s.B.J.L.H.y.9.9.:.) ) ) ) ) ) / q 5 5 5 5 5 5 ",
"q q 5 & O O O + * a ! L S Z Z  .#.$.6.q.8.{ [ T | u.p.w.9.9.:.) ) ) ) ) ) ) q q q q q q q ",
"q q 5 3 2 2 2 3 5 h ! L S Z Z Y X.@.6.9.9.| } } | 9.9.9.3.1.=.) ) ) ) ) ) ) q q q q q q q ",
"q q 5 5 5 5 5 5 5 h ! P G A A A A o.6.9.0.f.d.d.f.0.9.9.1.) ) ) ) ) ) ) ) ) q q q q q q q ",
"q q q q q q q q q h ! P L K K K K &.>.7.9.g.g.g.g.9.7.>.=.) ) ) ) ) ) ^ m n q q q q q q q ",
"q q q q q q q q q h ! ) / P P P U U ` 1.9.9.9.9.9.9.1.` ) ) ) ) ) ) ) ! h q q q q q q q q ",
"q q q q q q q q q h ! ) / / / / / / / ] *.*.*.*.*.*.] ) ) ) ) ) ) ) ) ! h q q q q q q q q ",
"q q q q q q ; 6 ; u C H U ) ) ) ) ) ) ) ) ) ) ) ) ) ) ) ) ) ) ) ) ) ^ W d q q q q q q q q ",
"q q q q q 4 $ + + @ e c J ) ) ) ) ) ) ) ) ) ) ) ) ) ) ) ) ) ) ) ) ! v z g q q q q q q q q ",
"q q q q q 4 +         p C ! ! ! ! ! ! ! ! ! ! ! ! ! ! ! ! ! ! ! ! W z q q q q q q q q q q ",
"q q q q q 4 +         @ i h h h h h h h h h h h h h h h h s a t s d g q q q q 7 > : : : : ",
"q q q q q 4 +         + ; q q q q q q q q q q q q q q q q 2 * & : > q q q 5 q & & & & & & ",
"q q q q q 4 +         + ; q q q q q q q q q q q q q q q q < + . = > q q q 5 9 + X . . . . ",
"q q q q q 5 = + + + + ; 7 q q q q q q q q q q q q q q q q 3 = + , 1 q q q 5 3 O .         ",
"q q q q q 5 5 4 4 4 4 5 q q q q q q q q q q q q q q q q q 5 5 4 5 q q q q 5 3 O .         ",
"q q q q q q q q q q q q q q q q q q q q q q q q q q q q q q q q q q q q q 5 3 O .         ",
"q q q q q q q q q q q q q q q q q q q q q q q q q q q q q q q q q q q q q 5 0 = # + + + + ",
"q q q q q q q q q q q q q q q q q q q q q q q q q q q q q q q q q q q q q 5 q 5 5 5 5 5 5 ",
"q q q q q q q q q q q q q q q q q q q q q q q q q q q q q q q q q q q q q q q q q q q q q ",
"q q q q q q q q q q q q q q q q q q q q q q q q q q q q q q q q q q q q q q q q q q q q q "
};
