/* XPM */
static char *result[] = {
/* columns rows colors chars-per-pixel */
"45 45 150 2 ",
"   c #3B2B32",
".  c #3B2C32",
"X  c #3B2D32",
"o  c #3B2E32",
"O  c #3C2C33",
"+  c #3C2D33",
"@  c #3C2E33",
"#  c #3D2F33",
"$  c #3C2C34",
"%  c #3C2D34",
"&  c #3D2D34",
"*  c #3C2E34",
"=  c #3D2E34",
"-  c #3D2F34",
";  c #3D2E35",
":  c #3D2F35",
">  c #3E2E34",
",  c #3E2E35",
"<  c #3E2F35",
"1  c #3E2E36",
"2  c #3E2F36",
"3  c #3F2F36",
"4  c #3F2F37",
"5  c #3D3034",
"6  c #3D3035",
"7  c #3E3036",
"8  c #3F3036",
"9  c #3F3037",
"0  c #402F33",
"q  c #422F34",
"w  c #423034",
"e  c #433035",
"r  c #413036",
"t  c #403037",
"y  c #443035",
"u  c #443135",
"i  c #483133",
"p  c #483233",
"a  c #493235",
"s  c #513433",
"d  c #5F3930",
"f  c #5F3932",
"g  c #5F3A32",
"h  c #66382C",
"j  c #66392C",
"k  c #67392D",
"l  c #673B2D",
"z  c #67392E",
"x  c #673A2E",
"c  c #673B2E",
"v  c #663A2F",
"b  c #68392D",
"n  c #683B2D",
"m  c #68392E",
"M  c #683B2E",
"N  c #683A2F",
"B  c #683B2F",
"V  c #693B2F",
"C  c #683C2E",
"Z  c #683C2F",
"A  c #6B3C2F",
"S  c #6C3C2E",
"D  c #6C3D2F",
"F  c #7B3F25",
"G  c #603932",
"H  c #643B30",
"J  c #653B31",
"K  c #673A31",
"L  c #673B31",
"P  c #683B30",
"I  c #693B30",
"U  c #6B3B30",
"Y  c #683C30",
"T  c #693C30",
"R  c #6A3C30",
"E  c #6B3C30",
"W  c #6A3D30",
"Q  c #794024",
"!  c #794125",
"~  c #7B4025",
"^  c #7B4127",
"/  c #71422E",
"(  c #76412D",
")  c #74462E",
"_  c #7A4228",
"`  c #78422A",
"'  c #78402D",
"]  c #6F4131",
"[  c #724331",
"{  c #734431",
"}  c #744531",
"|  c #764630",
" . c #764731",
".. c #764732",
"X. c #764831",
"o. c #794B31",
"O. c #7A4A31",
"+. c #7B4A31",
"@. c #794932",
"#. c #794B32",
"$. c #7A4A32",
"%. c #7A4B32",
"&. c #7B4B32",
"*. c #7A4B33",
"=. c #7C4930",
"-. c #7A4C33",
";. c #7D4C32",
":. c #7D4D32",
">. c #7D4C33",
",. c #824327",
"<. c #874429",
"1. c #874529",
"2. c #86462A",
"3. c #8B4B2A",
"4. c #924F2C",
"5. c #804C33",
"6. c #824D32",
"7. c #824E32",
"8. c #994E30",
"9. c #815131",
"0. c #825233",
"q. c #825334",
"w. c #885334",
"e. c #955034",
"r. c #9C5031",
"t. c #9C5234",
"y. c #9C5235",
"u. c #A55434",
"i. c #A95A35",
"p. c #AC5B36",
"a. c #C55C25",
"s. c #D05F23",
"d. c #E36722",
"f. c #E36C24",
"g. c #F26B20",
"h. c #F26C20",
"j. c #E47126",
"k. c #F27022",
"l. c #F37523",
"z. c #F48028",
"x. c #DDA63E",
"c. c #E2A93E",
"v. c #EAAB3D",
"b. c #F9AF3B",
"n. c #F0B63F",
"m. c #FABA3E",
"M. c #FABA3F",
"N. c #EBB540",
"B. c #EDB440",
"V. c #FBC341",
/* pixels */
"9 9 9 9 9 9 9 9 9 9 9 9 9 9 9 9 9 9 9 9 9 9 9 9 9 9 3 +         $ ; 9 9 9 9 9 9 9 9 9 9 9 ",
"9 9 9 9 9 9 9 9 9 9 9 9 9 9 9 9 9 9 9 9 9 9 9 9 9 9 3 +         % : 9 9 9 9 9 9 9 9 9 9 9 ",
"9 9 9 9 9 9 9 9 9 9 9 9 9 9 9 9 9 9 9 9 9 9 9 9 9 9 3 + . . . . * : 9 9 9 9 9 9 9 9 9 9 9 ",
"9 9 9 9 9 9 9 9 9 9 9 9 9 9 9 9 9 9 9 9 9 9 9 9 9 9 4 2 1 1 1 1 4 9 9 9 9 9 9 9 9 9 9 9 9 ",
"9 9 9 9 9 9 9 9 9 9 9 9 9 9 9 9 9 9 9 9 9 9 9 9 9 9 4 4 4 4 4 4 4 9 9 9 9 9 9 9 9 9 9 9 9 ",
"9 9 9 9 9 9 9 9 9 9 9 9 9 9 9 9 9 9 9 9 9 9 9 9 9 9 9 9 9 9 9 9 9 9 9 9 9 9 9 9 9 9 9 9 9 ",
"4 4 4 4 4 9 9 9 9 9 9 9 9 9 9 9 9 9 9 9 9 9 9 9 9 9 9 9 9 4 9 4 9 9 9 9 9 9 9 9 9 9 9 9 9 ",
"9 9 9 9 9 9 9 9 9 9 9 9 9 9 9 9 9 9 9 9 9 9 9 9 9 9 9 9 9 9 9 9 9 9 9 9 9 9 9 9 9 9 9 9 9 ",
", < < 4 4 9 9 9 9 9 9 9 9 t u u u G T T T T T T T T T Z d e u y t 9 9 9 9 9 9 9 9 9 9 9 9 ",
"= - - 4 4 9 9 9 9 9 9 9 9 a L L L Y T T T T T T T T I M c v L K a 9 9 9 9 9 9 9 9 9 9 9 9 ",
"    . 1 4 9 9 9 9 9 9 r a s T T T T T T T T T T T T V k j m B I s a r 9 9 9 9 9 9 9 9 9 9 ",
"    . 1 4 9 9 9 9 9 9 a J P T T T T T T T T T T T T V n l B T I P J a 9 9 9 9 9 9 9 9 9 9 ",
"    . 1 4 9 9 9 9 t a s L T T T T T T T T T T T T T T C C Z T T T L s a t 9 9 9 9 9 9 9 9 ",
"    . 1 4 9 9 9 9 u L T T T T T T T T T T T T T T T T T T T T T T T T L u 9 9 9 9 9 9 9 9 ",
"+ @ @ 3 4 9 9 9 9 u L T T T T T T T T T T T T T T T T T T T T T T T T L u 9 9 9 9 9 9 9 9 ",
", < < 4 4 9 9 9 9 u L T T T T T T T T T T T T T T T T T T T T T T T T L u 9 9 9 9 9 9 9 9 ",
"9 9 9 9 9 9 9 9 g G Y T T T T T T T W { =.a.s.s.a.=.{ W T T T T T T T Y G f 9 4 4 4 4 4 4 ",
"9 9 9 9 9 9 9 9 T T T T T T T T T T E  .6.d.g.g.d.6.X.D U T T T T T T T T I 9 2 2 1 1 1 1 ",
"9 9 9 9 9 9 9 9 T T T T T T T T T T E  .6.d.g.g.d.6.o. .{ T T T T T T T T I 7 % + O O O O ",
"9 9 9 9 9 4 9 4 T T T T T T T T T U D X.7.f.k.h.d.6.%.%. .T T T T T T T T I 7 + X         ",
"9 9 4 4 4 4 4 4 I T T T T T T T T } @.#.0.v.b.l.d.6.%.%. .T T T T T T T T I 2 O .         ",
"9 9 4 @ . . . o x B T T T T T T T  .%.%.q.N.m.z.j.7.%.%. .T T T T T T T T I 2 O .         ",
"9 9 4 +       X z N T T I I I I T  .%.%.q.N.V.M.v.0.%.%. .T T T T T T T T I 2 O . . . . . ",
"9 9 4 +       . z N T T I I I I I  .*.+.9.x.B.n.c.w.5.-. .T T T T T T T T I 7 @ o . . . . ",
"9 9 4 +       . z N T B x j j j j ) O._ Q 3.4.i.p.u.t.>. .T T T T T T T T I 9 4 4 4 4 4 4 ",
"9 9 4 +       X z B T N z j j j j / | ` _ ,.<.8.r.y.e.;. .T T T T T T T T I 9 4 4 4 4 4 4 ",
"9 9 4 % O O O + m B T N z h h h h b S ..$.! Q F ^ :.>.*. .T T T T T T T T T 9 9 9 9 9 9 9 ",
"9 9 4 2 1 1 1 2 f G Y N z h h h h k A  .%.^ ~ ~ ^ %.o. .{ T T T T T T Y G g 9 9 9 9 9 9 9 ",
"9 9 4 4 4 4 4 4 4 u L B x j j j j k A  .&.2.1.1.2.&. .E T T T T T T T L u 9 9 9 9 9 9 9 9 ",
"9 9 9 9 9 9 9 9 9 u L B N m m m m N R ] [ ( ' ' ( [ ] W T T T T T T T L u 9 9 9 9 9 9 9 9 ",
"9 9 9 9 9 9 9 9 9 u L T I B B B Z Z T T T T T T T T T T T T T T T T T L u 9 9 9 9 9 9 9 9 ",
"9 9 9 9 9 9 9 9 9 t a s K I I I I I I T T T T T T T T T T T T T T L s a t 9 9 9 9 9 9 9 9 ",
"9 9 9 9 9 9 - 5 - - - i H P T T T T T T T T T T T T T T T T T T P J a 9 9 9 9 9 9 9 9 9 9 ",
"9 9 9 9 9 3 # + + + + 0 p s T T T T T T T T T T T T T T T T T T s a r 9 9 9 9 9 9 9 9 9 9 ",
"9 9 9 9 9 3 +         + - a L L L Y T T T T T T T T T T Y L L L a 9 9 9 9 9 9 9 9 9 9 9 9 ",
"9 9 9 9 9 3 +         + - t u u u G T T T T T T T T T T G e w q 3 7 9 9 9 9 9 6 : ; ; ; ; ",
"9 9 9 9 9 3 +         + - 9 9 9 9 g T T T T T T T T T T g 1 & % ; : 9 9 9 4 9 % % % % % % ",
"9 9 9 9 9 3 +         + - 9 9 9 9 9 9 9 9 9 9 9 9 9 9 9 9 , + . * : 9 9 9 4 7 + X . . . . ",
"9 9 9 9 9 4 * + + + + - 6 9 9 9 9 9 9 9 9 9 9 9 9 9 9 9 9 2 * + > < 9 9 9 4 2 O .         ",
"9 9 9 9 9 4 4 3 3 3 3 4 9 9 9 9 9 9 9 9 9 9 9 9 9 9 9 9 9 4 4 3 4 9 9 9 9 4 2 O .         ",
"9 9 9 9 9 9 9 9 9 9 9 9 9 9 9 9 9 9 9 9 9 9 9 9 9 9 9 9 9 9 9 9 9 9 9 9 9 4 2 O .         ",
"9 9 9 9 9 9 9 9 9 9 9 9 9 9 9 9 9 9 9 9 9 9 9 9 9 9 9 9 9 9 9 9 9 9 9 9 9 4 8 * @ + + + + ",
"9 9 9 9 9 9 9 9 9 9 9 9 9 9 9 9 9 9 9 9 9 9 9 9 9 9 9 9 9 9 9 9 9 9 9 9 9 4 9 4 4 4 4 4 4 ",
"9 9 9 9 9 9 9 9 9 9 9 9 9 9 9 9 9 9 9 9 9 9 9 9 9 9 9 9 9 9 9 9 9 9 9 9 9 9 9 9 9 9 9 9 9 ",
"9 9 9 9 9 9 9 9 9 9 9 9 9 9 9 9 9 9 9 9 9 9 9 9 9 9 9 9 9 9 9 9 9 9 9 9 9 9 9 9 9 9 9 9 9 "
};
