/* XPM */
static char *result[] = {
/* columns rows colors chars-per-pixel */
"45 45 31 1 ",
"  c #282F3F",
". c #2B3344",
"X c #2E3649",
"o c #2F384D",
"O c #30374B",
"+ c #30394D",
"@ c #343D52",
"# c #364056",
"$ c #384256",
"% c #374159",
"& c #3A445B",
"* c #3D485F",
"= c #3C4761",
"- c #3F4A62",
"; c #414B66",
": c #424E6B",
"> c #45516D",
", c #48546F",
"< c #475473",
"1 c #485575",
"2 c #4D5A76",
"3 c #4B5778",
"4 c #4D5B7B",
"5 c #505D7B",
"6 c #53607E",
"7 c #515F80",
"8 c #556384",
"9 c #586687",
"0 c #576688",
"q c #596689",
"w c #5A698B",
/* pixels */
"wwq511<1111<1<11140w8-$*8w82311<3,<<<111-7-71",
"ww841<<<<1<<<<11118q6*$*6982<<<<,1<<<<137--11",
"552>:-;;;;;::<::::35,&$&252>:;;:*-;;-------1-",
"$$$@@@o@@+@@%%%@@@$@$X.X@$@@@+@+#o##==-%%o@%o",
"X.X..X.X..XO@@@+...XX.  XXX..X.X .XX###Xoo.X.",
"###@@@@@@@@@@@@@$@@$####$+$$@@@@##$##o##@@#o#",
"22525544555>;@&;5552262622525555262:##&,47744",
"wwwqqqwwqqq2;@&<9q99999w9w999qqqw9w,&#*400000",
"wwww00000ww7;@=1ww000000990000000ww3=%-6ww8w0",
"www9777770w4:@=1w07747776666474780w3=%-7ww774",
"www511<747w7-@=3w0411111111133337707=%*4w0433",
"888511<14781=@=1704111111111<<<37777=%*27733<",
"55431111137-=@=-441111117-11<3<<777-=#=344113",
"1111<111117-=@@=1111111137-7<<<<-7--%%%-<17-<",
":>:>:>::->-=%o@=-----<---------<---=#o#=-----",
"@@@%@@@%%%%@ooo@%%%==--===#%=#%%#%%oooo%=%%=#",
"................o....o##.   . ........ .. ...",
"@@$+@@@@@@@@@@@@%%o%###o####$##$%%%o@########",
"5225222422222242-711,&#&>22222227-37332222124",
"99wwwwwwwwwwwwwwwww06-%-69wwwww9ww0wwwwwww99w",
"wwwwqwqq9wqqw000wwww0=%=8www99w90000000099w00",
"www9544444444444780w0=%-8w0725444744447444444",
"wq9541111111313134807=%=808431313111111123<13",
"q8851111111111<113707=%=69721111111111113,<3<",
"43311113111<3<111122,&$$<331<111-7--731<-3-7-",
"<111<<<<<3<<<<1<<<,1>$$$-<<3<<<<4-744-<<434-4",
";-;=--=----*->:-----*###----------**---=-----",
"Ooooooooooo#%%#@ooooX..XooooooooX.##===%o%oo#",
"....X..X...XX##XX..... .....X.....##X###o....",
"*;*;=------*###&---=--------------$$###-==-=-",
"66865856666,*#&>6676866666666877866-%#&-78777",
"wwwwwwwwwww2*#&1wwwwwwwwwwwwwwwwwww2&#=7wwwww",
"wwww08800ww4-@&1ww007070888800070ww4=%=7w0000",
"www9744478w4>#&100774447474744447004=%-7w0774",
"ww953<3147w4;#*,00711111-1<111114003=%=7w847-",
"88533<<33783*@&,7731111171111111470-=%=4771-7",
"544111<<134:&@%:371<1111-7111111344-=%=-4433-",
"11111<<<<11:&$%;13<<<<<17-1411144-1-%%=-14-47",
"::>::::>:::;&@@;>->-:>>:-----------=%%%=-----",
"%%&&&&&&&&&%$@@@%%===@=@==-=======-=%@@%=-===",
"@@@@@@@@@@@@@@@@@@@@@@@@@@@@@@@+####o#o#%%o##",
"@@@+@@@@@@@@@@@@@@@@@@@@@@+OOOO..o.oooooooooX",
"@@@@@@@@@@@@@@@@@@@@@@@@@@OX.... ... ....... ",
"@@@@@@@@@@@@@@@@@+@@@@@@@@X... .             ",
"@@@@@@+@@@@@@@@@@@@@@@@@@@X...               "
};
