/* XPM */
static char *result[] = {
/* columns rows colors chars-per-pixel */
"45 45 93 2 ",
"   c #0D0C0B",
".  c #120F0E",
"X  c #13100F",
"o  c #151211",
"O  c #1B1514",
"+  c #1D1816",
"@  c #161819",
"#  c #191B1D",
"$  c #241916",
"%  c #251C1D",
"&  c #291E1C",
"*  c #2C201D",
"=  c #32221E",
"-  c #251D20",
";  c #2D2326",
":  c #2E2429",
">  c #352521",
",  c #3A2723",
"<  c #332A26",
"1  c #3D2A26",
"2  c #32262C",
"3  c #352A2C",
"4  c #3A292D",
"5  c #37322A",
"6  c #3A312D",
"7  c #2E2E31",
"8  c #372A30",
"9  c #3D2E35",
"0  c #3F3037",
"q  c #3D3830",
"w  c #66231D",
"e  c #6B251F",
"r  c #482722",
"t  c #412C27",
"y  c #412D29",
"u  c #542822",
"i  c #45312D",
"p  c #41392E",
"a  c #473431",
"s  c #4B3531",
"d  c #4F3834",
"f  c #523631",
"g  c #593732",
"h  c #503935",
"j  c #5B3835",
"k  c #5E3B38",
"l  c #74322A",
"z  c #7D362D",
"x  c #5D443D",
"c  c #60443E",
"v  c #343E45",
"b  c #354149",
"n  c #555E47",
"m  c #444F58",
"M  c #455058",
"N  c #654944",
"B  c #6D4F48",
"V  c #754543",
"C  c #7E4844",
"Z  c #74544C",
"A  c #7E5C54",
"S  c #59674C",
"D  c #5C6B4E",
"F  c #6E7C63",
"G  c #76716B",
"H  c #78756F",
"J  c #8E4543",
"K  c #8A4D41",
"L  c #84594B",
"P  c #905348",
"I  c #885650",
"U  c #965D51",
"Y  c #9A5B51",
"T  c #826259",
"R  c #A5625D",
"E  c #8C6B61",
"W  c #9F7565",
"Q  c #A38B79",
"!  c #B28275",
"~  c #B98679",
"^  c #BB887A",
"/  c #A5927C",
"(  c #B89587",
")  c #B49B86",
"_  c #B09E8B",
"`  c #BAA697",
"'  c #BEAD9C",
"]  c #C49283",
"[  c #C89283",
"{  c #D09C8C",
"}  c #D7A190",
"|  c #DBA493",
" . c #CDB8A8",
/* pixels */
"0 0 0 0 0 0 0 0 0 0 0 0 0 0 0 0 0 0 0 0 0 0 0 0 0 0 9 9 9 9 4 9 9 9 0 0 0 0 0 0 0 0 0 0 0 ",
"0 0 0 0 0 0 0 0 0 0 0 0 0 0 0 0 0 0 0 0 0 0 0 0 0 0 9 9 9 4 9 4 9 9 0 0 0 0 0 0 0 0 0 0 0 ",
"0 0 0 0 0 0 0 0 0 0 0 0 0 0 0 0 0 0 0 0 0 0 0 0 0 0 0 9 9 9 9 4 9 0 0 0 0 0 0 0 0 0 0 0 0 ",
"0 0 0 0 0 0 0 0 0 0 0 0 0 0 0 0 0 0 0 0 0 0 0 0 0 0 0 9 9 9 9 9 0 0 0 0 0 0 0 0 0 0 0 0 0 ",
"0 0 0 0 0 0 0 0 0 0 0 0 0 0 0 0 0 0 0 0 0 0 9 9 0 0 9 0 9 9 0 0 0 0 0 0 0 0 0 0 0 0 0 0 0 ",
"0 0 0 0 0 0 0 0 0 0 0 0 0 0 0 0 0 0 0 0 9 9 9 v 0 9 0 0 0 0 0 0 0 0 0 0 0 0 0 0 0 0 0 0 0 ",
"0 0 0 0 9 0 0 0 0 0 0 0 0 0 0 0 0 0 0 9 .   2 i 9 . 9 9 0 0 0 0 0 0 0 0 0 0 0 0 0 0 0 0 0 ",
"0 0 0 0 a 0 0 0 0 0 0 0 0 0 0 0 O . . o > > O . . : o 8 0 0 0 0 0 0 0 0 0 0 0 0 0 0 0 0 0 ",
"0 9 0 0 9 0 0 0 0 0 0 0 0 0 9 - $ $ $ $ i i - $ & r $ - 2 i v 9 0 0 0 0 0 0 0 0 0 0 0 0 0 ",
"9 9 9 0 0 0 0 0 0 0 0 0 0 9 9 . = , t t h h r t y j 4 O - 4 9 9 0 0 0 0 0 0 0 0 0 0 0 0 0 ",
"9 0 8 0 0 0 0 0 0 0 0 0 9 9 i 9 o ; h h h h d d d h h h = . 9 9 0 0 0 0 0 0 0 0 0 0 0 0 0 ",
"9 8 8 0 0 0 0 0 0 0 0 0 9 9 v   y s h h h h d d h h h h y = . 9 0 0 0 0 0 0 0 0 0 0 0 0 0 ",
"8 9 9 9 9 9 0 0 0 0 0 0 0 0 9   s h h d 4 t s s y h d h i , > o 2 9 0 0 0 0 0 0 0 0 0 0 0 ",
"9 4 9 9 i v 0 0 0 0 0 0 0 9 - $ y s h h A i s f u h h h f 4 $ - 9 0 0 0 0 0 0 0 0 0 0 0 0 ",
"9 9 8 9 i 9 9 0 0 0 0 0 0 2 . > 1 i h N [ k h k l f h h h s   y 0 0 0 0 0 0 0 0 0 0 0 0 0 ",
"9 9 9 i v 9 0 0 0 0 0 0 0 0 9   , i B [ ~ [ Z I W w f f h i . 8 0 0 0 0 0 0 0 0 0 0 0 0 9 ",
"0 0 0 0 0 0 0 0 0 0 0 0 0 0 9   i h B ^ O ] ] ] ]   w r y g d X 8 9 0 0 0 0 0 9 0 0 0 0 9 ",
"0 0 0 0 0 0 0 0 0 0 0 0 0 2 . r s V R ^ O ] | | ] O e J k i X 3 9 0 0 0 0 0 0 0 9 0 0 9 9 ",
"0 0 0 0 0 0 0 0 0 0 0 0 0 8 - - i k I ] A { | | { A Y C j 4   8 0 0 0 0 0 0 9 9 9 9 9 9 9 ",
"0 0 0 0 0 0 0 9 0 0 0 0 0 0 9 . > y c ~ | | | | | | ~ c y , X 9 0 0 0 0 0 0 0 9 9 9 9 9 4 ",
"0 0 0 9 9 0 0 9 0 0 0 0 v 9 9 0 o - y s ~ } | | } ^ s y % X a 0 0 0 0 0 0 0 9 9 4 9 4 4 9 ",
"0 0 0 9 8 9 9 9 9 9 0 0 i i 9 0 9 - O y o ! [ [ ! o y O - 9 0 0 0 0 0 0 0 9 9 9 9 4 9 4 8 ",
"0 0 0 9 8 9 9 8 9 9 0 0 9 v 0 0 o $ 2 n & Q ) ) Q & n 3 + o 0 0 0 0 0 0 0 9 0 9 8 8 9 9 9 ",
"0 9 9 9 9 9 8 8 9 9 0 0 9 i 9 0 . O 5 S < _ W U L < S 3 O . 0 0 0 0 0 0 0 0 0 9 9 9 9 8 9 ",
"0 9 9 9 9 4 9 4 9 9 a 0 9 9 9 2 X + 5 D 6 ' U z w q D 6 O o 8 0 0 0 0 0 0 9 0 0 9 0 0 0 0 ",
"0 0 0 9 9 9 9 9 8 0 9 9 9 9 8   * * q F 6 `  .( l 4 F q * *   9 0 0 0 0 0 9 0 0 0 0 9 0 0 ",
"0 0 9 9 9 9 9 9 8 0 0 0 9 9 9   < < 5 D q / K P ` 6 D 5 < 2   8 9 0 0 0 0 0 0 0 0 0 0 0 0 ",
"0 0 0 0 9 9 9 9 0 0 0 9 8 - o 2 5 * O < 4 ' ) ) ' q < o * 6 3 o 8 0 0 0 0 0 0 0 0 0 0 0 0 ",
"0 0 0 9 9 9 0 0 0 0 0 0 9 : o E A a . ; < H G G H < & X p T E X 2 9 0 0 0 0 0 0 0 0 0 0 0 ",
"0 0 0 0 0 0 0 0 0 0 0 0 9 : + ] ! N X ; > b b b b ; : o x ! ] + 8 0 0 0 0 0 0 0 0 0 0 0 0 ",
"0 0 0 0 0 0 0 0 0 0 0 0 0 9 9       # M M m b b m m M #       9 0 0 0 0 0 0 0 0 0 0 0 0 0 ",
"0 0 0 0 0 0 0 0 0 0 0 0 0 0 0 8 9 % # M m b @ # b m M # - 9 9 0 0 0 0 0 0 0 0 0 0 0 0 0 0 ",
"0 0 0 0 0 0 0 9 9 0 9 9 9 0 0 0 9 - O v v @ : : @ v b # - 0 0 0 0 0 0 0 0 0 0 i 9 a 0 0 0 ",
"0 0 0 0 0 9 9 9 9 9 9 9 0 0 0 0 v - . 8 v . 2 2 . 2 7 o - 0 0 0 0 0 0 0 0 0 0 v 9 v 0 0 0 ",
"0 0 0 0 9 9 9 9 9 9 9 9 9 0 0 0 a - . - %   : 2 . * - o - 0 9 a 9 0 0 0 0 9 0 0 9 9 i 0 0 ",
"0 0 0 0 9 9 9 4 4 4 4 9 9 0 9 0 9 - O y 9 . : : X p 6 + - 9 9 0 0 0 0 0 0 0 0 9 9 9 9 9 9 ",
"0 0 0 0 0 9 9 9 8 8 8 9 9 9 2 2 - - - - - - - - % % % % % - : - 8 0 0 0 0 0 0 9 9 9 9 9 9 ",
"0 0 0 0 0 0 9 9 9 9 9 9 9 0 9 : : : : : - : : : ; : : : : - : 8 9 9 0 0 0 9 9 9 9 8 4 9 9 ",
"0 0 0 0 0 9 9 9 9 8 9 9 i 0 9 8 8 8 8 9 4 8 4 8 3 8 8 8 8 8 8 8 9 0 0 0 0 9 0 9 4 8 9 8 9 ",
"0 0 0 0 0 0 0 9 0 9 0 0 0 0 0 0 0 9 9 0 0 9 0 0 0 0 0 0 0 0 9 0 0 0 0 0 0 0 9 9 9 9 8 8 9 ",
"0 0 0 0 0 0 0 0 0 0 0 0 0 0 0 0 0 0 0 0 0 0 0 0 0 0 0 0 0 0 0 0 0 0 0 0 0 0 9 9 4 9 9 8 9 ",
"0 0 0 0 0 0 0 0 0 0 0 0 0 0 0 0 0 0 0 0 0 0 0 0 0 0 0 0 0 0 0 0 0 0 0 0 0 0 0 9 9 9 9 9 9 ",
"0 0 0 0 0 0 0 0 0 0 0 0 0 0 0 0 0 0 0 0 0 0 0 0 0 0 0 0 0 0 0 0 0 0 0 0 0 0 0 0 9 9 0 0 9 ",
"0 0 0 0 0 0 0 0 0 0 0 0 0 0 0 0 0 0 0 0 0 0 0 0 0 0 0 0 0 0 0 0 0 0 0 0 0 0 0 9 9 0 0 0 9 ",
"0 0 0 0 0 0 0 0 0 0 0 0 0 0 0 0 0 0 0 0 0 0 0 0 0 0 0 0 0 0 0 0 0 0 0 0 0 0 0 0 0 0 0 0 9 "
};
