/* XPM */
static char *result[] = {
/* columns rows colors chars-per-pixel */
"45 45 68 1 ",
"  c #0D0C0B",
". c #120F0E",
"X c #13100E",
"o c #141211",
"O c #1A1515",
"+ c #151718",
"@ c #1D171A",
"# c #201715",
"$ c #231917",
"% c #241C1C",
"& c #2C1E1C",
"* c #2D201E",
"= c #31221F",
"- c #251D20",
"; c #262122",
": c #2D2325",
"> c #2E2429",
", c #352522",
"< c #3A2623",
"1 c #322925",
"2 c #3C2A26",
"3 c #31262B",
"4 c #35292D",
"5 c #3D2D29",
"6 c #363129",
"7 c #3B322C",
"8 c #372A30",
"9 c #3D2D34",
"0 c #2D3237",
"q c #2F353A",
"w c #3F3037",
"e c #402B27",
"r c #422E2A",
"t c #45312D",
"y c #48322F",
"u c #473330",
"i c #4B3531",
"p c #423C32",
"a c #4F3934",
"s c #503935",
"d c #444536",
"f c #454837",
"g c #474939",
"h c #4D5E3F",
"j c #2E3940",
"k c #313C44",
"l c #384143",
"z c #354149",
"x c #3C474F",
"c c #3E4B4A",
"v c #3C4850",
"b c #514D43",
"n c #4F5D43",
"m c #515F46",
"M c #444E56",
"N c #465352",
"B c #455058",
"V c #644B42",
"C c #566349",
"Z c #58674B",
"A c #5B6B4E",
"S c #5F6F52",
"D c #647457",
"F c #916B5F",
"G c #77876A",
"H c #7A8A6D",
"J c #C18D7E",
"K c #D29E8D",
/* pixels */
"wwwwwwwwwwwwwwwwwwwwwwwwww99998899wwwwwwwwwww",
"wwwwwwwwwwwwwwwwwwwwwwwwww99998999wwwwwwwwwww",
"wwwwwwwwwwwwwwwwwwwwwwjuwww9899999wwwwwwwwwww",
"wwwwwwwwwwwwwwwwww99999r99w99999wwwwwwwwwwwww",
"wwwwwwwwwwwww9juww-.9u3  -u9999wwwwwwwwwwwwww",
"wwwwwwwwwwwwwu999O$=..O,<@O..@wwwwwwwwwwwwwww",
"wwww9wwwwwwwwwu8@&8y==<iy<&=&&@8wwwwwwwwwwwww",
"wwwwuwwwwwwwww8>@<yi9eessyee<&O8wwwwwwwwwwwww",
"ww9wwwwwwwwwr8@@ssssssssssis=O8uwwwwwwwwwwwww",
"w99wwwwwwwww8 &esssssssssr<<ry 3wwwwwwwwwwwww",
"888wwwwwwww-.<<esssssssseyissy >9wwwwwwwwwwww",
"9999wwwwwww8>Oeissssssssissssi-@-wwwwwwwwwwww",
"899999wwww9w9 3issyysyysssssye$->9wwwwwwwwwww",
"8999juwwww9j8.<yssyeirrsssssy, 3wwwwwwwwwwwww",
"9999uwwwwww-.eeysssieissssssye 39wwwwwwwwwww9",
"999twwwwwwww8.<ryississsssssyreO#wwwwwwwwwww9",
"wwwwwwwwwwww4 ,rryysssssssatr2.>99wwwwwww9w99",
"wwwwwwwwwwww9-&*rrissassiiyr,&%8wwwwwww9wwww9",
"wwjuwwwwwwwwww%@<ryiiiiatrr,-@uwwwwww9w999999",
"wwu9www9ww9www9>.8rrtttt7trX-wwwwwwwwww998999",
"wwwwt9w9wwwwwwOX=md1ZAAA1dC:O.wwwwwwww9989899",
"www9989999wwwwOX&3dCAAAACd1*O.wwwwwwww9989988",
"w9w9998999ww9O$%&&dAAAAAAf&*&$O4wwwwww9999989",
"ww99899899ww4 %>7:dADDDDAd:61- 3wwwwww99989e9",
"www9989999w8>.1pn6fSGGGHSg1ng4.>999wwwwwwwwww",
"ww99988999w- w71 CAAnhhnZAZ.*67o@wwwwwwwww99w",
"w9w9899999w-%KJF *fSGHHHSf* VJK7@wwwwwwwwwwww",
"wwwww9u9www8375= 0lcNNNNclq.$5748wwwwwwwwwwww",
"wwww9w9wwwww8%-@.jzvvvvvvzj O;-8wwwwwwwwwwwww",
"wwwwwwwwwwwww99> jvBBBBBBvz.%wwwwwwwwwwwwwwww",
"wwwwwwwwwwwwwww3 jvBMvMBBvk -wwwwwwwwwwwwwwww",
"wwwwwwwwwwwwwww3 qxBz++kMxk -wwwwwwwwwwwwwwww",
"wwwwww9999999ww3.jzj+>>ojkj.-uwwwwwwwwwwwwwww",
"wwwww9999999uww3 -:; >> bbb.-jwwwwwwwwwwwwwww",
"wwwwww9899899ww3 &&- 34Opd7@-uwwwwwwwwwwwwwww",
"wwwww99998989993X4t8o399o o8999w9wwwwww99999w",
"wwwwww8989933>>>>--->>>>-%->>:>-3jwwww9999999",
"wwwww99998899>>>>>>>>>>>>:>>>>-89uwwww9988988",
"wwwwww99999999899989899998988889999wwww998999",
"wwwwww9w99w9ww9uwwwwwwwwwwwwwwww9uwwww9989898",
"wwwwwwwwwwwwwwwwwwwwwwwwwwwwwwwwwwwwww9999998",
"wwwwwwwwwwwwwwwwwwwwwwwwwwwwwwwwwwwwwww999999",
"wwwwwwwwwwwwwwwwwwwwwwwwwwwwwwwwwwwwwwww9www9",
"wwwwwwwwwwwwwwwwwwwwwwwwwwwwwwwwwwwwwwww99ww9",
"wwwwwwwwwwwwwwwwwwwwwwwwwwwwwwwwwwwwwwwwwwww9"
};
