/* XPM */
static char *result[] = {
/* columns rows colors chars-per-pixel */
"45 45 115 2 ",
"   c #030303",
".  c #0D0B0B",
"X  c #110F0E",
"o  c #15100F",
"O  c #141312",
"+  c #1A1513",
"@  c #1B1816",
"#  c #1C1B1B",
"$  c #241917",
"%  c #241C1B",
"&  c #2B1E1D",
"*  c #2C211E",
"=  c #32221E",
"-  c #1F2528",
";  c #212121",
":  c #2D2423",
">  c #21272A",
",  c #2C2C2C",
"<  c #332522",
"1  c #392622",
"2  c #352B25",
"3  c #3D2925",
"4  c #352D2A",
"5  c #3C2D2A",
"6  c #35302B",
"7  c #3C332C",
"8  c #3E382D",
"9  c #2D373D",
"0  c #2E393E",
"q  c #333333",
"w  c #3B3534",
"e  c #3D3D3D",
"r  c #422D2A",
"t  c #482D29",
"y  c #45302D",
"u  c #49322E",
"i  c #40392E",
"p  c #473330",
"a  c #4C3532",
"s  c #4E3834",
"d  c #4A3E39",
"f  c #503935",
"g  c #5C3836",
"h  c #563E39",
"j  c #5A3E38",
"k  c #633E3B",
"l  c #454737",
"z  c #41403F",
"x  c #4D423D",
"c  c #4B4D3D",
"v  c #63413E",
"b  c #2E3940",
"n  c #323E45",
"m  c #36434B",
"M  c #3A454D",
"N  c #3C4850",
"B  c #444444",
"V  c #4B4B4B",
"C  c #545748",
"Z  c #414C54",
"A  c #455058",
"S  c #525252",
"D  c #5A5A5A",
"F  c #644B44",
"G  c #6A4D46",
"H  c #6D4F48",
"J  c #75554D",
"K  c #7D5A52",
"L  c #556248",
"P  c #58674B",
"I  c #657259",
"U  c #69785D",
"Y  c #656565",
"T  c #6A6A6A",
"R  c #76716B",
"E  c #767676",
"W  c #7D7A75",
"Q  c #7D7D7D",
"!  c #835F55",
"~  c #A45555",
"^  c #A65958",
"/  c #846057",
"(  c #84635A",
")  c #8F685E",
"_  c #996F64",
"`  c #9D7267",
"'  c #827F7A",
"]  c #A07368",
"[  c #B48376",
"{  c #B88477",
"}  c #BA8678",
"|  c #B58C7C",
" . c #BC8A7C",
".. c #C18B7D",
"X. c #838383",
"o. c #8D8D8D",
"O. c #929292",
"+. c #AA9680",
"@. c #BD9784",
"#. c #B29C86",
"$. c #B6A18B",
"%. c #BCA793",
"&. c #BDA994",
"*. c #C58F80",
"=. c #C49182",
"-. c #CA9485",
";. c #CF9989",
":. c #D19C8C",
">. c #C1AF9C",
",. c #D7A090",
"<. c #DBA593",
"1. c #C9B7A5",
"2. c #CEBBA9",
"3. c #D0BDAC",
"4. c #D2C0AE",
/* pixels */
"                                                                                          ",
"                  .                     .                                   .             ",
"      # # ; ; ; ; ; # - ; ; ; - ; ; # . . # ; # O # - ; ; ; ; ; ; ; ; - ; ; ; ; ; # ; ; ; ",
"    O B D T Y Y Y Y Y T Y Y S S V S 6 O O d S V @ 4 C Y Y T Y Y Y Y Y Y Y T Y Y T T Y Y T ",
"    - D Q X.X.X.X.X.X.X.X.Q @ . . X % 3 3 + X X 1 % @ Q X.X.X.X.X.X.X.X.X.X.X.X.X.X.X.X.X.",
"    % Y X.o.Q E E E E E T O = 1 1 1 r s s 3 1 1 a r = X D Q E Q E Q Q E E Q E Q Q X.o.O.O.",
"    ; Y X.Q D B B B B B e : $ & r t a f f u r t s a r : , q V V V S V V V V V V V Y X.o.O.",
"    ; Y X.Q B q , , , , , , O $ f f s f f f f f f f s s $ @ q e q e e e e e e q B S Q o.O.",
"    ; Y X.E B , , : , , > . y f f f f s f f f f f f f f r & X w m d e e B e e w n S Q o.O.",
"    - T X.E B , , > > , , . u f f f t r r a a r a f f f r 1 & # e S S S S S V e d S Q o.O.",
"  . % Y X.E B , , , : , : o y u f f h j 1 a f k f f f f t 3 & ; d D Y Y Y D D B e S Q o.O.",
"    ; Y X.E B , > , , O o = 3 r f h ) { t a G @.F h f f f r X D Y Y Y Y Y Y D e e S Q o.O.",
"    ; T X.E B , , , q , , o = r h ] -.-.{ G H *.} ! f f f 5 X D Y Y Y Y Y Y D n n S Q o.O.",
"    # T X.E B q , , q q , . 5 u h *._ J :.` ` -.J K ! t s p : w S Y Y Y Y Y D B d S Q o.O.",
"    ; Y X.E B , , , q q , o p f v ..H & <.;.;.;.& G { t a s r # w Y Y Y Y Y D e n S Q o.O.",
"    ; Y X.E B , , q q @ o r s v ^ *.H 2 <.<.<.;.2 J ..~ g 2 . D Y Y Y Y Y Y D B d V Q o.O.",
"    ; Y X.E B , , q q q > + r a k ..} [ <.<.<.<.[ } } g t 2 X D Y Y Y Y Y Y D e e S Q o.O.",
"    ; Y X.E B , , q q q 6 O = 1 p ] @.,.<.<.<.<.,. ._ r 1 : ; D Y Y Y Y Y Y D B e S Q o.O.",
"    ; Y X.E z 6 , q q q w q O + 5 r K  .<.<.<.<. .! r r @ % D T Y Y Y Y Y Y S e n C Q o.O.",
"    ; Y X.Q m q , q e q q q , > o r < 1 -.-.-. .2 < 5 X , B D Y Y Y Y Y Y Y D B d S Q o.O.",
"    ; Y X.E B w , q w e q e ; * $ x 6 < @.@.@.| < 2 x @ % q D Y Y Y Y Y Y Y D d n S Q o.O.",
"    ; T X.Q S B m z z B B B O o : P l 7 $.$.$.+.i l L & X # D Y Y Y Y Y Y Y D m d S Q o.O.",
"  . ; Y X.Q D V V B B B B B o o : P c x 2.3.1.+.d c L * X @ D Y Y Y Y Y Y Y D d e S Q o.O.",
"    ; Y X.Q D V B B V B z # @ & < U C x 4.4.3.>.x C I & & % > D Y Y Y Y Y D D m e V Q o.O.",
"    ; T X.Q D V B V B B m . * * < U C x 1.3.4.1.x C I * * * X D Y Y Y Y Y Y D d e S Q o.O.",
"    # T X.Q D V B V B V e . 4 2 : P c d #.1.4.1.x c L & 5 : X D Y Y Y Y Y Y D m e S Q o.O.",
"    ; Y X.Q D V B B B # + 4 7 , X < 4 x 2.&.%.1.x 4 : X , 7 , @ d Y Y Y Y Y D d e S Q o.O.",
"    ; Y X.Q D V V B V # + ) ( F . & < w ' R R W p : % . F ( ( + w Y Y Y Y Y S M e S Q O.O.",
"    ; T X.Q D V B V B * * =.[ ( . * : : m n n n , : * . / [ } : n Y Y Y Y Y D z e S Q o.O.",
"    ; Y X.X.D V B V B B e O O o . n n n n n n m n b 9 . o + @ S Y Y Y Y Y Y D z z S Q o.O.",
"    ; Y X.Q D V V B B B B q w > . n M N Z Z Z Z Z M 0 . > q V Y Y Y Y Y Y Y D z n S Q o.O.",
"    ; Y X.X.S V B B V V B V B q . n N A A Z Z A A M 0 . , V D Y Y Y Y Y Y D D z d V Q o.O.",
"    ; Y X.X.D V V B V B V V B , . b N A A m m N A N b . , V D Y Y Y Y Y Y Y D m e C Q o.O.",
"    # T X.Q S V V B B B B B B q X b N A m # - M A N b . , V D Y Y Y Y Y Y Y D d e S Q o.O.",
"    ; Y X.X.S V B B V V B V B , . n m m - , , - m m b   , V D Y Y Y Y Y Y D D m e S Q o.O.",
"    - T X.Q D V B V B B B B B q X 0 m 0 . B B X 9 m 0 . , V D Y Y Y Y Y Y Y D d e S Q o.O.",
"    - Y X.Q D V B B B V V V B , . 8 8 7 . B B . % & % . , V D Y Y Y Y Y Y Y D l e S Q o.O.",
"    % T X.Q D V V V B B B B B e , @ @ # B S B . 2 7 2 . , V D Y Y Y Y Y Y Y D M e S Q o.O.",
"    ; Y X.Q D V B B V B B B B e q X X O S S B o 8 i 8 o , B D Y Y Y Y Y Y Y S z e S Q o.O.",
"    ; Y X.X.D V B V V q q w , , , ; , 6 d m B e , , , , > w z V D Y Y Y Y Y D e e S Q o.O.",
"  . ; Y X.X.Y S V V S V V q q q , q e B B e B B e B e q q e B Y Y Y T T T Y D V B S Q o.O.",
"    ; Y X.X.T D D D D D D V V V B B V S S S S S S S V B B V S E E E E E E E T D D T X.o.O.",
"    ; Y X.O.X.Q X.Q X.Q X.Q Q Q Q Q X.X.X.X.X.X.X.X.X.Q Q X.X.X.X.X.X.X.X.X.X.Q Q X.o.O.O.",
"    - Y X.O.O.O.O.O.O.o.O.o.O.O.o.o.O.O.O.O.O.o.O.O.o.o.o.o.o.O.O.O.o.O.O.O.O.O.o.o.O.O.O.",
"    ; Y X.O.O.O.O.O.O.O.O.O.O.O.O.O.O.O.O.O.O.O.O.O.O.O.O.O.O.O.O.O.O.O.O.O.O.O.O.O.O.O.O."
};
