/* XPM */
static char *result[] = {
/* columns rows colors chars-per-pixel */
"45 45 108 2 ",
"   c #030303",
".  c #0D0C0B",
"X  c #100E0D",
"o  c #14110F",
"O  c #141312",
"+  c #1A1514",
"@  c #1C1B1A",
"#  c #231916",
"$  c #251C1A",
"%  c #291E1C",
"&  c #23211D",
"*  c #2C201E",
"=  c #33221E",
"-  c #1F2528",
";  c #212120",
":  c #2F2423",
">  c #2B2825",
",  c #2D2728",
"<  c #2C2C2C",
"1  c #352522",
"2  c #3A2723",
"3  c #342926",
"4  c #3D2A26",
"5  c #302E2D",
"6  c #3A2E2C",
"7  c #2F3429",
"8  c #373127",
"9  c #3C332C",
"0  c #333A2C",
"q  c #3C3B2F",
"w  c #2D2D30",
"e  c #2C353B",
"r  c #343434",
"t  c #383636",
"y  c #3C3C3C",
"u  c #422D2A",
"i  c #482D29",
"p  c #45312D",
"a  c #49322E",
"s  c #433B2E",
"d  c #423430",
"f  c #4C3632",
"g  c #453833",
"h  c #4F3835",
"j  c #493D39",
"k  c #503935",
"l  c #5A3C39",
"z  c #414134",
"x  c #2E3940",
"c  c #333F46",
"v  c #3F4240",
"b  c #344149",
"n  c #3C464E",
"m  c #3F4A52",
"M  c #454545",
"N  c #444A4D",
"B  c #4B4B4B",
"V  c #4E5641",
"C  c #535844",
"Z  c #434D55",
"A  c #475054",
"S  c #455058",
"D  c #525252",
"F  c #5A5A5A",
"G  c #6B4E47",
"H  c #6E4F48",
"J  c #76584E",
"K  c #6F5954",
"L  c #7D5B52",
"P  c #556248",
"I  c #687055",
"U  c #656565",
"Y  c #686767",
"T  c #6A6A6A",
"R  c #767676",
"E  c #7D7D7D",
"W  c #815C53",
"Q  c #A45555",
"!  c #886258",
"~  c #926B61",
"^  c #A6786C",
"/  c #A77E71",
"(  c #A58978",
")  c #AF897E",
"_  c #B18174",
"`  c #B88578",
"'  c #BD8A7C",
"]  c #A5917D",
"[  c #C3897C",
"{  c #838383",
"}  c #8D8D8D",
"|  c #929292",
" . c #A89581",
".. c #AF9D8A",
"X. c #B69A85",
"o. c #B49F88",
"O. c #B6A18B",
"+. c #B9A48E",
"@. c #BDAC9C",
"#. c #C69283",
"$. c #C99283",
"%. c #D29C8C",
"&. c #C2AE9A",
"*. c #DBA493",
"=. c #CAB7A4",
"-. c #CEBBA9",
";. c #D1BFAE",
":. c #D2C0AE",
/* pixels */
"                                                                                          ",
"                .             .           .         .             .           .         . ",
"      @ @ ; ; ; ; @ ; ; ; - @ @ ; @ ; ; @ ; ; ; ; - $ ; - @ ; ; ; ; ; ; ; - @ @ - @ ; ; ; ",
"    O M F Y Y Y Y Y Y Y Y Y Y Y Y Y Y < n K ; & M Y U U Y Y Y Y U U U U Y Y Y Y Y Y Y Y Y ",
"    @ F E { { { { { { { { { { { E R R + M U X X j R R { { { { { E { { { { E E { { { { { { ",
"  . ; Y { } E R R R R R R R R R y . . 1 # X 2 2 + . . T R R R E E E E R E E E E R ( } | | ",
"    @ Y { E F M M M M M M M M @ $ 6 d f u 2 f f p 4 = + O ; B B B B B B B B B B Z U { } | ",
"    - Y { R M r < w < w 7 < < - $ * k k a a k k f d p $ # $ > y t y y y y y y t b D E } | ",
"    ; Y { R M 7 < > < < < < < < @ + k k k k k k k k k 4 u 1 X y c j c j v v y t c D E } | ",
"    - Y { R M < , < ; < w 7 w O % u k f k k h k k k k p u 1 . B D A D D D D B y j S E } | ",
"    @ Y { R M < < > < w r r r O * f 2 4 f h h h k k k f a 1 O F U U U U U F F v c D E } | ",
"  . @ Y { R M < < < < w r r < + 1 k G 4 i h a f k k k f i 1 + B K U U U U U F v j D E } | ",
"    - Y { R M < < < r r r w X * u l #.h a f i a k k k p 6 2 1 O B U U U U U F v y D E } | ",
"    @ Y { R M < < w r r r r r @ : G $.' W G ' G k k k k i 1 X F U U U U U U F v y D E } | ",
"    ; Y { R M < < w r r t r t O h ! G ` / ~ G W H f i f d 2 $ t F U U U U F F M y D E } | ",
"    ; Y { R M < < w r r r r r O H / . _ %.#.. / ~ G i h f u 2 + D U U U U U F z c D E } | ",
"  . @ Y { R M < 7 w r t r r . % W / # $.*.#.# _ #.[ Q l f 1 X F U U U U U U F M c B E } | ",
"    - U { R M < w r r r r t w @ H $.#.*.*.*.#.#.#.` f i i 1 X U U U U U U U F y j D E } | ",
"    & Y { R M < < w r r t r r > g J %.*.*.*.*.$.^ L u u 1 ; r U U U U U U F F M c D E } | ",
"    - Y { R M w < w r t r r r r ; $ ' %.*.*.*.[ W u u u $ ; F U U U U U U U F y j D E } | ",
"    ; Y { R M r w r t t t t t t t t O _ #.$.$.* * u u o ; M F U U U U U U F F M c D E } | ",
"    - Y { E F v v M v M M M v y > O $ ( X.X.X.3 q V 1 . ; B F U U U U U U U F j j D E } | ",
"    @ Y { E F B M M M M M M M y - . *  .+.+.X.9 z V * & > c K U U U U U U U F v y D ~ } | ",
"  . @ Y { E F B B M B M M M M y $ . * @.:.;.o.j 9 6 * P 0 @ F U U U U U U U F y c D E | | ",
"    - Y { E F B M M B B M M M j ; X * @.:.:.-.d 3 6 % P 0 @ F U U U U U U U F v y D E } | ",
"    @ Y { E F B B M M M M B M c & . * ..=.:.:.p 3 6 : P 0 @ F U U U U U U U F v v D E } | ",
"    ; Y { E F B B M M B M M M y ; . * ] &.-.:.t 3 6 : P 0 @ F U U U U U U U F v y D E } | ",
"    ; Y { E F B M B M M B M M v ; X * @.&.O.:.d 3 6 % P 0 @ F U U U U U U F F v y D E } | ",
"  . - Y { R S A M B M M M M M y ; . * N Z Z Z , L #.#.I 0 @ F U U U U U Y F F v v D E } | ",
"    @ Y { ( F B M B M B M M M y ; o > c c c c 3 K ) ( C 7 > F U U U U U U U F M y D E } | ",
"    @ Y { E F B M M B M B M M y - O b b c b b b c x . . ; B F U U U U U U U F v y D E } | ",
"    - Y { E F B B M M M B M M y $ O Z Z Z S S b c x . r r B F U U U U U U U F z c D E } | ",
"    ; Y { { F B M M B M M B M y @ O S S m n S m m x . t t M F Y Y U U U U F F v j D E } } ",
"    - Y { E F N M B M M B M M y - O S Z b e m S m x . r y B F Y U U U U U U F v c D E } | ",
"    @ Y { E F B M M B B B M M y ; O S b - O x Z S m . r t N F U U U U U U U F M j D E } | ",
"  . @ Y { E F B B M M M M M M y ; O b b - X b Z S m . t y B F U U U U U U U F z c D E } | ",
"    - Y { E F B M M M B M M M y & . w w @ . - v M y . t t N F U U U U U U U F c v D E } | ",
"    @ Y { E F B B B M M B M M y & o * $ + . O 3 9 8 O t t B F U U U U U U U F v c S E } | ",
"    ; Y { R S B M M B M M M M O & s s * + O F O . O B y t B F U U U U U U U D v j D { } | ",
"    ; Y { ( F A M B N M M y r > > > 5 , 7 r M < ; < v r 7 y B U U U U U U U F v c D ~ } | ",
"    $ U { { U B B B B B B y y r < > w t y M M t r t y r < y B Y Y U Y Y Y Y F Z M F E } | ",
"    - U { { Y U F U U F F F M y y v M B B B B B B B M y y D T R R R R R R R T S F U { } | ",
"    - U { } { { { { { E { { E { E E { { { { { { { { { { E { { { { { { } { { { { E ( { | | ",
"    ; Y { | | } } } } } } } } } } } | | } } | | } | } } } | | } | | | | | | | | } } } | | ",
"    ; Y { | | | | | | | | | | | | | | | | | | | | | | | | | | | | | | | | | | | | | | | | "
};
