/* XPM */
static char *result[] = {
/* columns rows colors chars-per-pixel */
"45 45 108 2 ",
"   c #040303",
".  c #080505",
"X  c #090A06",
"o  c #0E0B0B",
"O  c #110D0E",
"+  c #15120F",
"@  c #1F100D",
"#  c #130E10",
"$  c #161113",
"%  c #1A1614",
"&  c #1C1916",
"*  c #1E171A",
"=  c #1F181A",
"-  c #221511",
";  c #241F16",
":  c #21191C",
">  c #311A16",
",  c #3A1A11",
"<  c #371F1A",
"1  c #27201C",
"2  c #29221D",
"3  c #2B2D1F",
"4  c #362219",
"5  c #3F211B",
"6  c #271E22",
"7  c #281E23",
"8  c #2D2323",
"9  c #292923",
"0  c #2F2429",
"q  c #312520",
"w  c #3A2722",
"e  c #332B25",
"r  c #31252A",
"t  c #352C28",
"y  c #2B3123",
"u  c #2F3924",
"i  c #303927",
"p  c #333628",
"a  c #39322F",
"s  c #323A2A",
"d  c #372A30",
"f  c #3D2E35",
"g  c #3F3037",
"h  c #3D3830",
"j  c #42241D",
"k  c #48221A",
"l  c #43291F",
"z  c #4F2A1F",
"x  c #5D2015",
"c  c #682719",
"v  c #462D21",
"b  c #482D21",
"n  c #493425",
"m  c #423C27",
"M  c #443E2D",
"N  c #533C26",
"B  c #413E33",
"V  c #6F3C28",
"C  c #3D432E",
"Z  c #39482C",
"A  c #3F4730",
"S  c #3F4C31",
"D  c #46402B",
"F  c #4B432D",
"G  c #4C492F",
"H  c #52412E",
"J  c #50492F",
"K  c #424D34",
"L  c #4A4833",
"P  c #524C33",
"I  c #445334",
"U  c #4B5435",
"Y  c #4B5937",
"T  c #46533A",
"R  c #49533A",
"E  c #4C5B3C",
"W  c #575137",
"Q  c #54563C",
"!  c #5D573E",
"~  c #54593D",
"^  c #6A4E33",
"/  c #4D603B",
"(  c #51613E",
")  c #564A46",
"_  c #4F5D40",
"`  c #595F42",
"'  c #7B5D40",
"]  c #546542",
"[  c #576846",
"{  c #5A6449",
"}  c #5C6D4C",
"|  c #5F714E",
" . c #6C6447",
".. c #7B6243",
"X. c #68764E",
"o. c #616F50",
"O. c #647451",
"+. c #687855",
"@. c #6C864D",
"#. c #759048",
"$. c #77845C",
"%. c #82A255",
"&. c #838E63",
"*. c #858B6B",
"=. c #8A9468",
"-. c #919A6C",
";. c #96AC6D",
":. c #B1B98E",
/* pixels */
"g g g g g g g g g g g g g g g g g g g g g g g g g g f f d f d f f f g g g g g g g g g g g ",
"g g g g g g g g g g g g g g g g g g g g g g g g g g f f f d d f f g g g g g g g g g g g g ",
"g g g g g g g g g g g g g g g g g g g g g g g v g g g f d f f f f g g g g g g g g g g g g ",
"g g g g g g g g g g g g g g g g g g g g g g g B g g g g f f f f g g g g g g g g g g g g g ",
"g g f B g g g g g g g g g g g g g g f f 0 : : : * * * f f f g g g g g g g g g g g g g g g ",
"g f f f g g g g g g g g g g g g g g B d : o . . . . . r f g g g g g g g g g g g g g g g g ",
"g g f B g g g g g g g g g g g g g g g o 8 R b < 5 5 5 . : g g g g g g g g g g g g g g g g ",
"g g B g g g g g g g g g g g g g g f O > w b b v 5 5 v L 7 $ g g g g g g g g g g g g g g g ",
"f g f g g g g g g g g g g g g g 8 O > 5 l n U v v 5 v Y I u O f g g g g g g g g g g g g g ",
"f f f g g g g g g g g g g g g g =   5 j b D E n j v M Y E Z   f g g g g g g g g g g g g g ",
"d f f f g g g g g g g g g g g g :   5 v G / E m v n ` _ E Z   f g g g g g g g g g g g g g ",
"f f f f g g g g g g g g g g g g : . b U ( ] ] } P n o.{ / Z   f g g g g g g g g g g g g g ",
"d d f f f f g g g g g g g g g g : X U ( [ } } } W n } } [ S   f g g g g g g g g g g g g g ",
"f f f f g g g g g g g g g g g g : X E [ _ T I T L H ` R I i   f g g g g g g g g g g g g g ",
"f d f f g g g g g g g g g g g g : o Y } s X X X i { v O X X   f g g g g g g g g g g g g f ",
"f f f f g g g g g g g g g g g g g r   ] | +.:.%.@.{ v #.;.*.  d g g g g g g g g g g g g f ",
"g g g g g g g g g g g g g g g g g d   _ | | +.| | { v } o.U   f g g g g g g g g f f g f f ",
"g g g g f g g g g g g g g g g g g d   E [ } } | | } P W ~ K   f g g g g g g g g g g g g f ",
"g g g g g g g g g g g g g g g g f r   S ] | O.| | O.} F L A   d g g g g g f g f f f f f f ",
"g g g g g g g g g g f g g g g g = . t 9 C ] -.X.$.=.| =. .4   f g g g g g g g f d f f f d ",
"g g g g f f g f g g g g g g g # @ 4 t 8 q p ] &...V *.V , # d B g g g g g g f f f d d f d ",
"g g f f f d f f f f g g g g g # @ 5 w 8 q q C O.^ c ' z - O B B g g g g g g f f d f f d f ",
"g f g f f f f d f f g g g g f # - v 5 q 8 q 8 I N x x w $ # f f g g g g g g f f k f f d d ",
"g g f f f d f d f f g g g f f # p { v 8 8 3 4 8 q w 7 r * # f f g g g g g g g f f f f f f ",
"g g g f f f d f f f f g f f d # & h o.t 8 q 2 8 k x 8 e % o g g g g g g g g g g g g g g g ",
"g g g f d f d f f g f f f f d o % t B 8 2 2 2 T Q P t t % O g g g g g g g g g g f g g g g ",
"g g g f f f f f f g g f f f d # % t t 2 2 1 2 _ _ A t t % O g g g g g g g g g g g g g g g ",
"g g g f f f f f g g g f d f d # % t t 2 1 1 2 E y . t t % # g g g g g g g g g g g g g g g ",
"g g g g f g g g g g g f f f f o % t t 2 2 2 2 2 $ . t t % O g g g g g g g g g g g g g g g ",
"g g g g f g g g g g g g f d f O y { { F D F D D h h ` { 9 # g g g g g g g g g g g g g g g ",
"g g g g g g g g g g g g B f f O 9 ~ ` P J J G J J G i s 9 6 g g g g g g g g g g g g g g g ",
"g g g g g g g g g g g g g v B $ ; m G P J J F J J F     6 g g g g g g g g g g g g g g g g ",
"g g g g g f f g g g f f f g g g * . M ) ! ! ! P W P   r g g g g g g g g g g g g g g g g g ",
"g g g g g f f f f f f f f f g g f 0 o n G P P D 2 + d B g g g g g g g g g g g g g g g g g ",
"g g g g f f f d f d f f f g g g g f * 6 e F M 1 : : B f g g f f f g g g g g g g g g g g g ",
"g g g g f f f f f f d f f g g g g f B . & a h O : d f B g g f f g g g g g g g f f f f f f ",
"g g g g g f f d d f f f g g g g g g g o * B ) ) 7 o B f f f f f f f g g g f f f f d f f f ",
"g g g g g g f f f d f f f g g r r 7 0 * * : : : * * 0 7 0 0 7 d f g g g g g f f d f d d f ",
"g g g g g g f f f f f f f g g f d 7 7 7 : 7 7 7 7 7 7 0 7 0 d f f g g g g g g f f f f f f ",
"g g g g g g f g f f g g g g g g d r r r r r 5 d 0 0 r r 0 d f f g g g g g g f f f d d f d ",
"g g g g g g g g f f g g g g g g g g g g g g g g g g g g g g g g g g g g g g f f f d f f d ",
"g g g g g g g g f f g g g g g g g g g g g g g g g g g g g g g g g g g g g g f f f f f f f ",
"g g g g g g g g g g g g g g g g g g g g g g g g g g g g g g g g g g g g g g g g f g g g f ",
"g g g g g g g g g g g g g g g g g g g g g g g g g g g g g g g g g g g g g g g g f f g g f ",
"g g g g g g g g g g g g g g g g g g g g g g g g g g g g g g g g g g g g g g g g g g g g f "
};
