/* XPM */
static char *result[] = {
/* columns rows colors chars-per-pixel */
"45 45 198 2 ",
"   c black",
".  c #020102",
"X  c #040303",
"o  c #0A0B08",
"O  c #0C0E0A",
"+  c #0F0B0D",
"@  c #120F0D",
"#  c #100C0E",
"$  c #120F0E",
"%  c #12120F",
"&  c #171311",
"*  c #161113",
"=  c #171614",
"-  c #181311",
";  c #181215",
":  c #1B1614",
">  c #1A1417",
",  c #141811",
"<  c #151911",
"1  c #161912",
"2  c #1D1816",
"3  c #1E1619",
"4  c #1F181B",
"5  c #20120F",
"6  c #241712",
"7  c #211C18",
"8  c #221C19",
"9  c #231C19",
"0  c #221D19",
"q  c #241D1A",
"w  c #241E1A",
"e  c #251E1B",
"r  c #21191D",
"t  c #271F1C",
"y  c #381D18",
"u  c #242115",
"i  c #26201C",
"p  c #27201C",
"a  c #29211E",
"s  c #2A211E",
"d  c #2A231F",
"f  c #262D1D",
"g  c #30251E",
"h  c #3F211B",
"j  c #3E251C",
"k  c #342F1F",
"l  c #251B20",
"z  c #241C20",
"x  c #251C20",
"c  c #251C21",
"v  c #261F20",
"b  c #271D22",
"n  c #292122",
"m  c #2B2623",
"M  c #2D2421",
"N  c #2E2521",
"B  c #2F2621",
"V  c #2B2324",
"C  c #2B2126",
"Z  c #2C2326",
"A  c #2E2227",
"S  c #2F2A23",
"D  c #2E2D21",
"F  c #2E2228",
"G  c #2E2328",
"H  c #2F2329",
"J  c #2F2429",
"K  c #312823",
"L  c #332B22",
"P  c #302C25",
"I  c #312F25",
"U  c #30252A",
"Y  c #32262C",
"T  c #34262C",
"R  c #34272C",
"E  c #322C29",
"W  c #35282E",
"Q  c #36282E",
"!  c #36282F",
"~  c #36292F",
"^  c #37292F",
"/  c #362A2F",
"(  c #333125",
")  c #343226",
"_  c #3C3724",
"`  c #363823",
"'  c #383B25",
"]  c #373329",
"[  c #39322E",
"{  c #3A372C",
"}  c #372A30",
"|  c #382A31",
" . c #3A2B32",
".. c #3B2B32",
"X. c #392C32",
"o. c #3B2C32",
"O. c #3B2D32",
"+. c #3B2C33",
"@. c #3B2D33",
"#. c #3B2E33",
"$. c #3C2C33",
"%. c #3C2D33",
"&. c #3C2E33",
"*. c #3B2D34",
"=. c #3C2C34",
"-. c #3C2D34",
";. c #3D2D34",
":. c #3C2E34",
">. c #3D2E34",
",. c #3D2F34",
"<. c #3D2E35",
"1. c #3D2F35",
"2. c #3E2F35",
"3. c #3E2E36",
"4. c #3E2F36",
"5. c #3F2F36",
"6. c #3F2F37",
"7. c #3F3633",
"8. c #3E3035",
"9. c #3E3036",
"0. c #3F3036",
"q. c #3F3037",
"w. c #42241D",
"e. c #42271E",
"r. c #482D20",
"t. c #482E21",
"y. c #493123",
"u. c #483424",
"i. c #493425",
"p. c #443927",
"a. c #493926",
"s. c #453F29",
"d. c #483E29",
"f. c #403D32",
"g. c #493F3B",
"h. c #46402A",
"j. c #47412A",
"k. c #4A432C",
"l. c #4B432C",
"z. c #49442C",
"x. c #4D452D",
"c. c #4D472E",
"v. c #4E472E",
"b. c #4F472F",
"n. c #4F482F",
"m. c #4F492F",
"M. c #504A2F",
"N. c #404533",
"B. c #494730",
"V. c #4D4930",
"C. c #4F4A31",
"Z. c #4C4B32",
"A. c #504930",
"S. c #514A30",
"D. c #524D32",
"F. c #514A34",
"G. c #534D37",
"H. c #534E37",
"J. c #455734",
"K. c #4B5334",
"L. c #4B5635",
"P. c #485A37",
"I. c #4B573F",
"U. c #495A38",
"Y. c #4B5C3B",
"T. c #4D5D3A",
"R. c #4B593D",
"E. c #535137",
"W. c #525038",
"Q. c #51573A",
"!. c #505F3F",
"~. c #4C603A",
"^. c #4E613C",
"/. c #50633E",
"(. c #534743",
"). c #4F5A40",
"_. c #505E41",
"`. c #515D42",
"'. c #565C40",
"]. c #575C40",
"[. c #575F42",
"{. c #526440",
"}. c #556543",
"|. c #556643",
" X c #566745",
".X c #576845",
"XX c #586946",
"oX c #58664A",
"OX c #5A6A49",
"+X c #5B6C4B",
"@X c #5C6C4B",
"#X c #5C6D4C",
"$X c #5D6E4D",
"%X c #5D6F4D",
"&X c #5E6F4E",
"*X c #5F704F",
"=X c #617150",
"-X c #647454",
/* pixels */
"q.q.q.q.q.q.q.q.q.q.q.q.q.q.q.q.q.q.q.q.q.q.q.q.q.q.4.%.........=.3.q.q.q.q.q.q.q.q.q.q.q.",
"q.q.q.q.q.q.q.q.q.q.q.q.q.q.q.q.q.q.q.q.q.q.q.q.q.q.4.%.........-.3.q.q.q.q.q.q.q.q.q.q.q.",
"q.q.q.q.q.q.q.q.q.q.q.q.q.q.q.q.q.q.q.q.q.q.q.q.q.q.4.%.o.o.o.o.:.4.q.q.q.q.q.q.q.q.q.q.q.",
"q.q.q.q.q.q.q.q.q.q.q.q.q.q.q.q.q.q.q.q.q.q.q.q.q.q.6.4.4.3.3.3.6.q.q.q.q.q.q.q.q.q.q.q.q.",
"q.q.q.q.q.q.q.q.q.q.q.q.q.q.q.q.q.q.q.q.q.q.q.q.q.q.6.6.6.6.6.6.6.q.q.q.q.q.q.q.q.q.q.q.q.",
"q.q.q.q.q.q.q.q.q.q.q.q.q.q.q.q.q.q.q.4           4 q.q.q.q.q.q.q.q.q.q.q.q.q.q.q.q.q.q.q.",
"6.q.6.q.6.q.q.q.q.q.q.q.q.q.q.q.q.q.+ 6 j y y y y 5 + q.q.q.q.6.q.q.q.q.q.q.q.q.q.q.q.q.q.",
"q.q.q.q.q.q.q.q.q.q.q.q.q.q.q.q.q.r f ' d.e.h e.p.` f r q.q.q.q.q.q.q.q.q.q.q.q.q.q.q.q.q.",
"4.4.4.6.6.q.q.q.q.q.q.q.q.q.q.1.J < J.~.K.r.w.a.L.~.J.< H <.q.6.q.q.q.q.q.q.q.q.q.q.q.q.q.",
">.>.,.6.6.q.q.q.q.q.q.q.q.q.q.}   P.~.~.K.t.i.T.~.~.~.P.  ~ q.6.q.q.q.q.q.q.q.q.q.q.q.q.q.",
"....o.3.6.q.q.q.q.q.q.q.q.q.q.}   P.~.~.K.y.}.}.^.~.~.P.  Q 4.6.q.q.q.q.q.q.q.q.q.q.q.q.q.",
"....o.3.6.q.q.q.q.q.q.q.q.q.q.}   P.~./.Q.y.$X$X X/.~.P.  ! q.6.q.q.q.q.q.q.q.q.q.q.q.q.q.",
"....o.3.6.q.q.q.q.q.q.q.q.q.q.}   P.{..X].y.$X$X@X.X{.P.  / q.q.q.q.q.q.q.q.q.q.q.q.q.q.q.",
"....o.3.6.q.q.q.q.q.q.q.q.q.q.}   Y.XX'.G.W.$X$X$X+XXXY.  } q.q.q.q.q.q.q.q.q.q.q.q.q.q.q.",
"%.%.&.5.6.q.q.q.q.q.q.q.q.q.q.}   !.[.H.F.*X*X*X%X$X#X!.  } q.q.q.q.q.q.q.q.q.q.q.q.q.q.q.",
"<.<.1.5.6.q.q.q.q.q.q.q.q.q.q.}   !.i.G.*X-X-X-X*X$X#X!.  } q.q.q.q.q.q.q.q.q.q.q.q.q.q.q.",
"q.q.q.q.q.q.q.q.q.q.q.q.q.q.q.}   !.i.G.*X-X-X-X*X$X#X!.  } q.q.q.q.q.q.q.6.q.6.6.6.6.6.6.",
"6.q.6.q.6.q.q.q.q.q.q.q.q.q.q.}   U.u.G.`.S S S `.OX|.U.  } q.q.q.q.q.q.q.q.q.9.4.4.4.4.4.",
"q.q.q.q.q.q.q.q.q.q.q.q.q.q.q.}   D g L I p p p I ) ( D   } q.q.q.q.q.q.q.6.9.>.&.%.%.%.%.",
"q.6.q.6.q.6.q.6.6.q.6.q.q.q.q.}   e p p p p p p p p p e   } q.q.q.q.q.q.q.6.9.%.O.o.o.o.o.",
"q.6.6.6.6.6.6.6.6.q.6.q.q.q.q.}   e p p p p p p p p p e   } q.q.q.q.q.q.q.6.4.$.o.........",
"q.6.6.&.@.+.+.#.&.1.6.q.q.q.q.}   e t p p p p p p p t e   } q.q.q.q.q.q.q.6.4.$.o.........",
"q.6.6.%.o.....o.$.<.6.q.q.q.q.}   0 t p p p p p p p t 0   } q.q.q.q.q.q.q.6.9.%.O.o.o.o.o.",
"q.6.6.%.o.....o.$.<.6.q.6.5.5.^   8 7 w p p p p p w 7 8   } q.q.q.q.q.q.q.6.9.&.@.+.+.+.+.",
"q.6.6.%.o.....o.$.<.6.4.:.o.o.R   8 8 i d d d N.P 2 $ 9 @ 3 } q.q.q.q.q.q.6.q.6.6.6.6.6.6.",
"q.6.6.%.o.o.o.O.%.1.6.3.-.....T   8 q a N B { ).] & X q q X J q.q.q.q.q.q.6.q.6.6.6.6.6.6.",
"q.6.6.>.$.%.%.&.>.4.6.3.=.....T   8 q s K ] &X] K - X q q X J q.q.q.q.q.q.q.q.q.q.q.q.q.q.",
"q.q.q.9.4.4.4.4.9.q.q.3.=.....T   8 q M f.=X=X=Xf.: X q q X J q.q.q.q.q.q.q.q.q.q.q.q.q.q.",
"q.6.6.6.6.6.6.6.6.q.6.4.:.o.o.R   R.C.b.A.D.D.D.A.v.V._._.o J q.q.q.q.q.q.q.q.q.q.q.q.q.q.",
"q.q.q.q.q.q.q.q.q.q.q.q.4.;.;.+.A 1 z.S.S.M.k.M.S.S.z., , Z *.q.q.q.q.q.q.q.q.q.q.q.q.q.q.",
"q.q.q.q.q.q.q.q.q.q.q.q.6.4.4.4.9.X j.n.x.l.u l.x.n.j.. 4 *.q.q.q.q.q.q.q.q.q.q.q.q.q.q.q.",
"q.q.q.q.q.q.q.q.q.q.q.q.6.6.6.6.6.X Z.E.B.k # k s.c.j.X q.q.q.q.q.q.q.q.q.q.q.q.q.q.q.q.q.",
"q.q.q.q.q.0.2.8.2.2.2.4.9.q.q.q.q.X oX-XI.X q.X _ m.h.X q.q.q.q.q.q.q.q.q.q.q.q.q.q.q.q.q.",
"q.q.q.q.q.5.>.%.%.%.%.>.9.q.q.q.q.X oX-XI.X q.X m [ E X q.q.q.q.q.q.q.q.q.q.q.q.q.q.q.q.q.",
"q.q.q.q.q.4.%.........%.2.q.q.q.q.| % O = | q.X 7.(.g.X q.6.6.6.6.q.q.q.q.6.q.6.6.6.6.6.6.",
"q.q.q.q.q.4.%.........%.2.q.q.1.U b ; * > b U ; v V n ; U J X.<.4.9.q.q.q.q.q.1.1.<.<.<.<.",
"q.q.q.q.q.4.%.........%.2.q.q.4.W c z z z x C x z z z l C Y  .$.<.4.q.q.q.6.9.-.%.$.$.$.$.",
"q.q.q.q.q.4.%.........%.2.q.q.q.q.J G G G G G G G G G F G @.%.o.:.4.q.q.q.6.9.%.O.o.o.o.o.",
"q.q.q.q.q.4.:.%.%.%.%.>.9.q.q.q.q.q.q.q.q.q.q.q.q.q.q.6.q.<.:.%.>.4.q.q.q.6.4.$.o.........",
"q.q.q.q.q.6.4.4.4.4.4.5.q.q.q.q.q.q.q.q.q.q.q.q.q.q.q.6.q.6.4.4.5.q.q.q.q.6.4.$.o.........",
"q.q.q.q.q.q.q.q.q.q.q.q.q.q.q.q.q.q.q.q.q.q.q.q.q.q.q.q.q.q.q.q.q.q.q.q.q.6.4.%.O.o.o.o.o.",
"q.q.q.q.q.q.q.q.q.q.q.q.q.q.q.q.q.q.q.q.q.q.q.q.q.q.q.q.q.q.q.q.q.q.q.q.q.6.0.,.&.%.%.%.%.",
"q.q.q.q.q.q.q.q.q.q.q.q.q.q.q.q.q.q.q.q.q.q.q.q.q.q.q.q.q.q.q.q.q.q.q.q.q.6.q.6.6.6.6.6.6.",
"q.q.q.q.q.q.q.q.q.q.q.q.q.q.q.q.q.q.q.q.q.q.q.q.q.q.q.q.q.q.q.q.q.q.q.q.q.6.q.6.6.6.6.6.6.",
"q.q.q.q.q.q.q.q.q.q.q.q.q.q.q.q.q.q.q.q.q.q.q.q.q.q.q.q.q.q.q.q.q.q.q.q.q.q.q.q.q.q.q.q.q."
};
