/* XPM */
static char *result[] = {
/* columns rows colors chars-per-pixel */
"45 45 112 2 ",
"   c #020101",
".  c #090607",
"X  c #0C0906",
"o  c #0D0B0A",
"O  c #110907",
"+  c #100C0E",
"@  c #0F110D",
"#  c #12110D",
"$  c #13180F",
"%  c #130E10",
"&  c #161113",
"*  c #181215",
"=  c #161A11",
"-  c #1D1A15",
";  c #1E161A",
":  c #1F181B",
">  c #211B17",
",  c #221A1D",
"<  c #321F18",
"1  c #381D18",
"2  c #1F2319",
"3  c #27201C",
"4  c #29221D",
"5  c #2B2D1E",
"6  c #34231D",
"7  c #3E231C",
"8  c #27311F",
"9  c #261E21",
"0  c #291F24",
"q  c #2D2424",
"w  c #2E2923",
"e  c #2F2429",
"r  c #312520",
"t  c #332A25",
"y  c #3D2C24",
"u  c #30252A",
"i  c #352C29",
"p  c #38292F",
"a  c #2B3423",
"s  c #2F3925",
"d  c #343026",
"f  c #393324",
"g  c #36312A",
"h  c #383E2B",
"j  c #372A30",
"k  c #3D2E35",
"l  c #3F3037",
"z  c #3D3B30",
"x  c #42231C",
"c  c #572117",
"v  c #5D2015",
"b  c #542319",
"n  c #652215",
"m  c #682718",
"M  c #6A2F1E",
"N  c #402620",
"B  c #472D20",
"V  c #492E22",
"C  c #493424",
"Z  c #413C27",
"A  c #443D2A",
"S  c #4B3A29",
"D  c #693B28",
"F  c #3D4F26",
"G  c #3E4432",
"H  c #45402C",
"J  c #4B452D",
"K  c #4F492F",
"L  c #50492F",
"P  c #44532E",
"I  c #4D4530",
"U  c #434B34",
"Y  c #494934",
"T  c #444E3A",
"R  c #514B32",
"E  c #445433",
"W  c #4B5334",
"Q  c #4C5A37",
"!  c #4B563E",
"~  c #4D5B3B",
"^  c #55513A",
"/  c #5D563E",
"(  c #525C3D",
")  c #7B5D3F",
"_  c #4D603B",
"`  c #50623E",
"'  c #4F4540",
"]  c #544944",
"[  c #4D5640",
"{  c #4F5B40",
"}  c #555D45",
"|  c #585E45",
" . c #546344",
".. c #5A6245",
"X. c #556844",
"o. c #5C6B46",
"O. c #5A6449",
"+. c #5C6D4C",
"@. c #5F704E",
"#. c #6C6447",
"$. c #667552",
"%. c #697753",
"&. c #6D7B56",
"*. c #718D4D",
"=. c #77984D",
"-. c #75825C",
";. c #78855A",
":. c #7F8B63",
">. c #839D5B",
",. c #8A8B61",
"<. c #8E9367",
"1. c #A1AB82",
/* pixels */
"l l l l l l l l l l l l l l l l l l l l l l l l l l l p p k p k k k l l l l l l l l l l l ",
"l l l l l l l l l l l l l l l l l l l l l l l l l l l l l p p k k k l l l l l l l l l l l ",
"l l l l l l l l l l l l l l l l l l l l l l l l l l l p k l k p k k l l l l l l l l l l l ",
"l l l l l l l l l l l l l l l l l l l l l l l A l l l l l l l N l l l l l l l l l l l l l ",
"l l l l l l l l l l l l l l l l l l l j j j j j j j l l l l l l l l l l l l l l l l l l l ",
"l l l l l l l l l l l l l l l l l l l +             j l l l l l l l l l l l l l l l l l l ",
"l l l l l l l l l l l l l l l l l k + < y 1 1 1 1 1 . , l l l k l l l l l l l l l l l l l ",
"l l l l l l l l l l l l l l l l j , ; k S x 7 1 N N e , 0 l l l l l l l l l l l l l l l l ",
"k k l A l l l l l l l l l l l j 0 X B W W B x 7 N V Q 8 # p l l l l l l l l l l l l l l l ",
"k k k l l l l l l l l l l l l + O 1 B W W B x x C ~ _ _ E   p l l l l l l l l l l l l l l ",
"p k k k k N l l l l l l l l l + O x V W W B B I  ._ ~ _ E   i l l l l l l l l l l l l l l ",
"l p p l l l l l l l l l l l l + O N J ~ W V R | X.` _ _ E   j l l l l l l l l l l l l l l ",
"p p k l l l l l l l l l l l l + O C ~ X.( V o.@.+.X._ _ E   p k l l l l l l l l l l l l l ",
"p l p l l l l l l l l l l l l + $ ` X.o.| C O.+.+.+.X._ E   j l l l l l l l l l l l l l l ",
"l p k k l l l l l l l l l l l % = ~ @ o 2 ..C ^  .o . s Q   j l l l l l l l l l l l l l l ",
"l l l l k l l l l l l l l l l * = X.| P E +.C ^ +.F }  .!   j l l l l l l l l l l l l l l ",
"l l l l l l l l l l l l l l l + = o.1.>.*.+.S R +.=.1.:.!   p l l l l l l l l l l l l l l ",
"l l l l l l l l l l l l l l l + = +.+.@.@.+.+.^ C +.@.@. .  j l l l l l l l l k k l l k k ",
"l l l l l l l l l l l l l l l + = _ +.@.+.+.+.o...C O.X.E   j l l l l l l l l k k k k k k ",
"l l l l l k l k l l l l l l l + o U X.&.-.@.-.%.+.#.^ Y h   j l l l l l l l l k p k p p k ",
"l l l l l l l l l l l l l l l + o g E ;.,.$.,.;.%.,.S y q   p l l l l l l l k k k p p k k ",
"l l k k p k k l k l l l l l l + o i r E o.<.m ) ,.n 6 t w   j l l l l l l k k k k k k p p ",
"l l l k k p p l p k k l l l A + o i r d G o.n M D x r t q   j l l l l l l l l k p p k k k ",
"l l k k k p k p k k l l l k l + o t r q d U b c b r 4 t w   j l l l l l l l k k k k p k p ",
"l k l k k p k k k k k l k j j + O y 6 q q r r r q t t t q   p l l l l l l l l l l l k l l ",
"l l k k p k k p k k l k k k k o = o.w q r r v x t +.w q q   p l l l l l l l l l l l l l k ",
"l k l k l l k p k l l l k p o , w z o > 4 < 6 A ~ +.i t w   p l l l l l l l l l l l l l l ",
"l l l l l l N l k l l k k p   0 i t   - , 3 3 H  .[ g i w   j l l l l l l l l l l l l l l ",
"l l l l l l l l l l l l k j   q i t   - 3 3 3 G { 3 i i q   p l l l l l l l l l l l l l l ",
"l l l l l l l l l l l l k j   3 i t   ; 3 3 3 4 q 3 t i w   p l l l l l l l l l l l l l l ",
"l l l l l l l l l l l l l k   T O.| Z A H H H H H H | O.[   j l l l l l l l l l l l l l l ",
"l l l l l l l l l l l l k k % G [ ! L R L L L K L K O. .T o j l l l l l l l l l l l l l l ",
"l l l l l l k k k k k k l l l %     R R L K H J L L L 5 . l l l l l l l l l l l l l l l l ",
"l l l l l l k k k k k k l l l k u   K R K A X 5 / / / 6 . l l l l l l l l l l l l l l l l ",
"l l l l l k k k p k p p l l l l e   I I Z # u , > ` Q 8 . l l l l l l l l l l l l l l l l ",
"l l l l k k k p k p k k k l l l u   H Y f   k ; X _ ` 8 . k k k k k l l l l l k k k k k k ",
"l l l l l l p k p k k p l l l l u   j z e   k , @ `  .a o l j k k l l l l l k k k k k k k ",
"l l l l l l k k k k p k l l l l u   ' ] l . k l i .   : k k k k k k l l l l k k p k j k j ",
"l l l l l l k k k k k k l l u u 0 * q q q & u 0 , & & : 9 e j k k k l l l l l k k p k j k ",
"l l l l l l k k k k k l l l u 0 0 : : , : : 0 0 : , , : 9 e k l l l l l l l k k p k j k j ",
"l l l l l l l l l l l l l l l u 0 e 0 e 0 e 0 0 0 e 0 0 e l l l l l l l l l l k k p j k k ",
"l l l l l l l l l l l l l l l l l l l l l l l l l l l l l l l l l l l l l l l k k k k k p ",
"l l l l l l l l l l l l l l l l l l l l l l l l l l l l l l l l l l l l l l l l C k l l l ",
"l l l l l l l l l l l l l l l l l l l l l l l l l l l l l l l l l l l l l k l l l l l l l ",
"l l l l l l l l l l l l l l l l l l l l l l l l l l l l l l l l l l l l l l l l l l l l l "
};
