/* XPM */
static char *result[] = {
/* columns rows colors chars-per-pixel */
"45 45 101 2 ",
"   c #030202",
".  c #080607",
"X  c #090B07",
"o  c #0D0C0B",
"O  c #100C0E",
"+  c #0E100C",
"@  c #12110F",
"#  c #19110B",
"$  c #151212",
"%  c #1B1615",
"&  c #131810",
"*  c #1E1619",
"=  c #241811",
"-  c #211719",
";  c #211A1D",
":  c #381D18",
">  c #1A2114",
",  c #27211C",
"<  c #29231D",
"1  c #262E1C",
"2  c #2B2D1F",
"3  c #36241C",
"4  c #3D231B",
"5  c #26301D",
"6  c #271E22",
"7  c #2A1F25",
"8  c #2C2324",
"9  c #2C2A24",
"0  c #2F2328",
"q  c #322620",
"w  c #332B25",
"e  c #392821",
"r  c #31252B",
"t  c #352B29",
"y  c #2A3221",
"u  c #2F3924",
"i  c #343123",
"p  c #3C3526",
"a  c #3F3925",
"s  c #363128",
"d  c #39332B",
"f  c #3B3C2E",
"g  c #372A30",
"h  c #3D2E35",
"j  c #3F3037",
"k  c #43241D",
"l  c #512119",
"z  c #612014",
"x  c #642D1F",
"c  c #6A2D1D",
"v  c #462C20",
"b  c #482E21",
"n  c #473426",
"m  c #493425",
"M  c #4B3926",
"N  c #4C3A2A",
"B  c #553E27",
"V  c #413E33",
"C  c #3F4432",
"Z  c #4B442C",
"A  c #51492F",
"S  c #414734",
"D  c #4D4C31",
"F  c #4B4C3B",
"G  c #504632",
"H  c #5B4331",
"J  c #524C33",
"K  c #475636",
"L  c #4A5937",
"P  c #4C513E",
"I  c #4D5C3E",
"U  c #54513A",
"Y  c #5B553C",
"T  c #54583D",
"R  c #765A3C",
"E  c #4C603A",
"W  c #525E42",
"Q  c #546543",
"!  c #586043",
"~  c #576748",
"^  c #5A6649",
"/  c #576848",
"(  c #5C6C4C",
")  c #5F724D",
"_  c #696144",
"`  c #606B4C",
"'  c #7A6243",
"]  c #79704E",
"[  c #616F51",
"{  c #637352",
"}  c #6E7D53",
"|  c #6C8B44",
" . c #6C864D",
".. c #75825C",
"X. c #768260",
"o. c #828760",
"O. c #818D63",
"+. c #8B8B61",
"@. c #849269",
"#. c #8A9468",
"$. c #959F76",
/* pixels */
"j j j j j j j j j j j j j j j j j j j j j j j j j j h h g g h h h j j j j j j j j j j j j ",
"j j j j j j j j j j j j j j j j j j j j j j j j j j h h h g h g h h j j j j j j j j j j j ",
"j j j j j j j j j j j j j j j j j j j j j j j j j j j h g h h g h h j j j j j j j j j j j ",
"j j j j j j j j j j j j j j j j j j j j j j j j j j j j V h h V j j j j j j j j j j j j j ",
"j j j j j j j j j j j j j j j j j j V g g g g g g g j j h h h j j j j j j j j j j j j j j ",
"j j j j j j j j j j j j j j j j j j V .           . j V h h j j j j j j j j j j j j j j j ",
"j j j j h j j j j j j j j j j j j h . : 4 : : 4 v 3 . g j j j j j j j j j j j j j j j j j ",
"j j j j V j j j j j j j j j j j 7 O 0 v v : k v N F j $ 7 j j j j j j j j j j j j j j j j ",
"h j j j h j j j j j j j j j j g * # M b k k k M D E E > > r j j j j j j j j j j j j j j j ",
"h h j h j j j j j j j j j j j O = M E m k 4 m L E E E E y o j j j j j j j j j j j j j j j ",
"g h g V j j j j j j j j j j j O 1 L E m b m Q L I E E E y O j j j j j j j j j j j j j j j ",
"g g h h h j j j j j j j j j j O 5 E Q m G ! ) Q Q E E E 1 o j j j j j j j j j j j j j j j ",
"h g h h h j j j j j j j j j j O 5 E / m U ( ( ^ / Q E E 1 o j j j j j j j j j j j j j j j ",
"g h h h j j j j j j j j j j j O 5 Q ~ N J ( ^ ^ / / Q E 1 O j j j j j j j j j j j j j j j ",
"h h h n j j j j j j j j j j j O       Q J e       + ( W y O j j j j j j j j j j j j j j h ",
"h h h h j j j j j j j j j j j O F $.| ( J M | $.X.Q ( & * g j j j j j j j j j j j j j j h ",
"j j j j j j j j j j j j j j j O S O. .) U N  .@.} [ ) X ; j j j j j j j j j j j j j j j h ",
"j j j j j j j j j j j j j j j O y Q ( ) U N ^ ^ ( [ ( o * j j j j j j j j j j h j h h j h ",
"j j j j j j j j j j j j j j j O y Q ( ) [ ^ b b U ( I X ; j j j j j j j j j j h h h h h h ",
"j j j j j h j j j j j j j j n O 5 Q #.{ } +.^ o._ b w 9 % $ j j j j j j j j h h g h h h h ",
"j j j j h h j h j j j j j j j 7 , u  ...] ' ..' H e 9 t 8 % ; h j j j j j j h h h g g h l ",
"j j j h h g h h h j j j j j j j * X I X.R c +.x k 8 3 w w ,   h j j j j j h h h g h h h h ",
"j j j h h g h g h h j j j j j h * X w K B z z q 8 2 8 w t ,   h j j j j j j j h h h g g g ",
"j h h h h g h h h h j j j j h h * + ) s w q q q 8 q 8 w t 8   h j j j j j j h h h g h h h ",
"j h h h h g h h h h j h h h h g * X V w k l q 8 3 w W d t ,   j j j j j j j j j h j j h j ",
"j j j h h h h g h h j h h g h g *   t q k l < < w f ( d t ,   h j j j j j j j j j j h j j ",
"j j h h h h h h h h j h h h g h *   e s 9 ; , , C ~ Q s t ,   h j j j j j j j j j j j j j ",
"j j j j h h h h j j j j h g g h * . t t % X , , C Q 8 w w 8   h j j j j j j j j j j j j j ",
"j h j j h j j j j j j h h g h g *   t t %   < , 9 w ; w t ,   j j j j j j j j j j j j j j ",
"j j j j h h j j j j j j h h h h - X F W a < p p a a a F P f   h j j j j j j j j j j j j j ",
"j j j j j j j j j j j h V h h j 6 O ^ ^ T A A D G A J ( [ K   h j j j j j j j j j j j j j ",
"j j j j j j j j j j j V h j j j h g     < A J Z Z A J J Z i   h j j j j j j j j j j j j j ",
"j j j j j h h h h h h h h j j j j j g . 8 Y J Y Y Y Y Z < $ g j j j j j j j j j j j h V h ",
"j j j j j h h h h h h h h j j j j j j 6 , q Z J U J J < * 6 j j j j j j j j j j j j V j h ",
"j j j j h h h g h g h h h j j j j j j j 6 X a D D D n + ; j j j j j j j j j j j h j h j h ",
"j j j j h h h h h h g h h j j j j j j j j g   W / W   t j j h h h j j j j j j h j h h h h ",
"j j j j j j h h g h g h j j j j V j j j - O ` [ ( W   g j j j h h j j j j j j h h h h h h ",
"j j j j j h h h h g h h j j h g r r r 0 6 * r g 9 9 @ 0 0 0 0 g h h j j j h V g h g h g h ",
"j j j j j j h h h h h h j j j g 0 7 7 7 6 - - - * * ; 7 7 0 0 g h j j j j h j h g h g h h ",
"j j j j j j h j h h j h j j j h g 7 0 7 7 7 0 0 0 0 0 7 7 0 j j j j j j j j j h g h h g g ",
"j j j j j j j j h h j j j j j j j j j j j j j j j j j j j j j j j j j j j j h h h g h h h ",
"j j j j j j j j j h j j j j j j j j j j j j j j j j j j j j j j j j j j j j j h g h h h g ",
"j j j j j j j j j j j j j j j j j j j j j j j j j j j j j j j j j j j j j j j j h j h j h ",
"j j j j j j j j j j j j j j j j j j j j j j j j j j j j j j j j j j j j j j j j j h j j h ",
"j j j j j j j j j j j j j j j j j j j j j j j j j j j j j j j j j j j j j j j j j j j j j "
};
