/* XPM */
static char *result[] = {
/* columns rows colors chars-per-pixel */
"64 64 90 1 ",
"  c black",
". c #020202",
"X c #060606",
"o c #070707",
"O c gray3",
"+ c #090909",
"@ c #1B1B1B",
"# c #222222",
"$ c gray14",
"% c gray16",
"& c #2A2A2A",
"* c gray17",
"= c #2C2C2C",
"- c #2D2D2D",
"; c gray18",
": c gray19",
"> c #313131",
", c #323232",
"< c gray20",
"1 c #343434",
"2 c #353535",
"3 c gray21",
"4 c #373737",
"5 c gray22",
"6 c #393939",
"7 c gray23",
"8 c #3C3C3C",
"9 c gray24",
"0 c #3E3E3E",
"q c gray25",
"w c #414141",
"e c gray26",
"r c #434343",
"t c #444444",
"y c gray27",
"u c #464646",
"i c gray28",
"p c #484848",
"a c #494949",
"s c gray29",
"d c #4B4B4B",
"f c #4C4C4C",
"g c gray30",
"h c #4E4E4E",
"j c gray31",
"k c #505050",
"l c #515151",
"z c gray32",
"x c #535353",
"c c gray33",
"v c #555555",
"b c #565656",
"n c gray34",
"m c #585858",
"M c gray35",
"N c #5A5A5A",
"B c gray36",
"V c #5D5D5D",
"C c gray37",
"Z c #5F5F5F",
"A c #606060",
"S c #626262",
"D c #646464",
"F c #656565",
"G c gray40",
"H c #676767",
"J c #686868",
"K c #6D6D6D",
"L c gray43",
"P c gray44",
"I c gray47",
"U c gray48",
"Y c #7B7B7B",
"T c #7C7C7C",
"R c gray49",
"E c #7E7E7E",
"W c gray50",
"Q c #818181",
"! c #838383",
"~ c #848484",
"^ c #868686",
"/ c gray53",
"( c #898989",
") c #8B8B8B",
"_ c gray55",
"` c #8D8D8D",
"' c #8E8E8E",
"] c gray56",
"[ c #909090",
"{ c gray57",
/* pixels */
"                                                                ",
"                                                                ",
"   .o++++++++++++++++++++++++++++++++++++++++++++++++++++++o.   ",
"  .+@#$$$$$$$$$$$$$$$$$$$$$$$$$$$$$$$$$$$$$$$$$$$$$$$$$$$$#@+.  ",
"  X@xJLLLLLLLLLLLLLLLLLLLLLLLLLLLLLLLLLLLLLLLLLLLLLLLLLLLLJx@X  ",
"  O#HQ((((((((((((((((((((((((((((((((((((((((((((((((((((QH#O  ",
"  +$L({[`_)))))))))))))_)_____________________________``{{(L$+  ",
"  +$L([_EUIIIIIIIIIIIIIIYYYYYYYYYYYYYYYYYYYYYYYYYYYYYYRQ_[(L$+  ",
"  +$L(`EnprrrrrrrrrrrrruaffffffffffffffffffffffffffffflVQ`(L$+  ",
"  +$L(_Up3:::::::::::::,677777777777777777777777777777wlT_(L$+  ",
"  +$L()Ir:%%%%%%&&&&&&*-,122222222222223455555555554327fY_(L$+  ",
"  +$L()Ir:%%%%%&*=====-;<1222222222222350qwwwwwwwwq0537fY_(L$+  ",
"  +$L()Ir:%%%%&*:>,,,,,<1222222222222240knMMMMMMMMnk047fY_(L$+  ",
"  +$L()Ir:%%%%&=><111111222222222222225qnZSSSSSSSSZnq57fY_(L$+  ",
"  +$L()Ir:%%&&*-,1222222222222222222225wMSFFFFFFFFSMw57fY_(L$+  ",
"  +$L()Ir:%&*=-;<1222222222222222222225wMSFFFFFFFFSMw57fY_(L$+  ",
"  +$L()Ir:&*:>,<12222222222222222222225wMSFFFFFFFFSMw57fY_(L$+  ",
"  +$L()Ir:&=><1122222222222222222222225wMSFFFFFFFFSMw57fY_(L$+  ",
"  +$L()Ir:&=,12222222222444444444444225wMSFFFFFFFFSMw57fY_(L$+  ",
"  +$L()Ir:&=,12222222224800000000008425wMSFFFFFFFFSMw57fY_(L$+  ",
"  +$L()Ir:&=,12222222237ahjjjjjjjjha735wMSFFFFFFFFSMw57fY_(L$+  ",
"  +$L()Ir:&=,12222222249hcbbbbbbbbch945wMSFFFFFFFFSMw57fY_(L$+  ",
"  +$L()Ir:&=,12222222240jbmmmmmmmmbj045wMSFFFFFFFFSMw57fY_(L$+  ",
"  +$L()Ir:&=,12222222240jbmmmmmmmmbj045wMSFFFFFFFFSMw57fY_(L$+  ",
"  +$L()Ir:&=,12222222240jbmmmmmmmmbj045wMSFFFFFFFFSMw57fY_(L$+  ",
"  +$L()Ir:&=,12222222240jbmmmmmmmmbj045wMSFFFFFFFFSMw57fY_(L$+  ",
"  +$L()Iy,=;<23333332240jbmmmmmmmmbj045wMSFFFFFFFFSMw57fY_(L$+  ",
"  +$L(_Up3:,466666653240jbmmmmmmmmbj045wMSFFFFFFFFSMw57fY_(L$+  ",
"  +$L(`Ecyqqrrrrrreq5340jbmmmmmmmmbj045wMSFFFFFFFFSMw57fY_(L$+  ",
"  +$L(`Wmsyyuuuuuuye6340jbmmmmmmmmbj045wMSFFFFFFFFSMw57fY_(L$+  ",
"  +$L(`WNfiiiiiiiiur6340jbmmmmmmmmbj045wMSFFFFFFFFSMw57fY_(L$+  ",
"  +$L(`WNfiiiiiiiiur6340jbmmmmmmmmbj045wMSFFFFFFFFSMw57fY_(L$+  ",
"  +$L(`WNfiiiiiiiiur6340jbmmmmmmmmbj045wMSFFFFFFFFSMw57fY_(L$+  ",
"  +$L(`WNfiiiiiiiiur6340jbmmmmmmmmbj045wMSFFFFFFFFSMw57fY_(L$+  ",
"  +$L(`WNfiiiiiiiiur6340jbmmmmmmmmbj045wMSFFFFFFFFSMw57fY_(L$+  ",
"  +$L(`WNfiiiiiiiiur6340jbmmmmmmmmbj045wMSFFFFFFFFSMw57fY_(L$+  ",
"  +$L(`WNfiiiiiiiiur6340jbmmmmmmmmbj045wMSFFFFFFFFSMw57fY_(L$+  ",
"  +$L(`WNfiiiiiiiiur6340jbmmmmmmmmbj045wMSFFFFFFFFSMw57fY_(L$+  ",
"  +$L(`WNfiiiiiiiiur6340jbmmmmmmmmbj045wMSFFFFFFFFSMw57fY_(L$+  ",
"  +$L(`WNfiiiiiiiiur6340jbmmmmmmmmbj045wMSFFFFFFFFSMw57fY_(L$+  ",
"  +$L(`WNfiiiiiiiiur6340jbmmmmmmmmbj045wMSFFFFFFFFSMw57fY_(L$+  ",
"  +$L(`WNfiiiiiiiiur6340jbmmmmmmmmbj045wMSFFFFFFFFSMw57fY_(L$+  ",
"  +$L(`WNfiiiiiiiiur6340jbmmmmmmmmbj045wMSFFFFFFFFSMw57fY_(L$+  ",
"  +$L(`WNfiiiiiiiiur6340jbmmmmmmmmbj045wMSFFFFFFFFSMw57fY_(L$+  ",
"  +$L(`WNfiiiiiiiiur6340jbmmmmmmmmbj045wMSFFFFFFFFSMw57fY_(L$+  ",
"  +$L(`WNfiiiiiiiiur6340jbmmmmmmmmbj045wMSFFFFFFFFSMw57fY_(L$+  ",
"  +$L(`WNfiiiiiiiiur6340jbmmmmmmmmbj045wMSFFFFFFFFSMw57fY_(L$+  ",
"  +$L(`WNfiiiiiiiiur6340jbmmmmmmmmbj045wMSFFFFFFFFSMw57fY_(L$+  ",
"  +$L(`WNfiiiiiiiiur6340jbmmmmmmmmbj045wMSFFFFFFFFSMw57fY_(L$+  ",
"  +$L(`WNfiiiiiiiiur6340jbmmmmmmmmbj045wMSFFFFFFFFSMw57fY_(L$+  ",
"  +$L(`WNfiiiiiiiiur6340jbmmmmmmmmbj045wMSFFFFFFFFSMw57fY_(L$+  ",
"  +$L(`WNfiiiiiiiiur6340jbmmmmmmmmbj045wMSFFFFFFFFSMw57fY_(L$+  ",
"  +$L(`WNfiiiiiiiiur6340jbmmmmmmmmbj045wMSFFFFFFFFSMw57fY_(L$+  ",
"  +$L(`WNfiiiiiiiiur6340jbmmmmmmmmbj045wMSFFFFFFFFSMw57fY_(L$+  ",
"  +$L(`QVlffffffffdiq89txNBBBBBBBBNxt90iBFJJJJJJJJFBi0wlT_(L$+  ",
"  +$L('~JCNNNNNNNNMnjghzADGGGGGGGGDAzhjvHKPPPPPPPPKHvjlVQ`(L$+  ",
"  +$L([`~QWWWWWWWWWETYTEQ!~~~~~~~~!QETTE~^////////^~ETRQ_[(L$+  ",
"  +$L({{''``````````____''''''''''''____]]]]]]]]]]]]__``{{(L$+  ",
"  O#HQ((((((((((((((((((((((((((((((((((((((((((((((((((((QH#O  ",
"  X@xJLLLLLLLLLLLLLLLLLLLLLLLLLLLLLLLLLLLLLLLLLLLLLLLLLLLLJx@X  ",
"  .+@#$$$$$$$$$$$$$$$$$$$$$$$$$$$$$$$$$$$$$$$$$$$$$$$$$$$$#@+.  ",
"   .o++++++++++++++++++++++++++++++++++++++++++++++++++++++o.   ",
"                                                                ",
"                                                                "
};
