/* XPM */
static char *result[] = {
/* columns rows colors chars-per-pixel */
"64 64 17 1 ",
"  c #3B2B32",
". c #3B2C32",
"X c #3B2D32",
"o c #3C2D33",
"O c #3C2E33",
"+ c #3D2D35",
"@ c #3C2E34",
"# c #3D2E34",
"$ c #3D2F34",
"% c #3D2E35",
"& c #3D2F35",
"* c #3E2E35",
"= c #3E2E36",
"- c #3E2F36",
"; c #3F2F36",
": c #3F2F37",
"> c #3F3037",
/* pixels */
">>>>>>>>>>>>>>>>>>>>>>>>>>>>>>>>>>>>>>>>>>>>>>>>>>>>>>>>>>>>>>>>",
">>>>>>>>>>>>>>>>>>>>>>>>>>>>>>>>>>>>>>>>>>>>>>>>>>>>>>>>>>>>>>>>",
">>>>>>>>>>>>>>>>>>>>>>>>>>>>>>>>>>>>>>>>>>>>>>>>>>>>>>>>>>>>>>>>",
">>>>>>>>>>>>>>>>>>>>>>>>>>>>>>>>>>>>>>>>>>>>>>>>>>>>>>>>>>>>>>>>",
">>>>>>>>>>>>>>>>>>>>>>>>>>>>>>>>>>>>>>>>>>>>>>>>>>>>>>>>>>>>>>>>",
">>>>>>>>>>>>>>>>>>>>>>>>>>>>>>>>>>>>>>>>>>>>>>>>>>>>>>>>>>>>>>>>",
">>>>>>>>>>>>>>>>>>>>>>>>>>>>>>>>>>>>>>>>>>>>>>>>>>>>>>>>>>>>>>>>",
">>::>>:>>:>>>>>>>>>>>>>>>>>>>>>>>>>>>>>>>::>>>>::>>>>>>>>>>>>>>>",
">>::-%+%-:>>>>>>>>>>>>>>>>>>>>>>>>>>>>>>>:=%%%%::>>>>>>>>>>>>>>>",
">>:-#X.X#:>>>>>>>>>>>>>>>>>>>>>>>>>>>>>>>:%XXXo-:>>>>>>>>>>>>>>>",
">>:=#. .#:>>>>>>>>>>>>>>>>>>>>>>>>>>>>>>>:+...o=:>>>>>>>>>>>>>>>",
">>:=#. .#:>>>>>>>>>>>>>>>>>>>>>>>>>>>>>>>:%XXXo-:>>>>>>>>>>>>>>>",
">>:=#. .#:>>>>>>>>>>>>>>>>>>>>>>>>>>>>>>>:*OOO@;:>>>>>>>>>>>>>>>",
">>:=#. .#:>>>>>>>>>>>>>>>>>>>>>>>>>>>>>>>::----::>>>>>>>>>>>>>>>",
">>:=#. .#:>>>>>>>>>>>>>>>>>>>>>>>>>>>>>>>::>>>>::>>>>>>>>>>>>>>>",
">>:-#X.X#:>>>>>>>>>>>>>>>>>>>>>>>>>>>>>>>>>>>>>>>>>>>>>>>>>>>>>>",
">>:;&OoO&:>>>>>>>>>>>>>>>>>>>>>>>>>>>>>>>>>>>>>>>>>>>>>>>>>>>>>>",
">>::--=--:>>>>>>>>>>>>>>>>>>>>>>>>>>>>>>>>>>>>>>>>>>>>>>>>>>>>>>",
">>::>>:>>:>>>>>>>>>>>>>>>>>>>>>>>>>>>>>>>>>>>>>>>>>>>>>>>>>>>>>>",
">>>>>>>>>>>>>>>>>>>>>>>>>>>>>>>>>>>>>>>>>>>>>>>>>>>>>>>>>>::>>::",
">>>>>>>>>>>>>>>>>>>>>>>>>>>>>>>>>>>>>>>>>>>>>>>>>>>>>>>>>>::>>::",
">>>>>>>>>>>>>>>>>>>>>>>>>>>>>>>>>>>>>>>>>>>>>>>>>>>>>>>>>>:-$$##",
">>>>>>>>>>>>>>>>>>>>>>>>>>>>>>>>>>>>>>>>>>>>>>>>>>>>>>>>>>:%oX..",
">>>>>>>>>>>>>>>>>>>>>>>>>>>>>>>>>>>>>>>>>>>>>>>>>>>>>>>>>>:+o.  ",
">>>>>>>::>:::::>>::>>>>>>>>>>>>>>>>>>>>>>>>>>>>>>>>>>>>>>>:+o.  ",
">>>>>>>:=%+++++%%::>>>>>>>>>>>>>>>>>>>>>>>>>>>>>>>>>>>>>>>:+o.  ",
">>>>>>>:%X.....Xo-:>>>>>>>>>>>>>>>>>>>>>>>>>>>>>>>>>>>>>>>:+o.  ",
">>>>>>>:+.     .o=:>>>>>>>>>>>>>>>>>>>>>>>>>>>>>>>>>>>>>>>:+o.  ",
">>>>>>>:+.     .o=:::>>:::::>>::>>>>>>>>>>>>>>>>>>>>>>>>>>:%oX..",
">>>>>>>:+.     .o=:::--=====--::>>>>>>>>>>>>>>>>>>>>>>>>>>:*@Ooo",
">>>>>>>:+.     .o=:::&OoooooO@;:>>>>>>>>>>>>>>>>>>>>>>>>>>::--==",
">>>>>>>:+.     .o=:::#X.....Xo-:>>>>>>>>>>>>>>>>>>>>>>>>>>::>>::",
">>>>>>>:%X.....Xo-:::#.     .o=:>>>>>>>>>>>>>>>>>>>>>>>>>>>>>>>>",
">>>>>>>:*OoooooO@;:::#.     .o=:>>>>>>>>>>>>>>>>>>>>>>>>>>>>>>>>",
">>>>>>>::-=====--::::#.     .o=:>>>>>>>>>>>>>>>>>>>>>>>>>>>>>>>>",
">>>>>>>::>:::::>>::::#.     .o=:>>>>>>>>>>>>>>>>>>>>>>>>>>>>>>>>",
">>>>>>>>>>>>>>>>>>>::#.     .o=:>>>>>>>>>>>>>>>>>>>>>>>>>>>>>>>>",
">>>>>>>>>>>>>>>>>>>::#X.....Xo-:>>>>>>>>>>>>>>>>>>>>>>>>>>>>>>>>",
">>>>>>>>>>>>>>>>>>>::-%+++++%%::>>>>>>>>>>>>>>>>>>>>>>>>>>>>>>>>",
">>>>>>>>>>>>>>>>>>>::>>:::::>>::>>>>>>>>>>>>>>>>>>>>>>>>>>>>>>>>",
">>>>>>>>>>>>>>>>>>>>>>>>>>>>>>>>>>>>>>>>>>>>>>>>>>>>>>>>>>>>>>>>",
">>>>>>>>>>>::>>::::>>::>>>>>>>>>>>>>>>>>>>>>>>>>>>>>>>>>>>>>>>>>",
">>>>>>>>>>>::%%++++%%=:>>>>>>>>>>>>>>>>>>>>>>>>>>>>>>>>>>>>>>>>>",
">>>>>>>>>>>:-oX....XX%:>>>>>>>>>>>>>>>>>>>>>>>>>>>>>>>>>>>>>>>>>",
">>>>>>>>>>>:-oX....XX%:>>>>>>>>>>>>>>>>>>>>>>>>>>>>>>>>>>>>>>>>>",
">>>>>>>>>>>:=o.    ..+:>>>>>>>>>>>>>>>>>>>>>>::>>>>::>>>>>::>>::",
">>>>>>>>>>>:=o.    ..+:>>>>>>>>>>>>>>>>>>>>>>::----::>>>>>::--==",
">>>>>>>>>>>:=o.    ..+:>>>>>>>>>>>>>>>>>>>>>>:;@OO@;:>>>>>:*@Ooo",
">>>>>>>>>>>:=o.    ..+:>>>>>>>>>>>>>>>>>>>>>>:-oXXo-:>>>>>:%oX..",
">>>>>>>>>>>:-oX....XX%:>>>>>>>>>>>>>>>>>>>>>>:-oXXo-:>>>>>:+o.  ",
">>>>>>>>>>>:;@OooooOO*:>>>>>>>>>>>>>>>>>>>>>>:;@OO@;:>>>>>:+o.  ",
">>>>>>>>>>>::--====--::>>>>>>>>>>>>>>>>>>>>>>::----::>>>>>:+o.  ",
">>>>>>>>>>>::>>::::>>::>>>>>>>>>>>>>>>>>>>>>>::>>>>::>>>>>:+o.  ",
">>>>>>>>>>>>>>>>>>>>>>>>>>>>>>>>>>>>>>>>>>>>>>>>>>>>>>>>>>:+o.  ",
">>>>>>>>>>>>>>>>>>>>>>>>>>>>>>>>>>>>>>>>>>>>>>>>>>>>>>>>>>:%oX..",
">>>>>>>>>>>>>>>>>>>>>>>>>>>>>>>>>>>>>>>>>>>>>>>>>>>>>>>>>>:=%%++",
">>>>>>>>>>>>>>>>>>>>>>>>>>>>>>>>>>>>>>>>>>>>>>>>>>>>>>>>>>::>>::",
">>>>>>>>>>>>>>>>>>>>>>>>>>>>>>>>>>>>>>>>>>>>>>>>>>>>>>>>>>>>>>>>",
">>>>>>>>>>>>>>>>>>>>>>>>>>>>>>>>>>>>>>>>>>>>>>>>>>>>>>>>>>>>>>>>",
">>>>>>>>>>>>>>>>>>>>>>>>>>>>>>>>>>>>>>>>>>>>>>>>>>>>>>>>>>>>>>>>",
">>>>>>>>>>>>>>>>>>>>>>>>>>>>>>>>>>>>>>>>>>>>>>>>>>>>>>>>>>>>>>>>",
">>>>>>>>>>>>>>>>>>>>>>>>>>>>>>>>>>>>>>>>>>>>>>>>>>>>>>>>>>>>>>>>",
">>>>>>>>>>>>>>>>>>>>>>>>>>>>>>>>>>>>>>>>>>>>>>>>>>>>>>>>>>>>>>>>",
">>>>>>>>>>>>>>>>>>>>>>>>>>>>>>>>>>>>>>>>>>>>>>>>>>>>>>>>>>>>>>>>"
};
