/* XPM */
static char *result[] = {
/* columns rows colors chars-per-pixel */
"64 64 86 1 ",
"  c #0F0D0B",
". c #120F0E",
"X c #14110E",
"o c #151111",
"O c #181313",
"+ c #1F1916",
"@ c #201916",
"# c #251C1B",
"$ c #291E1D",
"% c #2C211E",
"& c #31221E",
"* c #261E21",
"= c #2C2324",
"- c #2E2429",
"; c #362521",
": c #392622",
"> c #332A25",
", c #3D2A26",
"< c #32262B",
"1 c #352A2C",
"2 c #3D2C29",
"3 c #373127",
"4 c #3C322B",
"5 c #372A30",
"6 c #3C2D34",
"7 c #2C353B",
"8 c #3F3037",
"9 c #3F3833",
"0 c #30393D",
"q c #412C27",
"w c #422F2B",
"e c #482E2A",
"r c #44322D",
"t c #4B332F",
"y c #463431",
"u c #4C3632",
"i c #433B34",
"p c #4F3835",
"a c #4B3F3A",
"s c #503935",
"d c #5B3D39",
"f c #4D433E",
"g c #5D433E",
"h c #2E3940",
"j c #323D44",
"k c #35424A",
"l c #444A4E",
"z c #525A44",
"x c #434D55",
"c c #455058",
"v c #644641",
"b c #694C46",
"n c #6C4E48",
"m c #566249",
"M c #59664C",
"N c #69755D",
"B c #8D4C4B",
"V c #9E5956",
"C c #9B7166",
"Z c #A3766A",
"A c #A6796C",
"S c #AA7B6E",
"D c #AD8274",
"F c #A38C7A",
"G c #B38275",
"H c #B88577",
"J c #B08678",
"K c #B98678",
"L c #BC897A",
"P c #A7937F",
"I c #C2897C",
"U c #A59383",
"Y c #B49B86",
"T c #AE9F92",
"R c #B6A18B",
"E c #BAA58F",
"W c #BDAC9C",
"Q c #C68F81",
"! c #C59383",
"~ c #CB9485",
"^ c #D49F8E",
"/ c #DBA493",
"( c #CBB7A4",
") c #CBB8A5",
"_ c #CEBCA9",
"` c #D2C0AE",
/* pixels */
"8888888888888888888888888888w88888888888888888888888888888888888",
"8888888888888888888888888888hy8888888888888888888888888888888888",
"8888888888888888888888888865556w88866888888888888888888888888888",
"888888888888888888888888886O..O6886OO588888888888888888888888888",
"88888888888888888888862555<O  o<65<O.<6w888888888888888888888888",
"888888888888888888885O...oo&;;&o...;-.O6868888888888888888888888",
"88888888888888888886<o....X:qq;o...::.O<668888888888888888888888",
"886y8888888888888y5Oo&&;=;:tuut;;;:tt:-.O688888e6888888888888888",
"88888w6688888888886Oo=;,,qqussuq:,quuq:OO<5w66668888888888888888",
"88886656688888888885<oOruuupssssupupsuutwOO566668888888888888888",
"88hw665w688888888885<OOysssssssssssspssstOo-55668888888888888888",
"88w66665688888888y5oOrupssspssssssssssssu:&oO56h8888888888888888",
"8888666668888888885XXyssssputstsppussspsu5;.O<568888888888888888",
"8886666568888888885XXtssssuq,,quuqesssssuq:;;.O68888888888888888",
"8888656688888888661ootussssut,qupuusssssuqq;&OO58888888888888888",
"88686656668888886Oo&&,qussgSAt,tdSSdpsssuueO.<ww8888888888888888",
"88868666888888886*O&;:,upgnLLgtsgKKngsssspt..6888888888888888888",
"888668686888888865<O.;,ugDKIIHDgvKQKSgssspyO.5888888888888888888",
"8888888888888888686..:etvKIGJ~LnnL!GSbdsppyOO<588888888888888888",
"8888888888888888686OOeupgKG:3I^LL^Q1;SStqupywOO68888888888888888",
"8888888888888888y5<OOtpdvKG#$!/^~/!#$SIdeuutwOO58888888888888888",
"88888888888888885OO:,udBVIG&&!////!;5SIVBueOO5588888888888866666",
"88888888888888885OO;,udBVIGyu~////~uuSIVBu5..5888888888888666566",
"888888888888888885<OO6etgK~!!//////~QQIdee:..5888888888888666666",
"8888888888886668885OO<,qpSI^/////////LSsq5:OO6888888888888866666",
"888888886666e66688h6<OO,epvH~//////~Gvsr,.O<6w888888888888866656",
"888888886666666666886OO:5epZG^/////GZsw,<OO688888888888888866556",
"88888888666656566888w5<OO,,*>G~~~~D>#,,OO55888888888888888866665",
"8888888866556656666886<O.erX#DI!IID%Or4X.:5w88888888888888866665",
"888888886565655e68886O.#=zz=2FYYRYF>=zz=$.O688888888888888866666",
"888888886656666568865..$;mm>4FRRRRF3>mm:$.O588888888888888888666",
"888888886665655666685..$<zmifW__(RFf9mm>$.O688888888888888888866",
"88888888666666666686<XX$>MM9fW```EPf9MM>$Xo<5y888888888888888888",
"8888888666666666686oX#$%3NN9fW```)WfiNN3$##oO5888888888888888888",
"8888888886866668885..$%%>NNifW````WfiNN>$;% o5888888888888888888",
"8888888888886688882..>1=>mm9fPR```Wf9Mm>=3> .5888888888888888888",
"888888888888888866<oX34%=zm9fPR(_`Wf9zz=$21oO<588888888888888888",
"88888888888888885oo1111XX=>3fW(RE_Wf4>%Xo191<oO68888888888888888",
"88888888888888885..ifaiX.$%3fTWUUWEf3%% .iaaio.58888888888888888",
"88888888888888886.#J~HZ@ #%%>lcxxck>%%% +ZK!J#.58888888888888888",
"88888888888888885O$DQGC@ ====kkkkkh>=== +CJYS*O68888888888888888",
"8888888888888886665*#@+  7k70kkkkhkhkk7  +@#*<6y8888888888888888",
"8888888888866666665O... .kkkkkkkkkkkkkh.....o6888888888888888888",
"8888888888888666665<55< .kkckcckxxxxkkh..<5558888888888888888888",
"8888888888886666656r665o.kkkccckxcccckh..58888888888888888888888",
"888888888888866w5665655..hkkccckkxccckh..588888888888w8888888888",
"8888888888yh66556656665o.hkccckkhkccckh..5y888888886yh8888868888",
"88888888888w66w56565665..kkcckkoOkkcxkh..58888886668688888866666",
"8888888888886666666656<..hjxkk7oO7kkkk0.O68888865666888888866666",
"88888888888886665665686..hjjkOo15OOjkkh.O6888866y568888888666666",
"88888888888866666666565X.hjkh..55..7jj7.O5888686666y888888666656",
"88888888888886668668885X.9ii4..55. #%=#..5888868h666888888866655",
"88888888888888888868886Oo3443OO65o %$$$..58886888888888888866655",
"888888868888888888888885<O .o1656  3493..5888688888888888886655e",
"8888888888888888866666865o  o5885oo3yy6..5y666688888888888666666",
"88888888888888888<<<<<-<-*+**--<-===****-<<<<<568888888888666666",
"88888888888888888<-------****------=***=------568888888888888888",
"8888888888888888885<----------------=-=-----<6688888888888888888",
"8888888888888888888<<<-<---<-<----5-----5<<5<6888888888888888888",
"8888888888888888888586868866888886668688666666888888888888888888",
"8888888888888888888888888888888888888888888888888888888888888888",
"8888888888888888888888888888888888888888888888888888888888888888",
"8888888888888888888888888888888888888888888888888888888888888888",
"8888888888888888888888888888888888888888888888888888888888888888"
};
