/* XPM */
static char *result[] = {
/* columns rows colors chars-per-pixel */
"64 64 48 1 ",
"  c #3F3037",
". c #46312F",
"X c #423035",
"o c #4A3332",
"O c #4F3936",
"+ c #453339",
"@ c #493438",
"# c #4D383B",
"$ c #533735",
"% c #543A37",
"& c #583A37",
"* c #50363B",
"= c #533A3A",
"- c #5C3D3A",
"; c #633F3B",
": c #5B423D",
"> c #66413C",
", c #6B433F",
"< c #523F41",
"1 c #564143",
"2 c #5E4442",
"3 c #624642",
"4 c #6E4540",
"5 c #654943",
"6 c #6C4D44",
"7 c #604A48",
"8 c #6D4E48",
"9 c #724742",
"0 c #764844",
"q c #794A45",
"w c #6C514C",
"e c #745145",
"r c #72534A",
"t c #7B564B",
"y c #7F594B",
"u c #7A5D54",
"i c #835B4D",
"p c #865E50",
"a c #876051",
"s c #896355",
"d c #836359",
"f c #8D6759",
"g c #8E695B",
"h c #90695B",
"j c #8E6C60",
"k c #936D60",
"l c #957163",
"z c #997466",
/* pixels */
"  +=3tiiiiiiiiiiiiiiiiiit:O          +#-;;;;;;;;;;;;;;;;;;;*@XXX",
"  +#3tiiiiiiiiiiiiiiiiiit>+           =-;;;;;;;;;;;;;;;;;;;*@X X",
"++@=5tiiiiiiiiiiiiiiiiiit5:         X@=-;;;;;;;;;;;;;;;;;;;*@XXX",
"=#<25tiiiiiiiiiiiiiiiiiiyw1111   +< @@=;;;;;,;;;;;;;;;;;;;;;*<@<",
"3335riiiiiiiiiiiiiiiiiiiyurww2< X+#**=-;;;;;;;;;;;;;;;;;;;;;--<;",
"ttttyiiiiiiiiiiiiiiiiiiiidggju1+X+&-;-;;;;;;;;;;;;;;;;;;;;;,4999",
"iiiiiiiiiiiiiiiiiiiiiiiipglzlu7 X@--;;;;;;;;;;;;;;;;;;;;;;,490qq",
"iiiiiiiiiiiiiiiiiiiiiiiipglzlu1<X+--;;;;;;;;>;;;;;;;;;;;;;;49qqq",
"iiiiiiiiiiiiiiiiiiiiiiiiulzzzu7+X@-;;;;;;;;;;;;;;;;;;;;;;;;90qqq",
"iiiiiiiiiiiiiiiiiiiiiiiiduzzzu1+X@--;;;;;;;;;;;;;;;;;;;;;;;490qq",
"iiiiiiiiiiiiiiiiiiiiiiiisgzzzu1+X@--;;;;;;;;;;;;;,;;;;;;;;;49qqq",
"iiiiiiiiiiiiiiiiiiiiiiiiagzzzu1+++-;;;;;;;>;;;;;;;;;;;;;;;,49qqq",
"iiiiiiiiiiiiiiiiiiiiiiiiaglzzu7+X+=;;;;;;;;;;;;;;;;;;;;;;;;49qqq",
"iiiiiiiiiiiiiiiiiiiiiiiipglzzu1+X@-;;;;;;;;;;;;;;;;;;;;;;;;40qqq",
"iiiiiiiiiiiiiiiiiiiiiiiiaglzlu1 +@-;;;;;;;>;;;>;;;;;;;;;;;,49qqq",
"iiiiiiiiiiiiiiiiiiiiiiiiaglzzu1 X+--;;;;;;;;;;;;;;;;;;;;;;;49qqq",
"iiiiiiiiiiiiiiiiiiiiiiiipglzlu1:X@&;;;;;;;;;;;;;;;;;;;;;;;;99qqq",
"iiiiiiiiiiiiiiiiiiiiiiiipglzld1+X*&;;;;;;;;;;;;;;;;;;;,;;;;,9qqq",
"iiiiiiiiiiiiiiiiiiiiiiiiaglzlg1+X@;;;;;;;;;;;;;;;;;;;;;;;;,99qqq",
"iiiiiiiiiiiiiiiiiiiiiiiiajlzlu1+X@;;;;;;;;;;;;;;;;;;;;;;;;;90qqq",
"iiiiiiiiiiiiiiiiiiiiiiaaulzzzu1+XX*;;;;;;;;;;;;;;;;;;;;;,;;49qqq",
"iiiiiiiiiiiiiiiiiiiiiaffjzzzzu1+X<*;;;;;;;;;;;;;;;;;;;;;,499qqqq",
"iiiiiiiiiiiiiiiiiiiiafklzzzzzu1+X@&;;;;;;;;;;;;;,;;;;;;,00qqqqqq",
"iiiiiiiiiiiiiiiiiiiiaflzzzzzzu: X@-;;;;;;;;;;;;;;;;;;;,90qqqqqqq",
"qttyyaapppppaaaaaaaaaglzzlkkju: X<&-;;;;;;;;;;;;;;;,;;,,0q000999",
">,,6tsgggggfggffffffglzzldre,::   $$$$;,44999944944,9,90qq0,;;;;",
"oO::rgllllllllllllzllzzzju:::..   ...$;4000qqqq9q000q00qqq9;&$@o",
"..o:rjzzzzzlzzzzzzzzzzzlj,o ..    X...;9qqqqqqqqqqqqqqqqqq9;$...",
"..o:wgllllkklllllllkllllg6...   XXX..o;4qqqq0qqqqqqq000qq0,;$...",
"X..:2udddsddddsddssdddsdu:: ..  XXXX.o-;,4;4;,,,,,4;,,,,,,,&o..X",
" XX+::::::::::::::::::::::          XX@$$$$$&$$$$&$$$$$$$$*@XXXX",
"   . .ooOO.OooOoooOoooOo:         XXXXX.o.oo..oo.o..o.ooo..XXXXX",
"    . .:...:ooooooo.ooooX             X.........o............X  ",
"    :.::::::%%%%%%%%%%%%*X            Xo$o$oo$ooo$o$o.$o$$o.XX  ",
"   :::ee,,,,,t,teeeere0r4-<         XXo&&&;;&&;&&&&;&;&;&&&o@   ",
"  :::,yyiiiyyiyyyiyyyyyyt2          XX*;;;;;;;;;;;;;;;;;;;;$@X  ",
"   ::yayiiiiiiiiiiiiiiiit3@      XXXXX<&;;4;;;;;;;;;;;;;;;-*XXXX",
"  +:>yyaiiiiiiiiiiiiiiiit5#<<<   XXXX@<;;;;;;;;;;;;;;;;;;;;<*@ <",
"5::6,aiiiiiiiiiiiiiiiiiiptww77< XX@****;;;;;;;;;;;;;;;;;;;;;--<-",
"tttyyiiiiiiiiiiiiiiiiiiipdjjjw<  <$;;;;;;;;;;;;;;;;;;;;;;;;,4999",
"ypiiiiiiiiiiiiiiiiiiiiiipflzkd<< @*;;;;;;;;;;;;;;;;;;;;;;;;9900q",
"ypiiiiiiiiiiiiiiiiiiiiiiphlzkd<  X&;;;;;;;;;;;;;;;;;;;;;;;;990qq",
"iiiiiiiiiiiiiiiiiiiiiiiiphzzld<<X@<;;;;;;;;;;;;;;;;;;;;;;;;900qq",
"iiiiiiiiiiiiiiiiiiiiiiiipjkzld<<XX;;;;;;;;;;;;;;;;;;;;;;;;;90qqq",
"iiiiiiiiiiiiiiiiiiiiiiiipjkzjj< X@<;;;;;;;;;;;;;;;;;;;;;;;;,90qq",
"iiiiiiiiiiiiiiiiiiiiiiiiifkzlu<<X@&;;;;;;;;;;;;;;;;;;;;;;;,990qq",
"iiiiiiiiiiiiiiiiiiiiiiiipjlzjd< X *;;;;;;;;;;;;;;;;;;;;;;;;90qqq",
"iiiiiiiiiiiiiiiiiiiiiiiipjzzld<<X<&;;;;;;;;;;;;;;;;;;;;;;;;99qqq",
"iiiiiiiiiiiiiiiiiiiiiiiipfzzlu1 X*&;;;;;;;;;;;;;;;;;;;;;;;;90qqq",
"iiiiiiiiiiiiiiiiiiiiiiiipfkzjj1<Xo&;;;;;;;;;;;;;;;;;;;;;;;;99qqq",
"iiiiiiiiiiiiiiiiiiiiiiiipgzzlu<<X@;;;;;;;;;;;;;;;;;;;;;;;;;99qqq",
"iiiiiiiiiiiiiiiiiiiiiiiiphkzlu< X@;;;;;;;;;;;;;;;;;;;;;;;;;q9qqq",
"iiiiiiiiiiiiiiiiiiiiiiiiphzzkd<<X@*;;;;;;;;;;;;;;;;;;;;;;;;q9qqq",
"iiiiiiiiiiiiiiiiiiiiiiiipgkzld< X@&;;;;;;;;;;;;;;;;;;;;;;;;;9qqq",
"iiiiiiiiiiiiiiiiiiiiiippphzzlj<  @-;;;;;;;;;;;;;;;;;;;;;;;;q0qqq",
"iiiiiiiiiiiiiiiiiiipppffhkzzlu<<X@-;;;;;;;;;;;;;;;;;;;,,9q;90qqq",
"iiiiiiiiiiiiiiiiiiippfkzzzzzkd< X@*;;;;;;;;;;;;;;;;;;;;,qqqqqqqq",
"iiiyiiiiiiiiiiiiiiiipfkzzzzzkd<< @&;;;;;;;;;;;;;;;;;;;;90qqqqqqq",
"ttyyippppaaapaiappppphzzzkkjfu<XX@<;;;;;;;;;0;;;;;;;;;;90qqqq;00",
">>,6tsggfffffggfhhhhhkzzzdrw87<X @o*$;;;;0q;0;q099,999990q0;;;;;",
"::::rgkhkhklkkkkkkkkkkzzju3<-<XX X..o$;;90999990099909000q9;;&$$",
"..%:rjzzzzzzlzllzzzlzzzzjr&*@.XX @...$;9qqq0qqqqqq0qqq0qqq9;$ooo",
"..o:rgzzzzzzzzzzzzzzzzzzk8*...X XX...$;4qqqqqqqqqqqqqqqqqq9;$...",
"..O:ekzzzzzzzzzzzzzzzzzzkr$..XXX  ...o;9qqqqqqqqqqqqqqqqqq9;$o.."
};
